<svg width="31" height="25" viewBox="0 0 31 25" fill="none" xmlns="http://www.w3.org/2000/svg">
<path d="M20.0634 8.67822C21.1113 8.15428 21.9709 8.25528 23.0634 8.67822C23.7199 8.93237 24.0513 9.19516 24.5634 9.67822C25.3916 10.4595 26.0634 12.1782 26.0634 12.1782L28.0634 17.1782C28.0795 17.2255 30.0428 23.0147 30.0634 24.1782C30.0669 24.3735 30.0634 24.6782 30.0634 24.6782H18.5634L20.5634 20.1782L22.0634 17.1782C22.0634 17.1782 22.3393 16.4545 22.0634 16.1782C21.7873 15.9021 21.4025 15.9845 21.0634 16.1782C20.9122 16.2649 20.7574 16.7872 20.5634 17.1782C19.1273 20.0738 17.0634 24.6782 17.0634 24.6782H4.06343C4.06343 24.6782 3.37225 24.4869 3.06343 24.1782C2.75477 23.8696 2.65813 23.6043 2.56343 23.1782C2.47874 22.7971 2.47879 22.5593 2.56343 22.1782C2.65813 21.7521 2.75483 21.4869 3.06343 21.1782C3.37004 20.8716 4.054 20.6808 4.06343 20.6782H4.16988C4.09446 20.5996 4.0115 20.5134 3.92281 20.4204C3.49295 19.9697 2.92056 19.3652 2.35054 18.7534C1.78137 18.1425 1.21129 17.5193 0.788042 17.0327C0.577786 16.791 0.397116 16.5759 0.270463 16.4097C0.208574 16.3284 0.149701 16.2463 0.106401 16.1733C0.0857544 16.1385 0.0581376 16.0885 0.037065 16.0317C0.0265098 16.0033 0.0122175 15.9577 0.00483849 15.9028C-0.00188434 15.8523 -0.00832943 15.7531 0.0351119 15.6411L0.0800338 15.5522C0.129466 15.4749 0.18879 15.4298 0.217729 15.4097C0.262524 15.3785 0.303635 15.3605 0.325151 15.3521C0.368496 15.335 0.406621 15.3265 0.42476 15.3228C0.465315 15.3145 0.507283 15.3102 0.539018 15.3071C0.606909 15.3006 0.69549 15.2962 0.794878 15.2925C0.996862 15.2849 1.27906 15.2794 1.60933 15.2769C2.27134 15.2718 3.14782 15.276 4.02046 15.2827C4.89401 15.2894 5.76641 15.2988 6.41988 15.3071C6.74635 15.3113 7.01842 15.3152 7.20894 15.3179C7.30419 15.3192 7.37956 15.321 7.43062 15.3218C7.45613 15.3222 7.47601 15.3216 7.48921 15.3218C7.49562 15.3219 7.50055 15.3227 7.50386 15.3228H7.50874L7.72359 15.3257L7.8691 15.4839L7.87203 15.4868C7.87419 15.4892 7.87775 15.4932 7.88179 15.4976C7.89035 15.5068 7.90354 15.5208 7.91988 15.5386C7.95311 15.5746 8.00259 15.6277 8.06441 15.6948C8.18832 15.8295 8.36503 16.0225 8.5771 16.2534C8.62884 16.3098 8.68255 16.3685 8.73824 16.4292L10.8642 11.8755L10.9257 11.77C10.9491 11.7367 10.975 11.7051 11.0039 11.6763L11.0761 11.605L11.1699 11.5278C11.4028 11.3741 11.7188 11.4 11.9238 11.605L11.999 11.6958C12.0643 11.7937 12.0996 11.9094 12.0996 12.0288V12.1401C12.0996 12.2413 12.0821 12.3414 12.0478 12.436L12.0078 12.5288L11.5898 13.3667L11.5878 13.3687V13.3696C11.5874 13.3706 11.5859 13.3727 11.5849 13.3745C11.583 13.3782 11.5808 13.3842 11.5771 13.3911C11.5695 13.4055 11.5573 13.4263 11.5429 13.4536C11.5239 13.4897 11.499 13.5364 11.4697 13.5923C13.5023 13.2399 16.5634 13.6782 16.5634 13.6782L17.0634 13.1782C17.2565 12.9851 17.5568 12.1957 17.5634 12.1782C17.5634 12.1782 18.0499 10.8845 18.5634 10.1782C19.0507 9.50824 19.3226 9.04868 20.0634 8.67822ZM9.85347 16.9243C9.7851 17.0892 9.71616 17.2585 9.64937 17.4253C9.80835 17.5993 9.97164 17.7766 10.1337 17.9546C10.6983 18.5744 11.2633 19.1986 11.6855 19.6733C11.8962 19.9102 12.0745 20.1133 12.1992 20.2603C12.2606 20.3327 12.3131 20.3972 12.3515 20.4468C12.3696 20.4701 12.3921 20.4995 12.4111 20.5288C12.4196 20.5419 12.437 20.5695 12.4531 20.604C12.4594 20.6177 12.4685 20.6442 12.4785 20.6782H13.5634L15.0634 17.6782C15.0558 17.6782 12.0622 17.6781 11.0634 17.6782C10.7874 17.6783 10.3721 17.4869 10.0634 17.1782C9.97094 17.0857 9.90563 17.0048 9.85347 16.9243ZM1.61617 16.2769C1.56214 16.2773 1.50967 16.2783 1.45894 16.2788C1.48594 16.3102 1.51322 16.3434 1.54195 16.3765C1.95363 16.8498 2.51471 17.4629 3.08199 18.0718C3.64838 18.6797 4.2181 19.2809 4.64644 19.73C4.86047 19.9544 5.03995 20.1408 5.16499 20.271C5.18312 20.2899 5.19996 20.3083 5.21578 20.3247C5.24346 20.325 5.27398 20.3253 5.3066 20.3257C5.497 20.3278 5.7692 20.3312 6.09566 20.3345C6.74895 20.341 7.62019 20.3488 8.49214 20.354C9.36449 20.3592 10.2359 20.3618 10.8906 20.3579C10.9119 20.3578 10.9332 20.3571 10.9541 20.3569C10.9488 20.351 10.9437 20.3444 10.9384 20.3384C10.5202 19.8681 9.95766 19.2468 9.39351 18.6274C9.34329 18.5723 9.29228 18.5174 9.24214 18.4624C9.2228 18.513 9.20543 18.5598 9.18941 18.6021C9.15937 18.6812 9.13555 18.7448 9.1191 18.7886C9.11088 18.8104 9.10483 18.8279 9.10054 18.8394C9.09849 18.8449 9.09675 18.8491 9.09566 18.8521L9.09371 18.856V18.8569L9.0898 18.8667L8.67476 19.6958C8.6259 19.7935 8.55447 19.8777 8.46675 19.9409L8.37398 19.9966L8.33101 20.0181C7.90319 20.2318 7.40035 19.9202 7.40035 19.4419C7.40041 19.3481 7.42031 19.2554 7.45992 19.1704L8.28023 17.4106C8.12242 17.2384 7.97491 17.0763 7.84078 16.9302C7.62887 16.6994 7.45184 16.507 7.32808 16.3726C7.31056 16.3535 7.29362 16.3355 7.27828 16.3188C7.25268 16.3185 7.22494 16.3183 7.19527 16.3179C7.00516 16.3152 6.73333 16.3113 6.40718 16.3071C5.7548 16.2988 4.88469 16.2894 4.01363 16.2827C3.14183 16.276 2.27041 16.2719 1.61617 16.2769ZM17.5 0.321777C19.7091 0.321798 21.5 1.82179 21.5 4.32178C21.5 7.32176 19.7091 8.82176 17.5 8.82178C15.2908 8.82178 13.5 7.03092 13.5 4.82178C13.5 2.32178 15 0.321777 17.5 0.321777Z" fill="black"/>
</svg>
