<svg width="33" height="27" viewBox="0 0 33 27" fill="none" xmlns="http://www.w3.org/2000/svg">
<path d="M15.3438 23.0669H20.5967V24.0669H14.3438V21.8325C14.1581 22.0051 13.9535 22.1916 13.752 22.3833C13.3945 22.7231 13.0424 23.0673 12.7812 23.3413C12.7018 23.4247 12.6343 23.5003 12.5781 23.564C12.6503 23.6351 12.7416 23.7216 12.8535 23.8179C13.1761 24.0953 13.6138 24.4327 14.0605 24.7632C14.5055 25.0924 14.9517 25.4093 15.2871 25.644C15.4546 25.7613 15.5948 25.8581 15.6924 25.9253C15.7408 25.9586 15.7788 25.9847 15.8047 26.0024C15.8176 26.0113 15.8283 26.0184 15.835 26.0229C15.838 26.025 15.8402 26.0268 15.8418 26.0278L15.8438 26.0288L15.8447 26.0298L15.2822 26.856H15.2812C15.2808 26.8556 15.2802 26.8546 15.2793 26.854C15.2775 26.8528 15.2747 26.8513 15.2715 26.8491C15.2645 26.8444 15.2536 26.8368 15.2402 26.8276C15.2135 26.8093 15.1744 26.7825 15.125 26.7485C15.0257 26.6801 14.8838 26.5823 14.7139 26.4634C14.3743 26.2257 13.9203 25.9032 13.4658 25.5669C13.0133 25.2321 12.552 24.8775 12.2012 24.5757C12.0272 24.426 11.8684 24.2794 11.75 24.1489C11.6916 24.0846 11.6319 24.0122 11.584 23.936C11.5565 23.8923 11.5032 23.803 11.4795 23.686L11.4678 23.5601C11.4692 23.459 11.4986 23.3787 11.5146 23.3403C11.5334 23.2955 11.5558 23.2562 11.5742 23.2261C11.6114 23.1655 11.6579 23.1037 11.7031 23.0474C11.7952 22.9328 11.9187 22.7956 12.0566 22.6509C12.3351 22.3588 12.7026 22.0018 13.0635 21.6587C13.4254 21.3145 13.7872 20.9792 14.0576 20.731C14.1927 20.6069 14.3058 20.5039 14.3848 20.4321C14.424 20.3965 14.4554 20.3683 14.4766 20.3491C14.4871 20.3396 14.4955 20.3316 14.501 20.3267C14.5035 20.3244 14.5055 20.322 14.5068 20.3208L14.5088 20.3198V20.3188H14.5098L15.3438 19.5659V23.0669ZM24.8379 2.1499C25.3123 2.14167 25.7973 2.16002 26.21 2.2124C26.416 2.23856 26.6088 2.2735 26.7754 2.31982C26.9384 2.3652 27.094 2.42663 27.2129 2.51221L27.3721 2.63232C28.1338 3.23684 28.3949 3.89466 28.7383 4.78174L28.8486 5.09521C29.0856 5.83653 29.1817 6.64663 29.1689 7.36572C29.1616 7.77733 29.119 8.16534 29.0439 8.49854C28.9883 8.74513 28.9128 8.97279 28.8145 9.15967L28.708 9.33252C28.4601 9.67549 28.0847 10.0496 27.7812 10.3306C27.686 10.4187 27.5947 10.4972 27.5166 10.5659C27.6712 10.643 27.8683 10.7423 28.084 10.8589C28.5886 11.1316 29.2155 11.5007 29.6602 11.8696L29.9805 12.1479C30.699 12.8027 31.2284 13.505 31.7188 14.3774L31.8115 14.5542C32.2543 15.4524 32.3882 16.5991 32.415 17.5181C32.4295 18.0133 32.4137 18.4541 32.3936 18.77C32.3835 18.9279 32.3718 19.0557 32.3633 19.144C32.359 19.188 32.3561 19.223 32.3535 19.2466L32.3486 19.2808V19.2837L32.3213 19.5034H17.5254L17.4775 19.3149L17.7197 19.2534L17.4766 19.3149V19.312L17.4678 19.2769C17.4622 19.2534 17.4539 19.2189 17.4443 19.1753C17.425 19.0875 17.3992 18.9602 17.3711 18.8032C17.315 18.4892 17.2513 18.0511 17.2207 17.5562C17.1603 16.5772 17.2258 15.3257 17.7852 14.3735L18.1855 13.6978C18.5974 13.0228 19.06 12.3663 19.7256 11.8628L19.9316 11.7153C20.4332 11.3751 21.0666 11.0635 21.5889 10.8306C21.8442 10.7167 22.0768 10.6208 22.2598 10.5474C22.1874 10.4872 22.1042 10.4216 22.0205 10.3472C21.748 10.1048 21.4198 9.7832 21.1914 9.45557L21.1006 9.31494C20.9993 9.14616 20.915 8.87387 20.8516 8.56201C20.7866 8.242 20.7377 7.85285 20.7188 7.43311C20.6811 6.59744 20.7601 5.61132 21.0811 4.78174L21.2158 4.43896C21.5254 3.6651 21.8308 3.07052 22.6064 2.51221L22.6885 2.46143C22.7763 2.41533 22.8812 2.38063 22.9863 2.35205C23.1338 2.31199 23.3106 2.27762 23.5039 2.24951C23.8913 2.19321 24.3633 2.15815 24.8379 2.1499ZM7.69238 2.13916C8.16463 2.14366 8.63736 2.17557 9.03027 2.23291C9.2264 2.26155 9.40768 2.29731 9.56055 2.34033C9.70766 2.38178 9.85091 2.43565 9.95605 2.51123L10.1152 2.63232C10.8767 3.23692 11.1381 3.89465 11.4814 4.78174L11.5332 4.94189C11.5822 5.12155 11.6231 5.35503 11.6553 5.61279C11.699 5.9633 11.7293 6.38084 11.7393 6.81396C11.7564 7.56415 11.7134 8.39191 11.5586 9.01318L11.4854 9.26611C11.3339 9.71511 10.9233 10.1129 10.5918 10.3813C10.5161 10.4426 10.4404 10.4976 10.3711 10.5483C10.5501 10.6123 10.7675 10.6931 11.001 10.7905C11.6095 11.0446 12.3642 11.4184 12.8574 11.8794L13.1279 12.1421C13.7224 12.7445 14.0734 13.2894 14.46 14.1138L14.54 14.2944C14.9227 15.2209 15.0601 16.4253 15.1045 17.3989C15.1284 17.923 15.126 18.3903 15.1172 18.7261C15.1128 18.8939 15.1064 19.0298 15.1016 19.1235C15.0992 19.1702 15.0973 19.207 15.0957 19.2319C15.0949 19.2442 15.0942 19.2538 15.0938 19.2603C15.0936 19.2635 15.0939 19.2663 15.0938 19.2681L15.0928 19.27V19.271L15.0762 19.5024H0.241211L0.214844 19.2837V19.2827H0.213867V19.2808C0.213639 19.2789 0.213308 19.2755 0.212891 19.272C0.212006 19.2646 0.210616 19.2529 0.208984 19.2388C0.205702 19.2104 0.200984 19.1686 0.195312 19.1157C0.183906 19.0093 0.168627 18.8559 0.152344 18.6685C0.119762 18.2932 0.083988 17.7778 0.0703125 17.2222C0.0566781 16.6675 0.0651795 16.0666 0.123047 15.52C0.180196 14.9804 0.28779 14.4638 0.490234 14.0981L0.702148 13.728C0.909131 13.3818 1.10512 13.103 1.33203 12.8472C1.63458 12.5061 1.98499 12.2145 2.47266 11.8599L2.68066 11.7163C3.18493 11.3843 3.81561 11.0732 4.33594 10.8384C4.59135 10.7231 4.82372 10.6251 5.00586 10.5503C4.93265 10.4895 4.84858 10.4227 4.76367 10.3472C4.49123 10.1048 4.16299 9.78318 3.93457 9.45557L3.84375 9.31494C3.69226 9.06247 3.61267 8.68305 3.57031 8.28467C3.52691 7.87626 3.51878 7.40897 3.53418 6.95264C3.54963 6.49547 3.58815 6.04265 3.63867 5.66357C3.68814 5.2925 3.75268 4.96917 3.8252 4.78174L3.95898 4.43799C4.26859 3.66426 4.57396 3.06964 5.34961 2.51123L5.44336 2.45361C5.54242 2.39951 5.65775 2.35677 5.77734 2.32275C5.94067 2.27633 6.13083 2.23999 6.33398 2.2124C6.74059 2.15725 7.22036 2.13469 7.69238 2.13916ZM17.2842 0.145996C17.286 0.147165 17.2889 0.148753 17.292 0.150879C17.299 0.155662 17.31 0.16333 17.3232 0.172363C17.35 0.190661 17.3892 0.217541 17.4385 0.251465C17.5378 0.319853 17.6798 0.417803 17.8496 0.536621C18.1892 0.774285 18.6433 1.0969 19.0977 1.43311C19.5501 1.76787 20.0115 2.12259 20.3623 2.42432C20.5362 2.57392 20.6951 2.72062 20.8135 2.85107C20.8718 2.91536 20.9316 2.98793 20.9795 3.06396C21.007 3.1077 21.0603 3.19713 21.084 3.31396L21.0957 3.43994C21.0943 3.54105 21.0649 3.62123 21.0488 3.65967C21.0301 3.70457 21.0078 3.7437 20.9893 3.77393C20.9521 3.83457 20.9056 3.89625 20.8604 3.95264C20.7683 4.06722 20.6449 4.2043 20.5068 4.34912C20.2284 4.6412 19.8609 4.99815 19.5 5.34131C19.138 5.68548 18.7764 6.02071 18.5059 6.26904C18.3707 6.3931 18.2577 6.49608 18.1787 6.56787C18.1394 6.60357 18.1082 6.63166 18.0869 6.65088C18.0764 6.6604 18.068 6.66832 18.0625 6.67334C18.0599 6.67565 18.058 6.67791 18.0566 6.6792L18.0547 6.68018V6.68115H18.0537L17.2197 7.43408V3.93311H11.9668V2.93311H18.2197V5.16748C18.4055 4.99491 18.6099 4.80839 18.8115 4.6167C19.169 4.27679 19.5211 3.93265 19.7822 3.65869C19.8617 3.57527 19.9292 3.49971 19.9854 3.43604C19.9133 3.36496 19.8218 3.27832 19.71 3.18213C19.3874 2.9047 18.9496 2.56729 18.5029 2.23682C18.0581 1.90768 17.6117 1.59068 17.2764 1.35596C17.109 1.2388 16.9686 1.14187 16.8711 1.07471C16.8229 1.0415 16.7847 1.01527 16.7588 0.997559C16.746 0.988801 16.7352 0.981577 16.7285 0.977051C16.7256 0.975096 16.7232 0.973251 16.7217 0.972168L16.7197 0.971191L16.7188 0.970215L17.2812 0.144043H17.2822L17.2842 0.145996Z" fill="black"/>
</svg>
