<svg width="49" height="49" viewBox="0 0 49 49" fill="none" xmlns="http://www.w3.org/2000/svg">
<path d="M48 24C48 10.7453 37.2547 0 24 0C10.7453 0 0 10.7453 0 24C0 35.255 7.74912 44.6995 18.2026 47.2934V31.3344H13.2538V24H18.2026V20.8397C18.2026 12.671 21.8995 8.8848 29.9194 8.8848C31.44 8.8848 34.0637 9.18336 35.137 9.48096V16.129C34.5706 16.0694 33.5866 16.0397 32.3645 16.0397C28.4294 16.0397 26.9088 17.5306 26.9088 21.4061V24H34.7482L33.4013 31.3344H26.9088V47.8243C38.7926 46.3891 48.001 36.2707 48.001 24H48Z" fill="#0866FF"/>
<path d="M33.1475 31.4496L34.4944 24.1152H26.655V21.5213C26.655 17.6458 28.1757 16.1549 32.1107 16.1549C33.3328 16.1549 34.3168 16.1846 34.8832 16.2442V9.59616C33.8099 9.2976 31.1862 9 29.6656 9C21.6458 9 17.9488 12.7862 17.9488 20.9549V24.1152H13V31.4496H17.9488V47.4086C19.8054 47.8694 21.7475 48.1152 23.7462 48.1152C24.7302 48.1152 25.7008 48.0547 26.6541 47.9395V31.4496H33.1466H33.1475Z" fill="white"/>
</svg>
