<svg width="48" height="49" viewBox="0 0 48 49" fill="none" xmlns="http://www.w3.org/2000/svg">
<g clipPath="url(#clip0_165_3487)">
<path d="M24 4.82651C30.4125 4.82651 31.1719 4.85464 33.6938 4.96714C36.0375 5.07026 37.3031 5.46401 38.1469 5.79214C39.2625 6.22339 40.0688 6.74839 40.9031 7.58276C41.7469 8.42651 42.2625 9.22339 42.6938 10.339C43.0219 11.1828 43.4156 12.4578 43.5188 14.7921C43.6313 17.3234 43.6594 18.0828 43.6594 24.4859C43.6594 30.8984 43.6313 31.6578 43.5188 34.1796C43.4156 36.5234 43.0219 37.789 42.6938 38.6328C42.2625 39.7484 41.7375 40.5546 40.9031 41.389C40.0594 42.2328 39.2625 42.7484 38.1469 43.1796C37.3031 43.5078 36.0281 43.9015 33.6938 44.0046C31.1625 44.1171 30.4031 44.1453 24 44.1453C17.5875 44.1453 16.8281 44.1171 14.3063 44.0046C11.9625 43.9015 10.6969 43.5078 9.85313 43.1796C8.7375 42.7484 7.93125 42.2234 7.09688 41.389C6.25313 40.5453 5.7375 39.7484 5.30625 38.6328C4.97813 37.789 4.58438 36.514 4.48125 34.1796C4.36875 31.6484 4.34063 30.889 4.34063 24.4859C4.34063 18.0734 4.36875 17.314 4.48125 14.7921C4.58438 12.4484 4.97813 11.1828 5.30625 10.339C5.7375 9.22339 6.2625 8.41714 7.09688 7.58276C7.94063 6.73901 8.7375 6.22339 9.85313 5.79214C10.6969 5.46401 11.9719 5.07026 14.3063 4.96714C16.8281 4.85464 17.5875 4.82651 24 4.82651ZM24 0.504639C17.4844 0.504639 16.6688 0.532764 14.1094 0.645264C11.5594 0.757764 9.80625 1.17026 8.2875 1.76089C6.70312 2.37964 5.3625 3.19526 4.03125 4.53589C2.69063 5.86714 1.875 7.20776 1.25625 8.78276C0.665625 10.3109 0.253125 12.0546 0.140625 14.6046C0.028125 17.1734 0 17.989 0 24.5046C0 31.0203 0.028125 31.8359 0.140625 34.3953C0.253125 36.9453 0.665625 38.6984 1.25625 40.2171C1.875 41.8015 2.69063 43.1421 4.03125 44.4734C5.3625 45.8046 6.70313 46.6296 8.27813 47.239C9.80625 47.8296 11.55 48.2421 14.1 48.3546C16.6594 48.4671 17.475 48.4953 23.9906 48.4953C30.5063 48.4953 31.3219 48.4671 33.8813 48.3546C36.4313 48.2421 38.1844 47.8296 39.7031 47.239C41.2781 46.6296 42.6188 45.8046 43.95 44.4734C45.2812 43.1421 46.1063 41.8015 46.7156 40.2265C47.3063 38.6984 47.7188 36.9546 47.8313 34.4046C47.9438 31.8453 47.9719 31.0296 47.9719 24.514C47.9719 17.9984 47.9438 17.1828 47.8313 14.6234C47.7188 12.0734 47.3063 10.3203 46.7156 8.80151C46.125 7.20776 45.3094 5.86714 43.9688 4.53589C42.6375 3.20464 41.2969 2.37964 39.7219 1.77026C38.1938 1.17964 36.45 0.767139 33.9 0.654639C31.3313 0.532764 30.5156 0.504639 24 0.504639Z" fill="url(#paint0_linear_165_3487)"/>
<path d="M23.985 12.1743C17.1827 12.1743 11.6641 17.6951 11.6641 24.5C11.6641 31.305 17.1827 36.8258 23.985 36.8258C30.7872 36.8258 36.3059 31.305 36.3059 24.5C36.3059 17.6951 30.7872 12.1743 23.985 12.1743ZM23.985 32.4953C19.5719 32.4953 15.9928 28.9148 15.9928 24.5C15.9928 20.0853 19.5719 16.5047 23.985 16.5047C28.398 16.5047 31.9772 20.0853 31.9772 24.5C31.9772 28.9148 28.398 32.4953 23.985 32.4953Z" fill="url(#paint1_linear_165_3487)"/>
<path d="M39.6708 11.6869C39.6708 13.2803 38.3779 14.5645 36.7944 14.5645C35.2016 14.5645 33.918 13.271 33.918 11.6869C33.918 10.0935 35.211 8.80933 36.7944 8.80933C38.3779 8.80933 39.6708 10.1028 39.6708 11.6869Z" fill="url(#paint2_linear_165_3487)"/>
</g>
<defs>
<linearGradient id="paint0_linear_165_3487" x1="23.9859" y1="0.504639" x2="23.9859" y2="48.4953" gradientUnits="userSpaceOnUse">
<stop stopColor="#E98928"/>
<stop offset="1" stopColor="#D53292"/>
</linearGradient>
<linearGradient id="paint1_linear_165_3487" x1="23.985" y1="12.1743" x2="23.985" y2="36.8258" gradientUnits="userSpaceOnUse">
<stop stopColor="#E98928"/>
<stop offset="1" stopColor="#D53292"/>
</linearGradient>
<linearGradient id="paint2_linear_165_3487" x1="36.7944" y1="8.80933" x2="36.7944" y2="14.5645" gradientUnits="userSpaceOnUse">
<stop stopColor="#E98928"/>
<stop offset="1" stopColor="#D53292"/>
</linearGradient>
<clipPath id="clip0_165_3487">
<rect width="47.9719" height="47.9906" fill="white" transform="translate(0 0.504639)"/>
</clipPath>
</defs>
</svg>
