<svg width="76" height="71" viewBox="0 0 76 71" fill="none" xmlns="http://www.w3.org/2000/svg">
<path d="M37.7695 0.0067843C40.5835 -0.0358922 42.5149 0.133345 45.5859 0.541941L45.8018 0.570261L47.751 0.837839C49.5594 1.10208 51.0516 1.39595 53.1689 2.0605L54.042 2.34272C55.975 2.98948 57.253 3.5749 59.2471 4.59175L60.6367 5.30854C61.9147 5.98367 62.9288 6.59008 64.3203 7.63764L65.1924 8.30854C67.1159 9.8254 68.3158 11.0643 69.9219 13.2402L70.5332 14.0888C71.8697 15.9955 72.6089 17.4568 73.4893 19.8662L73.6641 20.3574C74.4908 22.7621 74.6493 24.3843 75.0146 26.9677L75.1484 27.9414C75.3947 29.7997 75.5129 31.1726 75.5234 33.0546L75.5195 34.0429C75.4984 35.8298 75.3701 37.034 75.1992 38.5029L75.0166 40.0927C74.7519 42.4855 74.6257 43.9974 74.207 46.1669L74.0088 47.1415C73.602 49.0431 73.3631 50.2616 72.7656 51.957L72.4863 52.7158C71.7981 54.5117 71.3271 55.6565 70.373 57.1533L69.9326 57.8193C69.4847 58.4742 68.843 59.2425 68.3232 59.8378C68.0615 60.1376 67.8272 60.398 67.6582 60.583C67.5737 60.6754 67.5053 60.7498 67.458 60.8007C67.4345 60.8261 67.4159 60.8459 67.4033 60.8593C67.3972 60.8659 67.3919 60.8705 67.3887 60.874C67.387 60.8757 67.3856 60.8779 67.3848 60.8789L67.3838 60.8798L67.3779 60.8867L67.0195 60.5371L67.3769 60.8867L67.3701 60.8935C67.3655 60.8982 67.3584 60.9061 67.3496 60.915C67.332 60.9328 67.3064 60.9589 67.2734 60.9921C67.2066 61.0594 67.1089 61.1564 66.9873 61.2763C66.744 61.5162 66.4018 61.8488 66.0049 62.2177C65.315 62.859 64.4448 63.6255 63.6396 64.2119L63.2998 64.4511C61.9072 65.3926 60.8759 65.8931 59.5947 66.4316L58.208 66.9999C56.6903 67.6183 55.7258 67.96 54.291 68.3505L53.6445 68.5214C51.8911 68.975 50.6766 69.1529 49.1894 69.3369L47.5811 69.5331C45.8209 69.7524 44.6322 69.8686 43.1514 69.956L41.541 70.0371C39.6271 70.1197 38.3378 70.1332 36.7383 70.0937L35 70.0371C32.7758 69.9518 31.3787 69.913 29.3564 69.6562L28.4473 69.5322C26.4631 69.2435 25.3312 68.9092 23.4219 68.5273C22.4566 68.3342 21.7071 68.2409 20.918 68.1123C20.2321 68.0005 19.5432 67.8658 18.7256 67.624L18.3672 67.5136C17.4178 67.2098 16.2679 66.697 15.3682 66.2685C14.9155 66.0529 14.52 65.856 14.2383 65.7128C14.0977 65.6414 13.9849 65.5833 13.9072 65.5429C13.8684 65.5227 13.8379 65.5068 13.8174 65.496C13.8072 65.4907 13.7993 65.4862 13.7939 65.4833L13.7861 65.4794H13.7852L13.7637 65.4677L13.7422 65.4531L10.7012 63.4257L7.13769 59.8623L7.11328 59.829L7.1123 59.8281C7.11167 59.8272 7.11056 59.8258 7.10937 59.8242C7.10688 59.8207 7.10336 59.8152 7.09863 59.8085C7.08889 59.7949 7.07403 59.7747 7.05566 59.749C7.01872 59.6972 6.9657 59.6212 6.89941 59.5273C6.76681 59.3395 6.58179 59.0767 6.37499 58.7753C6.06615 58.3253 5.70355 57.784 5.38671 57.2792L5.08886 56.791C4.30992 55.4691 3.81961 54.6213 3.28515 53.3085L3.05175 52.7138C2.6653 51.6915 2.4825 50.9649 2.26855 50.0956L2.03515 49.1621L2.00097 49.0273C1.62641 47.5729 1.38314 46.6301 1.13378 45.2431L1.02636 44.6191C0.807304 43.2968 0.693486 42.3991 0.604487 41.2822L0.520503 40.0673C0.389003 37.9034 0.388995 36.6707 0.520503 34.5068L0.564448 33.8701C0.672982 32.4569 0.827867 31.4957 1.02343 29.9736L1.23144 28.2431C1.41654 26.639 1.57196 25.3171 2.03417 23.4189L2.24902 22.5556C2.74187 20.6393 3.187 19.3446 4.06152 17.3378L4.7373 15.7978C5.37896 14.3759 5.981 13.236 7.12109 11.7353L7.62011 11.0996C8.75318 9.70595 9.70413 8.89178 11.2012 7.65229L11.2432 7.61714L12.1211 6.89643C12.9431 6.23486 13.6551 5.72142 14.7773 5.09956L15.2588 4.84272C16.3389 4.28714 17.1423 4.02686 18.3418 3.57026L19.0059 3.32221C22.2476 2.13299 24.3823 1.69994 27.9287 1.04585L29.1064 0.83198C31.727 0.367617 33.5502 0.135653 36.5029 0.0380343L37.7695 0.0067843ZM39.4336 13.9277C39.134 13.9277 38.7483 13.9402 38.335 13.9873C37.4806 14.0845 36.5923 14.4398 36.0186 15.0371C33.0301 18.1481 32.0195 25.5373 32.5195 35.0371C32.5195 37.0976 32.1778 40.3557 32.5186 42.5371C32.5186 48.0363 34.244 52.4169 34.5186 53.0371C35.1919 54.5575 35.6202 55.4654 36.4775 56.2197C37.2185 56.8715 38.2022 57.037 39.0186 57.0371C39.6494 57.0371 40.0192 57.0367 40.5518 56.2197C40.9891 55.7479 41.4239 55.1317 42.0186 54.5371C43.0185 53.5371 42.5186 54.5369 44.0186 52.0371C44.5185 51.5371 44.8394 49.2481 45.0186 48.5371C45.5708 46.3455 45.7585 44.1704 46.0186 41.5371C46.252 39.1731 46.0186 36.534 46.0186 34.0371C46.0185 29.0713 45.7809 24.2145 44.9336 20.9277C44.3975 18.848 43.8086 17.0692 42.9336 15.9277C41.808 14.4594 40.8116 13.9277 39.4336 13.9277Z" fill="#3AB7D0"/>
</svg>
