<svg width="76" height="71" viewBox="0 0 76 71" fill="none" xmlns="http://www.w3.org/2000/svg">
<path d="M38.2285 0.00629578C41.0425 -0.0363799 42.9739 0.132858 46.0449 0.541452L46.2607 0.569772L48.2099 0.83735C50.0184 1.10159 51.5106 1.39547 53.6279 2.06001L54.501 2.34223C56.434 2.98899 57.712 3.57444 59.706 4.59126L61.0957 5.30805C62.3737 5.98317 63.3878 6.58965 64.7793 7.63716L65.6514 8.30805C67.5748 9.82488 68.7749 11.0639 70.3808 13.2397L70.9922 14.0883C72.3287 15.995 73.0679 17.4565 73.9482 19.8657L74.123 20.3569C74.9498 22.7615 75.1083 24.384 75.4736 26.9672L75.6074 27.9409C75.8536 29.7992 75.9718 31.1723 75.9824 33.0541L75.9785 34.0424C75.9574 35.8292 75.8291 37.0336 75.6582 38.5024L75.4756 40.0922C75.2109 42.4849 75.0846 43.9971 74.666 46.1665L74.4678 47.1411C74.061 49.0425 73.822 50.2613 73.2246 51.9565L72.9453 52.7153C72.2571 54.5112 71.786 55.6562 70.832 57.1528L70.3916 57.8188C69.9438 58.4736 69.3019 59.242 68.7822 59.8373C68.5206 60.137 68.2862 60.3975 68.1172 60.5825C68.0328 60.6748 67.9643 60.7493 67.917 60.8002C67.8936 60.8254 67.8748 60.8454 67.8623 60.8588C67.8563 60.8652 67.8509 60.87 67.8476 60.8735C67.8461 60.8751 67.8446 60.8773 67.8437 60.8784L67.8428 60.8793L67.8369 60.8862L67.4785 60.5366L67.8359 60.8862L67.8291 60.893C67.8245 60.8977 67.8173 60.9056 67.8086 60.9145C67.791 60.9323 67.7653 60.9585 67.7324 60.9916C67.6656 61.0589 67.5678 61.156 67.4463 61.2758C67.203 61.5157 66.8607 61.8484 66.4639 62.2172C65.774 62.8584 64.9037 63.625 64.0986 64.2114L63.7588 64.4506C62.3662 65.3921 61.3348 65.8926 60.0537 66.4311L58.667 66.9995C57.1493 67.6178 56.1847 67.9596 54.75 68.35L54.1035 68.5209C52.3501 68.9745 51.1356 69.1524 49.6484 69.3364L48.04 69.5327C46.2799 69.7519 45.0911 69.8681 43.6103 69.9555L42 70.0366C40.086 70.1192 38.7968 70.1328 37.1973 70.0932L35.459 70.0366C33.2347 69.9513 31.8377 69.9125 29.8154 69.6557L28.9062 69.5317C26.9221 69.243 25.7902 68.9087 23.8808 68.5268C22.9156 68.3338 22.1661 68.2404 21.3769 68.1118C20.691 68 20.0022 67.8653 19.1846 67.6235L18.8262 67.5131C17.8767 67.2093 16.7268 66.6965 15.8271 66.268C15.3744 66.0524 14.9789 65.8555 14.6973 65.7123C14.5566 65.6409 14.4439 65.5828 14.3662 65.5424C14.3274 65.5222 14.2969 65.5063 14.2764 65.4956C14.2662 65.4902 14.2582 65.4857 14.2529 65.4829L14.2451 65.479H14.2441L14.2226 65.4672L14.2012 65.4526L11.1601 63.4252L7.59667 59.8618L7.57225 59.8286L7.57128 59.8276C7.57062 59.8267 7.56946 59.8252 7.56835 59.8237C7.56586 59.8202 7.56226 59.8146 7.5576 59.8081C7.54785 59.7944 7.53293 59.7741 7.51463 59.7485C7.47769 59.6967 7.4246 59.6206 7.35838 59.5268C7.22578 59.339 7.0407 59.0761 6.83397 58.7748C6.52515 58.3248 6.16248 57.7834 5.84569 57.2788L5.54784 56.7905C4.76897 55.4688 4.27857 54.6208 3.74413 53.3081L3.51073 52.7133C3.221 51.9469 3.04547 51.3468 2.88573 50.728L2.49413 49.1616L2.45995 49.0268C2.08543 47.5726 1.8421 46.6296 1.59276 45.2426L1.48534 44.6186C1.26631 43.2965 1.15245 42.3985 1.06346 41.2817L0.979478 40.0668C0.848001 37.9032 0.847972 36.6702 0.979478 34.5063L1.02342 33.8696C1.13196 32.4566 1.28685 31.4952 1.48241 29.9731L1.69042 28.2426C1.8755 26.6387 2.03095 25.3165 2.49315 23.4184L2.70799 22.5551C3.20082 20.639 3.64601 19.344 4.52049 17.3374L5.19628 15.7973C5.83788 14.3756 6.44004 13.2354 7.58006 11.7348L8.07909 11.0991C9.21207 9.70562 10.1632 8.89123 11.6601 7.6518L11.7021 7.61665L12.5801 6.89594C13.4019 6.23446 14.1141 5.72087 15.2363 5.09907L15.7178 4.84223C16.7978 4.28672 17.6013 4.02634 18.8008 3.56977L19.4648 3.32173C22.7065 2.13255 24.8413 1.69943 28.3877 1.04536L29.5654 0.831491C32.1859 0.36714 34.0092 0.135163 36.9619 0.0375458L38.2285 0.00629578ZM39.8926 13.9282C39.593 13.9282 39.2073 13.9398 38.7939 13.9868C37.9396 14.084 37.0513 14.4403 36.4775 15.0375C33.4892 18.1487 32.4785 25.538 32.9785 35.0375C32.9785 37.0982 32.6367 40.3563 32.9775 42.5375C32.9776 48.0374 34.7033 52.4184 34.9775 53.0375C35.6509 54.558 36.0791 55.4659 36.9365 56.2202C37.6774 56.8718 38.6613 57.0375 39.4775 57.0375C40.1083 57.0375 40.4782 57.0372 41.0107 56.2202C41.4481 55.7485 41.8829 55.1323 42.4775 54.5375C43.4775 53.5376 42.9778 54.537 44.4775 52.0375C44.9774 51.5376 45.2983 49.249 45.4775 48.5375C46.0298 46.3461 46.2175 44.1707 46.4775 41.5375C46.7109 39.1737 46.4775 36.5344 46.4775 34.0375C46.4775 29.0719 46.2398 24.215 45.3926 20.9282C44.8564 18.8484 44.2676 17.0697 43.3926 15.9282C42.2669 14.4597 41.2706 13.9282 39.8926 13.9282Z" fill="#3AB7D0"/>
</svg>
