<svg width="77" height="70" viewBox="0 0 77 70" fill="none" xmlns="http://www.w3.org/2000/svg">
<path d="M8.02344 0.775146C10.7902 0.775146 12.3391 0.882561 13.9258 0.998779C15.5028 1.11429 17.1161 1.23837 20.0293 1.27515L22.5391 1.31909C24.9266 1.37346 26.9867 1.45462 29.043 1.53394C31.7843 1.63968 34.5204 1.74268 38.0283 1.77515L39.2646 1.77905C42.0208 1.76942 43.9741 1.65208 47.0439 1.77515L48.9092 1.84448C50.6325 1.90832 52.0373 1.98082 54.0957 2.28003L55.4453 2.47925C56.6914 2.67055 57.7043 2.86541 59.165 3.29565L59.8896 3.51147C61.504 4.00025 62.624 4.41078 64.2695 5.3396L64.8008 5.64722C65.9734 6.34618 66.714 6.93368 67.8467 7.89429L68.7148 8.62476C69.5234 9.31174 70.181 9.92487 70.9316 10.9861L71.1396 11.2878C72.1396 12.7664 72.5321 13.8734 73.0068 15.6462L73.1211 16.1257C73.2295 16.627 73.3185 17.1769 73.3838 17.6345C73.4277 17.9424 73.4621 18.2144 73.4854 18.4089C73.4969 18.506 73.5057 18.5844 73.5117 18.6384C73.5147 18.6653 73.517 18.6866 73.5186 18.7009C73.5193 18.708 73.5201 18.7138 73.5205 18.7175V18.7234L73.5215 18.7302L73.5225 18.738V18.7468C73.5229 18.7524 73.5237 18.7606 73.5244 18.7712C73.5259 18.7925 73.5286 18.8239 73.5312 18.864C73.5366 18.9442 73.5436 19.0604 73.5518 19.2048C73.568 19.4938 73.5876 19.8973 73.6006 20.3562C73.6232 21.1534 73.627 22.1376 73.5557 22.9812L73.5195 23.3337C73.287 25.3057 73.0132 26.562 72.3076 28.2371L71.9775 28.9841C70.9788 31.1539 70.0743 32.4155 68.5596 33.9548L67.8701 34.6355C66.9755 35.4982 65.6916 36.395 64.6514 37.0662C64.1273 37.4043 63.6571 37.6892 63.3184 37.8904C63.2986 37.9021 63.2786 37.9124 63.2598 37.9236L64.4033 39.448L65.8652 40.9099L65.9102 40.949C65.9486 40.9825 66.0041 41.0308 66.0723 41.0916C66.2092 41.2135 66.3997 41.386 66.6113 41.5857C67.0294 41.9801 67.5521 42.501 67.917 42.9666L68.2002 43.3542C68.4822 43.7646 68.7556 44.2292 68.9727 44.6169C69.1191 44.8786 69.2436 45.1114 69.3311 45.2791C69.3748 45.363 69.4097 45.4313 69.4336 45.4783C69.4428 45.4964 69.4502 45.5115 69.4561 45.5232L72.4238 49.9744C72.4259 49.9769 72.4281 49.98 72.4307 49.9832C72.4435 49.9989 72.4624 50.0218 72.4863 50.0515C72.5344 50.1112 72.6037 50.1981 72.6895 50.3064C72.8608 50.5228 73.0979 50.8265 73.3613 51.1765C73.8849 51.8721 74.5261 52.7688 74.958 53.5281L75.1055 53.7634C75.1567 53.8394 75.2096 53.9142 75.2646 53.989C75.3692 54.1311 75.4955 54.2942 75.6025 54.4558C75.8327 54.8032 76.0234 55.2093 76.0234 55.7751C76.0234 56.3452 75.8793 56.7393 75.6768 57.1287L75.458 57.5232C75.2092 57.9586 74.7803 58.3788 74.4502 58.6697C74.279 58.8205 74.1213 58.9478 74.0068 59.0369C73.9496 59.0814 73.9022 59.1167 73.8691 59.1414C73.8527 59.1536 73.8393 59.163 73.8301 59.1697C73.8255 59.173 73.822 59.1766 73.8193 59.1785C73.8182 59.1793 73.8171 59.1799 73.8164 59.1804L73.8154 59.1814H73.8145L73.7939 59.196L73.7715 59.2097L70.2812 61.2039L65.8008 64.1912L65.7861 64.2009L65.7715 64.2097L62.2715 66.2097L62.2344 66.2302L62.1943 66.2449L56.7188 68.2351C56.7045 68.242 56.6847 68.2523 56.6592 68.2644C56.6059 68.2897 56.5292 68.3256 56.4336 68.3689C56.2426 68.4553 55.9748 68.5723 55.667 68.6931C55.1389 68.9004 54.458 69.1343 53.8369 69.2371L53.5752 69.2722C53.0729 69.3242 52.6938 69.376 52.166 69.3044L51.9297 69.2664C51.0131 69.0921 50.1683 68.3591 49.5996 67.7634C49.3034 67.4531 49.0574 67.1531 48.8857 66.9314C48.7998 66.8204 48.7315 66.7281 48.6846 66.6628C48.6612 66.6303 48.6435 66.6038 48.6309 66.5857C48.6296 66.5839 48.6281 66.5824 48.627 66.5808L44.6328 61.5876L44.6279 61.5818L44.623 61.575L40.123 55.575L40.1152 55.5642L37.1074 51.0525L37.0898 51.0271L37.0762 50.9988L36.5762 49.9988C36.4694 49.7852 36.3679 49.517 36.3008 49.3582C36.2663 49.2767 36.2383 49.2196 36.2168 49.1804C36.143 49.1466 36.0847 49.1357 36.0342 49.1365C35.9833 49.1373 35.9198 49.1496 35.8369 49.1824L35.7471 49.2224C35.7186 49.2367 35.6482 49.2952 35.5605 49.3972C35.5473 49.4127 35.5351 49.4286 35.5234 49.4431V55.2625C35.5237 55.2679 35.524 55.2764 35.5244 55.2869C35.5252 55.3077 35.5259 55.3383 35.5273 55.3777C35.5303 55.457 35.5345 55.5722 35.5391 55.7156C35.5481 56.0023 35.5592 56.4032 35.5664 56.8591C35.5772 57.5405 35.5808 58.3537 35.5566 59.0964L35.5225 59.8083C35.4351 61.1391 35.5359 61.6985 35.1855 63.2L35.0059 63.907C34.9729 64.0278 34.952 64.1462 34.9326 64.2742C34.9146 64.3934 34.8946 64.5449 34.8662 64.6843C34.8116 64.9526 34.7148 65.2373 34.4844 65.5115L34.377 65.6287C34.0489 65.9567 33.5467 66.105 33.2168 66.1775C33.0369 66.217 32.8738 66.2405 32.7559 66.2546C32.6967 66.2617 32.648 66.2663 32.6133 66.2693C32.5959 66.2708 32.5814 66.2725 32.5713 66.2732C32.5699 66.2733 32.5686 66.2731 32.5674 66.2732L28.0791 66.7722L28.0703 66.7732H28.0615L21.5723 67.2722V67.2732C21.5716 67.2733 21.5706 67.2731 21.5693 67.2732C21.5669 67.2734 21.5633 67.2737 21.5586 67.2742C21.5488 67.2751 21.5336 67.2762 21.5146 67.2781C21.4769 67.2818 21.4214 67.2878 21.3496 67.2947C21.2053 67.3084 20.995 67.3278 20.7324 67.3513C20.207 67.3984 19.4698 67.4614 18.623 67.5242C16.9323 67.6494 14.7922 67.7751 13.0234 67.7751C12.6086 67.7751 12.1554 67.6148 11.8486 67.4861C11.6861 67.4178 11.5446 67.3504 11.4443 67.2996C11.4276 67.291 11.412 67.2827 11.3975 67.2751H7.00781C7.00237 67.275 6.99485 67.2744 6.98535 67.2742C6.96631 67.2737 6.93932 67.2726 6.90527 67.2712C6.83703 67.2684 6.73997 67.264 6.62207 67.2546C6.38697 67.236 6.0631 67.2003 5.71191 67.1316C5.36261 67.0633 4.97229 66.9599 4.61035 66.8005C4.29694 66.6626 3.97896 66.4712 3.73047 66.2019L3.62891 66.0818C3.36991 65.7488 3.19849 65.4807 3.08203 65.0691L3.03516 64.8835C2.97837 64.6279 2.98175 64.4222 2.99512 64.2419C3.00205 64.1486 3.01001 64.075 3.01562 64.0046L3.02344 63.783C3.00764 62.8292 2.88519 61.6008 2.76465 60.5994C2.70467 60.1011 2.64555 59.6633 2.60156 59.3503C2.57957 59.1939 2.56152 59.068 2.54883 58.9822C2.54253 58.9396 2.53753 58.9067 2.53418 58.8845C2.5325 58.8734 2.53112 58.8647 2.53027 58.8591C2.52988 58.8565 2.5295 58.8546 2.5293 58.8533V58.8513L2.52246 58.8074L2.52344 58.7634V58.7576C2.52352 58.7536 2.52425 58.7476 2.52441 58.74C2.52475 58.7242 2.52479 58.7008 2.52539 58.6707C2.5266 58.6101 2.52841 58.5219 2.53027 58.4119C2.53401 58.1915 2.53803 57.8834 2.54102 57.533C2.54551 57.0057 2.54683 56.3867 2.53711 55.8269L2.52344 55.2927C2.48617 54.2333 2.36333 52.8727 2.24805 51.7693C2.19059 51.2194 2.13548 50.7359 2.09473 50.3904C2.07437 50.2177 2.05756 50.0791 2.0459 49.9841C2.04007 49.9367 2.03531 49.8995 2.03223 49.8748L2.02734 49.8406V49.8376H2.02637C2.02622 49.8365 2.02656 49.8352 2.02637 49.8337C2.02557 49.8279 2.02495 49.8187 2.02344 49.8074C2.02035 49.7843 2.01555 49.7496 2.00977 49.7058C1.99821 49.6182 1.98204 49.4911 1.96191 49.3328C1.92161 49.0156 1.86694 48.5721 1.80957 48.0671C1.72377 47.3119 1.63089 46.4115 1.57129 45.5876L1.52344 44.7976C1.48831 44.0029 1.48941 42.991 1.49805 42.1843C1.50238 41.7798 1.50826 41.424 1.51367 41.1697C1.51637 41.0429 1.51874 40.9411 1.52051 40.8708C1.52114 40.8457 1.52104 40.8241 1.52148 40.8074L1.03027 37.8572L1.02441 37.825L1.02344 37.7917V37.7839C1.02328 37.7789 1.02276 37.7712 1.02246 37.7615C1.02187 37.7421 1.02157 37.7135 1.02051 37.6765C1.01839 37.6026 1.01496 37.4951 1.01172 37.3601C1.00523 37.0898 0.997362 36.7087 0.992188 36.2664C0.981858 35.3833 0.982428 34.2473 1.02441 33.2537L1.03711 32.7576C1.0427 32.265 1.02883 31.7827 1.01562 31.2878C0.998162 30.6333 0.982483 29.9587 1.02441 29.2458L1.03711 28.9187C1.043 28.6066 1.0308 28.333 1.01855 28.0457C1.0022 27.6616 0.985795 27.2556 1.02441 26.738L1.04688 26.3376C1.06066 25.9574 1.05178 25.6306 1.03906 25.2947C1.02206 24.8453 0.998275 24.3711 1.02344 23.7546L1.04199 23.1404C1.05498 22.4983 1.05381 21.7914 1.04785 21.1902C1.04389 20.7907 1.03719 20.44 1.03223 20.1892C1.02974 20.0639 1.02798 19.9632 1.02637 19.8943C1.02556 19.8598 1.02486 19.8331 1.02441 19.8152L1.02344 19.7947L0.526367 14.825L0.523438 14.8005V10.7439L1.02734 6.71265L1.03027 6.68823L1.03613 6.66382V6.66284L1.03711 6.66089L1.04688 6.61694C1.05385 6.58685 1.06395 6.54292 1.07715 6.48706C1.10363 6.37497 1.14253 6.21403 1.19043 6.02026C1.2861 5.63328 1.41943 5.11088 1.57227 4.57202C1.72462 4.03485 1.89879 3.47177 2.07422 3.00757C2.1617 2.77608 2.25312 2.55921 2.34668 2.37866C2.4318 2.21441 2.54807 2.02068 2.70312 1.89136L2.8252 1.80444C2.95599 1.72495 3.10864 1.66544 3.24414 1.6189C3.44302 1.5506 3.6815 1.48669 3.9375 1.42651C4.45082 1.30586 5.07124 1.19359 5.66406 1.09839C6.25858 1.00292 6.83395 0.922929 7.25977 0.866943C7.47259 0.838963 7.6485 0.816603 7.77148 0.801514C7.83303 0.793963 7.88202 0.788845 7.91504 0.784912C7.93119 0.782989 7.9436 0.781034 7.95215 0.780029C7.95623 0.77955 7.95968 0.779314 7.96191 0.779053C7.963 0.778926 7.96425 0.779122 7.96484 0.779053L7.96582 0.778076L7.99414 0.775146H8.02344ZM36.1602 10.6843C35.9029 10.6807 35.6274 10.7025 35.4023 10.7839L35.3096 10.823C34.9851 10.9767 34.7797 11.312 34.6514 11.5701C34.5088 11.8568 34.3936 12.1925 34.3047 12.4988C34.2149 12.8082 34.1463 13.1054 34.1006 13.324C34.0777 13.4336 34.0606 13.5256 34.0488 13.5896C34.043 13.6211 34.0382 13.6463 34.0352 13.6638C34.0336 13.6725 34.033 13.6804 34.0322 13.6853C34.0319 13.6872 34.0315 13.689 34.0312 13.6902L34.0303 13.6921V13.6931L34.0283 13.7039L34.0273 13.7146V13.7166C34.0272 13.7175 34.0266 13.7196 34.0264 13.7214C34.0259 13.7253 34.0253 13.731 34.0244 13.738C34.0226 13.753 34.0199 13.7754 34.0166 13.8035C34.01 13.86 34.0006 13.9419 33.9893 14.0417C33.9665 14.2417 33.9356 14.5167 33.9053 14.8142C33.8456 15.3986 33.7823 16.1065 33.7822 16.4988C33.7822 16.8373 33.5963 19.5579 33.4062 22.2351C33.3119 23.5642 33.2172 24.871 33.1465 25.8455C33.1111 26.3325 33.0822 26.737 33.0615 27.0193C33.0512 27.1602 33.0426 27.271 33.0371 27.3464C33.0344 27.3837 33.0327 27.4129 33.0312 27.4324C33.0305 27.4419 33.0297 27.4499 33.0293 27.4548V27.4617L33.5273 27.4988L33.0293 27.4626L33.0273 27.4802V35.2751C33.0275 35.5545 33.2249 35.7016 33.3057 35.7498C33.3943 35.8025 33.4862 35.8279 33.5459 35.8416C33.6738 35.8707 33.8292 35.8846 33.9805 35.8914C34.2923 35.9053 34.7015 35.895 35.1094 35.8777C35.5205 35.8602 35.9465 35.8348 36.2969 35.8132C36.6593 35.791 36.9183 35.7751 37.0234 35.7751C37.2866 35.7751 37.5404 35.6552 37.7295 35.5457C37.9358 35.4261 38.1492 35.2674 38.3486 35.1033C38.7487 34.7739 39.14 34.382 39.3887 34.116L39.627 33.8474C40.1923 33.1791 40.7978 32.2402 41.0088 31.3962L41.3379 30.0378C41.6248 28.8008 41.8015 27.8387 42.0186 26.3464L42.0225 26.3171L42.0234 26.2869V26.2722C42.0237 26.2625 42.024 26.2479 42.0244 26.2292C42.0253 26.1912 42.0267 26.1347 42.0283 26.0632C42.0316 25.92 42.036 25.7139 42.041 25.4626C42.051 24.9599 42.0631 24.2748 42.0713 23.5466C42.0856 22.2844 42.0894 20.8596 42.0469 20.0417L42.0254 19.7302C41.9626 19.029 41.947 18.3055 41.8848 17.4656C41.8331 16.7688 41.7508 16.0466 41.5791 15.3972L41.5 15.1238C41.0689 13.7643 40.4004 12.9452 39.377 11.9216C38.7852 11.3299 37.9417 10.9857 37.209 10.8181C36.8368 10.733 36.474 10.6887 36.1602 10.6843Z" fill="#3AB7D0"/>
</svg>
