<svg width="64" height="65" viewBox="0 0 64 65" fill="none" xmlns="http://www.w3.org/2000/svg">
<path d="M3.15866 20.014C1.31656 20.014 0.658659 16.014 0.658659 16.014C0.658659 16.014 0.158659 13.2017 0.158659 12.014V7.51395C0.158659 5.36607 -0.145589 2.64904 0.158659 2.01392C0.462907 1.37879 0.780005 1.00214 1.65869 0.513988C2.43799 0.0810547 4.65869 0.0140186 4.65869 0.0140186C8.08861 0.0138359 13.4415 0.0139529 13.4415 0.0139529H35.6587H57.1587C57.1587 0.0139529 62.2187 0.18003 62.6587 0.513953C63.0986 0.847871 63.3137 1.08265 63.6587 1.51392C64.0037 1.94518 63.6587 9.51396 63.6587 9.51396C63.6587 9.51396 64.1587 18.5139 63.6587 19.014C63.2681 19.4045 63.0899 19.6689 62.6587 20.014C62.0337 20.5139 54.6587 20.014 54.6587 20.014H48.1587C48.1587 20.014 48.2148 24.2809 48.1587 27.014C48.0783 30.9232 47.7318 33.1045 47.6587 37.0139C47.6148 39.3567 47.7559 40.6728 47.6587 43.0139C47.5611 45.3632 47.2236 46.6636 47.1587 49.0139C47.1263 50.1851 47.1587 50.8424 47.1587 52.0139C47.1587 55.1381 47.6587 58.0139 47.1587 60.0139C46.8171 61.38 46.3812 62.3154 45.1587 63.0139C44.8882 63.1685 44.416 63.3187 42.6587 63.5139L38.1587 64.014C36.4013 64.2092 33.1587 64.014 33.1587 64.014H21.6587C20.4237 64.014 19.4472 64.2747 18.6587 63.0139C18.2318 62.3313 17.6587 60.5139 17.6587 60.5139C17.6587 60.5139 16.9 57.6431 16.6587 55.7622C16.2736 52.7609 16.6587 48.0139 16.6587 48.0139V38.0139C16.6587 34.1087 17.0611 32.5327 17.1587 29.014C17.2561 25.5006 17.1587 20.014 17.1587 20.014H3.15866Z" fill="#3AB7D0"/>
</svg>
