<svg width="76" height="71" viewBox="0 0 76 71" fill="none" xmlns="http://www.w3.org/2000/svg">
<path d="M37.3779 0.00629578C40.1919 -0.0363799 42.1233 0.132858 45.1943 0.541452L45.4101 0.569772L47.3594 0.83735C49.1678 1.10159 50.66 1.39547 52.7773 2.06001L53.6504 2.34223C55.5834 2.98899 56.8614 3.57444 58.8555 4.59126L60.2451 5.30805C61.5231 5.98317 62.5372 6.58965 63.9287 7.63716L64.8008 8.30805C66.7243 9.82488 67.9243 11.0639 69.5303 13.2397L70.1416 14.0883C71.4781 15.995 72.2173 17.4565 73.0976 19.8657L73.2724 20.3569C74.0992 22.7615 74.2577 24.384 74.623 26.9672L74.7568 27.9409C75.0031 29.7992 75.1213 31.1723 75.1318 33.0541L75.1279 34.0424C75.1068 35.8292 74.9785 37.0336 74.8076 38.5024L74.625 40.0922C74.3603 42.4849 74.234 43.9971 73.8154 46.1665L73.6172 47.1411C73.2104 49.0425 72.9714 50.2613 72.374 51.9565L72.0947 52.7153C71.4066 54.5112 70.9354 55.6562 69.9814 57.1528L69.541 57.8188C69.0932 58.4736 68.4513 59.242 67.9316 59.8373C67.67 60.137 67.4356 60.3975 67.2666 60.5825C67.1822 60.6748 67.1137 60.7493 67.0664 60.8002C67.043 60.8254 67.0243 60.8454 67.0117 60.8588C67.0057 60.8652 67.0003 60.87 66.9971 60.8735C66.9955 60.8751 66.994 60.8773 66.9931 60.8784L66.9922 60.8793L66.9863 60.8862L66.6279 60.5366L66.9853 60.8862L66.9785 60.893C66.9739 60.8977 66.9667 60.9056 66.958 60.9145C66.9405 60.9323 66.9147 60.9585 66.8818 60.9916C66.8151 61.0589 66.7172 61.156 66.5957 61.2758C66.3524 61.5157 66.0101 61.8484 65.6133 62.2172C64.9234 62.8584 64.0532 63.625 63.248 64.2114L62.9082 64.4506C61.5157 65.3921 60.4842 65.8926 59.2031 66.4311L57.8164 66.9995C56.2987 67.6178 55.3341 67.9596 53.8994 68.35L53.2529 68.5209C51.4995 68.9745 50.285 69.1524 48.7978 69.3364L47.1894 69.5327C45.4293 69.7519 44.2405 69.8681 42.7598 69.9555L41.1494 70.0366C39.2354 70.1192 37.9462 70.1328 36.3467 70.0932L34.6084 70.0366C32.3841 69.9513 30.9871 69.9125 28.9648 69.6557L28.0557 69.5317C26.0715 69.243 24.9396 68.9087 23.0303 68.5268C22.065 68.3338 21.3155 68.2404 20.5264 68.1118C19.8404 68 19.1516 67.8653 18.334 67.6235L17.9756 67.5131C17.0261 67.2093 15.8762 66.6965 14.9765 66.268C14.5238 66.0524 14.1283 65.8555 13.8467 65.7123C13.7061 65.6409 13.5933 65.5828 13.5156 65.5424C13.4768 65.5222 13.4463 65.5063 13.4258 65.4956C13.4156 65.4902 13.4077 65.4857 13.4023 65.4829L13.3945 65.479H13.3935L13.3721 65.4672L13.3506 65.4526L10.3096 63.4252L6.74608 59.8618L6.72167 59.8286L6.72069 59.8276C6.72003 59.8267 6.71887 59.8252 6.71776 59.8237C6.71527 59.8202 6.71167 59.8146 6.70702 59.8081C6.69726 59.7944 6.68234 59.7741 6.66405 59.7485C6.6271 59.6967 6.57402 59.6206 6.5078 59.5268C6.37519 59.339 6.19012 59.0761 5.98338 58.7748C5.67456 58.3248 5.3119 57.7834 4.9951 57.2788L4.69725 56.7905C3.91839 55.4688 3.42798 54.6208 2.89354 53.3081L2.66014 52.7133C2.37041 51.9469 2.19488 51.3468 2.03514 50.728L1.64354 49.1616L1.60936 49.0268C1.23485 47.5726 0.991513 46.6296 0.742173 45.2426L0.634752 44.6186C0.415728 43.2965 0.301868 42.3985 0.212877 41.2817L0.128892 40.0668C-0.00258454 37.9032 -0.00261443 36.6702 0.128892 34.5063L0.172838 33.8696C0.281373 32.4566 0.436269 31.4952 0.631822 29.9731L0.83983 28.2426C1.02491 26.6387 1.18036 25.3165 1.64256 23.4184L1.85741 22.5551C2.35023 20.639 2.79543 19.344 3.66991 17.3374L4.34569 15.7973C4.9873 14.3756 5.58945 13.2354 6.72948 11.7348L7.2285 11.0991C8.36148 9.70562 9.31259 8.89123 10.8096 7.6518L10.8515 7.61665L11.7295 6.89594C12.5513 6.23446 13.2636 5.72087 14.3857 5.09907L14.8672 4.84223C15.9472 4.28672 16.7507 4.02634 17.9502 3.56977L18.6142 3.32173C21.8559 2.13255 23.9907 1.69943 27.5371 1.04536L28.7148 0.831491C31.3353 0.36714 33.1587 0.135163 36.1113 0.0375458L37.3779 0.00629578ZM39.042 13.9282C38.7424 13.9282 38.3567 13.9398 37.9433 13.9868C37.089 14.084 36.2007 14.4403 35.6269 15.0375C32.6386 18.1487 31.6279 25.538 32.1279 35.0375C32.1279 37.0982 31.7861 40.3563 32.1269 42.5375C32.127 48.0374 33.8527 52.4184 34.1269 53.0375C34.8003 54.558 35.2286 55.4659 36.0859 56.2202C36.8268 56.8718 37.8107 57.0375 38.6269 57.0375C39.2578 57.0375 39.6276 57.0372 40.1601 56.2202C40.5975 55.7485 41.0323 55.1323 41.6269 54.5375C42.6269 53.5376 42.1273 54.537 43.6269 52.0375C44.1268 51.5376 44.4478 49.249 44.6269 48.5375C45.1792 46.3461 45.3669 44.1707 45.6269 41.5375C45.8604 39.1737 45.627 36.5344 45.6269 34.0375C45.6269 29.0719 45.3892 24.215 44.542 20.9282C44.0058 18.8484 43.417 17.0697 42.542 15.9282C41.4163 14.4597 40.42 13.9282 39.042 13.9282Z" fill="#3AB7D0"/>
</svg>
