<svg width="54" height="65" viewBox="0 0 54 65" fill="none" xmlns="http://www.w3.org/2000/svg">
<path d="M15.7591 0.0900629C10.8227 0.177695 7.67437 0.0901032 3.12665 0.581713C2.50645 0.648757 1.80809 0.785361 1.61076 1.07336C1.41343 1.36137 1.16787 2.25065 1.10546 3.03996C0.600107 9.43142 1.10546 19.7561 1.10546 19.7561C1.10546 19.7561 0.936786 30.5723 1.10546 32.0473C1.25977 33.3967 1.4451 34.1408 1.61076 35.4889C1.91621 37.9746 2.11606 41.8803 2.11606 41.8803C2.11606 41.8803 2.52277 45.4701 2.62135 47.7801C2.71959 50.0822 2.62135 51.3759 2.62135 53.6799C2.62135 55.4079 2.48035 56.3822 2.62135 58.1048C2.73213 59.4582 2.66225 60.2661 3.12665 61.5463C3.42036 62.356 3.43125 62.9977 4.13724 63.5129C4.63645 63.8772 5.0468 63.8611 5.65313 64.0046C6.66364 64.2437 9.93789 63.5977 12.7272 63.5129C13.5161 63.4889 14.97 63.4889 15.759 63.5129C18.5483 63.5977 19.0351 64.1337 21.8226 64.0046C23.2164 63.94 23.9673 63.6013 25.3597 63.5129C26.5412 63.438 28.3915 63.5129 28.3915 63.5129C28.3915 63.5129 31.6783 63.8137 31.9286 63.5129C32.3212 63.041 32.2638 62.6222 32.4339 62.038C33.1885 59.4451 32.9392 55.1549 32.9392 55.1549C32.9392 55.1549 32.4338 48.2717 32.9392 46.7968C33.2512 45.8861 33.9497 45.1988 34.455 44.8302C34.9604 44.4617 37.2182 44.4288 39.0027 44.3386C40.5792 44.2589 41.4676 44.397 43.0451 44.3386C45.2231 44.2578 48.0082 44.4809 48.6034 43.8469C49.1985 43.2129 49.4409 42.7223 49.6139 41.8803C50.1192 39.422 50.1127 35.8566 49.6139 32.0473C49.4623 30.8888 49.343 29.3607 49.1087 29.0974C48.5309 28.4483 48.6033 28.1141 47.0875 28.1141C44.0556 28.1142 40.0132 28.6057 36.4762 28.1141C35.9237 28.0373 35.7367 27.6055 35.4656 27.1308C35.3271 26.8882 35.4656 24.6726 35.4656 24.6726L35.4656 19.756C35.4656 19.756 35.8742 15.8637 36.4762 15.3312C36.6721 15.1579 39.533 14.8852 40.5185 14.8395C42.1077 14.7659 41.4598 14.97 43.0451 14.8396C46.3878 14.5645 50.1192 14.8396 51.6351 14.8396C52.5176 14.8396 53.4833 14.6983 53.6563 13.8563C54.1615 11.398 53.6563 6.97317 53.6563 6.97317C53.6563 6.97317 53.6563 3.03992 53.151 1.56501C52.926 0.90827 52.3052 0.814549 51.6351 0.581713C50.706 0.258828 47.75 0.0996433 46.7634 0.0900629C42.812 0.0516933 39.0027 0.0900629 39.0027 0.0900629H26.3703C22.2264 0.0900629 19.9023 0.0165108 15.7591 0.0900629Z" fill="#3AB7D0"/>
</svg>
