<svg width="35" height="66" viewBox="0 0 35 66" fill="none" xmlns="http://www.w3.org/2000/svg">
<path d="M8.03021 0.170088C5.48471 0.215953 1.82016 0.170093 1.5302 0.670088C1.03073 1.53138 1.18287 2.18622 1.0302 3.17009C0.797449 4.67009 1.0302 8.65537 1.0302 12.1701V23.1701C1.0302 26.4895 0.932784 28.3521 1.0302 31.6701C1.12779 34.9939 1.30108 36.8528 1.5302 40.1701C1.70563 42.7099 1.82654 44.1323 2.0302 46.6701C2.2183 49.0138 2.43266 50.3208 2.5302 52.6701C2.62741 55.0112 2.35602 56.3334 2.5302 58.6701C2.64723 60.24 3.03027 62.67 3.03027 62.67C3.03027 62.67 3.03027 64.67 4.53027 65.67C5.8459 66.5471 12.5302 65.1701 12.5302 65.1701H23.0302H28.0302C28.0302 65.1701 31.3385 64.8889 32.0302 64.1701C32.525 63.6559 32.7875 62.1047 33.0227 60.7143L33.0302 60.6701C33.1438 59.9987 33.0302 55.1701 33.0302 55.1701C33.0302 55.1701 33.423 48.1641 33.5302 43.6701C33.6606 38.2043 33.3456 35.1343 33.5302 29.6701C33.649 26.152 34.0302 20.6701 34.0302 20.6701V12.6701V3.17009C34.0303 2.17004 33.5303 0.925177 33.0303 0.670041C32.7169 0.510135 31.5062 0.197609 30.5303 0.170041C28.3744 0.10914 26.6861 0.230989 24.5302 0.170088C21.4012 0.0816972 19.6605 0.658622 16.5302 0.670088C13.205 0.682268 11.3549 0.110185 8.03021 0.170088Z" fill="#3AB7D0"/>
</svg>
