<svg width="63" height="67" viewBox="0 0 63 67" fill="none" xmlns="http://www.w3.org/2000/svg">
<path d="M42.9385 0.0485796C43.2066 0.0406678 43.5909 0.0385034 43.9189 0.078853L44.2275 0.126705C44.5179 0.182314 44.7595 0.257854 44.9805 0.336666C45.2903 0.447189 45.4652 0.524975 45.7607 0.613033L47.4385 1.11303L49.1172 1.61303L49.5088 1.7146C49.6324 1.74282 49.7596 1.76983 49.9199 1.80835C50.225 1.88166 50.5582 1.97927 50.9531 2.17456L51.2207 2.32006C51.4882 2.47783 51.7482 2.66326 51.9404 2.80737C52.0755 2.90859 52.1916 3.00134 52.2744 3.06811C52.3156 3.10134 52.3494 3.12868 52.373 3.14819L53.5977 3.99975L56.1152 5.74975L56.2246 5.82592L56.3105 5.92846L57.0449 6.80346L57.7783 7.67846L59.2471 9.42846L59.332 9.52905L59.3877 9.64819L61.4854 14.1482L61.5586 14.3054L61.5742 14.4783L61.6797 15.6033L61.7842 16.7283L61.8896 17.8533L62.0986 20.1033L62.2041 21.2283L62.3086 22.3533L62.4141 23.4783L62.4219 23.571L62.4141 23.6638L62.3086 24.7888L62.2041 25.9138L62.0986 27.0388L61.8896 29.2888L61.7842 30.4138L61.6797 31.5388L61.5742 32.6638L61.5645 32.7732L61.5303 32.8777L59.4326 39.3777L59.3916 39.5056L59.3184 39.6179L58.584 40.7429L57.8506 41.8679L56.3818 44.1179L56.2998 44.2429L56.1846 44.3386L51.9893 47.8386L51.8662 47.9412L51.7178 48.0007L50.459 48.5007L49.2012 49.0007L46.6836 50.0007L46.5566 50.0505L46.4219 50.0652L37.1914 51.0652L37.1377 51.071H28.8545V62.9871L28.5586 63.28L26.041 65.78L25.749 66.071H2.82812L2.54102 65.5652L0.552734 62.0652L0.424805 61.8386L0.422852 61.5779L0.40918 59.7341L0.396484 57.8904L0.382812 56.0466L0.357422 52.3591L0.34375 50.5154L0.331055 48.6716L0.317383 46.8279L0.304688 44.9841L0.291016 43.1404L0.265625 39.4529L0.251953 37.6091L0.239258 35.7654L0.225586 33.9216L0.212891 32.0779L0.199219 30.2341L0.173828 26.5466L0.160156 24.7029L0.147461 22.8591L0.133789 21.0154L0.121094 19.1716L0.107422 17.3279L0.0820312 13.6404L0.0683594 11.7966L0.0556641 9.95288L0.0419922 8.10913L0.0292969 6.26538L0.015625 4.42163L0.00292969 2.57788L0 2.1267L0.336914 1.82495L2.01465 0.324947L2.2998 0.0710405H42.4775C42.5031 0.0692741 42.5397 0.0668028 42.584 0.0642046C42.6728 0.0589944 42.7974 0.0527509 42.9385 0.0485796ZM32.1309 10.3513C31.7085 10.3344 31.2994 10.3601 30.9619 10.407C30.6893 10.4449 30.407 10.5042 30.2061 10.5945L30.125 10.6345C29.8941 10.7649 29.7228 10.9702 29.5996 11.154C29.4724 11.344 29.3696 11.5528 29.291 11.738C29.2117 11.9251 29.1516 12.1008 29.1113 12.2283C29.0912 12.292 29.0751 12.3449 29.0645 12.3826C29.06 12.3985 29.0565 12.4123 29.0537 12.4226V12.4236C29.0514 12.4306 29.0482 12.441 29.0439 12.4539C29.0352 12.4805 29.0222 12.5194 29.0068 12.5671C28.9761 12.663 28.9338 12.7976 28.8877 12.9509C28.8195 13.1781 28.7402 13.4572 28.6777 13.7195L28.6221 13.9734C28.4044 15.0759 28.3954 15.9564 28.4443 16.8269C28.4943 17.7141 28.5949 18.5083 28.6123 19.5789L28.6309 21.821C28.6329 22.604 28.6317 23.393 28.6289 24.0964C28.6261 24.799 28.6216 25.4166 28.6182 25.8582C28.6164 26.0787 28.6154 26.2561 28.6143 26.3777C28.6137 26.4381 28.6136 26.4856 28.6133 26.5173C28.6132 26.5237 28.6133 26.5298 28.6133 26.5349L28.1904 32.5349L28.1895 32.5535V32.6785C28.1895 32.7481 28.1903 32.85 28.1904 32.9763C28.1907 33.2292 28.191 33.5829 28.1914 33.9851C28.1922 34.7896 28.1924 35.7894 28.1924 36.5701L28.1934 39.0701C28.1934 39.23 28.2636 39.349 28.3213 39.4177C28.3765 39.4834 28.437 39.5256 28.4766 39.5496C28.5556 39.5974 28.6418 39.6278 28.707 39.6482C28.8449 39.6913 29.0218 39.7276 29.208 39.7585C29.587 39.8214 30.0867 39.8761 30.5879 39.9216C31.5869 40.0123 32.655 40.0701 32.8887 40.0701C33.2851 40.07 33.6163 39.8475 33.8535 39.6394C34.1026 39.4209 34.3362 39.1386 34.54 38.8787L34.6416 38.7429C35.1242 38.0639 35.2319 37.4053 35.46 36.7302L35.5732 36.3796C36.1043 34.6575 36.1021 33.4258 36.3213 31.6306L36.4258 30.7234C36.6413 28.7055 36.6754 27.3113 36.7441 25.0857L36.7998 23.491C36.8427 22.2624 36.8669 21.2185 36.7969 19.8777L36.7432 19.033C36.6556 17.8678 36.6683 17.0449 36.4277 15.9363L36.3086 15.4421C36.1418 14.8151 35.9263 14.0438 35.6436 13.2996C35.3982 12.6538 35.0916 11.9994 34.7021 11.4685L34.5303 11.2488C34.2372 10.8996 33.8255 10.6877 33.416 10.5583C33.0026 10.4277 32.5516 10.3681 32.1309 10.3513Z" fill="#3AB7D0"/>
</svg>
