<svg width="55" height="66" viewBox="0 0 55 66" fill="none" xmlns="http://www.w3.org/2000/svg">
<path d="M3.70458 0.881757C2.21111 1.37957 1.70458 2.88177 1.70458 4.38176V12.3818L1.20458 18.3818V22.3818V35.3818V47.3818V56.3818C1.20458 56.3818 0.70459 62.0739 1.20458 62.8818C1.78591 63.821 2.15672 64.5324 3.20458 64.8818C4.70451 65.3818 15.7046 65.3818 15.7046 65.3818H27.2046H39.7046H50.7046C50.7046 65.3818 53.9584 65.3739 54.7046 63.8818C55.2046 62.8818 54.7046 51.8818 54.7046 51.8818C54.7046 51.8818 55.2046 45.3818 54.7046 43.8818C54.3474 42.8101 53.3371 42.6082 52.2309 42.387L52.2046 42.3818C49.7046 41.8818 42.2046 42.8818 36.7046 42.3818C35.7323 42.2934 34.7046 41.3818 34.7046 40.3818V36.8818V27.8818C34.7046 27.8818 34.8454 22.3937 34.7046 18.8818C34.5948 16.1434 34.183 13.8441 34.2046 11.8818C34.224 10.1138 34.7046 8.38168 34.7046 7.38176C34.7046 6.38184 34.7046 4.88184 33.7046 3.38184C32.7046 1.88184 31.9446 1.80388 30.7046 1.38176C29.4646 0.959637 25.8288 1.38176 22.7046 1.38176C19.3851 1.38176 17.5233 1.45237 14.2046 1.38176C10.1004 1.29443 5.20458 0.381771 3.70458 0.881757Z" fill="#3AB7D0"/>
</svg>
