<svg width="59" height="35" viewBox="0 0 59 35" fill="none" xmlns="http://www.w3.org/2000/svg">
<path d="M19.2173 2.97466C14.2809 3.06229 17.0001 3.00836 12.4524 3.49997C11.8322 3.56701 11.1516 4.5 9.50002 5.5C8.27546 6.24145 7.06247 12.7107 7.00006 13.5C6.49471 19.8915 5.1471 15.5799 4.00006 17C2.50717 18.8483 2.20009 21.3711 3.00006 22.6218C4.00007 24.1851 4.75288 25.6519 4.91853 27C5.22399 29.4857 2.50006 29 2.50006 29C2.50006 29 -0.0985299 31.1451 4.99461e-05 33.4551C0.0982892 35.7571 2.08589 34.4136 3.50008 34.5C4.30363 34.5491 5.21703 34.3131 6.00008 34.5C6.77924 34.686 6.70329 34.4174 7.50008 34.5C8.18232 34.5707 8.82338 33.8344 9.50002 33.9468C10.114 34.0487 12.3937 33.8033 13 33.9468C14.0105 34.1859 15.0571 33.5399 17.8464 33.4551C18.6353 33.4311 20.0892 33.4311 20.8782 33.4551C23.6675 33.5399 24.1543 34.0759 26.9418 33.9468C28.3356 33.8822 29.0865 33.5435 30.4789 33.4551C31.6604 33.3801 33.5107 33.4551 33.5107 33.4551C33.5107 33.4551 36.7975 33.7559 37.0477 33.4551C37.4404 32.9832 38.7014 33.5301 39.0001 32.9995C39.601 31.9325 40.973 33.2254 42.0001 33C43.3452 32.7047 45.0001 32.5 45.0001 32.5C45.0001 32.5 46.8709 32.8124 48.0001 32.5C51.8798 31.4266 41.7156 26.5902 43.5001 26.5C45.0766 26.4203 43.4226 24.5584 45.0001 24.5C47.1781 24.4192 46.9219 27.6773 49.1535 26.5C51.2037 25.4184 53.2271 25.7783 53.6535 23.4999C54.3599 19.7254 55.4455 23.4311 54.9468 19.6218C54.7951 18.4633 53.5205 20.3689 53.0321 19.6218C52.0704 18.1509 48.7546 18.3608 47.2388 18.3608C44.2069 18.3609 44.5692 21.1134 41.0322 20.6218C40.4796 20.545 38.2085 21.8753 36.5322 21.1117C35.1789 20.4952 32.8493 22.9817 31.0322 22.6218C27.3728 21.8969 30.5073 21.6099 30.4789 19.6218C30.4422 17.0562 36.898 15.5325 37.5001 15C37.696 14.8267 40.0466 13.5457 41.0322 13.5C42.6213 13.4264 41.9735 13.6305 43.5587 13.5C46.9014 13.225 50.1677 16.7611 52.1488 13.5C52.6069 12.7458 58.2252 18.261 57.6168 13.5C57.2334 10.5 60.7981 5.88352 56.5001 4C55.2879 3.46881 54.1588 2.44096 53.6535 0.966053C53.4285 0.309309 50.1701 0.70717 49.5001 0.474334C48.5709 0.151449 44.9867 0.975637 44.0001 0.966057C40.0487 0.927687 37.8732 2.97466 37.8732 2.97466C37.8732 2.97466 31.3009 1.49965 26.3677 1.49965C22.2237 1.49965 23.3605 2.9011 19.2173 2.97466Z" fill="#3AB7D0"/>
</svg>
