<svg width="98" height="38" viewBox="0 0 98 38" fill="none" xmlns="http://www.w3.org/2000/svg">
<path d="M51.8691 1.41293C52.9484 1.09685 54.1029 0.791208 55.5722 1.00472L56.9209 1.20394C58.1673 1.39528 59.1807 1.58909 60.6416 2.01937L61.3662 2.23617C62.9803 2.7249 64.1007 3.13562 65.7461 4.06429L66.2773 4.37191C67.4497 5.07075 68.1908 5.65764 69.3232 6.61801L69.5273 6.78109C69.9914 7.12764 70.3744 7.25186 70.8076 7.43246C71.3385 7.65383 71.8603 7.93639 72.4082 8.71078L72.5009 8.8348C72.5709 8.92299 72.6239 8.97385 72.6582 9.00375C72.6738 8.99091 72.6951 8.97597 72.7216 8.95394C72.776 8.90873 72.889 8.81398 73.0312 8.7557C73.2024 8.68565 73.4103 8.66917 73.623 8.76254C73.8079 8.84383 73.9518 8.9896 74.0693 9.1434C74.1908 9.30256 74.3153 9.51233 74.4472 9.77621L74.5302 9.93148C74.5536 9.97186 74.5728 10.0009 74.5869 10.0213C74.6959 10.0171 74.8773 10.0179 75.1015 10.1063C75.3347 10.1983 75.577 10.3698 75.8535 10.6463L75.9189 10.703C75.9967 10.7626 76.1137 10.831 76.2783 10.9061C76.4922 11.0036 76.7565 11.0987 77.0615 11.1932C77.6914 11.3883 78.3788 11.5523 79.1123 11.7625C79.8094 11.9623 80.5234 12.1979 81.0546 12.5145C81.5422 12.8052 82.02 13.2573 82.0058 13.9227L81.9961 14.0584C81.868 15.1446 81.8095 15.6974 81.747 16.0184C81.7133 16.1917 81.6725 16.33 81.6074 16.4637C81.5783 16.5234 81.545 16.5802 81.5117 16.6327L81.416 16.7772C80.953 17.4717 80.9659 17.6668 80.8046 18.0604C80.6487 18.4411 80.3866 18.8227 79.6787 19.534L79.3466 19.8592C78.458 20.7163 77.7813 21.134 77.2959 21.3328C77.0522 21.4326 76.8554 21.4779 76.705 21.495C76.6303 21.5034 76.5671 21.5048 76.5166 21.5028C76.4915 21.5018 76.469 21.5001 76.4502 21.4979C76.441 21.4968 76.4324 21.4952 76.4248 21.494C76.4209 21.4934 76.4165 21.4926 76.413 21.492C76.4115 21.4917 76.4097 21.4913 76.4082 21.4911H76.4052L76.4043 21.4901L76.5 20.9998L76.4033 21.4901L76.2978 21.4696L76.2099 21.4071L76.2089 21.4061C76.2077 21.4053 76.2056 21.4039 76.2031 21.4022C76.1975 21.3983 76.1881 21.3915 76.1767 21.3836C76.1536 21.3677 76.1188 21.3443 76.0752 21.3153C75.9867 21.2565 75.8606 21.175 75.7129 21.0868C75.4107 20.9063 75.042 20.7112 74.7197 20.6043C74.5574 20.5506 74.4343 20.5291 74.3535 20.5291C74.3436 20.5292 74.3351 20.5306 74.3281 20.5311C74.3246 20.5505 74.3213 20.5796 74.3213 20.6209C74.321 20.7628 74.3586 20.9935 74.4746 21.3416L74.5136 21.4422C74.6243 21.685 74.8607 21.99 75.2168 22.3397C75.6115 22.7273 76.1058 23.1235 76.6084 23.4969C77.1105 23.8701 77.6064 24.2106 78.0097 24.492C78.2086 24.6308 78.3892 24.7576 78.5312 24.8651C78.6348 24.9435 78.7546 25.0397 78.8437 25.1356C78.8661 25.1422 78.9059 25.1539 78.9687 25.161C79.1257 25.1786 79.3502 25.1775 79.6396 25.159C80.2251 25.1216 80.9391 25.0251 81.7138 24.9481C82.4614 24.8737 83.254 24.8192 83.9013 24.8885C84.2247 24.9232 84.5479 24.9919 84.8213 25.1278C85.1033 25.2682 85.358 25.4952 85.4736 25.8416L85.5263 25.9803C85.6638 26.3038 85.9037 26.6253 86.2255 26.9452C86.5916 27.3088 87.0415 27.648 87.5117 27.9686C87.9975 28.2998 88.4405 28.569 88.874 28.8563C89.2677 29.1172 89.6652 29.4001 89.8935 29.6912L89.916 29.7157C89.9447 29.7397 90.0001 29.7594 90.1484 29.7411C90.3773 29.7126 90.651 29.614 91.0449 29.4852C91.7511 29.2542 92.8044 28.9354 93.7773 29.5838C94.6383 30.158 95.312 31.1971 95.8164 32.1453C96.0738 32.6294 96.2974 33.1112 96.4863 33.5291C96.6793 33.9564 96.8281 34.2977 96.9472 34.536C97.0007 34.643 97.0492 34.7838 97.042 34.9442C97.0339 35.1208 96.9597 35.2776 96.8398 35.3944C96.6401 35.5886 96.3593 35.6293 96.1894 35.6434C95.8022 35.6754 95.2607 35.6094 94.7392 35.5321C94.1848 35.4499 93.6364 35.3516 93.1308 35.286C92.8837 35.2539 92.6643 35.2322 92.4824 35.2254C92.387 35.2219 92.3105 35.2227 92.2519 35.2264L92.1259 35.244C91.9386 35.2927 91.7376 35.2897 91.5605 35.2733C91.3772 35.2562 91.1809 35.2199 90.9873 35.1766C90.6089 35.0919 90.1676 34.9629 89.8056 34.868C89.4416 34.7726 89.1582 34.7144 88.9687 34.7059C88.9207 34.8666 88.8199 34.997 88.6914 35.0868C88.5393 35.1928 88.3637 35.2353 88.2314 35.2567C87.9637 35.2997 87.6275 35.2892 87.3486 35.2801C87.0416 35.2701 86.7764 35.2602 86.5673 35.2801C86.4783 35.2886 86.4217 35.302 86.3896 35.3123C86.1719 35.6355 85.835 35.7485 85.541 35.7645C85.2421 35.7806 84.9349 35.7065 84.6875 35.6239C84.4321 35.5385 84.1962 35.4296 84.0283 35.3446C84.0007 35.3306 83.9753 35.3153 83.9511 35.3026L81.1582 36.2342L81.081 36.2596H77.0283L72.5546 36.7567L72.4648 36.7664L72.3779 36.744L67.5507 35.5272C67.51 35.5461 67.4633 35.5695 67.4101 35.5936C67.2191 35.68 66.9512 35.797 66.6435 35.9178C66.1155 36.125 65.4344 36.359 64.8134 36.4618L64.5507 36.4969C64.0488 36.5488 63.67 36.6006 63.1425 36.5291L62.9062 36.4911C62.1715 36.3516 61.3074 36.2275 60.623 36.1385C60.5411 36.1279 60.4617 36.1178 60.3857 36.1082C60.3498 36.1845 60.3017 36.2488 60.248 36.2977C60.1049 36.4279 59.922 36.4743 59.7959 36.4969C59.5871 36.5342 59.293 36.5444 58.8945 36.5262L58.4599 36.4979C58.1317 36.4719 57.8676 36.3829 57.6601 36.2743C57.6526 36.2821 57.6465 36.292 57.6386 36.2996C57.5519 36.3829 57.4291 36.4667 57.2685 36.5028C57.1034 36.5397 56.9391 36.5173 56.791 36.4549C56.5888 36.3696 56.41 36.2076 56.2451 35.9998L56.0839 35.7772C56.0312 35.6982 55.9254 35.6326 55.5703 35.6082C55.4884 35.6026 55.4024 35.5997 55.3076 35.5965C55.2152 35.5934 55.1124 35.5898 55.0107 35.5838C54.8597 35.5749 54.6903 35.56 54.5195 35.5223L54.3486 35.4764C54.2928 35.4587 54.2271 35.4441 54.124 35.4207C54.0308 35.3997 53.9097 35.3722 53.789 35.3309C53.631 35.2768 53.4473 35.1897 53.288 35.0399C53.2133 35.1095 53.0948 35.225 53.0205 35.2879C52.9709 35.3299 52.8958 35.3892 52.8095 35.4334C52.7609 35.4583 52.5685 35.5534 52.3476 35.4774L52.2519 35.4334L52.25 35.4325C52.2413 35.4369 52.2328 35.4425 52.2236 35.4471L51.1181 35.9998H50.9882C50.9787 36 50.9633 36.0003 50.9443 36.0008C50.9059 36.0019 50.8506 36.0041 50.7861 36.0086C50.7435 36.0117 50.6981 36.0164 50.6523 36.0213C50.6997 36.0604 50.741 36.0995 50.7754 36.1356C50.807 36.1688 50.8553 36.2233 50.8935 36.2918C50.9093 36.3202 50.9509 36.3991 50.9609 36.5067C50.9663 36.5657 50.9647 36.6572 50.9218 36.7567C50.8752 36.8645 50.7945 36.9494 50.6982 37.0018C50.5352 37.0903 50.3816 37.0607 50.3457 37.0536C50.2881 37.042 50.2411 37.0232 50.2129 37.0106C50.1834 36.9974 50.1538 36.9818 50.1259 36.9657L50.0459 36.9159C49.8855 36.8089 49.7469 36.7017 49.6347 36.5926C49.5258 36.5603 49.4166 36.5484 49.3134 36.5643C49.2215 36.5785 49.1132 36.6178 48.9951 36.7147L48.873 36.8319C48.7898 36.9254 48.6804 37.0088 48.542 37.0545C48.4022 37.1007 48.2654 37.098 48.1464 37.0702C47.9296 37.0193 47.7591 36.8819 47.6474 36.7772C47.4717 36.6123 47.2946 36.379 47.1474 36.1815C47.1373 36.2366 47.1262 36.2889 47.1123 36.3377C47.0724 36.4771 46.9885 36.6883 46.7793 36.8162C46.5493 36.9566 46.3176 36.91 46.1933 36.869C46.0723 36.829 45.9537 36.7617 45.873 36.7157C45.5568 36.5351 45.2586 36.354 44.8437 36.4266L44.6582 36.4745C44.3985 36.561 44.1358 36.548 43.9101 36.4051C43.8548 36.37 43.8078 36.328 43.7666 36.287C43.4597 36.4951 43.0871 36.6039 42.8232 36.662C42.6433 36.7015 42.4792 36.725 42.3613 36.7391C42.3022 36.7462 42.2534 36.7508 42.2187 36.7537C42.2016 36.7552 42.1877 36.7569 42.1777 36.7577C42.1727 36.758 42.168 36.7584 42.165 36.7586H42.1591L42.0918 36.7625L42.0263 36.7489L38.4658 36.0028L32.0478 36.4969L32.0459 36.4979C32.0433 36.4981 32.0389 36.4984 32.0341 36.4989C32.0244 36.4998 32.0098 36.501 31.9912 36.5028C31.9533 36.5065 31.8972 36.5115 31.8252 36.5184C31.6808 36.5321 31.4705 36.5525 31.208 36.576C30.6826 36.6231 29.9451 36.6852 29.0986 36.7479C27.408 36.8731 25.2685 36.9998 23.5 36.9998C23.0851 36.9998 22.6309 36.8395 22.3242 36.7108C22.1618 36.6426 22.021 36.5741 21.9209 36.5233C21.9049 36.5152 21.8898 36.5071 21.8759 36.4998H17.541C17.5345 36.501 17.5273 36.5024 17.5195 36.5037C17.4768 36.5111 17.4139 36.5213 17.3339 36.535C17.1734 36.5624 16.9424 36.6023 16.6621 36.6493C16.1012 36.7432 15.3399 36.8687 14.54 36.994C13.7406 37.1192 12.8995 37.2442 12.1796 37.3387C11.4721 37.4316 10.8471 37.4998 10.5 37.4998C10.0169 37.4999 9.10315 37.6018 8.19137 37.658C7.75757 37.6848 7.32664 37.7008 6.99117 37.6786C6.8274 37.6677 6.6538 37.6454 6.50484 37.5975C6.42395 37.5714 6.22253 37.498 6.09859 37.3123C6.06292 37.3017 6.01317 37.2883 5.94723 37.2752C5.72063 37.2304 5.40661 37.1984 5.05953 37.1707C4.73355 37.1447 4.34617 37.1204 4.06051 37.0955C3.91188 37.0826 3.76941 37.0681 3.64937 37.0496C3.57474 37.0382 3.47083 37.0201 3.37203 36.9862L3.27633 36.9471C2.77998 36.699 2.35925 36.5088 1.98629 36.3299C1.63295 36.1605 1.30377 35.9921 1.06734 35.8075C0.827383 35.6199 0.572893 35.3266 0.611288 34.9032C0.644165 34.542 0.886464 34.2344 1.14644 33.9745L2.64644 32.4745L3.19625 31.9295C3.32339 31.8085 3.43596 31.7089 3.56051 31.6346C3.69344 31.5554 3.81615 31.5192 3.91891 31.4891C4.02174 31.459 4.141 31.4254 4.32906 31.3573L4.98238 31.12C4.98937 31.1174 4.9948 31.1147 4.99898 31.1131H5.00191L5.00289 31.1121H5.00094C5.00436 31.1109 5.00729 31.1107 5.00875 31.1102C5.00924 31.11 5.01072 31.1096 5.01168 31.1092L5.01266 31.1082C5.01323 31.108 5.01462 31.1076 5.01558 31.1073C5.01841 31.1063 5.04925 31.0967 5.07711 31.0897C5.08149 31.0922 5.08554 31.0959 5.0898 31.0985C5.21369 31.0597 5.44225 30.9865 5.84176 30.8534L6.13473 30.7625C6.79501 30.5743 7.29267 30.5418 7.7275 30.494C8.20381 30.4416 8.64071 30.3704 9.27633 30.0526L9.50875 29.9481C9.7499 29.8499 10.015 29.7691 10.2734 29.6971C10.6479 29.5927 10.9671 29.5164 11.3232 29.4129C11.6626 29.3143 11.9536 29.2121 12.1777 29.0936C12.4059 28.9728 12.5097 28.864 12.5507 28.7801L12.6621 28.5614C12.9235 28.0712 13.1906 27.7236 13.4765 27.4813C13.8146 27.1948 14.1488 27.0813 14.4541 27.0252C15.0853 26.9093 15.2915 27.0012 15.6464 26.6463C15.9686 26.3242 16.311 26.1764 16.6435 26.1297C16.9502 26.0868 17.2396 26.1353 17.3955 26.1541C17.4284 26.1581 17.4556 26.1581 17.4775 26.16C17.4857 26.1189 17.4958 26.058 17.5009 25.9705L17.5097 25.8817C17.5398 25.6778 17.6333 25.4854 17.8105 25.3455C17.993 25.2015 18.2068 25.1599 18.3691 25.1483C18.6815 25.1261 19.0606 25.2043 19.3398 25.2586C19.6409 25.3172 19.8598 25.3535 20.0117 25.3514C20.0517 25.0241 20.1583 24.7499 20.3242 24.5164C20.5032 24.2644 20.7316 24.0887 20.9472 23.95C21.055 23.8807 21.1673 23.816 21.2724 23.7557C21.3806 23.6937 21.4824 23.6357 21.5849 23.5731C21.7872 23.4496 21.9753 23.3175 22.1464 23.1463L22.2832 23.0233C22.6107 22.7578 22.9965 22.6373 23.3515 22.575C23.7436 22.5063 24.1844 22.4971 24.5087 22.4745C24.8719 22.4491 25.1124 22.4079 25.2695 22.325C25.3794 22.267 25.4714 22.1797 25.5048 21.9325L25.539 21.5877C25.564 21.2287 25.5619 20.828 25.5478 20.3953C25.5304 19.8624 25.4883 19.1716 25.4726 18.6004C25.456 17.994 25.462 17.377 25.541 16.8075C25.6137 16.2835 25.7533 15.7702 26.0166 15.3309L26.5039 11.4373L26.5068 11.4129L26.5127 11.3885V11.3856C26.5131 11.3835 26.5137 11.3797 26.5146 11.3758C26.5164 11.3679 26.52 11.3565 26.5234 11.3416C26.5304 11.3116 26.5405 11.2676 26.5537 11.2118C26.5802 11.0997 26.6181 10.9387 26.666 10.745C26.7616 10.358 26.8959 9.83564 27.0488 9.29672C27.2011 8.7596 27.3753 8.19643 27.5507 7.73226C27.6382 7.50082 27.7297 7.28388 27.8232 7.10336C27.9083 6.93912 28.0246 6.74537 28.1796 6.61605C28.3291 6.49148 28.5401 6.40562 28.7207 6.34359C28.9195 6.27533 29.1582 6.21135 29.414 6.15121C29.9272 6.03059 30.5479 5.91827 31.1406 5.82308C31.7348 5.72767 32.3096 5.64761 32.7353 5.59164C32.9483 5.56364 33.125 5.54131 33.248 5.52621C33.3093 5.51869 33.3576 5.51256 33.3906 5.50863C33.4069 5.50668 33.42 5.50573 33.4287 5.50472C33.4327 5.50425 33.4362 5.504 33.4384 5.50375L33.4414 5.50277H33.4423L33.4707 5.49984H33.5C34.3436 5.49984 34.9002 5.48983 35.2578 5.47738C35.2905 5.44551 35.3201 5.42379 35.3388 5.41195C35.3906 5.37922 35.4368 5.36384 35.458 5.35726C35.5017 5.34368 35.5379 5.339 35.5488 5.33773C35.5755 5.33464 35.597 5.33484 35.6025 5.3348C35.617 5.33468 35.629 5.33464 35.6328 5.3348C35.664 5.33635 35.7256 5.34379 35.7832 5.3514L37.539 5.50082L38.0468 5.53207C38.3191 5.54316 38.5294 5.53965 38.6884 5.52816C38.6648 5.50529 38.6403 5.47988 38.6132 5.45492C38.3956 5.25445 38.1219 5.0376 37.8252 4.79183C37.5416 4.55703 37.2369 4.29592 37.0078 4.0389C36.8927 3.90982 36.7814 3.76453 36.7011 3.60922C36.622 3.45601 36.5533 3.25502 36.5791 3.03012C36.6382 2.51773 37.0996 2.28135 37.5136 2.16879C37.9625 2.04684 38.6135 1.99164 39.5039 1.99984L40.7402 2.00277C43.4966 1.99316 45.4497 1.8768 48.5195 1.99984L48.7548 2.00472C49.917 2.01049 50.8527 1.7106 51.8691 1.41293ZM5.12398 31.1209C5.29902 31.2359 5.38402 31.378 5.41988 31.5155C5.46275 31.5016 5.5108 31.4862 5.56441 31.4686C5.50775 31.2858 5.36279 31.1944 5.28902 31.162C5.21418 31.1291 5.14883 31.1227 5.12398 31.1209ZM45.3554 13.2039C44.9826 13.2567 44.7126 13.5018 44.5371 13.6971C44.3602 13.8939 44.1914 14.1462 44.0771 14.3026C44.013 14.3902 43.9619 14.4558 43.9179 14.5028L43.8711 14.5487C43.3641 14.7888 43.0648 15.0081 42.4912 15.4002L41.8076 15.8573C41.6014 15.9919 41.483 16.0509 41.4257 16.076C41.3987 16.0878 41.3819 16.0937 41.3681 16.0985C41.3673 16.0988 41.3404 16.1075 41.3173 16.117C41.3043 16.1224 41.2743 16.1352 41.2402 16.1561C41.208 16.1758 41.1434 16.2206 41.0879 16.3006C40.9339 16.5226 41.0158 16.7432 41.0449 16.8055C41.0563 16.8298 41.0692 16.8491 41.0761 16.8602C41.0765 16.8623 41.0766 16.8653 41.0771 16.868L41.0859 16.9998V19.9461L41.2509 20.0955L42.6015 21.3143C42.6624 21.3978 42.7363 21.4504 42.7783 21.4754C42.8668 21.5281 42.9588 21.5536 43.0185 21.5672C43.1465 21.5963 43.3027 21.6093 43.4541 21.6161C43.7658 21.63 44.1744 21.6207 44.582 21.6034C44.9931 21.5859 45.4191 21.5595 45.7695 21.5379C46.1317 21.5157 46.3909 21.4999 46.4961 21.4998C46.5019 21.5007 46.5214 21.5042 46.5576 21.5155C46.6072 21.531 46.6693 21.5565 46.748 21.5916C46.8269 21.6268 46.9105 21.6671 47.0058 21.7127C47.0982 21.757 47.2008 21.8055 47.3046 21.8504C47.504 21.9367 47.7554 22.03 48.0127 22.0496C48.2901 22.0708 48.6104 22.0065 48.8613 21.7381L48.9355 21.6668C49.015 21.5997 49.1117 21.5407 49.2392 21.4666C49.3899 21.3791 49.6231 21.2513 49.8115 21.0565C50.2015 20.6529 50.3082 20.0909 50.1533 19.2547L50.0703 18.8787C50.054 18.8135 50.0602 18.7087 50.1152 18.535C50.1416 18.4517 50.1743 18.3675 50.2109 18.2733C50.2445 18.1866 50.2863 18.0795 50.3164 17.9784C50.3445 17.8837 50.3805 17.7368 50.3642 17.5789C50.3444 17.3894 50.2483 17.1935 50.0468 17.0692C49.8794 16.9661 49.6904 16.9463 49.541 16.9461C49.4615 16.946 49.3758 16.9519 49.2841 16.9627L48.9902 17.0096C48.779 17.0506 48.6371 17.0838 48.4941 17.1014C48.3573 17.1183 48.2966 17.1081 48.2724 17.0995C48.2687 17.0984 48.2465 17.0934 48.2109 17.0252C48.1768 16.9597 48.1374 16.8475 48.1084 16.6639L48.0839 16.4559C48.0674 16.2709 48.0425 16.1102 48.0048 15.9784C47.9706 15.8589 47.9052 15.6879 47.7548 15.5633C47.5683 15.409 47.358 15.4076 47.2177 15.4383C47.1792 15.4468 47.1422 15.4609 47.1084 15.4735L47.0625 15.3495C46.9734 15.0686 46.9761 14.9554 46.9785 14.9315C46.9767 14.9355 46.9586 14.9782 47.0048 14.8905C47.0379 14.8277 47.0962 14.6971 47.0752 14.5243C47.0571 14.3767 46.9872 14.2637 46.9394 14.1952C46.8929 14.1285 46.8283 14.0508 46.7451 13.9608L46.4394 13.6463C46.1272 13.3341 45.7616 13.1466 45.3554 13.2039Z" fill="#3AB7D0"/>
</svg>
