<svg width="74" height="27" viewBox="0 0 74 27" fill="none" xmlns="http://www.w3.org/2000/svg">
<path d="M20 2.99998C18.5065 3.49779 19 3.99998 18 6.49998C17.0713 8.8217 20.8718 6.49219 19.5 11.9999C18.1282 17.5077 19.3665 17.6875 18.5 18.4999C17.3605 19.5684 13.2222 18.4999 13.2222 18.4999L9 19.5C9 19.5 6.13725 19.7871 3.5 20.9999C-1.19081 23.1573 1.30544 25.1798 0.49995 26.3347C-0.762043 28.1442 6.50003 25.3414 7.00002 26.1493C7.58135 27.0885 13.2222 26.1493 13.2222 26.1493L25.7222 26.6493H37.2222H49.7222L60.8595 26.3349C60.8595 26.3349 64.2774 26.784 66.5 26.6493C68.0592 26.5547 69.688 26.528 70.5 25.5002C71.9116 23.7134 74.4303 20.1578 73 19.5C70.2459 18.2336 64 17.5 62.5 17.5C59.9505 17.5 56.2221 20.4999 52.5 18.9999C51.5945 18.635 42.4919 19.2567 40.5 17.5C39.1184 16.2816 38.3265 18.4839 38 16.5003C37.5686 13.8797 45.5 14.9999 45.5 14.9999C45.5 14.9999 46.1408 15.5118 46 12C46.0194 10.2319 44 9.4999 44 8.49998C44 7.50006 41.5 7.5 40.5 6C39.5 4.5 37.74 4.92212 36.5 4.5C35.26 4.07788 34.9947 3.50854 32 3C28.6325 2.42814 27.8187 0.570586 24.5 0.499976C20.3958 0.412652 21.5 2.49999 20 2.99998Z" fill="#3AB7D0"/>
</svg>
