<svg width="78" height="38" viewBox="0 0 78 38" fill="none" xmlns="http://www.w3.org/2000/svg">
<path d="M36.3594 0.487564C39.7378 0.464691 43.3229 1.07372 46.5655 1.50514L46.8565 1.55104C47.5079 1.67416 47.975 1.89971 48.3174 2.22487C48.6992 2.58766 48.8723 3.02967 49.0078 3.38307C49.1513 3.75711 49.2598 4.0493 49.4766 4.31471C49.6816 4.56554 50.0137 4.82303 50.6494 5.02272L50.8838 5.10085C51.4082 5.28556 51.7932 5.49588 52.0947 5.73659C52.4407 6.01283 52.6507 6.30913 52.8281 6.57545C53.0079 6.84524 53.146 7.06946 53.3721 7.30592C53.5926 7.53645 53.9094 7.78908 54.4307 8.05495L54.6436 8.17311C55.6838 8.79488 56.3445 9.88408 56.916 10.8753C57.5582 11.9889 58.0981 12.9922 58.9063 13.6008L59.335 13.9143C60.2885 14.5917 60.9326 14.9108 61.6104 15.3489C62.3862 15.8504 63.0732 16.4372 64.0078 17.7034L64.1319 17.8528C64.2528 17.981 64.3654 18.0501 64.4639 18.0872C64.5959 18.1366 64.7473 18.1451 64.9326 18.1077C65.3352 18.0262 65.7824 17.7577 66.3096 17.4299C66.5575 17.2758 66.8234 17.1105 67.0811 16.9778C67.3361 16.8465 67.622 16.726 67.916 16.6878C68.226 16.6475 68.5555 16.6985 68.8506 16.9153C69.1311 17.1216 69.3277 17.4399 69.4697 17.8284L69.5606 18.0989C69.9795 19.4565 69.8681 20.8967 69.71 22.2551C69.5366 23.7446 69.3111 25.1276 69.4951 26.4299L69.5635 26.8567C69.5859 26.9772 69.6084 27.0776 69.6299 27.1604C69.652 27.2455 69.6716 27.3059 69.6875 27.3469C69.8521 27.3351 70.1563 27.3206 70.4932 27.5354C70.8226 27.7458 71.1274 28.1371 71.4473 28.7766L71.6153 29.095C71.7679 29.3692 71.878 29.5187 71.9561 29.6008C72.0333 29.6819 72.0679 29.6891 72.1211 29.7024C72.2028 29.7228 72.4343 29.7585 72.6787 29.9173C72.9164 30.0718 73.1491 30.3226 73.416 30.7229C73.7179 31.1758 74.0299 31.3023 74.3164 31.3264C74.6461 31.354 74.9985 31.2517 75.3838 31.1243C75.5583 31.0666 75.7623 30.996 75.9414 30.9563C76.1033 30.9205 76.3748 30.8775 76.6289 31.0003C76.9377 31.1497 77.0476 31.4465 77.0742 31.7034C77.0934 31.8887 77.0781 32.1058 77.0371 32.3508L76.9873 32.6048C76.9144 32.9455 76.7747 33.238 76.542 33.4514C76.3066 33.6673 76.0257 33.7575 75.7559 33.7815C75.2602 33.8254 74.6836 33.6505 74.2334 33.5198C73.7244 33.3721 73.3191 33.2603 72.9981 33.2766C72.8529 33.2841 72.7555 33.3182 72.6856 33.3665C72.6349 33.4015 72.5763 33.4596 72.5205 33.5637L72.4658 33.6839C72.354 33.9759 72.1979 34.245 71.9551 34.4094C71.6791 34.5962 71.3805 34.5915 71.1328 34.5061C70.9098 34.4291 70.7111 34.2825 70.5518 34.1487C70.3878 34.0109 70.2197 33.8458 70.0694 33.6995C69.9124 33.5468 69.7679 33.4087 69.627 33.2942C69.484 33.1781 69.3687 33.1071 69.2793 33.0735C69.2 33.0438 69.1629 33.0509 69.1406 33.0589C69.118 33.067 69.0656 33.0929 68.9922 33.177L68.9112 33.2825C68.7642 33.4974 68.5822 33.6667 68.3623 33.7708C68.1405 33.8756 67.9116 33.8991 67.6973 33.8714C67.2911 33.8186 66.9284 33.5825 66.6602 33.3606C66.3806 33.1292 66.1392 32.8589 65.9717 32.6546C65.9678 32.6498 65.9638 32.6446 65.96 32.6399C65.8973 32.6735 65.8244 32.7112 65.7442 32.7561C65.4467 32.9227 65.0274 33.1709 64.4785 33.5266L63.8858 33.9192C62.8961 34.5883 62.0698 34.7738 61.2617 34.8987C60.5638 35.0066 59.9197 35.0681 59.1377 35.3391L58.794 35.468C57.7905 35.8768 57.0122 35.7329 56.3262 35.5823C55.7363 35.4528 55.2348 35.3277 54.6065 35.4309L54.3281 35.4895C52.5749 35.9431 51.3602 36.121 49.8731 36.3049L48.2647 36.5012C46.5047 36.7205 45.3157 36.8367 43.835 36.9241L42.2246 37.0051C40.3109 37.0878 39.0213 37.1013 37.4219 37.0618L35.6836 37.0051C33.4596 36.9199 32.0622 36.881 30.0401 36.6243L29.1309 36.5003C27.147 36.2116 26.0147 35.8772 24.1055 35.4954C23.2319 35.3208 22.5208 35.4531 21.711 35.5803C20.9559 35.699 20.1296 35.8085 19.1504 35.5403L18.9531 35.4817C18.0316 35.1868 16.9017 34.8007 16.0049 34.4895C15.5562 34.3338 15.1641 34.1964 14.8848 34.0979C14.7453 34.0488 14.6334 34.0089 14.5567 33.9817C14.5438 33.9772 14.5314 33.9729 14.5205 33.969H9.99026L9.88577 33.9182L7.11819 32.5676C7.08755 32.5837 7.05504 32.6026 7.01956 32.6204C6.81093 32.7248 6.51677 32.8582 6.17776 32.97C5.56919 33.1705 4.69985 33.3417 3.92385 33.0169L3.76956 32.9446C2.86251 32.4768 2.05045 32.4095 1.61624 32.3743C1.52302 32.3667 1.39589 32.3568 1.30471 32.3372C1.27765 32.3313 1.23695 32.3213 1.19338 32.304C1.15557 32.2889 1.07379 32.2528 0.999048 32.1751C0.907422 32.0794 0.837865 31.9306 0.858423 31.7561C0.875511 31.6121 0.947154 31.5156 0.98147 31.4749C1.04865 31.3953 1.13073 31.3444 1.16506 31.3235C1.21259 31.2945 1.26819 31.2659 1.32424 31.2376C1.43668 31.1807 1.59295 31.1069 1.78713 31.0159L1.99905 30.926C2.20217 30.8501 2.38258 30.814 2.55276 30.8089C2.7616 30.8027 2.9521 30.851 3.0176 30.8626C3.08479 30.8744 3.12621 30.877 3.19827 30.8577C3.28937 30.8332 3.44852 30.7664 3.7217 30.5842L3.99612 30.4085C4.25221 30.252 4.45934 30.1498 4.63967 30.0852C4.89851 29.9927 5.08331 29.9862 5.22659 29.9827C5.3408 29.9799 5.40602 29.9781 5.52346 29.9407C5.65669 29.8982 5.8707 29.8025 6.23538 29.5755L6.38772 29.4846C6.7397 29.2842 7.06885 29.1696 7.36917 29.221C7.43636 29.2325 7.49601 29.2534 7.54983 29.2766C7.5562 29.266 7.56373 29.2555 7.57034 29.2444L7.67581 29.0813C7.92856 28.7223 8.22747 28.5123 8.57327 28.4436C8.91919 28.3751 9.2549 28.4735 9.39163 28.5032C9.40264 28.5056 9.41354 28.5063 9.42288 28.5081C9.42492 28.5014 9.42858 28.4943 9.43069 28.4866C9.45883 28.3835 9.48481 28.2203 9.50002 27.97L9.52737 27.7512C9.56803 27.5388 9.65139 27.3453 9.78713 27.1819C9.96744 26.9649 10.2016 26.8474 10.4278 26.7854C10.8455 26.6711 11.3581 26.7173 11.7442 26.7473C12.1881 26.7819 12.5155 26.8021 12.7481 26.7424C12.8494 26.7164 12.8981 26.6822 12.9239 26.6546C12.9472 26.6294 12.9864 26.5731 13.0039 26.4368L13.0381 26.1946C13.1255 25.6537 13.2566 25.264 13.4385 24.968C13.6558 24.6148 13.9206 24.4404 14.125 24.3098C14.3228 24.1835 14.451 24.1039 14.5811 23.9358C14.7143 23.7637 14.8718 23.4646 15.0137 22.8821L15.0518 22.6926C15.1237 22.2412 15.0803 21.7265 14.961 21.1497C14.8242 20.489 14.6006 19.8006 14.3789 19.0745C14.1621 18.3641 13.9478 17.6185 13.8643 16.9026C13.7804 16.1832 13.8226 15.4478 14.1582 14.7766C14.4546 14.1841 14.8449 13.8183 15.2989 13.5921C15.7302 13.3771 16.1979 13.3017 16.5957 13.2376C17.411 13.106 18.0977 12.9995 18.7071 12.1975L19.4903 11.177C19.699 10.9139 19.8715 10.7114 20.0567 10.5208C20.4249 10.1417 20.8453 9.80719 21.6807 9.11549L21.9121 8.92897C22.1279 8.76039 22.3005 8.64369 22.4502 8.56471C22.6759 8.44572 22.844 8.41652 23.001 8.40553C23.1239 8.39696 23.1737 8.39907 23.2881 8.36745C23.4107 8.33349 23.6133 8.25538 23.961 8.06276L24.1426 7.94753C24.5461 7.65575 24.807 7.2147 25.1416 6.66725C25.4989 6.08263 25.9501 5.36458 26.8223 5.03249L27.1328 4.91042C27.7999 4.63644 28.0821 4.44369 28.1953 4.3235C28.2224 4.29473 28.2334 4.27627 28.2373 4.26881C28.2399 4.26396 28.2411 4.26181 28.2412 4.261C28.2423 4.2546 28.2443 4.23229 28.2276 4.14284C28.197 3.98006 28.0882 3.58925 28.3369 3.15944C28.5572 2.77907 29.0135 2.43444 29.7764 2.05299L31.4629 1.20143C31.8855 0.995138 32.2249 0.848823 32.5869 0.749283C33.2949 0.554758 34.0574 0.554111 35.6865 0.50026L36.3594 0.487564ZM40.6592 14.0003C40.3586 14.0002 38.5728 13.9532 38.1592 14.0003C37.3056 14.0979 38.5731 16.4027 38 17.0003C37.0001 20.5 37.0008 16.5015 36.5 18.5003C35.5001 20.5004 35.6592 19.3195 36 21.5003C36 26.9996 36.4998 22.288 36.5 23.5003C36.5001 25.5 37.1418 29.2454 37.999 30.0003C38.74 30.6521 40.1826 30.5003 40.999 30.5003C41.6299 30.5003 43.4665 30.8173 43.999 30.0003C44.4368 29.5285 45.9042 29.0951 46.499 28.5003C47.4986 27.5002 45.0001 25.5001 46.5 23.0003C46.9996 22.5005 47 22.1427 47 21.0003C46.9996 20.5009 46.2401 21.1328 46.5 18.5003C45.0008 16.5008 45.5001 15.5012 45 16.5003C44.0006 17.5003 44.8463 19.2871 43.999 16.0003C43.463 13.9211 43.4998 15.9999 42.5 15.5003C41.5 14.5003 42.0373 14.0003 40.6592 14.0003Z" fill="#3AB7D0"/>
</svg>
