<svg width="67" height="50" viewBox="0 0 67 50" fill="none" xmlns="http://www.w3.org/2000/svg">
<path d="M22.9048 0.545473C23.0663 0.558332 23.2084 0.577479 23.3101 0.593325C23.3609 0.601263 23.4033 0.609181 23.4341 0.614809C23.4493 0.617589 23.4627 0.619804 23.4722 0.621645C23.4765 0.622498 23.4808 0.623016 23.4839 0.623598C23.4853 0.623882 23.4875 0.624328 23.4888 0.624575L23.4897 0.625551H23.4907C23.4901 0.629451 23.4789 0.68768 23.3003 1.55719L23.4917 0.625551L23.8999 0.709536L24.1284 1.05915L25.1167 2.5777H31.5698C31.6079 2.48359 31.6484 2.38314 31.6958 2.2818C31.822 2.01205 31.9956 1.69754 32.2251 1.41364C32.4497 1.13587 32.7803 0.82266 33.2368 0.661684L33.3755 0.620668C34.0556 0.46227 34.5357 0.948564 34.6606 1.08258C34.8568 1.29299 35.0293 1.56687 35.1411 1.74274C35.2416 1.90078 35.3155 2.01457 35.3765 2.10016C35.5382 2.11754 35.7155 2.14249 35.8784 2.16754C36.196 2.21639 36.5655 2.28118 36.9126 2.3443C36.976 2.35583 37.0392 2.36803 37.1011 2.37946C37.1552 2.23301 37.2361 2.07401 37.3628 1.92633L37.48 1.80524C37.7612 1.54774 38.093 1.45652 38.3296 1.42536C38.6029 1.38943 38.8631 1.41657 39.0532 1.44879C39.2513 1.48241 39.4279 1.53154 39.5503 1.56989C39.5581 1.57234 39.5662 1.57529 39.5737 1.5777H45.1821L45.4517 2.15387L45.897 3.10504H46.4673C46.4894 3.10171 46.5152 3.09719 46.5435 3.09332C46.6382 3.08042 46.7694 3.0661 46.9185 3.05524C46.926 3.00053 46.9375 2.94074 46.9575 2.87848C47.0114 2.71079 47.1144 2.53717 47.2808 2.39899C47.4419 2.26528 47.6148 2.20441 47.7505 2.17829C47.9314 2.14361 48.0901 2.16237 48.1909 2.18317L48.271 2.2027L48.4155 2.24957C49.1061 2.51341 49.3764 3.20014 49.4888 3.55622C49.6334 4.01439 49.7042 4.55207 49.7554 4.98297C49.7914 5.28619 49.8178 5.53556 49.8462 5.73981C49.9451 5.74015 50.0387 5.73928 50.1206 5.74176C50.2618 5.74606 50.3861 5.75299 50.4751 5.75836C50.5019 5.75998 50.5261 5.76092 50.5464 5.76227C50.5666 5.76095 50.5909 5.75993 50.6177 5.75836C50.7064 5.75315 50.8311 5.74692 50.9722 5.74274C51.2265 5.73523 51.5856 5.73392 51.9019 5.76813C51.9285 5.75319 51.9884 5.72035 52.0981 5.64899C52.3015 5.51675 52.7734 5.19582 53.4204 5.27106C53.5095 5.17012 53.6799 4.98657 53.9028 4.85407C54.2 4.67762 54.555 4.6018 54.9341 4.6734L55.0981 4.71344L55.2896 4.77985C55.3589 4.8078 55.4328 4.84205 55.5044 4.88532C55.5791 4.93051 55.682 5.00376 55.7788 5.11383C55.8725 5.22057 55.9649 5.37194 56.0122 5.56598C56.1673 5.71857 56.2786 5.90045 56.3374 6.10016C56.3985 6.308 56.3939 6.49321 56.3833 6.61188C56.4981 6.70706 56.5902 6.80328 56.6616 6.88629C56.7264 6.96166 56.7857 7.03896 56.8257 7.09039C56.8708 7.14838 56.8997 7.18385 56.9263 7.21442C56.9743 7.26966 56.9838 7.2682 56.9702 7.26129C56.9825 7.26446 57.013 7.26948 57.0688 7.26911L57.2944 7.21247C57.4171 7.17567 57.682 7.08637 57.8882 7.03571C58.0787 6.98893 58.4177 6.91971 58.7778 6.99274C58.8644 6.94044 58.9576 6.89153 59.0591 6.85504L59.1538 6.82575C59.29 6.79018 59.4172 6.78788 59.5308 6.80036C59.6642 6.70432 59.843 6.62399 60.0591 6.61188C60.294 6.59889 60.4838 6.66942 60.6069 6.73883C60.8182 6.85813 60.9257 7.02218 60.9507 7.06012C61.0192 7.16411 61.0528 7.25933 61.0581 7.27399L61.1099 7.46637L61.1792 7.81989C61.1984 7.92798 61.2137 8.02683 61.2251 8.11579C61.2374 8.21255 61.2486 8.33278 61.2485 8.45954C61.3189 8.8489 61.4045 9.25598 61.4927 9.57282C61.5803 9.34762 61.6813 9.1286 61.8013 8.92829C61.9997 8.59684 62.3013 8.22506 62.7515 8.0152L62.9146 7.94586C63.08 7.88169 63.2475 7.83252 63.3638 7.80036C63.4486 7.77691 63.5237 7.7578 63.5776 7.74469C63.6044 7.7382 63.627 7.73278 63.6431 7.72907C63.6508 7.72729 63.6578 7.72529 63.6626 7.72418C63.6648 7.72368 63.6678 7.7235 63.6694 7.72321H63.6714L63.6724 7.72223L64.4556 7.54938L64.6655 7.99957C64.6982 7.95093 64.736 7.90082 64.7788 7.85211C64.8677 7.75113 65.1465 7.46365 65.6079 7.45856C66.126 7.45312 66.4224 7.79591 66.5308 7.95661C66.6447 8.12564 66.7042 8.30518 66.7388 8.42829L66.7749 8.60309C66.7983 8.77321 66.7882 8.92607 66.7808 9.0152C66.7683 9.16506 66.7433 9.32431 66.7144 9.47418C66.656 9.77576 66.5685 10.1163 66.4829 10.4244C66.3963 10.7363 66.3066 11.0329 66.2388 11.2496C66.2203 11.3085 66.2019 11.3613 66.187 11.4078L66.2739 12.3287L66.2856 12.4586L66.2642 12.5875L66.1802 13.0855L66.2739 14.0787L66.3784 15.2037L66.3872 15.2964L66.3784 15.3892L66.2739 16.5142L66.2388 16.8873L66.2095 16.9146L66.1421 17.6392L66.0376 18.7642L65.9321 19.8892L65.9292 19.9263L65.9233 19.9634L65.7319 21.0884L65.6479 21.5865L65.3354 21.7437C65.4472 21.876 65.5817 22.0192 65.7397 22.1871C65.8923 22.3491 66.0697 22.538 66.2261 22.7242C66.3767 22.9035 66.5542 23.1351 66.6772 23.3912L66.7642 23.6002C66.8401 23.8155 66.8802 24.0512 66.855 24.3052C66.8229 24.6279 66.6946 24.8766 66.605 25.0308C66.4106 25.3653 66.3124 25.4525 66.1987 25.7681L65.6792 27.3814L65.6382 27.5084L65.5649 27.6207L64.8306 28.7457L64.23 28.4791C64.12 28.6279 63.9875 28.7811 63.8296 28.9127L63.6714 29.0308C63.2088 29.3393 62.8438 29.6441 62.5972 29.8687C62.4744 29.9805 62.3813 30.0717 62.3218 30.1324C62.2924 30.1624 62.2711 30.1851 62.2583 30.1988C62.2523 30.2053 62.2477 30.2101 62.2456 30.2125L62.2358 30.2232L62.2251 30.2349H62.2241L62.2231 30.2369C62.222 30.238 62.2201 30.2398 62.2183 30.2418C62.2142 30.2461 62.2082 30.2524 62.2007 30.2603C62.1851 30.2767 62.1619 30.3007 62.1333 30.3306C62.076 30.3906 61.9947 30.4758 61.8979 30.5757L61.1968 31.2857C61.0479 31.4327 60.7971 31.6777 60.5854 31.8843C60.4795 31.9878 60.3824 32.0823 60.312 32.1509C60.2877 32.1747 60.2658 32.1956 60.2485 32.2125C60.242 32.2209 60.2355 32.2305 60.228 32.2398C60.1777 32.3029 60.1071 32.3871 60.0132 32.4898C59.872 32.6441 59.6782 32.8406 59.4214 33.0709L59.1431 33.3121C59.1393 33.3158 59.1249 33.33 59.1001 33.359C59.0681 33.3963 59.0287 33.4461 58.9839 33.5084C58.8935 33.6339 58.7972 33.7853 58.7056 33.9381C58.6149 34.0892 58.5346 34.2328 58.4771 34.3384C58.4485 34.3909 58.4258 34.4337 58.4106 34.4625C58.4031 34.4767 58.3977 34.4877 58.394 34.4947C58.3924 34.4978 58.3909 34.5001 58.3901 34.5015L58.3892 34.5035L58.2397 34.7945L57.9468 34.941L56.9976 35.4146C56.9709 35.4317 56.9367 35.4543 56.896 35.4791C56.8024 35.5359 56.6702 35.6118 56.5161 35.689C56.3343 35.7801 56.0474 35.9095 55.7222 35.9849C55.7036 36.1395 55.675 36.3646 55.6187 36.5709C55.5488 36.8264 55.4131 37.1638 55.1196 37.4449L54.9839 37.5611C54.5552 37.8912 53.9939 37.9717 53.6177 37.9996C53.1898 38.0312 52.7282 38.0092 52.3257 37.9722C51.9176 37.9348 51.5377 37.8793 51.2622 37.8336C51.1693 37.8181 51.0872 37.8021 51.019 37.7896L49.2222 38.2007L49.1226 38.2242L49.02 38.2261H49.0142C49.008 38.2263 48.9974 38.2266 48.9839 38.2271C48.9561 38.2281 48.913 38.23 48.8589 38.233C48.7497 38.239 48.5946 38.2499 48.4175 38.2691C48.1397 38.2992 47.8409 38.3463 47.5815 38.4136L47.3374 38.4879C46.4235 38.8155 45.6724 38.3281 45.4419 38.2086C45.2773 38.1233 45.2238 38.1079 45.1997 38.1041C45.1961 38.1035 45.196 38.1031 45.1958 38.1031L45.1333 38.1265C44.457 38.453 43.6332 38.4187 43.1382 38.3677C42.8614 38.3392 42.616 38.2973 42.4409 38.2623C42.3761 38.2493 42.3197 38.2365 42.2739 38.2261H40.2583L39.0376 38.6666L38.2505 38.9517L37.8325 38.2252V38.2271L37.8315 38.2252C37.8304 38.2231 37.8285 38.2192 37.8257 38.2144C37.8193 38.2036 37.808 38.1858 37.7944 38.1636C37.7668 38.1187 37.7259 38.053 37.6753 37.9771C37.5914 37.8513 37.487 37.71 37.3804 37.5806C37.2837 37.6612 37.1872 37.7373 37.1011 37.7994C36.9902 37.8793 36.8867 37.9482 36.812 37.9966C36.7744 38.0211 36.7428 38.0411 36.7202 38.0552C36.7091 38.0622 36.6995 38.0687 36.6929 38.0728C36.6898 38.0747 36.687 38.0765 36.6851 38.0777C36.6841 38.0783 36.6828 38.0792 36.6821 38.0797H36.6812V38.0806C36.6795 38.0778 36.6628 38.0498 36.4995 37.7818V37.7828L36.6802 38.0806L36.6743 38.0845C36.6163 38.1193 36.5574 38.1487 36.4995 38.1754V38.3863L37.0796 40.1422L37.6499 41.1607C37.9165 41.218 38.2862 41.2996 38.7173 41.4039C39.6048 41.6185 40.7751 41.9315 41.8677 42.316C42.9159 42.6849 44.0513 43.172 44.7407 43.7916C45.0849 44.101 45.4861 44.5944 45.4927 45.2623C45.4985 45.8774 45.171 46.3546 44.7769 46.7017L44.605 46.8424C44.1004 47.2257 43.5723 47.3191 43.0933 47.2847C42.6999 47.2564 42.2588 47.1241 42.0425 47.0718C41.767 47.0053 41.5764 46.981 41.396 47.0035C41.2531 47.0214 41.0631 47.0762 40.813 47.2506L40.7017 47.3326C40.3069 47.6428 39.8625 47.7612 39.5005 47.8091C39.1433 47.8563 38.7868 47.8438 38.5337 47.8345C38.376 47.8288 38.2646 47.8254 38.1831 47.8248C37.9747 48.0469 37.7246 48.1553 37.5864 48.2037C37.342 48.2891 37.076 48.3254 36.8472 48.3433C36.3791 48.3799 35.8226 48.3547 35.3228 48.3131C34.8126 48.2705 34.3151 48.2069 33.9487 48.1549C33.7649 48.1287 33.611 48.1056 33.5034 48.0884C33.4688 48.0829 33.4384 48.0779 33.4136 48.0738H12.1265L10.9761 48.0465H10.2681C10.2367 48.0643 10.2032 48.0842 10.1675 48.1041C9.96593 48.2163 9.68673 48.3655 9.40576 48.4918C9.16671 48.5992 8.7823 48.7582 8.42334 48.7838C8.27571 48.7942 7.80168 48.8105 7.44092 48.4224C7.43789 48.4191 7.43513 48.415 7.43213 48.4117C7.23386 48.5048 7.03169 48.6095 6.86377 48.7027C6.7597 48.7604 6.67148 48.8106 6.61084 48.8463C6.58101 48.8638 6.55777 48.8781 6.54248 48.8873C6.53491 48.8918 6.52833 48.895 6.5249 48.897C6.52342 48.898 6.52254 48.8996 6.52197 48.9L6.34619 49.0074L6.14209 49.0367L5.99951 48.0465L6.14111 49.0367H6.13721C6.13519 49.0371 6.13237 49.0382 6.12939 49.0386C6.12276 49.0395 6.11293 49.0401 6.10205 49.0416C6.07988 49.0445 6.04846 49.0488 6.01025 49.0533C5.93332 49.0623 5.82506 49.0739 5.69482 49.0845C5.43568 49.1058 5.07609 49.1247 4.68994 49.1138C4.3113 49.1031 3.86309 49.0625 3.44385 48.9449C3.09747 48.8476 2.64743 48.6637 2.31201 48.2867L2.17529 48.1129C1.66781 47.3733 1.38243 46.4869 1.22314 45.8404C1.14119 45.5077 1.08771 45.2161 1.0542 45.0064C1.03742 44.9014 1.02493 44.8155 1.01709 44.7545C1.01318 44.724 1.01034 44.699 1.0083 44.6812C1.00731 44.6725 1.00694 44.6652 1.00635 44.6597C1.00606 44.6572 1.00556 44.6547 1.00537 44.6529V44.65L1.00439 44.649C1.00447 44.6488 1.01456 44.6472 1.99951 44.5465L1.00439 44.648L0.943848 44.0494L1.44482 43.7144L2.86768 42.7652C2.88192 42.7533 2.89487 42.7404 2.90869 42.73C3.14948 42.5503 3.4122 42.5221 3.49072 42.5132C3.72346 42.4869 4.06617 42.4973 4.6001 42.5513L4.99854 42.565C5.14475 42.5663 5.31732 42.5636 5.49951 42.5621V42.2945L5.55127 42.1402L5.99951 40.7955V39.6324L6.29248 39.3394L7.09717 38.5338C7.1476 38.4102 7.22071 38.2872 7.32471 38.1734C7.56845 37.9069 7.86723 37.8146 8.06201 37.7808C8.11187 37.7722 8.16118 37.7651 8.2085 37.7613C8.12861 37.5784 8.03938 37.3819 7.94287 37.1812C7.77744 36.8373 7.60374 36.4949 7.45068 36.1939C7.37827 36.0515 7.30543 35.9101 7.2417 35.7818L7.0835 35.4468C6.85865 34.9321 6.93979 34.4276 7.06201 34.0718C7.1852 33.7135 7.38514 33.3958 7.56201 33.1549C7.74396 32.9071 7.93455 32.6961 8.07568 32.5504C8.11385 32.511 8.14971 32.4758 8.18115 32.4449L9.10498 30.5992L9.31592 30.1783L9.7749 30.0728L10.7144 29.855L11.0376 28.8863L11.5825 27.0269L10.3042 25.1509C10.148 25.1664 9.96469 25.1768 9.77393 25.1588C9.57383 25.1397 9.30711 25.0883 9.04736 24.942L8.93701 24.8736C8.47337 24.5577 8.30964 24.0823 8.25732 23.7379C8.20531 23.395 8.24053 23.0571 8.28467 22.8023C8.31631 22.6198 8.36012 22.4496 8.40088 22.3062C8.30774 22.128 8.19508 21.9007 8.09717 21.6558C7.98677 21.3796 7.86516 21.0155 7.83447 20.647C7.80656 20.3111 7.83557 19.6626 8.40576 19.2418L8.521 19.1646C8.7927 18.9996 9.0768 18.941 9.29053 18.9195C9.30826 18.9177 9.32663 18.9169 9.34424 18.9156L9.33936 18.2095L9.31396 14.522L9.31299 14.5132L10.314 14.5152L9.31396 14.5132L9.31689 12.732C9.23588 12.6769 9.14966 12.6165 9.06689 12.5494C8.90163 12.4153 8.61017 12.1545 8.46045 11.7808C8.37563 11.5688 8.32157 11.2817 8.40576 10.9654C8.4901 10.6486 8.68262 10.4173 8.88037 10.2613L8.93311 10.2134C8.97719 10.1644 9.00081 10.0984 9.05615 9.90192C9.0884 9.78742 9.15953 9.51339 9.32178 9.26032C9.51505 8.95897 9.79889 8.73396 10.1665 8.60407L10.2612 8.57477C10.4785 8.51714 10.6772 8.52792 10.8247 8.55426C10.9091 8.56938 10.987 8.59146 11.0552 8.61481L11.0581 8.61383C11.3482 8.46916 11.655 8.48706 11.8911 8.58551C11.9756 8.62084 12.0456 8.66564 12.1021 8.70758C12.1574 8.63634 12.218 8.56556 12.2856 8.49762C12.5496 8.23253 12.8794 8.02834 13.2671 7.88043C13.2908 7.62859 13.3655 7.31678 13.5806 7.01227C13.7844 6.72375 14.0649 6.50904 14.394 6.35114C14.4252 6.24528 14.4596 6.10368 14.4868 5.93414C14.5204 5.72466 14.5429 5.51383 14.5562 5.35211V5.35114C14.4798 5.19243 14.3792 4.96664 14.2983 4.71442C14.2204 4.47132 14.139 4.13913 14.1479 3.79059C14.1571 3.43596 14.2695 2.92594 14.7319 2.56598L14.8462 2.48493C15.1159 2.31284 15.4004 2.25196 15.6108 2.23004C15.8588 2.20434 16.0947 2.22379 16.2769 2.24957C16.4639 2.27608 16.6295 2.31504 16.7456 2.34625C16.7559 2.34902 16.7662 2.35235 16.7759 2.35504H18.6108L18.8804 1.86969L19.1655 1.35504H20.6235C20.6428 1.337 20.6616 1.31703 20.6821 1.2984C20.8815 1.11777 21.2481 0.811612 21.6733 0.661684L21.8433 0.610903C22.2428 0.509319 22.6582 0.525884 22.9048 0.545473ZM38.1831 11.3824C38.0034 11.3955 37.885 11.4925 37.8306 11.5464C37.7288 11.6474 37.672 11.7773 37.6431 11.8472C37.6065 11.9359 37.5727 12.039 37.5415 12.1451C37.42 12.5584 37.2814 13.2218 37.1382 13.8414C36.9961 14.4561 36.8453 15.0329 36.6938 15.4146C36.512 15.1528 36.4462 14.9819 36.3989 14.8756C36.3843 14.8426 36.3491 14.7606 36.2944 14.6881C36.2234 14.5941 36.0909 14.4785 35.8892 14.4595C35.7342 14.4452 35.609 14.4984 35.5601 14.5201L35.3843 14.6119C35.34 14.6368 35.294 14.6438 34.9741 14.5425C34.755 14.4731 34.2859 14.3078 33.8354 14.5884L33.7456 14.6509C33.3587 14.9478 33.2453 15.3225 33.2065 15.6529C33.1892 15.801 33.1845 15.9638 33.1782 16.0855C33.173 16.1859 33.1635 16.2772 33.1509 16.3648C33.1354 16.3757 33.1221 16.3874 33.1099 16.398C33.0394 16.2313 32.9679 16.0736 32.895 15.9429C32.8452 15.8537 32.7872 15.7605 32.7202 15.6793C32.6592 15.6053 32.5569 15.4985 32.4097 15.4361C32.2288 15.3596 32.0121 15.3661 31.8257 15.4898C31.7129 15.5648 31.6379 15.6655 31.5874 15.7554L31.5444 15.8404C31.1966 16.6076 30.4838 17.9841 30.1577 19.2427C29.9945 19.8729 29.9067 20.5443 30.0503 21.1353C30.1971 21.7387 30.5797 22.2275 31.2456 22.4849C31.2517 22.4979 31.2596 22.5142 31.2671 22.5338C31.3125 22.6534 31.3573 22.8421 31.396 23.1011C31.4727 23.6148 31.5117 24.3106 31.5278 25.067C31.5604 26.5902 31.5005 28.2316 31.5005 29.0474C31.5005 29.1035 31.5051 29.1944 31.5405 29.2906C31.5793 29.3952 31.6757 29.5546 31.8774 29.6226C32.0582 29.6834 32.2119 29.6311 32.2808 29.6011C32.3563 29.5682 32.4167 29.5241 32.4556 29.4927C32.5979 29.3777 32.7617 29.1764 32.9087 28.9888C33.2385 28.5679 33.6335 28.0186 34.0522 27.5416C34.2589 27.3062 34.4542 27.1082 34.6294 26.9693C34.7853 26.8457 34.8852 26.8011 34.9331 26.7877C34.9364 26.7923 34.9397 26.7987 34.9438 26.8052C35.006 26.9048 35.0884 27.1365 35.1323 27.5953C35.1786 28.0788 35.2395 28.4504 35.3345 28.6929C35.3759 28.7987 35.4654 28.9929 35.6626 29.1041C35.7785 29.1692 35.9137 29.195 36.0493 29.1724C36.1744 29.1514 36.2704 29.0947 36.3335 29.0464C36.4519 28.9558 36.5365 28.8335 36.5923 28.7418C36.654 28.6402 36.712 28.5221 36.7671 28.4009C36.8771 28.1588 36.9937 27.8571 37.1099 27.5513C37.3508 26.9173 37.5968 26.2568 37.854 25.8101C37.9461 25.6502 38.0216 25.5515 38.0747 25.4957C38.3728 25.7541 38.7237 26.1904 39.0649 26.689C39.3916 27.1664 39.687 27.6663 39.894 28.0396C39.908 28.1361 39.9423 28.2224 39.981 28.2916L40.1763 28.6256C40.1912 28.649 40.2265 28.7044 40.2681 28.7496C40.2783 28.7607 40.3142 28.7993 40.3687 28.8345C40.3951 28.8516 40.4616 28.8913 40.5562 28.9078C40.668 28.9271 40.8347 28.9136 40.9751 28.7886C41.0943 28.6825 41.1258 28.5549 41.1353 28.5025C41.1458 28.4435 41.143 28.3949 41.1411 28.3716C41.1373 28.3246 41.1283 28.2869 41.1245 28.273C41.1129 28.2306 41.0938 28.1886 41.0815 28.1607C41.3813 28.1205 41.7662 28.1009 42.1968 28.0709C42.6185 28.0415 43.0832 28.0022 43.4634 27.9156C43.6531 27.8724 43.8513 27.8111 44.022 27.7164C44.1906 27.6227 44.387 27.465 44.4741 27.2076L44.8599 26.0806C44.9665 25.7657 45.0529 25.4953 45.1265 25.2242C45.2777 24.667 45.3754 24.1008 45.4966 23.108L45.5181 22.8277C45.5395 22.1824 45.363 21.5841 45.1021 21.0338C44.8071 20.4121 44.3882 19.8197 43.9927 19.2662C43.587 18.6986 43.2042 18.1701 42.9224 17.6295C42.6436 17.0946 42.4846 16.5829 42.5005 16.0631L42.4956 15.8121C42.4893 15.7309 42.477 15.652 42.4585 15.5777C42.4219 15.4309 42.3476 15.2557 42.189 15.1265C41.8376 14.8409 41.4292 15.0154 41.2583 15.105C41.0424 15.2184 40.8154 15.3993 40.606 15.5816C40.3912 15.7686 40.162 15.988 39.9429 16.1949C39.7193 16.406 39.5045 16.6066 39.3042 16.775C39.138 16.9147 38.9984 17.0149 38.8892 17.0787L38.8843 17.0377C38.8356 16.3895 38.9031 15.5132 38.9448 14.5611C38.9796 13.7658 38.9964 12.9084 38.8677 12.2086L38.8032 11.9185C38.7889 11.8648 38.7701 11.8065 38.7456 11.7506C38.7234 11.7 38.6825 11.619 38.6099 11.5455C38.5296 11.4644 38.3824 11.3681 38.1831 11.3824Z" fill="#3AB7D0"/>
</svg>
