<svg width="57" height="32" viewBox="0 0 57 32" fill="none" xmlns="http://www.w3.org/2000/svg">
<path d="M21.9999 10C19.4544 10.0459 16.6259 6.4359 16.4999 7C15.9999 9.23953 15.1526 7.01613 14.9999 8C14.7672 9.5 15.725 10.4378 13.9999 13.5C12.9805 15.3096 12.9321 15.1667 12 16C10.8264 17.0492 9.06382 16.5302 8.5 18C8.09222 19.063 6.72917 19.3274 5.5 21C4.15152 22.8349 1.94723 22.5 1.49981 24L1.49469 24.0171C1.04745 25.5164 0.402766 27.6777 0.499941 30.0179C0.59715 32.3591 2.94221 29.9004 4.49983 30.0179C5.8766 30.1218 7.99975 30.5179 7.99975 30.5179C7.99975 30.5179 10.1963 30.5451 11.6033 30.5179C14.733 30.4573 19.6032 30.0179 19.6032 30.0179H30.1032H35.1032C35.1032 30.0179 37.774 29.6024 39.4998 29.5003C41.2541 29.3965 43.1502 29.0889 45.4999 29.0003C47.4511 28.9267 48.6586 29.6502 50.4999 29.0003C53.8194 27.8287 56.3928 30.4942 56.4999 26.0002C56.6303 20.5344 54.3965 25 52.5 21C50.9919 17.8192 48.3656 19.8391 46.5 18C44.7577 16.2824 44 15.5 44 15.5C44 15.5 44.5001 14.0178 44 12.5C43.6871 11.5502 46.4999 12.0177 45.4999 9C44.4998 5.98227 39.4759 6.52756 38.4999 6.5C36.3441 6.4391 35.1559 0.560816 33.0001 0.499916C29.871 0.411525 29.5269 1.98842 26.3966 1.99989C23.0714 2.01207 25.3246 9.94009 21.9999 10Z" fill="#3AB7D0"/>
</svg>
