<svg width="60" height="27" viewBox="0 0 60 27" fill="none" xmlns="http://www.w3.org/2000/svg">
<path d="M16.0001 19.5C16.0001 19.5 17.3471 17.5357 15.5001 17C12.998 16.2744 7.32686 19 6.69161 17C6.08616 15.0939 6.00006 10.7574 6.00006 9.00005C6.00006 6.85217 11.1958 6.63518 11.5001 6.00005C11.8043 5.36492 8.74832 3.05547 11.0001 1.00005C12.593 -0.453976 17.5001 3.50005 17.5001 3.50005C20.93 3.49987 20.5055 5.97259 23.5001 5.00005C26.4946 4.02751 26.3589 1.0073 32.0001 0.500005C39.3146 -0.157779 33.2366 6.06563 39.0001 5.00005C42.2187 4.40496 46.0602 3.66611 46.5001 4.00003C46.5001 4.00003 50.7173 3.00003 52.5001 3.00003C54.2829 3.00003 57.3541 4.0695 58.0001 7.00003C58.6725 10.051 60.6228 14.6929 58.5001 17C56.5125 19.1602 57.3028 17.8727 54.5001 17C52.4305 16.3556 53.1007 17 50.0001 17C48.3899 17 47.7051 16.9321 46.5001 18C45.3871 18.9863 44.8397 18.7311 44.0001 19.5C41.1599 22.1009 55.0001 20 55.0001 20C55.0001 20 56.9586 21.4982 56.8614 23.8393C56.7638 26.1885 55.1041 24.9254 53.8614 25.3393C52.729 25.7164 52.0481 25.7952 50.8614 25.9225C49.3741 26.082 48.5311 24.9225 47.0311 25.9225C45.8595 26.7035 44.2536 25.7239 43.0311 26.4225C42.7607 26.577 41.5278 26.2521 39.7705 26.4474C38.0131 26.6426 36.7885 26.2272 35.0311 26.4224C33.2738 26.6177 26.0311 26.4224 26.0311 26.4224L20.1664 26.4224C18.9315 26.4224 16.8266 27.1124 15.4965 26.4474C14.4965 25.9474 13.6748 26.8936 12.8614 26.3393C11.0864 25.1297 10.1186 26.317 8.36136 26.3393C6.66992 26.3608 5.68516 26.8019 4.03116 26.4474C-2.41722 25.0651 0.786805 22.863 1.50005 21C2.27335 18.9802 6.69161 21 6.69161 21C6.69161 21 9.62582 21.3952 11.5001 21C13.0917 20.6645 16.0001 19.5 16.0001 19.5Z" fill="#3AB7D0"/>
</svg>
