<svg width="58" height="29" viewBox="0 0 58 29" fill="none" xmlns="http://www.w3.org/2000/svg">
<path d="M10.8992 4.02573C15.4469 3.53412 12.7276 3.58805 17.664 3.50041C21.8073 3.42686 20.6705 2.0254 24.8144 2.0254C29.7477 2.0254 36.3199 3.50041 36.3199 3.50041C36.3199 3.50041 38.4955 1.45344 42.4468 1.49181C43.4334 1.50139 47.0176 0.677205 47.9468 1.00009C48.6168 1.23293 51.8753 0.835066 52.1003 1.49181C52.6056 2.96672 53.7347 3.99456 54.9468 4.52576C59.2448 6.40928 56.2655 7.86106 56.6489 10.8611C57.2573 15.622 51.558 10.0633 51.1809 10.8611C48.221 17.1223 45.9335 10.586 42.5908 10.8611C41.0056 10.9915 41.6534 10.7874 40.0643 10.861C39.0787 10.9067 35.7492 15.1879 35.5533 15.3612C34.9513 15.8937 29.4634 14.0566 29.5001 16.6222C29.5285 18.6102 26.3939 18.8972 30.0533 19.6221C31.8705 19.982 34.2001 17.4955 35.5533 18.112C37.2297 18.8757 39.5008 17.5453 40.0533 17.6221C43.5903 18.1137 43.2281 15.3612 46.26 15.3612C47.7758 15.3611 51.0916 15.1513 52.0532 16.6222C52.5416 17.3692 53.3484 17.3415 53.5001 18.5C53.9988 22.3092 53.2065 20.7255 52.5001 24.5C52.0736 26.7785 51.2037 25.4186 49.1535 26.5002C48.3894 26.9033 47.7789 26.8545 47.3064 26.616C46.237 26.7068 45.0001 26.5002 45.0001 26.5002C45.0001 26.5002 43.3452 26.705 42.0001 27.0002C40.973 27.2256 39.601 25.9327 39.0001 26.9998C38.7014 27.5303 37.4404 26.9834 37.0477 27.4553C36.7975 27.7561 33.5107 27.4553 33.5107 27.4553C33.5107 27.4553 31.6604 27.3804 30.4789 27.4553C29.0865 27.5437 28.3356 27.8824 26.9418 27.947C24.1543 28.0762 23.6675 27.5402 20.8782 27.4553C20.0892 27.4314 18.6353 27.4314 17.8464 27.4553C15.0571 27.5402 14.0105 28.1862 13 27.947C12.3937 27.8035 10.114 28.0489 9.50002 27.947C8.82338 27.8347 8.18232 28.5709 7.50008 28.5002C6.70329 28.4177 6.77924 28.6862 6.00008 28.5002C5.21703 28.3133 4.30363 28.5493 3.50008 28.5002C2.08589 28.4138 0.0982892 29.7574 4.99461e-05 27.4553C-0.0985299 25.1453 2.50006 23.0002 2.50006 23.0002C2.50006 23.0002 5.22399 23.4859 4.91853 21.0002C4.75288 19.6522 4.00007 18.1854 3.00006 16.622C2.20009 15.3714 2.50717 12.8485 4.00006 11.0002C5.1471 9.5801 6.49471 13.8917 7.00006 7.50021C7.06247 6.7109 6.72219 6.76721 7.94675 6.02576C9.59832 5.02576 10.279 4.09277 10.8992 4.02573Z" fill="#3AB7D0"/>
</svg>
