<svg width="98" height="29" viewBox="0 0 98 29" fill="none" xmlns="http://www.w3.org/2000/svg">
<path d="M48.7265 0.39502C49.6905 0.330629 50.6688 0.301564 52.0712 0.505371L53.4208 0.70459C54.6671 0.895909 55.6798 1.09076 57.1406 1.521L57.8661 1.73682C59.4802 2.22552 60.5998 2.63631 62.2451 3.56494L62.3456 3.62646C62.8292 3.95193 63.0789 4.52719 63.2314 5.07764C63.3996 5.68503 63.4866 6.40985 63.5644 7.09619C63.6443 7.8014 63.7148 8.47066 63.8408 9.03369C63.9712 9.61655 64.1376 9.9612 64.3232 10.1187L64.412 10.189C64.6266 10.3431 64.8893 10.4413 65.204 10.5073C65.5723 10.5845 65.9656 10.6095 66.4072 10.647C67.2204 10.716 68.2776 10.82 68.9081 11.7114L68.9658 11.7827C68.9821 11.7996 68.9958 11.8107 69.0058 11.8179C69.0237 11.8305 69.034 11.8335 69.039 11.8345C69.0506 11.8366 69.1046 11.8403 69.2265 11.7788C69.4939 11.6436 69.8035 11.3484 70.1972 10.9761C70.3802 10.803 70.5785 10.6179 70.7763 10.4604C70.9707 10.3057 71.1955 10.1526 71.4374 10.064C71.6895 9.97177 71.9933 9.93948 72.2968 10.0806C72.5878 10.2158 72.7949 10.4722 72.9472 10.7769L73.0029 10.8647C73.0688 10.9479 73.1675 11.0176 73.3193 11.0796C73.5355 11.1679 73.809 11.2209 74.1581 11.2808C74.7916 11.3894 75.7183 11.5117 76.3535 12.147L76.4003 12.1851C76.4591 12.2259 76.5557 12.2733 76.7079 12.3169C76.9057 12.3735 77.1572 12.4133 77.456 12.439C78.0615 12.491 78.7635 12.4811 79.4833 12.4937C80.1709 12.5056 80.8951 12.5378 81.4404 12.6997C81.7151 12.7813 82.0016 12.9114 82.2119 13.1392C82.4126 13.3568 82.5119 13.6283 82.5058 13.9282L82.496 14.0591C82.4473 14.4741 82.6037 15.1199 82.9384 15.9341C83.264 16.7261 83.723 17.5974 84.1913 18.4282C84.4247 18.8421 84.6585 19.2429 84.8769 19.6167C85.0944 19.9891 85.2985 20.3383 85.4687 20.6411C85.6371 20.9407 85.7827 21.2124 85.8769 21.4282C85.923 21.534 85.9666 21.6476 85.9911 21.7554C86.0034 21.8094 86.0154 21.8806 86.0136 21.9585C86.0135 21.9615 86.0128 21.9651 86.0126 21.9683C86.1609 21.8861 86.3157 21.797 86.4745 21.7026C87.0534 21.3586 87.6981 20.9446 88.2187 20.686C88.4787 20.557 88.7556 20.441 89.0126 20.3989C89.2342 20.3628 89.5498 20.3681 89.7939 20.5854L89.8935 20.6919L89.916 20.7163C89.9447 20.7404 90.0001 20.7601 90.1484 20.7417C90.3773 20.7133 90.651 20.6147 91.0449 20.4858C91.7512 20.2548 92.8043 19.9358 93.7773 20.5845C94.6384 21.1587 95.3119 22.1976 95.8163 23.146C96.0738 23.6301 96.2974 24.1118 96.4863 24.5298C96.6793 24.9571 96.8281 25.2984 96.9472 25.5366C97.0007 25.6436 97.0491 25.7845 97.0419 25.9448C97.0338 26.1212 96.9596 26.2784 96.8398 26.395C96.6401 26.589 96.3592 26.63 96.1894 26.644C95.8022 26.6761 95.2607 26.61 94.7392 26.5327C94.1848 26.4505 93.6363 26.3532 93.1308 26.2876C92.8836 26.2555 92.6643 26.2329 92.4824 26.2261C92.3869 26.2225 92.3105 26.2244 92.2519 26.228L92.1259 26.2446C91.9387 26.2933 91.7375 26.2913 91.5605 26.2749C91.3772 26.2579 91.1809 26.2215 90.9872 26.1782C90.6088 26.0935 90.1677 25.9645 89.8056 25.8696C89.4414 25.7742 89.1583 25.7151 88.9687 25.7065C88.9207 25.8671 88.8198 25.9977 88.6913 26.0874C88.5393 26.1933 88.3636 26.236 88.2314 26.2573C87.9637 26.3004 87.6275 26.2899 87.3486 26.2808C87.0416 26.2707 86.7764 26.2608 86.5673 26.2808C86.4783 26.2893 86.4217 26.3027 86.3896 26.313C86.1719 26.636 85.8349 26.7502 85.541 26.7661C85.2421 26.7823 84.9349 26.7072 84.6874 26.6245C84.432 26.5391 84.1962 26.4303 84.0283 26.3452C84.0006 26.3312 83.9754 26.316 83.9511 26.3032L81.1581 27.2349L81.081 27.2603H77.0283L72.5546 27.7573L72.4648 27.7671L72.3779 27.7456L67.5507 26.5278C67.5101 26.5467 67.4632 26.5702 67.4101 26.5942C67.2191 26.6806 66.951 26.7977 66.6435 26.9185C66.1155 27.1257 65.4343 27.3596 64.8134 27.4624L64.5507 27.4976C64.0489 27.5495 63.6699 27.6022 63.1425 27.5308L62.9062 27.4917C62.1714 27.3522 61.3074 27.2282 60.623 27.1392C60.5411 27.1285 60.4616 27.1195 60.3857 27.1099C60.3498 27.1856 60.3014 27.2496 60.248 27.2983C60.105 27.4284 59.922 27.475 59.7958 27.4976C59.587 27.5349 59.2929 27.5451 58.8945 27.5269L58.4599 27.4985C58.1316 27.4725 57.8676 27.3836 57.6601 27.2749C57.6527 27.2827 57.6464 27.2928 57.6386 27.3003C57.5519 27.3835 57.429 27.4674 57.2685 27.5034C57.1034 27.5403 56.939 27.5179 56.791 27.4556C56.5888 27.3703 56.41 27.2082 56.2451 27.0005L56.0839 26.7778C56.0312 26.6988 55.9257 26.6333 55.5703 26.6089C55.4884 26.6033 55.4024 26.6004 55.3076 26.5972C55.2152 26.5941 55.1124 26.5914 55.0107 26.5854C54.8596 26.5766 54.6903 26.5607 54.5195 26.5229L54.3486 26.4771C54.2928 26.4594 54.2272 26.4447 54.124 26.4214C54.0308 26.4003 53.9097 26.3729 53.789 26.3315C53.6311 26.2775 53.4482 26.1901 53.289 26.0405C53.2143 26.1101 53.0949 26.2255 53.0204 26.2886C52.9708 26.3306 52.8957 26.3909 52.8095 26.4351C52.7601 26.4603 52.5678 26.5538 52.3476 26.478L52.2519 26.4341L52.2499 26.4331C52.2414 26.4375 52.2327 26.4432 52.2236 26.4478L51.1181 27.0005H50.9882C50.9787 27.0006 50.9633 27.0009 50.9443 27.0015C50.9058 27.0026 50.8506 27.0047 50.7861 27.0093C50.7435 27.0123 50.698 27.017 50.6523 27.022C50.6998 27.0612 50.7409 27.1001 50.7753 27.1362C50.8071 27.1696 50.8552 27.2246 50.8935 27.2935C50.9094 27.3221 50.951 27.4008 50.9609 27.5083C50.9662 27.5674 50.9647 27.6591 50.9218 27.7583C50.8751 27.8658 50.7943 27.9502 50.6982 28.0024C50.5353 28.0908 50.3816 28.0614 50.3456 28.0542C50.288 28.0427 50.2411 28.0238 50.2128 28.0112C50.1833 27.998 50.1538 27.9825 50.1259 27.9663L50.0458 27.9165C49.8854 27.8095 49.7469 27.7024 49.6347 27.5933C49.5257 27.5609 49.4166 27.549 49.3134 27.5649C49.2215 27.5792 49.1131 27.6186 48.9951 27.7153L48.873 27.8325C48.7898 27.9259 48.6803 28.0094 48.5419 28.0552C48.4022 28.1013 48.2654 28.0986 48.1464 28.0708C47.9295 28.02 47.7591 27.8826 47.6474 27.7778C47.4716 27.613 47.2946 27.3797 47.1474 27.1821C47.1373 27.2371 47.1262 27.2897 47.1122 27.3384C47.0723 27.4778 46.9883 27.6891 46.7792 27.8169C46.5493 27.9571 46.3175 27.9106 46.1933 27.8696C46.0722 27.8297 45.9537 27.7624 45.873 27.7163C45.5567 27.5357 45.2586 27.3547 44.8437 27.4272L44.6581 27.4751C44.3985 27.5616 44.1357 27.5496 43.9101 27.4067C43.8546 27.3716 43.8079 27.3288 43.7665 27.2876C43.4597 27.4956 43.087 27.6046 42.8232 27.6626C42.6433 27.7021 42.4792 27.7256 42.3613 27.7397C42.3022 27.7468 42.2534 27.7514 42.2187 27.7544C42.2016 27.7559 42.1877 27.7576 42.1777 27.7583C42.1727 27.7587 42.168 27.7591 42.165 27.7593H42.1591L42.0917 27.7632L42.0263 27.7495L38.4658 27.0034L32.0488 27.4976V27.4985H32.0458C32.0433 27.4988 32.0388 27.499 32.0341 27.4995C32.0244 27.5005 32.0097 27.5016 31.9911 27.5034C31.9533 27.5071 31.8971 27.5132 31.8251 27.52C31.6807 27.5338 31.4704 27.5532 31.2079 27.5767C30.6826 27.6237 29.9451 27.6868 29.0986 27.7495C27.408 27.8747 25.2684 28.0005 23.4999 28.0005C23.0851 28.0004 22.6309 27.8402 22.3242 27.7114C22.1618 27.6433 22.021 27.5757 21.9208 27.5249C21.9041 27.5164 21.8885 27.508 21.874 27.5005H17.541C17.5345 27.5016 17.5272 27.5031 17.5195 27.5044C17.4768 27.5117 17.4139 27.523 17.3339 27.5366C17.1734 27.564 16.9424 27.603 16.662 27.6499C16.1012 27.7438 15.3399 27.8693 14.54 27.9946C13.7406 28.1199 12.8995 28.2458 12.1796 28.3403C11.4721 28.4332 10.8471 28.5005 10.4999 28.5005C10.0168 28.5005 9.10315 28.6034 8.19135 28.6597C7.75756 28.6864 7.32661 28.7014 6.99115 28.6792C6.82746 28.6683 6.65374 28.647 6.50482 28.5991C6.42415 28.5731 6.22264 28.4992 6.09857 28.314C6.06288 28.3033 6.01335 28.29 5.9472 28.2769C5.72059 28.232 5.40669 28.1991 5.05951 28.1714C4.73351 28.1454 4.34617 28.122 4.06049 28.0972C3.91181 28.0842 3.76942 28.0687 3.64935 28.0503C3.57478 28.0388 3.47076 28.0217 3.37201 27.9878L3.27631 27.9478C2.77986 27.6996 2.35929 27.5095 1.98627 27.3306C1.63285 27.1611 1.3038 26.9928 1.06732 26.8081C0.827367 26.6206 0.57306 26.3271 0.611267 25.9038C0.644122 25.5428 0.886545 25.235 1.14642 24.9751L2.64642 23.4751L3.19623 22.9302C3.32328 22.8093 3.43604 22.7095 3.56049 22.6353C3.69337 22.5561 3.81615 22.5198 3.91888 22.4897C4.02164 22.4597 4.14123 22.4269 4.32904 22.3589L4.62592 22.2593C4.71507 22.2327 4.7955 22.2122 4.86713 22.1987C4.93878 22.1852 5.01945 22.1755 5.1015 22.1782C5.17901 22.1809 5.30223 22.1965 5.42279 22.2729C5.54439 22.3501 5.61947 22.4633 5.65619 22.5825C5.71163 22.5656 5.77416 22.5484 5.84174 22.5259L6.02924 22.4722C6.95174 22.2547 7.62009 22.7677 8.06927 23.0825C8.33407 23.2681 8.52363 23.392 8.71185 23.4487C8.86769 23.4956 9.03819 23.5003 9.27631 23.3813L9.414 23.3208C10.1037 23.056 10.7842 23.3671 11.1435 23.5063C11.3609 23.5906 11.4735 23.6216 11.539 23.6274C11.542 23.6222 11.547 23.6163 11.5507 23.6089L11.6708 23.3823C11.9615 22.878 12.3223 22.5533 12.7812 22.4624C13.2715 22.3655 13.7204 22.5742 14.0312 22.7417C14.1851 22.8247 14.3672 22.9343 14.4931 23.0054C14.6367 23.0864 14.7529 23.1448 14.8535 23.1802C14.9525 23.215 15.0091 23.2165 15.038 23.2124C15.0566 23.2097 15.0912 23.2021 15.1464 23.147C15.4685 22.8249 15.8111 22.678 16.1435 22.6313C16.4502 22.5884 16.7396 22.636 16.8954 22.6548C16.9284 22.6588 16.9556 22.6588 16.9775 22.6606C16.9857 22.6196 16.9958 22.5585 17.0009 22.4712L17.0097 22.3833C17.0396 22.1791 17.1331 21.9863 17.3105 21.8462C17.493 21.7022 17.7068 21.6605 17.8691 21.6489C18.1815 21.6268 18.5606 21.7049 18.8398 21.7593C19.1409 21.8179 19.3598 21.8541 19.5117 21.8521C19.5517 21.5249 19.6584 21.2505 19.8242 21.0171C20.0032 20.7651 20.2316 20.5894 20.4472 20.4507C20.555 20.3814 20.6673 20.3166 20.7724 20.2563C20.8805 20.1944 20.9824 20.1363 21.0849 20.0737C21.287 19.9503 21.4754 19.8179 21.6464 19.647L21.8339 19.4692C22.0187 19.3045 22.1977 19.1811 22.3847 19.1235C22.7006 19.0265 22.9389 19.1434 23.0439 19.1919C23.135 19.2339 23.1578 19.2424 23.2128 19.2417C23.2858 19.2407 23.4523 19.2152 23.7763 19.0532L24.3906 18.7437C24.551 18.6615 24.6722 18.5973 24.7656 18.5435C24.8562 18.4911 24.9051 18.4572 24.9326 18.4351C24.9447 18.4252 24.9513 18.4185 24.954 18.4155C24.9561 18.4133 24.9579 18.4119 24.9589 18.4106C24.9622 18.4057 24.9703 18.3911 24.9921 18.3384C25.0097 18.2957 25.0474 18.1989 25.0878 18.106C25.1621 17.9351 25.2703 17.7184 25.4531 17.4263L23.5214 11.1479L23.4824 11.02L23.5117 10.8892H23.5126V10.8862C23.5131 10.8843 23.5138 10.881 23.5146 10.8774C23.5164 10.8696 23.5199 10.8572 23.5234 10.8423C23.5303 10.8123 23.5405 10.768 23.5536 10.7124C23.5801 10.6004 23.6181 10.4392 23.666 10.2456C23.7616 9.85868 23.896 9.33617 24.0488 8.79736C24.2011 8.26032 24.3753 7.69705 24.5507 7.23291C24.6382 7.00156 24.7297 6.78449 24.8232 6.604C24.9083 6.43981 25.0247 6.24602 25.1796 6.1167C25.3291 5.99216 25.5401 5.90627 25.7206 5.84424C25.9194 5.776 26.1582 5.71198 26.414 5.65186C26.9271 5.53128 27.5471 5.41889 28.1396 5.32373C28.7339 5.22828 29.3095 5.14827 29.7353 5.09229C29.9482 5.06429 30.1249 5.04195 30.248 5.02686C30.3092 5.01935 30.3576 5.01418 30.3906 5.01025C30.4069 5.00831 30.42 5.00639 30.4286 5.00537C30.4327 5.00489 30.4362 5.00464 30.4384 5.00439H30.4413V5.00342H30.4423L30.4706 5.00049H30.4999C31.3436 5.00049 31.9002 4.99047 32.2578 4.97803C32.2908 4.94589 32.321 4.92349 32.3398 4.91162C32.3908 4.87958 32.4367 4.86452 32.4579 4.85791C32.5015 4.84446 32.5378 4.83966 32.5488 4.83838C32.5755 4.8353 32.597 4.83548 32.6025 4.83545C32.6171 4.83533 32.6291 4.83529 32.6328 4.83545C32.664 4.837 32.7255 4.84443 32.7831 4.85205L34.539 5.00146L35.0468 5.03271C35.3191 5.04381 35.5294 5.0403 35.6884 5.02881C35.6648 5.00591 35.6404 4.98057 35.6132 4.95557C35.3955 4.75506 35.122 4.53831 34.8251 4.29248C34.5415 4.05763 34.2369 3.79663 34.0078 3.53955C33.8927 3.41047 33.7814 3.26519 33.7011 3.10986C33.622 2.95669 33.5533 2.75564 33.579 2.53076C33.6381 2.01833 34.0996 1.78202 34.5136 1.66943C34.9624 1.54751 35.6135 1.49228 36.5038 1.50049L37.1249 1.49268C38.5351 1.44696 39.6998 1.20754 40.9033 0.969238C42.2791 0.696808 43.7005 0.427627 45.5195 0.500488L46.0019 0.51416C47.0844 0.53084 47.8889 0.450974 48.7265 0.39502ZM43.7089 8.31396C43.6408 8.2967 43.5432 8.2842 43.4326 8.31104C43.3141 8.33981 43.2137 8.40534 43.1415 8.4917C43.0178 8.6398 43.0072 8.80944 43.0048 8.87158C42.9992 9.01982 43.0345 9.18841 43.0654 9.31592C43.1001 9.45905 43.1478 9.62355 43.1953 9.78467C43.2945 10.1218 43.3951 10.4538 43.4423 10.7183C43.4444 10.7302 43.4444 10.7424 43.4462 10.7534C43.3906 10.7381 43.3265 10.7179 43.248 10.6899C43.1629 10.6596 43.0532 10.619 42.9433 10.5835C42.7168 10.5103 42.4329 10.4383 42.1083 10.4536C41.8181 10.4673 41.5185 10.5491 41.2109 10.7241L41.0781 10.8052C40.7831 10.9978 40.5733 11.2429 40.4911 11.5532C40.4127 11.8497 40.474 12.1251 40.5419 12.3296C40.6017 12.5093 40.7123 12.7509 40.7607 12.8726C40.8244 13.033 40.8515 13.1406 40.8515 13.2241C40.8516 13.6393 40.9413 14.1814 41.0224 14.5923C41.0641 14.8035 41.1055 14.9917 41.1367 15.1265C41.1522 15.1934 41.1655 15.2478 41.1747 15.2856C41.1793 15.3045 41.1829 15.3204 41.1855 15.3306C41.1867 15.3354 41.1877 15.3396 41.1884 15.3423C41.1887 15.3434 41.1892 15.3445 41.1894 15.3452V15.3462H41.1904V15.3472L41.2275 15.4937L41.3398 15.5952L42.6904 16.814C42.7513 16.8977 42.825 16.95 42.8671 16.9751C42.9559 17.0279 43.0486 17.0533 43.1083 17.0669C43.2363 17.096 43.3916 17.1099 43.5429 17.1167C43.8547 17.1307 44.2631 17.1204 44.6708 17.103C45.082 17.0855 45.5089 17.0601 45.8593 17.0386C46.2214 17.0163 46.4808 17.0005 46.5859 17.0005C46.5923 17.0015 46.6115 17.0052 46.6464 17.0161C46.6961 17.0316 46.759 17.0561 46.8378 17.0913C46.9167 17.1265 47.0004 17.1668 47.0956 17.2124C47.1879 17.2566 47.2899 17.3052 47.3935 17.3501C47.5929 17.4364 47.845 17.5307 48.1025 17.5503C48.3798 17.5713 48.6993 17.506 48.9501 17.2378L48.996 17.1958C49.0402 17.1614 49.0825 17.1465 49.1337 17.1353C49.1858 17.1238 49.2166 17.1218 49.3017 17.1079C49.3655 17.0975 49.4838 17.0774 49.6005 17.02C49.7362 16.9532 49.8574 16.8429 49.9355 16.6821C50.0055 16.5376 50.025 16.3826 50.0263 16.2437C50.0281 16.0409 49.9914 15.7822 49.9199 15.4546L49.8369 15.103C49.8205 15.0377 49.8266 14.9325 49.8818 14.7583C49.9081 14.6752 49.94 14.5915 49.9765 14.4976C50.0101 14.411 50.0519 14.3038 50.082 14.2026C50.1101 14.108 50.1462 13.9611 50.1298 13.8032C50.1101 13.6136 50.0141 13.4178 49.8124 13.2935C49.6451 13.1905 49.4569 13.1697 49.3076 13.1694C49.2279 13.1693 49.1416 13.1752 49.0497 13.186L48.7568 13.2329C48.5454 13.2739 48.4027 13.3081 48.2597 13.3257C48.1238 13.3424 48.0633 13.3323 48.039 13.3237C48.0364 13.3228 48.0134 13.32 47.9765 13.2495C47.931 13.1622 47.8775 12.9916 47.8495 12.6792C47.833 12.4943 47.8091 12.3344 47.7714 12.2026C47.7372 12.0831 47.6711 11.9124 47.5204 11.7876C47.3341 11.6335 47.1246 11.631 46.9843 11.6616C46.9456 11.6701 46.9079 11.6842 46.874 11.6968L46.8281 11.5728C46.5914 10.8265 46.1422 10.323 45.6601 9.89502C45.4248 9.68618 45.1651 9.4812 44.9247 9.28467C44.74 9.13361 44.558 8.98074 44.3808 8.81592L44.205 8.64697C44.1339 8.57585 44.0633 8.51075 43.9941 8.4585C43.9338 8.413 43.834 8.34573 43.7089 8.31396Z" fill="#3AB7D0"/>
</svg>
