<svg width="74" height="18" viewBox="0 0 74 18" fill="none" xmlns="http://www.w3.org/2000/svg">
<path d="M19.5 6.50016C20.5 4.00016 24.2288 2.99781 25.7222 2.5C27.2222 2.00001 26.118 -0.087324 30.2222 -8.19564e-08C33.5409 0.0706107 34.3547 1.92817 37.7222 2.50002C40.7169 3.00856 40.9823 3.5779 42.2222 4.00002C43.4622 4.42214 48.7222 1.50016 49.7222 3.00016C50.7222 4.50016 56.5 6.00008 56.5 7C56.5 7.79585 59.9964 7.78851 61.4138 8.64382C61.7951 8.55403 62.1582 8.50011 62.5 8.50011C64 8.50011 70.2459 9.23366 73 10.5001C74.4303 11.1578 71.9116 14.7135 70.5 16.5003C69.688 17.5281 68.0592 17.5548 66.5 17.6493C64.2774 17.7841 60.8595 17.3349 60.8595 17.3349L49.7222 17.6493H37.2222H25.7222L13.2222 17.1493C13.2222 17.1493 7.58135 18.0885 7.00002 17.1493C6.50003 16.3415 -0.762043 19.1442 0.49995 17.3348C1.30544 16.1799 -1.19081 14.1573 3.5 12C6.13725 10.7871 9 10.5001 9 10.5001L13.0317 9.54514C14.8138 6.12718 18.6685 8.579 19.5 6.50016Z" fill="#3AB7D0"/>
</svg>
