<svg width="78" height="27" viewBox="0 0 78 27" fill="none" xmlns="http://www.w3.org/2000/svg">
<path d="M35.1324 0.64682C35.3495 0.571338 35.5928 0.50848 35.8189 0.549164C35.9496 0.572753 36.0814 0.632384 36.189 0.741547C36.2916 0.845781 36.3414 0.964721 36.3667 1.056C36.4092 1.2097 36.4062 1.39394 36.4077 1.47006C36.4126 1.69816 36.4375 1.76281 36.4907 1.81186C36.5638 1.87904 36.8234 2.02685 37.6255 2.00034L38.3062 1.99252C39.8999 2.00532 41.5234 2.23138 43.1109 2.46225C44.9414 2.72847 46.7218 3.00045 48.438 3.00034L48.605 3.00522C48.9817 3.027 49.2729 3.12096 49.522 3.2308C49.6543 3.28915 49.7827 3.35554 49.8814 3.40463C49.987 3.45717 50.0747 3.49762 50.1636 3.52866C50.4556 3.63053 50.9289 3.69583 52.2144 3.05307L52.4165 2.95932C52.8865 2.76065 53.3453 2.70591 53.7407 2.96811C53.9439 3.10296 54.0782 3.29185 54.1734 3.46616C54.2682 3.64001 54.3445 3.83783 54.4116 4.02084C54.6911 4.78268 54.9389 5.58088 55.8687 6.05502L56.5161 6.37729C56.7004 6.46649 56.8569 6.53937 56.9937 6.60288C57.2625 6.72773 57.4771 6.82479 57.6822 6.931C58.1084 7.15181 58.4977 7.41657 59.4068 8.10092L59.606 8.2435C60.0545 8.54633 60.38 8.6416 60.6236 8.66342C60.9134 8.68936 61.1409 8.62066 61.4605 8.53549C61.7647 8.45443 62.1767 8.35297 62.6499 8.52084C63.1068 8.683 63.5361 9.06373 64.0083 9.70346L64.1558 9.89584C64.4912 10.3203 64.7706 10.5703 65.0064 10.7357C65.2842 10.9306 65.5069 11.0173 65.7915 11.1546C66.0773 11.2926 66.3805 11.4652 66.6753 11.8148C66.9594 12.1518 67.2132 12.6252 67.4702 13.3285L67.5513 13.5384C67.6301 13.7278 67.7007 13.859 67.7603 13.9476C67.8024 14.0102 67.8347 14.0442 67.854 14.0619C67.8754 14.0536 67.9159 14.0385 67.981 14.0042C68.0412 13.9725 68.184 13.8922 68.3335 13.8568C68.5254 13.8114 68.7698 13.8268 68.9829 14.0091C69.1552 14.1567 69.2523 14.3702 69.3179 14.5736C69.3876 14.79 69.445 15.0722 69.4956 15.43L69.564 15.8568C69.5864 15.9773 69.6089 16.0776 69.6304 16.1605C69.6526 16.2457 69.6721 16.306 69.688 16.347C69.8526 16.3352 70.1566 16.3204 70.4937 16.5355C70.8231 16.7459 71.1279 17.137 71.4478 17.7767L71.6157 18.0951C71.7686 18.3696 71.8784 18.5188 71.9566 18.6009C72.034 18.6822 72.0682 18.6891 72.1216 18.7025C72.2034 18.7229 72.4347 18.7584 72.6792 18.9173C72.9169 19.0719 73.1496 19.3226 73.4165 19.723L73.5298 19.8783C73.7956 20.2062 74.0661 20.3045 74.3169 20.3255C74.6467 20.3531 74.9988 20.2518 75.3843 20.1244C75.5589 20.0666 75.7627 19.996 75.9419 19.9564C76.1038 19.9206 76.3753 19.8766 76.6294 19.9994C76.9383 20.1488 77.0481 20.4465 77.0747 20.7035C77.0939 20.8888 77.0786 21.1059 77.0376 21.3509L76.9878 21.6048C76.9149 21.9455 76.775 22.2381 76.5425 22.4515C76.3071 22.6674 76.0261 22.7576 75.7564 22.7816C75.2606 22.8256 74.6842 22.6506 74.2339 22.5199C73.7247 22.3721 73.3197 22.2603 72.9986 22.2767C72.8533 22.2841 72.7561 22.3183 72.6861 22.3665C72.6354 22.4016 72.5768 22.4597 72.521 22.5638L72.4663 22.6839C72.3545 22.9759 72.1982 23.2451 71.9556 23.4095C71.6796 23.5964 71.381 23.5915 71.1333 23.5062C70.9101 23.4292 70.7116 23.2827 70.5523 23.1488C70.3882 23.0109 70.2203 22.8459 70.0698 22.6996C69.9126 22.5466 69.7686 22.4079 69.6275 22.2933C69.4843 22.177 69.3693 22.1072 69.2798 22.0736C69.2003 22.0438 69.1634 22.051 69.1411 22.0589C69.1187 22.067 69.0663 22.0928 68.9927 22.1771L68.9116 22.2826C68.7647 22.4974 68.5826 22.6668 68.3628 22.7708C68.141 22.8758 67.9121 22.8992 67.6978 22.8714C67.2914 22.8187 66.929 22.5817 66.6607 22.3597C66.3811 22.1283 66.1397 21.8589 65.9722 21.6546C65.9682 21.6498 65.9643 21.6447 65.9605 21.64C65.8978 21.6735 65.8249 21.7103 65.7447 21.7552C65.4472 21.9218 65.0282 22.1708 64.479 22.5267L63.8863 22.9193C62.8965 23.5884 62.0703 23.7739 61.2622 23.8988C60.5643 24.0067 59.9202 24.0673 59.1382 24.3382L58.7945 24.4681C57.7909 24.877 57.0128 24.732 56.3267 24.5814C55.7367 24.4518 55.2353 24.3268 54.607 24.43L54.3286 24.4896C52.5752 24.9432 51.3607 25.1211 49.8736 25.305L48.2652 25.5013C46.5051 25.7206 45.3162 25.8368 43.8355 25.9242L42.2251 26.0052C40.3112 26.0879 39.0219 26.1014 37.4224 26.0619L35.6841 26.0052C33.4599 25.9199 32.0628 25.8811 30.0406 25.6244L29.1314 25.5003C27.1472 25.2117 26.0153 24.8773 24.106 24.4955C23.2322 24.3207 22.5214 24.4531 21.7115 24.5804C20.9563 24.6991 20.1303 24.8086 19.1509 24.5404L18.9536 24.4818C18.032 24.1868 16.9023 23.8008 16.0054 23.4896C15.5565 23.3338 15.1646 23.1965 14.8853 23.098C14.7456 23.0488 14.6339 23.009 14.5572 22.9818C14.5441 22.9772 14.532 22.973 14.521 22.9691H9.99075L9.88626 22.9183L7.11868 21.5677C7.08804 21.5837 7.05552 21.6027 7.02004 21.6205C6.81143 21.7249 6.51728 21.8583 6.17825 21.9701C5.56968 22.1707 4.70043 22.3418 3.92434 22.0169L3.77004 21.9447C2.8628 21.4767 2.05099 21.4086 1.61672 21.3734C1.52347 21.3658 1.39653 21.3569 1.3052 21.3372C1.27814 21.3314 1.23768 21.3214 1.19387 21.304C1.15627 21.2891 1.07457 21.2532 0.999537 21.1751C0.9078 21.0795 0.838367 20.9308 0.858912 20.7562C0.876 20.6122 0.947643 20.5156 0.981959 20.4749C1.04918 20.3954 1.1313 20.3444 1.16555 20.3236C1.21309 20.2946 1.26869 20.265 1.32473 20.2367C1.43716 20.1799 1.59367 20.1068 1.78762 20.016L1.99954 19.9261C2.20277 19.8502 2.38299 19.814 2.55325 19.8089C2.76257 19.8027 2.95304 19.8502 3.01809 19.8617C3.08545 19.8735 3.12648 19.8771 3.19876 19.8578C3.28989 19.8332 3.44909 19.7664 3.72219 19.5843L3.99661 19.4085C4.25275 19.252 4.4598 19.1498 4.64016 19.0853C4.89918 18.9927 5.08376 18.9853 5.22708 18.9818C5.34132 18.979 5.40636 18.9783 5.52395 18.9408C5.6572 18.8982 5.87122 18.8025 6.23586 18.5755L6.38821 18.4847C6.74032 18.2842 7.06925 18.1695 7.36965 18.221C7.43703 18.2326 7.49638 18.2534 7.55032 18.2767C7.55668 18.2661 7.56424 18.2555 7.57083 18.2445L7.67629 18.0814C7.9291 17.7223 8.22787 17.5123 8.57376 17.4437C8.92003 17.3751 9.25569 17.4737 9.39211 17.5033C9.40331 17.5057 9.41392 17.5063 9.42336 17.5081C9.42542 17.5015 9.42907 17.4944 9.43118 17.4867C9.45932 17.3836 9.48529 17.2204 9.50051 16.9701L9.52786 16.7513C9.56852 16.5389 9.65189 16.3454 9.78762 16.182C9.96798 15.965 10.2021 15.8474 10.4282 15.7855C10.8461 15.6712 11.3586 15.7174 11.7447 15.7474C12.1888 15.782 12.516 15.8023 12.7486 15.7425C12.8499 15.7165 12.8986 15.6823 12.9243 15.6546C12.9477 15.6294 12.9869 15.5728 13.0044 15.4369L13.0386 15.1947C13.126 14.6537 13.2571 14.2641 13.439 13.9681C13.6565 13.6147 13.921 13.4395 14.1255 13.3089C14.3232 13.1827 14.4515 13.1039 14.5816 12.9359C14.7147 12.7637 14.8724 12.4644 15.0142 11.8822L15.1304 11.4613C15.1697 11.337 15.2103 11.2275 15.2525 11.1331C15.3312 10.9572 15.4459 10.7604 15.6382 10.64C15.8751 10.4918 16.1163 10.5225 16.2827 10.5882C16.4154 10.6407 16.5383 10.7316 16.5904 10.7679C16.6338 10.7981 16.6658 10.8157 16.6861 10.8275C16.7387 10.7822 16.867 10.6493 17.0532 10.2767C17.3497 9.68401 17.7407 9.31839 18.1948 9.09213C18.6261 8.8774 19.0931 8.8018 19.4907 8.73764C20.306 8.60612 20.9928 8.49951 21.6021 7.6976L21.7534 7.51498C21.9094 7.34372 22.0798 7.20804 22.2691 7.12045C22.5342 6.9978 22.8007 6.98637 23.0484 7.05014C23.2813 7.11019 23.4832 7.23269 23.648 7.35385C23.8132 7.47544 23.9742 7.62081 24.1148 7.74741C24.4245 8.02646 24.6486 8.21968 24.8706 8.29819C24.9654 8.33168 25.0492 8.33908 25.1353 8.32163C25.2246 8.30349 25.35 8.25149 25.5142 8.11557L25.7661 7.9183C26.0082 7.741 26.2249 7.62 26.4322 7.54038C26.7159 7.43142 26.9519 7.41264 27.1509 7.40463C27.3495 7.39666 27.4824 7.39731 27.6626 7.35971C27.8364 7.32342 28.0677 7.24638 28.399 7.06284L28.5816 6.9476C28.9847 6.65583 29.2452 6.2145 29.5796 5.66733C29.937 5.08266 30.388 4.36461 31.2603 4.03256L31.5708 3.91049C32.238 3.63651 32.5201 3.44378 32.6333 3.32358C32.6604 3.29484 32.6724 3.27634 32.6763 3.26889C32.6786 3.26443 32.6791 3.26191 32.6792 3.26108C32.6803 3.25464 32.6823 3.23225 32.6656 3.14291C32.635 2.98018 32.5262 2.58939 32.7749 2.15952C32.9952 1.77912 33.4513 1.43454 34.2144 1.05307L34.7271 0.809906C34.8793 0.742398 35.0137 0.688079 35.1324 0.64682ZM40.0005 10.5003C39.1464 10.5975 38.7342 9.63823 38.1607 10.2347C37.1607 13.7346 37.5013 11.0009 37.0005 13.0003C36.0006 15.0004 36.0004 15.0007 35.5005 16.0003C35.0005 16.5002 36.0003 16.2868 36.0005 17.5003C36.0006 19.5004 37.1422 18.2461 37.9995 19.0003C38.7406 19.6522 40.1831 19.5003 40.9995 19.5003C41.6304 19.5004 43.4671 19.8173 43.9995 19.0003C44.4375 18.5287 45.9048 18.0951 46.4995 17.5003C47.4982 16.501 43.5007 18 45.0005 15.5003C45.5002 15.0004 45.0005 14.643 45.0005 13.5003C45.0006 13.0014 45.2405 15.1331 45.5005 12.5003C45.2671 12.2352 45.0003 12.5003 44.5005 12.5003C43.5012 13.5002 44.4996 10.0014 44.0005 10.5003C43.8068 10.6943 43.9995 11.0004 43.4995 12.0003C42.5 11.0005 43.3782 10.5004 42.0005 10.5003C41.7008 10.5003 40.4145 10.4533 40.0005 10.5003Z" fill="#3AB7D0"/>
</svg>
