<svg width="63" height="40" viewBox="0 0 63 40" fill="none" xmlns="http://www.w3.org/2000/svg">
<path d="M22.4067 0.685614C22.5683 0.698474 22.7104 0.717618 22.812 0.733465C22.8629 0.741407 22.9053 0.749321 22.936 0.75495C22.9513 0.757737 22.9646 0.759941 22.9741 0.761786C22.9785 0.762645 22.9828 0.76315 22.9858 0.763739C22.9873 0.764028 22.9895 0.764468 22.9907 0.764715L22.9917 0.765692H22.9927C22.9916 0.771856 22.9774 0.84459 22.8022 1.69733L22.9937 0.765692L23.4019 0.849676L23.6304 1.19929L24.6187 2.71784H31.0718C31.1098 2.62382 31.1504 2.52318 31.1978 2.42194C31.3239 2.15226 31.4977 1.83762 31.7271 1.55378C31.9516 1.27603 32.2823 0.962814 32.7388 0.801825L32.8774 0.760809C33.5579 0.602316 34.0379 1.08897 34.1626 1.22272C34.3588 1.43324 34.5313 1.70702 34.6431 1.88288C34.7438 2.04136 34.8183 2.15463 34.8794 2.2403C35.0409 2.25768 35.2177 2.28267 35.3804 2.30768C35.698 2.35654 36.0674 2.42131 36.4146 2.48444C36.4779 2.49597 36.5412 2.50817 36.603 2.5196C36.6571 2.37322 36.7381 2.21409 36.8647 2.06647L36.9819 1.94538C37.2632 1.6879 37.5949 1.59667 37.8315 1.5655C38.1051 1.52953 38.366 1.55667 38.5562 1.58893C38.7541 1.62256 38.9299 1.67171 39.0522 1.71003C39.0601 1.71249 39.0682 1.71543 39.0757 1.71784H44.6841L44.9536 2.29401L45.3989 3.24518H46.4712C46.486 3.08694 46.5434 2.84886 46.7407 2.63483C47.0263 2.32533 47.3721 2.29071 47.5962 2.31159L47.7729 2.34284L47.8823 2.378C48.4079 2.5737 48.6084 3.05475 48.6792 3.26667C48.7481 3.47305 48.7857 3.69992 48.8091 3.91608C49.1828 4.66123 49.7551 5.79417 50.0522 6.78913C50.2063 7.30511 50.3401 7.94874 50.2192 8.53522C50.1536 8.85354 50.0041 9.19916 49.7036 9.47565C49.5673 9.60095 49.4157 9.69502 49.2583 9.76569C49.3159 9.91044 49.3789 10.0367 49.4478 10.1436C49.6267 10.4213 49.8295 10.5584 50.1235 10.5987L50.2593 10.6124C50.4093 10.6221 50.598 10.6224 50.7847 10.6163C50.9007 10.6125 51.0042 10.6064 51.0776 10.6016C51.1137 10.5993 51.1426 10.5972 51.1616 10.5958C51.1708 10.5951 51.1787 10.5942 51.1831 10.5938H51.187L51.1958 10.5928H51.1997C51.2018 10.5927 51.2051 10.5921 51.2085 10.5919C51.2157 10.5913 51.2262 10.5908 51.2388 10.5899C51.2643 10.5881 51.3009 10.5857 51.3452 10.5831C51.4339 10.5779 51.5579 10.5716 51.6987 10.5674C51.9529 10.5599 52.3121 10.5587 52.6284 10.5928C52.6548 10.5781 52.7151 10.5456 52.8257 10.4737C53.029 10.3415 53.5003 10.0209 54.147 10.0958C54.236 9.99493 54.4072 9.81147 54.6304 9.67878C54.9276 9.50228 55.2825 9.42643 55.6616 9.49811L55.8257 9.53815L56.0171 9.60358C56.0866 9.63159 56.1602 9.66663 56.2319 9.71003C56.3066 9.75522 56.4096 9.8275 56.5063 9.93757C56.6002 10.0444 56.6925 10.1964 56.7397 10.3907C56.8948 10.5433 57.0052 10.7252 57.064 10.9249C57.1257 11.1349 57.1216 11.322 57.1108 11.4405C57.1095 11.4547 57.1056 11.4687 57.104 11.4825C57.1935 11.5926 57.26 11.7187 57.3003 11.8526C57.3711 12.0878 57.3466 12.2935 57.3247 12.4083C57.2816 12.6334 57.1813 12.8316 57.1138 12.9532C56.964 13.2228 56.7346 13.5388 56.5005 13.8438C56.114 14.3473 55.5734 14.9988 55.1196 15.5587C55.1211 15.5909 55.1235 15.6232 55.1235 15.6553C55.125 15.6634 55.126 15.6717 55.1274 15.6798C55.3365 15.7549 55.5151 15.8736 55.6587 16.0274C55.8802 15.6892 56.215 15.4014 56.6255 15.21L56.7886 15.1407C56.9539 15.0765 57.1214 15.0274 57.2378 14.9952C57.2668 14.9872 57.2956 14.9796 57.3218 14.9727C57.3258 14.9648 57.3297 14.9566 57.3335 14.9493C57.3407 14.9356 57.3577 14.9048 57.3794 14.8702C57.3894 14.8543 57.412 14.818 57.4448 14.7764C57.4614 14.7555 57.4916 14.7198 57.5327 14.6798C57.5654 14.6479 57.6529 14.5659 57.7876 14.4991C57.9166 14.4352 58.2511 14.3096 58.6372 14.4805C59.013 14.6471 59.1447 14.9669 59.1841 15.0889C59.2554 15.3105 59.2266 15.5023 59.2261 15.5059L59.1958 15.67C59.1798 15.7297 59.1616 15.7882 59.145 15.8458C59.2677 15.8347 59.3868 15.8455 59.4956 15.8682L59.6011 15.8946L59.7544 15.9512C59.9084 16.0183 60.0635 16.1194 60.1978 16.2667C60.3788 16.4654 60.4738 16.6961 60.5122 16.9122C60.5813 17.302 60.4722 17.6645 60.3804 17.8995C60.3306 18.0267 60.2673 18.1582 60.1958 18.293L60.2407 18.5303L60.064 18.6192L60.0718 18.7081C60.2293 18.771 60.4172 18.8444 60.5884 18.919C60.778 19.0017 60.9995 19.1077 61.1997 19.2403C61.2636 19.2826 61.3363 19.3373 61.4126 19.4024C61.4281 19.4063 61.4441 19.4096 61.4595 19.4141C61.5591 19.4438 61.8101 19.5304 62.0063 19.7803C62.2269 20.0615 62.248 20.3729 62.2114 20.5948C62.4694 20.8983 62.6459 21.2981 62.5708 21.7803C62.5277 22.0563 62.4099 22.2827 62.2769 22.461L62.73 22.9581L62.728 22.96C62.7271 22.9612 62.7257 22.9632 62.7241 22.9649C62.72 22.9692 62.7132 22.9755 62.7056 22.9835C62.69 22.9998 62.6675 23.0241 62.6392 23.0538C62.5818 23.1137 62.4995 23.199 62.4028 23.2989L61.7017 24.0089C61.5043 24.2034 61.2679 24.3136 61.1226 24.3731C61.0321 24.4102 60.9382 24.4415 60.8472 24.4698C60.5811 24.6839 60.3246 24.8905 60.1108 25.0665C60.0038 25.2044 59.8676 25.3569 59.6978 25.4874L59.5981 25.5587C59.5491 25.5914 59.5001 25.6226 59.4556 25.6495C59.4372 25.6606 59.336 25.7245 59.2153 25.7667C59.1807 25.7788 59.0927 25.807 58.978 25.8184C58.9633 25.8199 58.9331 25.8228 58.8921 25.8233C58.8302 25.9162 58.7664 26.0168 58.7056 26.1182C58.615 26.2693 58.5346 26.413 58.4771 26.5186C58.4486 26.5709 58.4258 26.6139 58.4106 26.6426C58.4032 26.6567 58.3976 26.668 58.394 26.6749C58.3925 26.6779 58.3909 26.6803 58.3901 26.6817L58.3892 26.6837V26.6827L58.2397 26.9747L57.9468 27.1212L56.9976 27.5948C56.971 27.6119 56.9366 27.6346 56.896 27.6592C56.8024 27.716 56.6701 27.7921 56.5161 27.8692C56.3343 27.9603 56.0472 28.0887 55.7222 28.1641C55.7036 28.3186 55.675 28.5437 55.6187 28.7501C55.5488 29.0056 55.4131 29.344 55.1196 29.6251L54.9839 29.7413C54.5967 30.0393 54.1603 30.0478 53.8696 30.003C53.5796 29.9582 53.3091 29.8445 53.0894 29.7325C52.644 29.5054 52.1791 29.1625 51.7856 28.8419C51.3821 28.5131 51.0076 28.1699 50.7368 27.9122C50.7204 27.8965 50.7047 27.8804 50.689 27.8653L49.2222 28.2012L49.1226 28.2247L49.02 28.2266H49.0142C49.008 28.2268 48.9974 28.2271 48.9839 28.2276C48.9561 28.2286 48.913 28.2305 48.8589 28.2335C48.7497 28.2395 48.5945 28.2504 48.4175 28.2696C48.1397 28.2997 47.8409 28.3468 47.5815 28.4141L47.3374 28.4883C47.2139 28.5326 47.0927 28.5608 46.9761 28.5782C47.0508 28.645 47.1263 28.7135 47.2036 28.7813C47.7769 29.2837 48.3788 29.777 48.8394 30.1466C49.0306 30.3 49.1972 30.4314 49.3257 30.5323C49.5548 30.524 49.8778 30.5145 50.2573 30.5059C51.0202 30.4886 52.0247 30.4784 52.9663 30.5079C53.8693 30.5362 54.8374 30.6032 55.4565 30.7794C55.617 30.8251 55.8149 30.894 55.9976 31.0069C56.1613 31.1082 56.4831 31.3514 56.5757 31.8028C56.6758 32.2915 56.4396 32.6621 56.2769 32.8458C56.1546 32.9835 56.0099 33.0941 55.8716 33.1827L55.7358 33.2647C55.5337 33.3798 55.1737 33.526 54.8384 33.6563C54.5218 33.7793 54.1521 33.9136 53.7905 34.045C53.9081 34.1417 54.0299 34.2681 54.1216 34.4385C54.3021 34.774 54.3054 35.1411 54.1909 35.4571C54.0905 35.734 53.9119 35.943 53.7593 36.0899C53.5303 36.3103 53.2188 36.5224 52.8442 36.7315L52.4487 36.9405C51.8633 37.2348 51.3126 37.2202 50.8296 37.0186C50.6263 36.9337 50.4548 36.8242 50.3364 36.7452C50.192 36.6488 50.1368 36.6068 50.0454 36.5508C49.911 36.4687 49.8699 36.4681 49.8325 36.4708C49.7735 36.4752 49.5944 36.5086 49.2524 36.7383L49.0962 36.8497C48.2613 37.4695 47.2393 37.6006 46.3296 37.5508C45.6395 37.5131 44.9408 37.368 44.3013 37.1866L43.6831 36.9952C42.9355 36.7459 42.5952 36.6142 42.2134 36.6202C41.9465 36.6245 41.5737 36.7071 40.9731 37.13L40.7017 37.3331C40.307 37.6431 39.8624 37.7607 39.5005 37.8087C39.1433 37.8559 38.7867 37.8443 38.5337 37.835C38.376 37.8293 38.2646 37.8259 38.1831 37.8253C37.9747 38.0472 37.7246 38.1559 37.5864 38.2042C37.342 38.2895 37.076 38.3259 36.8472 38.3438C36.3791 38.3804 35.8226 38.3552 35.3228 38.3135C34.8126 38.271 34.3151 38.2074 33.9487 38.1553C33.7648 38.1292 33.611 38.1051 33.5034 38.088C33.4714 38.0829 33.4431 38.0782 33.4194 38.0743H12.1265L10.9761 38.0469H10.2681C10.2368 38.0647 10.2031 38.0847 10.1675 38.1046C9.96592 38.2168 9.68669 38.366 9.40576 38.4923C9.1667 38.5996 8.78223 38.7587 8.42334 38.7842C8.27568 38.7947 7.80166 38.8109 7.44092 38.4229C7.43781 38.4195 7.43519 38.4155 7.43213 38.4122C7.23406 38.5052 7.03156 38.6091 6.86377 38.7022C6.75977 38.7599 6.67145 38.8111 6.61084 38.8467C6.58107 38.8643 6.55772 38.8786 6.54248 38.8878C6.53499 38.8922 6.5283 38.8955 6.5249 38.8975C6.52376 38.8983 6.52253 38.8991 6.52197 38.8995L6.521 38.9005V38.8995L6.34619 39.0069L6.14209 39.0362L5.99951 38.0469L6.14111 39.0372H6.13721C6.13522 39.0374 6.13228 39.0378 6.12939 39.0382C6.12276 39.0391 6.1129 39.0406 6.10205 39.0421C6.07988 39.045 6.04841 39.0493 6.01025 39.0538C5.93334 39.0627 5.82499 39.0734 5.69482 39.0841C5.43569 39.1053 5.07608 39.1252 4.68994 39.1143C4.31132 39.1036 3.86307 39.063 3.44385 38.9454C3.09733 38.8481 2.6475 38.6635 2.31201 38.2862L2.17529 38.1124C1.66786 37.3729 1.38244 36.4874 1.22314 35.8409C1.14119 35.5082 1.08773 35.2167 1.0542 35.0069C1.0374 34.9017 1.02493 34.8151 1.01709 34.754C1.01322 34.7238 1.01033 34.6994 1.0083 34.6817C1.00731 34.6731 1.00693 34.6657 1.00635 34.6602C1.00608 34.6578 1.00557 34.6552 1.00537 34.6534V34.6505L1.00439 34.6495C1.00437 34.6493 1.00517 34.6486 1.99951 34.5469L1.00439 34.6485L0.943848 34.0489L1.44482 33.7149L2.86768 32.7657C2.88186 32.7539 2.89494 32.7409 2.90869 32.7305C3.14945 32.5508 3.41217 32.5217 3.49072 32.5128C3.72347 32.4864 4.06618 32.4978 4.6001 32.5518L4.99854 32.5645C5.14475 32.5658 5.31732 32.5641 5.49951 32.5626V32.295L5.55127 32.1407L5.99951 30.796V29.6329L6.29248 29.3399L7.09717 28.5342C7.1476 28.4107 7.22066 28.2868 7.32471 28.1729C7.56838 27.9066 7.86728 27.8151 8.06201 27.7813C8.11187 27.7727 8.16119 27.7656 8.2085 27.7618C8.12852 27.5786 8.03952 27.3817 7.94287 27.1807C7.77748 26.8369 7.60371 26.4953 7.45068 26.1944C7.37826 26.052 7.30545 25.9107 7.2417 25.7823L7.0835 25.4473C6.85834 24.9323 6.93973 24.4272 7.06201 24.0714C7.18513 23.7133 7.38524 23.3962 7.56201 23.1553C7.74388 22.9077 7.93457 22.6965 8.07568 22.5508C8.11417 22.5111 8.15048 22.4755 8.18213 22.4444L9.10498 20.5997L9.31592 20.1788L9.7749 20.0723L10.1099 19.9942C10.0632 19.9732 10.0149 19.9518 9.96826 19.9249L9.87061 19.8633C9.40698 19.5475 9.24421 19.072 9.19189 18.7276C9.13992 18.3848 9.17413 18.0468 9.21826 17.7921C9.23724 17.6826 9.25973 17.5771 9.28369 17.4796C9.19676 17.3914 9.11199 17.293 9.04053 17.1846C8.92567 17.0103 8.78191 16.7186 8.80225 16.3487C8.80739 16.2561 8.82241 16.168 8.84521 16.085C8.8036 15.9194 8.77311 15.742 8.76416 15.5635C8.74733 15.2267 8.8045 14.6277 9.33936 14.2325L9.43115 14.17C9.65035 14.0313 9.88459 13.9601 10.0991 13.9258L10.2622 11.2882L11.3032 11.3165C11.3044 11.244 11.3059 11.1805 11.3071 11.1299C11.3081 11.0898 11.3085 11.0568 11.3091 11.0342C11.3094 11.0236 11.3099 11.0149 11.3101 11.0089V10.9981H11.311L11.9868 11.003C12.1383 10.6006 12.3549 9.87301 12.645 8.64069L12.6196 8.29792C12.6163 8.18052 12.6204 8.03934 12.647 7.89265C12.7083 7.55454 12.8724 7.22832 13.1675 6.95124C13.3716 6.75981 13.6196 6.60768 13.8979 6.48444C13.9285 6.37937 13.9621 6.24009 13.9888 6.07429C14.0224 5.86488 14.0448 5.65396 14.0581 5.49225V5.49128C13.9817 5.33256 13.8812 5.10691 13.8003 4.85456C13.7224 4.61149 13.641 4.27932 13.6499 3.93073C13.659 3.57615 13.7716 3.06612 14.2339 2.70612L14.3481 2.62507C14.6178 2.45298 14.9023 2.3921 15.1128 2.37018C15.3608 2.34447 15.5966 2.36392 15.7788 2.38972C15.9659 2.41623 16.1314 2.45518 16.2476 2.4864C16.2582 2.48926 16.2688 2.49241 16.2788 2.49518H18.1128L18.3823 2.00983L18.6675 1.49518H20.1255C20.1447 1.4772 20.1636 1.45712 20.1841 1.43854C20.3835 1.25793 20.7501 0.951768 21.1753 0.801825L21.3452 0.751044C21.7448 0.649447 22.1602 0.666024 22.4067 0.685614ZM40.6079 6.18366C40.455 6.13705 40.3186 6.17083 40.229 6.21393C40.0862 6.28276 40.0094 6.39914 39.9897 6.42878C39.956 6.47967 39.9286 6.5343 39.9067 6.58112C39.8621 6.67672 39.8161 6.79641 39.771 6.92487C39.6612 7.23795 39.5271 7.68809 39.3833 8.18268C39.363 8.13999 39.3399 8.09614 39.311 8.05573C39.2272 7.93881 39.0771 7.80808 38.855 7.79011C38.6539 7.77392 38.4998 7.86005 38.4165 7.91999C38.3285 7.98339 38.2569 8.06239 38.2017 8.12995C37.9963 8.38127 37.762 8.8236 37.561 9.18171C37.335 9.5845 37.1309 9.92209 36.9526 10.1046C36.9512 10.106 36.9492 10.1071 36.9478 10.1085C36.6343 9.71708 36.5453 9.48153 36.4858 9.34772C36.4712 9.31475 36.436 9.23365 36.3813 9.1612C36.3103 9.06718 36.179 8.95058 35.9771 8.93171C35.8215 8.91725 35.6956 8.97067 35.647 8.99225L35.4722 9.08405C35.4279 9.10901 35.3821 9.1161 35.062 9.01472C34.8429 8.94529 34.3732 8.77938 33.9224 9.06061L33.8325 9.12311C33.4459 9.41998 33.3332 9.79478 33.2944 10.1251C33.2771 10.2731 33.2724 10.436 33.2661 10.5577C33.261 10.6576 33.2513 10.7488 33.2388 10.836C33.2231 10.847 33.2101 10.8594 33.1978 10.8702C33.1273 10.7034 33.0559 10.5458 32.9829 10.4151C32.933 10.3258 32.8742 10.2327 32.8071 10.1514C32.7461 10.0775 32.6437 9.97155 32.4966 9.90925C32.3158 9.8329 32.0999 9.83828 31.9136 9.96198C31.8008 10.0369 31.7258 10.1377 31.6753 10.2276L31.6323 10.3135C31.4577 10.6986 31.1425 11.2647 30.7759 11.9581C30.4174 12.636 30.0224 13.4129 29.7202 14.169C29.423 14.9126 29.1916 15.694 29.2065 16.3673C29.2142 16.7108 29.2861 17.0579 29.4751 17.3594C29.6658 17.6633 29.9524 17.8838 30.3179 18.0128C30.3219 18.0153 30.3332 18.022 30.3511 18.0362C30.388 18.0655 30.4388 18.1118 30.5024 18.1788C30.6301 18.3131 30.7873 18.5057 30.9644 18.7462C31.3173 19.2257 31.7275 19.8665 32.1177 20.5528C32.508 21.2392 32.8722 21.9608 33.1372 22.5997C33.411 23.2598 33.5492 23.7647 33.5493 24.0469C33.5493 24.0931 33.5519 24.163 33.5698 24.2364C33.58 24.2781 33.6345 24.4955 33.8647 24.6016C34.1324 24.7248 34.3506 24.5793 34.4019 24.5411C34.4715 24.4892 34.5189 24.4286 34.5435 24.3956C34.6401 24.2654 34.7453 24.0486 34.8423 23.8321C35.0503 23.3675 35.3235 22.6679 35.5913 21.9688C35.8079 21.4035 36.0234 20.8374 36.2026 20.3741C36.2204 20.4059 36.2379 20.4391 36.2563 20.4717C36.5605 21.0096 36.9677 21.6745 37.3862 22.3204C37.8044 22.9657 38.2398 23.6016 38.6001 24.0792C38.779 24.3163 38.9477 24.5248 39.0903 24.6778C39.1605 24.753 39.2356 24.8278 39.311 24.8868C39.3487 24.9162 39.3978 24.9507 39.4546 24.9796C39.5053 25.0053 39.6031 25.0469 39.728 25.0469C39.9778 25.0468 40.1332 24.8884 40.189 24.8243C40.259 24.7436 40.3115 24.6496 40.3511 24.5684C40.4325 24.4013 40.5076 24.1821 40.5757 23.9405C40.7137 23.4506 40.8453 22.7852 40.9438 22.0508C41.1197 20.74 41.1985 19.1324 40.9849 17.8477C41.2331 17.8853 41.5556 17.959 41.9272 18.043C42.3604 18.141 42.8567 18.2497 43.2661 18.2764C43.4685 18.2896 43.6956 18.2871 43.8999 18.2276C44.1145 18.1651 44.3695 18.0165 44.4741 17.7071L44.5093 17.586C44.6664 16.9705 44.4923 16.2348 44.2446 15.544C43.9701 14.7786 43.5504 13.9282 43.1343 13.1046C42.7116 12.2681 42.2922 11.4572 41.9907 10.7315C41.6802 9.98387 41.542 9.42951 41.5845 9.08014L41.6294 8.65241C41.6399 8.52732 41.6462 8.41853 41.6479 8.32526C41.651 8.16424 41.6454 7.9664 41.5728 7.8028C41.5299 7.70645 41.4395 7.56994 41.2671 7.49714C41.1699 7.45625 41.0779 7.45064 41.0015 7.4571C40.9988 7.35021 40.9995 7.21981 41.0044 7.06257L41.0054 6.84577C41.0033 6.7773 40.999 6.71289 40.9897 6.65632C40.9828 6.6138 40.9623 6.49579 40.8853 6.38581C40.8407 6.3224 40.753 6.22805 40.6079 6.18366Z" fill="#3AB7D0"/>
</svg>
