<svg width="63" height="21" viewBox="0 0 63 21" fill="none" xmlns="http://www.w3.org/2000/svg">
<path d="M27.5001 6.99978C24.9546 7.04564 24.4899 3.30535 23.5001 4.99978C22.9571 5.92925 22.3298 6.20544 21.6033 6.99978C20.5564 8.14442 20.4502 9.44905 19.0001 9.99978C17.3171 10.6389 15.4322 10.6665 14.5001 11.4998C13.3264 12.549 11.5639 12.03 11.0001 13.4998C10.5923 14.5628 6.72923 12.3272 5.50006 13.9998C4.15159 15.8347 0.947446 15.4998 0.50003 16.9998C0.052615 18.4997 1.27266 19.3158 2.5 20.0177C3.85597 20.7932 4.94227 19.9002 6.4999 20.0177C7.87666 20.1216 9.99981 20.5177 9.99981 20.5177C9.99981 20.5177 12.1964 20.5449 13.6034 20.5177C16.733 20.4571 21.6033 20.0177 21.6033 20.0177H32.1033H37.1033C37.1033 20.0177 39.7741 19.6021 41.4999 19.5001C43.2542 19.3963 45.1503 19.0887 47.4999 19.0001C49.4512 18.9264 50.5492 19.0843 52.5 19.0001C55.8393 18.8558 59.7944 21.1479 61.0001 18.0001C62.2841 14.6476 63.0446 13.857 61.5001 12.0001C58.8749 8.84397 57.2121 11.5202 54.5001 11.0001C51.3373 10.3935 51.9021 10.4043 50.5001 9.50007C47.7689 7.73857 52.5001 6.5179 52.0001 5.00007C51.6871 4.05024 50.5001 6.01781 49.5001 3.00007C48.5 -0.0176611 41.976 1.02743 41.0001 0.999864C38.8442 0.938963 38.6559 1.06096 36.5001 1.00006C33.371 0.911667 35.2336 3.48829 32.1033 3.49975C28.7781 3.51193 30.8247 6.93987 27.5001 6.99978Z" fill="#3AB7D0"/>
</svg>
