<svg width="61" height="22" viewBox="0 0 61 22" fill="none" xmlns="http://www.w3.org/2000/svg">
<path d="M1.50005 15.9997C1.99123 14.7168 3.95298 15.0636 5.31898 15.4875C5.30661 14.3924 6.00006 13.8919 6.00006 12.5C6.00006 10.3521 11.6958 6.13516 12.0001 5.50003C12.3043 4.86491 9.24832 2.55546 11.5001 0.500034C13.093 -0.953992 18.0001 3.00003 18.0001 3.00003C21.43 2.99985 21.0055 9.97256 24.0001 9.00002C26.9946 8.02748 27.3589 3.50733 33.0001 3.00003C40.3146 2.34225 34.007 11.0656 39.7705 9.99997C42.9891 9.40489 47.0602 8.6661 47.5001 9.00002C47.5001 9.00002 52.7173 11 54.5001 11C56.2829 11 56.5001 6.50002 58.5001 8.50002C60.7092 10.7092 61.7505 15.3942 58.0001 16.5C57.1513 16.7502 57.4721 17.1203 56.4724 16.9104C56.7212 17.4575 56.8918 18.1071 56.8614 18.839C56.7638 21.1882 55.1041 19.9251 53.8614 20.339C52.729 20.7161 52.0481 20.7949 50.8614 20.9222C49.3741 21.0817 48.5311 19.9222 47.0311 20.9222C45.8595 21.7032 44.2536 20.7236 43.0311 21.4222C42.7607 21.5767 41.5278 21.2518 39.7705 21.4471C38.0131 21.6423 36.7885 21.2268 35.0311 21.4221C33.2738 21.6174 26.0311 21.4221 26.0311 21.4221L20.1664 21.4221C18.9315 21.4221 16.8266 22.1121 15.4965 21.4471C14.4965 20.9471 13.6748 21.8933 12.8614 21.339C11.0864 20.1294 10.1186 21.3166 8.36136 21.339C6.66992 21.3605 5.68516 21.8016 4.03116 21.4471C-2.41722 20.0648 0.786805 17.8627 1.50005 15.9997Z" fill="#3AB7D0"/>
</svg>
