<svg width="61" height="47" viewBox="0 0 61 47" fill="none" xmlns="http://www.w3.org/2000/svg">
<path d="M20.8463 2.50028C15.9099 2.58791 18.6292 2.53399 14.0815 3.0256C13.4613 3.09264 9.23305 6.5256 7.58148 7.5256C6.35693 8.26705 3.06241 11.2107 3 12C2.49465 18.3915 2.50001 16.9996 2.50001 16.9996C2.50001 16.9996 0.831339 25.525 1.00001 27C1.15432 28.3493 4.33965 28.9125 4.50531 30.2605C4.81076 32.7462 6.50001 37.5 6.50001 37.5C6.50001 37.5 3.90143 39.69 4.00001 42C4.09825 44.302 7.00001 43.5 6.50001 45.5C6.30476 46.281 7.71698 45.8126 8.50002 45.9996C9.27918 46.1856 9.70324 46.3726 10.5 46.4551C11.1823 46.5258 11.8233 46.8345 12.5 46.9468C13.1139 47.0487 15.3936 46.8033 16 46.9468C17.0105 47.1859 18.057 46.5399 20.8463 46.4551C21.6353 46.4311 23.0892 46.4311 23.8781 46.4551C26.6674 46.5399 27.1542 47.0759 29.9417 46.9468C31.3355 46.8822 32.0865 46.5435 33.4788 46.4551C34.6603 46.3802 36.5106 46.4551 36.5106 46.4551C36.5106 46.4551 39.7974 46.7559 40.0477 46.4551C40.4403 45.9832 41.7013 46.5301 42 45.9996C42.6009 44.9325 43.973 46.2254 45 46C46.3452 45.7047 48 45.5 48 45.5C48 45.5 49.8708 45.8124 51 45.5C54.8797 44.4267 44.7155 39.5902 46.5 39.5C48.0765 39.4203 46.4489 32.525 48.0264 32.4665C50.2045 32.3858 49.7524 35.1438 51.9841 33.9665C54.0343 32.8849 56.5736 35.7784 57 33.4999C57.7064 29.7255 59.4986 32.8677 58.9999 29.0585C58.8482 27.8999 59.4883 24.747 58.9999 24C58.0382 22.5291 54.7224 22.739 53.2066 22.739C50.1748 22.7391 50.537 25.4916 47 24.9999C46.4475 24.9231 44.1764 26.2535 42.5 25.4899C41.1467 24.8734 38.8171 27.3599 37 26.9999C33.3406 26.2751 34.5284 22.488 34.5 20.5C34.4633 17.9344 40.2391 20.0241 40.8411 19.4916C41.037 19.3183 43.8979 19.0456 44.8834 18.9999C46.4725 18.9263 45.8247 19.1304 47.41 18.9999C50.7526 18.7249 54.484 18.9999 56 18.9999C56.8825 18.9999 61.1084 11.2613 60.5 6.50029C60.1166 3.50029 58.5 2.50031 58.5 2.50031C58.5 2.50031 54.7013 2.94989 54.196 1.47498C53.971 0.818234 53.3501 0.724513 52.6801 0.491678C51.7509 0.168792 48.795 0.00960797 47.8084 2.75382e-05C43.857 -0.038342 40.6292 5.02564 40.6292 5.02564C40.6292 5.02564 32.93 1.02527 27.9967 1.02527C23.8528 1.02527 24.9896 2.42673 20.8463 2.50028Z" fill="#3AB7D0"/>
</svg>
