<svg width="50" height="47" viewBox="0 0 50 47" fill="none" xmlns="http://www.w3.org/2000/svg">
<path d="M10.8423 5.30481C11.1322 4.80482 14.1933 7.35077 16.7388 7.30491C20.0635 7.245 18.5715 2.49445 21.8966 2.48227C25.0269 2.47081 25.3711 0.893907 28.5001 0.982298C30.656 1.0432 34.3441 0.921406 36.5 0.982307C37.4759 1.00988 38.1866 3.80474 38.5 3.96464C39.0001 4.21978 38.5001 9.48233 38.5 10.4824V15.9824C38.5 15.9824 41.5145 22.0149 39.0002 25C38.1579 26 40.4921 30.3193 42.0002 33.5C42.5195 34.5954 42.8392 34.8309 43.0269 34.7077C43.1548 31.9503 43.4868 34.4058 43.0269 34.7077C43.0164 34.935 43.0072 35.1977 43 35.4999C42.8928 39.9939 53.5 39.9999 48.5 45C47.1193 46.3807 45.4512 44.9264 43.4999 45C41.1503 45.0887 39.2542 45.3962 37.4999 45.5C35.7741 45.6021 33.1033 46.0177 33.1033 46.0177H28.1033H17.6033C17.6033 46.0177 12.733 46.457 9.60336 46.5176C8.19635 46.5448 5.99981 46.5176 5.99981 46.5176C5.99981 46.5176 3.66737 46.7547 2.4999 46.0177C1.0179 45.082 0.59715 44.3411 0.49994 42C0.402394 39.6508 3.05258 36.9999 3.5 35.4999C3.94742 34 8.17556 38.0398 8.00013 35.4999C7.77101 32.1827 6.25559 31.0014 6.158 27.6776C6.06058 24.3596 7.00033 28.3195 7.00033 25.0001C7.00033 20.7043 10.3423 19.6007 10.3423 15.3049C10.3423 11.7902 10.1095 7.80489 10.3423 6.30489C10.4949 5.32102 10.3428 6.16611 10.8423 5.30481Z" fill="#3AB7D0"/>
</svg>
