<svg width="63" height="45" viewBox="0 0 63 45" fill="none" xmlns="http://www.w3.org/2000/svg">
<path d="M14 7.5C15 5 14.5065 4.49781 16 4C17.5 3.50001 16.3958 1.41268 20.5 1.5C23.8187 1.57061 23.6325 0.428325 27 1.00018C29.9947 1.50872 31.26 2.578 32.5 3.00012C33.74 3.42224 36 5.50012 37 7.00012C38 8.50012 38.5 11.0002 38.5 12.0001C38.5 13 39.5194 14.7321 39.5 16.5001C39.4784 18.4624 39.3902 18.2617 39.5 21.0001C39.6408 24.512 37.5 25.0001 37.5 25.0001C37.5 25.0001 34.0686 26.3796 34.5 29.0001C34.8265 30.9838 33.1184 33.2817 34.5 34.5001C36.4919 36.2568 43.5945 33.6352 44.5 34.0001C48.2221 35.5001 48.4505 32.0002 51 32.0002C52.5 32.0002 61.14 31.92 61.5 33.0002C62 34.5002 63 39.5002 63 39.5002C63 39.5002 61 42.5001 60.5 43.5C59.7539 44.9922 54.8595 44.3347 54.8595 44.3347L43.7222 44.6491H31.2223H19.7222L7.22225 44.1491C7.22225 44.1491 1.58138 45.0883 1.00005 44.1491C0.500056 43.3413 -0.26199 40.3096 1 38.5002C1.8055 37.3453 5.94527 38.336 5.5 37.0002C4.5 34.0002 12.5 34.5001 12.5 34.5001L8 34.0001C8 34.0001 10.3605 17.5686 11.5 16.5001C11.6954 16.3169 11.7838 16.293 11.8192 16.3027C11.7798 16.1729 11.7554 15.4897 12.5 12.5C13.8718 6.99224 13.0713 9.82173 14 7.5Z" fill="#3AB7D0"/>
</svg>
