<svg width="78" height="51" viewBox="0 0 78 51" fill="none" xmlns="http://www.w3.org/2000/svg">
<path d="M51.9189 1.55711C52.613 1.0485 53.4314 0.734482 54.3535 1.0239L54.5986 1.10691C55.8135 1.55276 56.8218 2.40291 57.7461 3.23094C58.7602 4.13953 59.67 5.01591 60.7275 5.55515L60.8906 5.63328C61.7022 5.99196 62.4656 5.92422 63.3545 5.87547C64.2878 5.82428 65.3444 5.801 66.4072 6.60105L66.8603 6.95262C69.0556 8.70602 70.2205 10.4201 71.9023 12.6987L72.0654 12.9311C72.425 13.4664 72.6289 13.9553 72.7285 14.4292C72.8412 14.9659 72.8138 15.4523 72.7685 15.9028C72.6788 16.7957 72.5208 17.601 72.9697 18.8296L73.0205 18.9868C73.1317 19.3666 73.1811 19.8324 73.1943 20.3374C73.2096 20.9236 73.1772 21.6041 73.1132 22.3403C72.9853 23.8131 72.7289 25.5499 72.457 27.2749C72.1839 29.0077 71.8954 30.7271 71.6992 32.1909C71.5001 33.6762 71.4086 34.8194 71.4951 35.4311L71.6201 36.3071C71.7273 37.0363 71.7907 37.366 71.9043 37.6792C71.9791 37.8854 72.0787 38.0922 72.2461 38.4155C72.4113 38.7348 72.6389 39.1602 72.9472 39.7768L73.2431 40.3911C73.317 40.5521 73.3685 40.6741 73.4043 40.768C73.4557 40.9032 73.4792 40.9976 73.4902 41.0786C73.5475 41.1712 73.6659 41.3481 73.916 41.7231C74.5785 42.7167 75.3033 42.8685 75.9755 43.1352C76.3076 43.267 76.7169 43.4632 76.9394 43.9184C77.1241 44.2966 77.1378 44.768 77.038 45.3491L76.9882 45.605C76.9153 45.9457 76.7755 46.2393 76.5429 46.4526C76.3076 46.6682 76.0264 46.7577 75.7568 46.7817C75.2611 46.8257 74.6846 46.6507 74.2343 46.52C73.7253 46.3722 73.3201 46.2605 72.999 46.2768C72.8536 46.2843 72.7565 46.3184 72.6865 46.3667C72.6357 46.4017 72.5773 46.4597 72.5214 46.5639L72.4668 46.685C72.3549 46.9769 72.1987 47.2453 71.956 47.4096C71.68 47.5966 71.3814 47.5916 71.1338 47.5063C70.9108 47.4294 70.712 47.2836 70.5527 47.1499C70.3887 47.0121 70.2207 46.847 70.0703 46.7007C69.9131 46.5478 69.7689 46.409 69.6279 46.2944C69.4848 46.1782 69.3697 46.1074 69.2802 46.0737C69.2008 46.0439 69.1638 46.0511 69.1416 46.0591C69.1191 46.0672 69.0668 46.0929 68.9931 46.1772L68.9121 46.2827C68.7651 46.4976 68.5831 46.6669 68.3632 46.771C68.1414 46.8759 67.9125 46.9002 67.6982 46.8725C67.2919 46.8199 66.9294 46.5828 66.6611 46.3608C66.3815 46.1295 66.1402 45.8601 65.9726 45.6557C65.9686 45.6508 65.9648 45.645 65.9609 45.6401C65.8982 45.6737 65.8254 45.7113 65.7451 45.7563C65.4476 45.9229 65.0285 46.171 64.4795 46.5268L63.8867 46.9204C62.8969 47.5895 62.0707 47.775 61.2627 47.8999C60.5646 48.0078 59.9207 48.0683 59.1386 48.3393L58.7949 48.4692C57.7915 48.878 57.0131 48.7331 56.3271 48.5825C55.7371 48.4529 55.2358 48.3279 54.6074 48.4311L54.3291 48.4897C52.5756 48.9433 51.3612 49.1222 49.874 49.3061L48.2656 49.5024C46.5056 49.7217 45.3166 49.8379 43.8359 49.9253L42.2256 50.0053C40.3116 50.088 39.0223 50.1015 37.4228 50.062L35.6845 50.0053C33.4603 49.9201 32.0632 49.8812 30.041 49.6245L29.1318 49.5005C27.1478 49.2118 26.0155 48.8784 24.1064 48.4966C23.2327 48.3218 22.5218 48.4532 21.7119 48.5805C20.9568 48.6992 20.1306 48.8087 19.1513 48.5405L18.9541 48.4819C18.0324 48.187 16.9027 47.8009 16.0058 47.4897C15.557 47.334 15.1651 47.1966 14.8857 47.0981C14.7462 47.0489 14.6344 47.0091 14.5576 46.9819C14.5446 46.9773 14.5324 46.9731 14.5214 46.9692H9.99118L9.88668 46.9184L7.11911 45.5688C7.0885 45.5848 7.05591 45.6038 7.02047 45.6216C6.81186 45.726 6.51761 45.8585 6.17868 45.9702C5.57013 46.1708 4.70088 46.3419 3.92477 46.0171L3.77047 45.9448C2.86341 45.4769 2.05147 45.4098 1.61715 45.3745C1.52402 45.3669 1.39693 45.358 1.30563 45.3384C1.27862 45.3325 1.23803 45.3225 1.1943 45.3052C1.15683 45.2903 1.07518 45.2535 0.999965 45.1753C0.908167 45.0797 0.838801 44.931 0.85934 44.7563C0.876386 44.6123 0.948038 44.5158 0.982386 44.4751C1.04971 44.3954 1.13183 44.3445 1.16598 44.3237C1.21356 44.2947 1.26906 44.2661 1.32516 44.2378C1.43765 44.1809 1.59381 44.1071 1.78805 44.0161L1.91696 43.9497C2.19595 43.7908 2.32793 43.6043 2.51754 43.3247C2.75395 42.976 3.04822 42.5341 3.72262 42.0844L4.35934 41.6518C4.36636 41.6467 4.37193 41.6418 4.37692 41.6382C4.39716 41.6166 4.41257 41.6004 4.41989 41.5942C4.43466 41.5817 4.44818 41.5726 4.45602 41.5669C4.48255 41.5477 4.52051 41.5234 4.56442 41.4956C4.66162 41.434 4.85489 41.3135 5.23532 41.0766L5.48141 40.9126C5.69611 40.7582 5.82128 40.6312 5.89938 40.5259C5.99617 40.3952 6.04109 40.2709 6.07614 40.0971C6.15181 39.7215 6.16782 39.0988 6.67672 38.2446L6.80661 38.0102C6.91363 37.7996 6.9555 37.6573 6.96969 37.5542C6.98687 37.4285 6.96949 37.32 6.91403 37.1382C6.78909 36.7287 6.53603 36.1449 6.60739 34.9702L6.62594 34.7739C6.75353 33.8033 7.36424 33.0547 7.87106 32.4311C8.45099 31.7176 8.91268 31.1461 9.00387 30.437L9.03903 30.1938C9.1263 29.6473 9.25379 29.2434 9.42086 28.9214C9.6149 28.5475 9.8469 28.3154 10.0478 28.1216C10.2469 27.9295 10.4037 27.7849 10.5576 27.5483C10.7103 27.3133 10.8727 26.9651 11.0146 26.3823L11.0537 26.1733C11.132 25.6399 11.108 24.7986 11.0146 23.7329C10.9098 22.5377 10.7276 21.1454 10.5586 19.7368C10.3906 18.3373 10.2368 16.9231 10.1953 15.7173C10.1745 15.1142 10.1813 14.5514 10.2314 14.061C10.2808 13.5781 10.3751 13.1273 10.5527 12.772C11.0364 11.8046 11.0512 11.5991 11.1543 11.3208C11.2772 10.9889 11.4841 10.684 12.2089 9.72996L12.3056 9.58933C12.5243 9.24014 12.6935 8.74437 12.8339 8.12351C12.9929 7.42082 13.101 6.62894 13.2256 5.81004C13.3479 5.00568 13.4862 4.17658 13.708 3.45555C13.9273 2.74265 14.2491 2.06128 14.7871 1.6157L14.956 1.4907C15.352 1.22852 15.7643 1.17558 16.1631 1.25047C16.576 1.32809 16.9681 1.54328 17.2822 1.71629C17.6265 1.90594 17.9018 2.05895 18.1738 2.1323C18.4187 2.19826 18.6335 2.19169 18.8642 2.06394L19.0371 1.97996C19.453 1.80456 19.9538 1.76415 20.4365 1.77097C21.003 1.77901 21.6347 1.85533 22.2392 1.93308C22.8558 2.0124 23.4439 2.09326 23.9668 2.12351C24.5021 2.15446 24.891 2.12559 25.1328 2.03367L25.4638 1.91258C26.2033 1.6534 26.7326 1.55117 27.1425 1.55808C27.6541 1.56681 27.9428 1.7463 28.1523 1.88621C28.3228 2.00006 28.3615 2.02445 28.4882 2.02C28.6744 2.01339 29.0367 1.92295 29.7763 1.5532L29.9365 1.47898C30.3082 1.31611 30.6657 1.24239 31.0097 1.27195C31.4094 1.30642 31.7404 1.47612 32.0117 1.71238C32.519 2.15456 32.868 2.88154 33.1718 3.51609C33.4984 4.19813 33.7978 4.83564 34.2031 5.30808C34.586 5.75419 35.0373 6.02293 35.6875 6.00144L37.0068 5.94871C40.1221 5.81074 43.4654 5.59278 46.5664 6.00535L46.7695 6.01805C47.2437 6.01699 47.7194 5.79369 48.2363 5.37254C48.8312 4.88776 49.4024 4.20769 50.0127 3.48972C50.604 2.79412 51.2384 2.05578 51.9189 1.55711ZM4.24313 42.0405C4.24434 42.0508 4.24723 42.061 4.24899 42.0708C4.24577 42.0531 4.24347 42.0341 4.24215 42.0141C4.24265 42.0227 4.24213 42.0317 4.24313 42.0405ZM44 17.5005C43 16.5005 43.3777 18.0003 42 18.0005C41.7003 18.0005 39.9143 17.9534 39.5 18.0005C38.6458 18.0977 38.5735 19.4031 38 20.0005C37 23.5005 37.5 23.5005 36 24.5005C35 26.5007 35.1582 25.3192 35.499 27.5005C35.499 33.0003 34.4992 36.1882 35.499 35.5005C36.869 34.5579 37.1426 39.2462 38 40.0005C38.7411 40.6523 40.1836 40.5005 41 40.5005C41.6308 40.5005 43.4675 40.8175 44 40.0005C44.4377 39.5287 45.9052 39.0953 46.5 38.5005C47.4995 37.5006 45.5092 36.4688 47.0088 33.9692C47.5087 33.4693 47.3297 31.1806 47.5088 30.4692C48.061 28.2777 46.2399 30.6338 46.5 28.0005C45.0002 26.0005 45 27.4974 45 25.0005C43.4908 22.5007 45.3472 25.2872 44.5 22.0005C43.9639 19.9208 44.9997 18.0006 44 17.5005Z" fill="#3AB7D0"/>
</svg>
