<svg width="64" height="61" viewBox="0 0 64 61" fill="none" xmlns="http://www.w3.org/2000/svg">
<path d="M18.4656 0.799398C18.6274 0.812274 18.7693 0.831392 18.8709 0.84725C18.922 0.855221 18.9642 0.863101 18.9949 0.868734C19.0103 0.871553 19.0235 0.873711 19.033 0.87557C19.0376 0.87646 19.0416 0.876901 19.0447 0.877523C19.0463 0.877839 19.0484 0.878253 19.0496 0.8785L19.0506 0.879476H19.0516C19.0509 0.883413 19.0397 0.942146 18.8612 1.81112L19.0526 0.879476L19.4608 0.963461L19.6893 1.31307L20.6776 2.83162H27.1307C27.1687 2.73758 27.2093 2.63698 27.2567 2.53573C27.3829 2.266 27.5565 1.9514 27.786 1.66756C28.0106 1.38977 28.341 1.07651 28.7977 0.915609L28.9363 0.874594C29.6166 0.716175 30.0967 1.20266 30.2215 1.33651C30.4177 1.54694 30.5902 1.8208 30.702 1.99666C30.8025 2.15476 30.8763 2.26848 30.9373 2.35409C31.0992 2.37148 31.2762 2.39639 31.4393 2.42147C31.757 2.47034 32.1263 2.53508 32.4735 2.59823C32.5369 2.60977 32.6 2.62194 32.6619 2.63338C32.7161 2.48697 32.7969 2.32788 32.9237 2.18026L33.0408 2.05916C33.3222 1.80162 33.6538 1.71039 33.8904 1.67928C34.1642 1.6433 34.4248 1.67043 34.6151 1.70272C34.8131 1.73637 34.9888 1.78548 35.1112 1.82381C35.1191 1.8263 35.127 1.82919 35.1346 1.83162H40.743L41.0125 2.4078L41.4578 3.35897H42.0281C42.0504 3.35562 42.0759 3.35113 42.1043 3.34725C42.1991 3.33433 42.3301 3.32003 42.4793 3.30916C42.4869 3.25451 42.4984 3.19458 42.5184 3.13241C42.5723 2.96474 42.6753 2.79104 42.8416 2.65291C43.003 2.519 43.1765 2.45823 43.3123 2.43221C43.4932 2.39762 43.651 2.41628 43.7518 2.43709L43.8319 2.45662L43.9764 2.5035C44.667 2.76732 44.9372 3.45405 45.0496 3.81014C45.1942 4.26827 45.2651 4.80602 45.3162 5.2369C45.3522 5.54013 45.3796 5.78948 45.408 5.99373C45.5067 5.99409 45.5997 5.9932 45.6815 5.99569C45.8229 6 45.9469 6.00691 46.036 6.01229C46.0629 6.01392 46.0869 6.01483 46.1072 6.0162C46.1276 6.01487 46.1515 6.01387 46.1785 6.01229C46.2674 6.00707 46.3918 6.00084 46.533 5.99666C46.7875 5.98915 47.1463 5.9878 47.4627 6.02205C47.4894 6.00708 47.5492 5.97428 47.659 5.90291C47.8785 5.76016 48.4101 5.39781 49.1375 5.55037L49.285 5.58846L49.4656 5.65389C49.8638 5.82878 50.1 6.1393 50.2342 6.40682C50.3686 6.67504 50.4354 6.97456 50.4715 7.12459C50.4891 7.19762 50.5036 7.25241 50.5164 7.2994C50.7641 7.41023 50.9625 7.56073 51.1141 7.69686C51.3058 7.86913 51.4757 8.06733 51.5946 8.20467C51.7307 8.36192 51.8168 8.45963 51.8983 8.5328C51.9362 8.56687 51.9601 8.5829 51.9705 8.58944L51.9617 8.58846C52.1391 8.6413 52.3156 8.70084 52.4696 8.78377C52.5561 8.83041 52.6451 8.88919 52.7303 8.96541C52.7887 9.01775 52.8331 9.06896 52.8651 9.10799C52.8826 9.11786 52.9079 9.13253 52.9432 9.14998L53.0526 9.20858C53.2967 9.35078 53.4679 9.52657 53.5858 9.66366C53.6505 9.73895 53.7098 9.81537 53.7498 9.86678C53.7655 9.88698 53.7805 9.90403 53.7928 9.91952C53.9023 9.7526 54.0024 9.57972 54.1307 9.36776C54.1917 9.26694 54.2617 9.15404 54.3338 9.05135C54.3972 8.96105 54.5042 8.81758 54.6463 8.69588C54.7385 8.61695 55.1798 8.25913 55.7654 8.47909C56.1534 8.62489 56.3319 8.93278 56.41 9.12264L56.4588 9.26229L56.5018 9.441C56.5033 9.44928 56.5033 9.45814 56.5047 9.46639C56.6929 9.42892 56.9183 9.4107 57.1668 9.45174L57.285 9.47518L57.4119 9.51131C57.6977 9.60673 57.9106 9.77547 58.0506 9.9117C58.2163 10.073 58.3432 10.251 58.4324 10.3931C58.5166 10.5272 58.5816 10.6544 58.6278 10.7506C58.632 10.755 58.637 10.7597 58.6414 10.7642C58.7273 10.8529 58.8451 10.9759 58.9705 11.1129C59.1832 11.3451 59.5182 11.7235 59.6981 12.0367L59.701 12.0377C59.9542 12.0854 60.1347 12.2128 60.2449 12.3131L60.3319 12.401L60.4383 12.5279C60.6737 12.8327 60.826 13.1915 60.911 13.4137C60.9661 13.5579 61.0083 13.6873 61.0369 13.7808C61.0439 13.8038 61.049 13.8255 61.0545 13.8443L61.4188 14.6246C61.4515 14.5759 61.4892 14.5249 61.5321 14.4762C61.6214 14.3747 61.9002 14.0885 62.3612 14.0836C62.879 14.0783 63.1746 14.4209 63.283 14.5816C63.397 14.7508 63.4574 14.9302 63.492 15.0533L63.5272 15.2281C63.5506 15.3982 63.5414 15.5511 63.534 15.6402C63.5215 15.7899 63.4955 15.9485 63.4666 16.0982C63.4083 16.3998 63.3217 16.7413 63.2362 17.0494C63.1496 17.3611 63.0589 17.6569 62.991 17.8736C62.9727 17.9322 62.955 17.9855 62.9403 18.0318L63.0262 18.9537L63.0389 19.0836L63.0174 19.2115L62.9334 19.7076L63.0262 20.7037L63.1317 21.8287L63.1404 21.9215L63.1317 22.0142L63.0262 23.1392L62.992 23.5123L62.9627 23.5396L62.8953 24.2642L62.7908 25.3892L62.6854 26.5142L62.6824 26.5514L62.6756 26.5885L62.4852 27.7135L62.4012 28.2105L62.2274 28.2984C62.2367 28.3037 62.2468 28.3094 62.2567 28.315C62.4013 28.3968 62.6197 28.5182 62.8172 28.6676C62.9943 28.8016 63.2057 28.995 63.3651 29.2681L63.4305 29.3912L63.5174 29.5992C63.5935 29.8147 63.6334 30.051 63.6082 30.3053C63.5761 30.6278 63.4468 30.8767 63.3572 31.0308C63.1601 31.3701 63.063 31.4557 62.9471 31.7828L62.4315 33.3805L62.3904 33.5084L62.3172 33.6207L61.5828 34.7457L60.8494 35.8707L59.3807 38.1207L59.2987 38.2457L59.1834 38.3414L58.6268 38.8043C58.6387 38.8624 58.6539 38.9227 58.6639 38.9849C58.7022 39.223 58.7306 39.5295 58.6922 39.8443C58.6591 40.1149 58.5664 40.4695 58.3153 40.7799L58.1971 40.9107C57.8403 41.2629 57.3515 41.3983 57.1199 41.4537C57.1 41.4585 57.0797 41.4611 57.0604 41.4654C56.9578 41.6014 56.8305 41.7712 56.6854 41.9527C56.39 42.3222 55.9893 42.7955 55.5985 43.1617C55.5939 43.2025 55.5892 43.2535 55.5858 43.315C55.57 43.5983 55.5798 43.9769 55.6043 44.3765C55.6284 44.7693 55.6644 45.1558 55.6951 45.4459C55.7104 45.5901 55.7244 45.71 55.7342 45.7926C55.7391 45.8335 55.7433 45.8659 55.7459 45.8873C55.7472 45.8978 55.7482 45.9065 55.7488 45.9117C55.7491 45.9137 55.7496 45.9155 55.7498 45.9166V45.9185L55.8494 46.689L55.1268 46.9762L53.9549 47.441C53.9371 47.4522 53.9179 47.4659 53.8963 47.4791C53.8028 47.5359 53.6706 47.6118 53.5164 47.689C53.3347 47.7801 53.0477 47.9085 52.7225 47.984C52.7039 48.1384 52.6753 48.3635 52.619 48.5699C52.5491 48.8254 52.4134 49.1637 52.1199 49.4449L51.9842 49.5611C51.5554 49.8914 50.9933 49.9717 50.617 49.9996C50.1891 50.0313 49.7285 50.0092 49.326 49.9722C48.9178 49.9348 48.5381 49.8793 48.2625 49.8336C48.1692 49.8181 48.0867 49.8021 48.0184 49.7896L46.2225 50.2008L46.1229 50.2242L46.0194 50.2252L46.0203 50.2262C46.0194 50.2262 46.0173 50.2261 46.0145 50.2262C46.0084 50.2263 45.998 50.2266 45.9842 50.2271C45.9564 50.2281 45.9136 50.23 45.8592 50.233C45.75 50.2391 45.5952 50.2499 45.4178 50.2691C45.1399 50.2992 44.8414 50.3463 44.5819 50.4137L44.3377 50.4879C43.4236 50.8159 42.6728 50.3281 42.4422 50.2086C42.2775 50.1232 42.2242 50.108 42.2 50.1041C42.1959 50.1034 42.1963 50.1031 42.1961 50.1031L42.1336 50.1265C41.4574 50.4531 40.6336 50.4187 40.1385 50.3678C39.8615 50.3392 39.6164 50.2964 39.4412 50.2613C39.3786 50.2488 39.3241 50.2363 39.2791 50.2262H37.2576L36.0379 50.6666L35.2508 50.9508L34.8319 50.2252C34.8306 50.2231 34.8281 50.2186 34.825 50.2135C34.8186 50.2027 34.8082 50.1856 34.7947 50.1637C34.7672 50.1187 34.7263 50.0532 34.6756 49.9771C34.5917 49.8513 34.4873 49.7101 34.3807 49.5806C34.284 49.6613 34.1875 49.7373 34.1014 49.7994C33.9906 49.8793 33.887 49.9482 33.8123 49.9967C33.7747 50.0211 33.7431 50.0411 33.7205 50.0553C33.7093 50.0623 33.6999 50.0677 33.6932 50.0719C33.6899 50.0739 33.6875 50.0764 33.6854 50.0777C33.6845 50.0783 33.6832 50.0783 33.6824 50.0787L33.6815 50.0797H33.6805L33.6737 50.0836C33.6154 50.1184 33.5569 50.1487 33.4988 50.1754V57.2672L33.1365 57.567L33.1346 57.5689C33.1326 57.5706 33.1291 57.5732 33.1248 57.5767C33.1158 57.5843 33.1017 57.5958 33.0838 57.6109C33.0476 57.6416 32.9949 57.6876 32.9305 57.7437C32.8009 57.8567 32.627 58.0115 32.449 58.1812C32.2687 58.3532 32.0948 58.5297 31.9598 58.6861C31.8811 58.7772 31.8347 58.8404 31.8094 58.8765L31.786 58.9058C31.6938 59.1447 31.507 59.4374 31.1561 59.6041C30.8122 59.7673 30.4828 59.7271 30.2733 59.6666C29.978 59.5812 29.7308 59.4014 29.5643 59.2603L29.0399 59.7828L28.7479 60.0738H9.12678L7.97639 60.0465H7.06623C7.05887 60.0474 7.05104 60.0484 7.04279 60.0494C6.98512 60.0562 6.90495 60.0646 6.81037 60.0719C6.62689 60.0858 6.36254 60.0975 6.09064 60.0767C5.85512 60.0588 5.4529 60.0075 5.10627 59.7887C5.00141 59.7224 4.89022 59.6317 4.78986 59.5142L4.6424 59.5357L4.59455 59.2066L4.59357 59.2037L4.64143 59.5367H4.63752C4.63536 59.537 4.63205 59.5372 4.62873 59.5377C4.62212 59.5386 4.61331 59.5402 4.60236 59.5416C4.58015 59.5445 4.54913 59.5488 4.51057 59.5533C4.43353 59.5623 4.32494 59.5729 4.19416 59.5836C3.93496 59.6048 3.57558 59.6247 3.18928 59.6138C2.81059 59.6032 2.36246 59.5626 1.94318 59.4449C1.59659 59.3476 1.14684 59.1632 0.811348 58.7857L0.675606 58.6119C0.115111 57.7949 0.48225 56.9338 0.780098 56.4635C1.1043 55.9517 1.59579 55.4734 2.04475 55.0904C2.50748 54.6958 2.99078 54.3469 3.35236 54.1002C3.49798 54.0008 3.6267 53.9168 3.72834 53.8512L4.49787 52.3131L4.48713 50.7096L4.47346 48.8658L4.46076 47.0221L4.44709 45.1783L4.43439 43.3346L4.42072 41.4908L4.40803 39.6471C4.40548 39.2741 4.52326 38.9056 4.62775 38.6363C4.74107 38.3444 4.88589 38.0536 5.02033 37.8072C5.15529 37.5599 5.28861 37.3389 5.3885 37.1803L5.37873 35.6363L5.36506 33.7926L5.35236 31.9488L5.33869 30.1051L5.33772 29.8717L5.4383 29.6627L6.03791 28.4224L5.49592 25.9488H4.04572L4.03791 24.9556L4.02619 23.2867C4.01604 23.258 4.00417 23.2265 3.99299 23.193C3.93745 23.0263 3.86706 22.7891 3.81818 22.526C3.77112 22.2725 3.73226 21.9376 3.77815 21.5963C3.82414 21.2547 3.97449 20.7839 4.41779 20.4566L4.534 20.3795C4.80585 20.2145 5.08985 20.1548 5.30354 20.1334C5.32115 20.1316 5.33879 20.1308 5.35627 20.1295L5.35236 19.4244L5.33869 17.5806L5.326 15.7369L5.31428 14.067C5.30423 14.0383 5.29215 14.0069 5.28107 13.9732C5.2267 13.8079 5.1579 13.5726 5.11018 13.3111C5.06411 13.0586 5.02798 12.7274 5.07209 12.3892C5.11611 12.0523 5.25817 11.5905 5.68049 11.2574L5.78693 11.1803C6.04354 11.0126 6.35876 10.9226 6.70002 10.9683C6.7132 10.9701 6.72616 10.9731 6.73908 10.9752C6.76169 10.8925 6.79261 10.8088 6.83381 10.7262C6.85183 10.69 6.86994 10.6558 6.8885 10.6256L6.85725 10.2584C6.80615 9.8288 6.8048 9.31011 6.81232 8.93026C6.81621 8.73414 6.82223 8.56162 6.82795 8.43807C6.83081 8.37634 6.83381 8.32565 6.83576 8.29061C6.83625 8.28164 6.83633 8.27316 6.83674 8.2662L6.85041 6.13827L6.85334 5.69393L7.18342 5.39803L8.02326 4.64803L8.30744 4.39412H9.73029C9.71583 4.28147 9.70576 4.16399 9.70881 4.04452C9.718 3.68985 9.83031 3.17981 10.2928 2.81991L10.4071 2.73885C10.6769 2.56671 10.9612 2.50584 11.1717 2.48397C11.4198 2.45824 11.6555 2.47768 11.8377 2.5035C12.0249 2.53004 12.1903 2.56895 12.3065 2.60018C12.3172 2.60307 12.3277 2.60617 12.3377 2.60897H14.1717L14.4412 2.12362L14.7264 1.60897H16.1844C16.2037 1.59092 16.2224 1.57094 16.243 1.55233C16.4425 1.37162 16.8089 1.06545 17.2342 0.915609L17.4041 0.864828C17.8039 0.763198 18.2191 0.779795 18.4656 0.799398ZM34.4246 12.5416C34.2053 12.4721 33.7355 12.3065 33.285 12.5875L33.1951 12.65C32.8088 12.9466 32.6959 13.3209 32.6571 13.651C32.6397 13.7991 32.635 13.9627 32.6287 14.0846C32.6253 14.1511 32.6211 14.214 32.6151 14.274L32.5897 14.4498C32.3558 15.6348 32.6142 16.4515 32.9051 17.2047C33.1907 17.9442 33.484 18.5825 33.4998 19.5543L33.4988 19.7838C33.4882 20.2861 33.4127 20.5554 33.3367 20.6988C33.2681 20.8283 33.1886 20.8791 33.0584 20.9205C32.9793 20.9456 32.8931 20.9625 32.7723 20.9869C32.6618 21.0092 32.5169 21.0385 32.3738 21.0875C32.0957 21.1828 31.8193 21.3548 31.6229 21.6871L31.5438 21.8394C31.1292 22.754 31.0563 23.9824 31.0701 24.9224C31.0772 25.4035 31.1077 25.8323 31.1365 26.1402C31.151 26.2939 31.1651 26.4187 31.1756 26.5055C31.1809 26.5486 31.1852 26.5835 31.1883 26.607C31.1883 26.6249 31.1883 26.6506 31.1883 26.6822C31.1884 26.7517 31.1891 26.8531 31.1893 26.9791C31.1896 27.2318 31.1898 27.5859 31.1903 27.9879C31.1911 28.7924 31.1922 29.7931 31.1922 30.5738V33.0738C31.1923 33.2334 31.2625 33.3517 31.3201 33.4205C31.3752 33.4861 31.4358 33.5283 31.4754 33.5523C31.5544 33.6001 31.6406 33.6315 31.7059 33.6519C31.8437 33.695 32.0208 33.7304 32.2069 33.7613C32.5859 33.8242 33.0864 33.8798 33.5877 33.9254C34.5859 34.016 35.6529 34.0737 35.8875 34.0738C36.2841 34.0738 36.6151 33.8503 36.8524 33.6422C37.1015 33.4237 37.336 33.1424 37.5399 32.8824L37.6414 32.7457C38.1236 32.0669 38.2309 31.4087 38.4588 30.734L38.5721 30.3824C39.103 28.6606 39.101 27.4293 39.3201 25.6344L39.3465 25.3892C39.3968 24.8347 39.3742 24.3875 39.3035 23.9976C39.2229 23.5539 39.0833 23.2042 38.952 22.8902C38.7018 22.2921 38.4493 21.7517 38.4852 20.5894L38.5135 19.9273C38.5153 19.8992 38.5186 19.8734 38.5203 19.8502C38.5415 19.8146 38.5543 19.7857 38.5594 19.7721C38.5731 19.7355 38.5789 19.7047 38.5819 19.689C38.5878 19.6577 38.5901 19.6323 38.5906 19.6226C38.5917 19.6017 38.5908 19.5843 38.5906 19.5787C38.5896 19.5499 38.5844 19.5199 38.5809 19.4976C38.5814 19.5003 38.5824 19.5029 38.5828 19.5045L38.4979 18.5084C38.4705 18.1443 38.4215 17.8737 38.3387 17.6588C38.2482 17.4244 38.1284 17.285 38.0262 17.1783C37.9338 17.0819 37.8913 17.0431 37.8367 16.9556C37.7958 16.8898 37.7437 16.7865 37.6873 16.6148L37.6287 16.4176C37.4731 15.8326 37.3815 15.3973 37.2254 15.0142C37.0991 14.7045 36.932 14.4246 36.6737 14.0865L36.3826 13.7252C36.009 13.2798 35.9123 13.0172 35.8485 12.8736C35.8335 12.84 35.7983 12.759 35.744 12.6871C35.6728 12.5932 35.5411 12.4774 35.3397 12.4586C35.1842 12.4442 35.0582 12.4976 35.0096 12.5191L34.8338 12.6109C34.7897 12.6357 34.7436 12.6426 34.4246 12.5416Z" fill="#3AB7D0"/>
</svg>
