<svg width="80" height="51" viewBox="0 0 80 51" fill="none" xmlns="http://www.w3.org/2000/svg">
<path d="M37.2407 0.503731C39.997 0.494111 41.95 0.377729 45.02 0.500801L46.8852 0.569161C48.6087 0.633 50.0132 0.706463 52.0717 1.00568L53.4214 1.20393C54.6676 1.39524 55.6803 1.59008 57.1411 2.02033L57.8667 2.23615C59.4807 2.72486 60.6002 3.13654 62.2456 4.06525L62.7768 4.37287C63.9494 5.07182 64.6911 5.65838 65.8237 6.61897L66.2221 6.94807C66.3355 7.03892 66.4315 7.11336 66.5151 7.17756C66.6767 7.30165 66.8186 7.40692 66.9467 7.52033C67.2194 7.76169 67.4355 8.04278 67.9087 8.71174L68.0805 8.93635C68.1989 9.07565 68.2701 9.12339 68.2973 9.1385C68.3104 9.13529 68.3311 9.13005 68.3969 9.11018C68.4645 9.0898 68.5956 9.05132 68.7524 9.06135C68.9239 9.07235 69.0813 9.13675 69.2231 9.24397C69.4718 9.43221 69.6956 9.77396 69.9467 10.2762L70.0346 10.4324C70.1322 10.589 70.259 10.7479 70.4096 10.9168C70.626 11.1595 70.8201 11.3474 71.0659 11.6131C71.4992 12.0816 72.0004 12.6944 72.0005 13.4998C72.0005 13.833 72.0393 14.0513 72.0874 14.2156C72.1386 14.3907 72.2001 14.5125 72.2856 14.7078C72.3694 14.8993 72.457 15.1248 72.5034 15.4315C72.5376 15.6575 72.5471 15.9157 72.5268 16.2274L72.4965 16.5584C72.4306 17.1179 72.3637 17.5167 72.2876 17.8035C72.2131 18.084 72.1157 18.3163 71.9506 18.4881C71.7815 18.6641 71.5762 18.7283 71.5141 18.7528C71.4826 18.7652 71.457 18.776 71.4321 18.7908L71.354 18.8533C71.0049 19.2025 71.122 19.1233 70.3989 19.8367L69.3471 20.8602C68.4918 21.6852 67.996 22.1814 67.7153 22.4696C67.6206 22.5668 67.551 22.6404 67.5005 22.6942V25.533L67.4956 25.5653V25.5672C67.4954 25.5683 67.4948 25.5702 67.4946 25.5721C67.494 25.5765 67.4937 25.5832 67.4926 25.5916C67.4904 25.6096 67.487 25.6373 67.4829 25.6717C67.4745 25.7407 67.4626 25.8401 67.4497 25.9608C67.4237 26.2032 67.3931 26.5294 67.3725 26.867C67.3518 27.2073 67.3415 27.5471 67.3559 27.8211C67.3632 27.9585 67.376 28.0668 67.3921 28.1444C67.3988 28.177 67.405 28.1978 67.4087 28.2088C67.5809 28.4177 67.8986 28.5746 68.2924 28.7069C68.5094 28.7797 68.6431 28.8135 68.8393 28.8768C68.9208 28.903 69.0098 28.9338 69.0893 28.9696C69.1388 28.9918 69.2211 29.0318 69.3003 29.0975L69.3774 29.1717L69.5913 29.409C69.7475 29.5746 69.8552 29.667 69.9243 29.7186C70.0124 29.6888 70.1357 29.6666 70.2807 29.702C70.4298 29.7384 70.5448 29.8225 70.6274 29.8963C70.7131 29.973 70.8009 30.0724 70.894 30.1912L71.0454 30.4071C71.3819 30.938 71.6063 31.6533 71.7485 32.2127C71.833 32.5451 71.8937 32.8481 71.934 33.0672C71.9542 33.1768 71.9699 33.2664 71.9799 33.3289C71.9804 33.3318 71.9805 33.3349 71.9809 33.3377C72.4864 34.3087 72.7711 34.4217 72.8911 34.4637C72.9459 34.4829 72.9871 34.4922 73.0737 34.5164C73.1494 34.5377 73.2548 34.569 73.3647 34.6268C73.6086 34.7551 73.7907 34.9642 73.9467 35.2762C73.9946 35.3719 74.0622 35.4274 74.2094 35.4725C74.3921 35.5284 74.6038 35.5427 74.934 35.5809C75.5501 35.6521 76.3945 35.8025 76.935 36.7528L77.1919 37.2225C77.5307 37.8526 78.0866 38.9168 78.6108 39.9871C78.9604 40.7009 79.3002 41.425 79.5532 42.0291C79.6795 42.3307 79.7877 42.6102 79.8647 42.8465C79.9358 43.0647 80.0004 43.3036 80.0005 43.4998C80.0004 43.8408 79.9484 44.4826 79.8598 45.1014C79.8152 45.4132 79.7597 45.7299 79.6938 46.0076C79.6468 46.2059 79.5885 46.4104 79.5141 46.5848L79.434 46.7479C79.2728 47.03 79.0184 47.2367 78.7768 47.3856C78.5299 47.5378 78.2575 47.6542 78.0141 47.741C77.769 47.8285 77.5396 47.8901 77.3725 47.9305C77.2886 47.9508 77.2186 47.9663 77.1694 47.9764C77.1524 47.9799 77.1375 47.9819 77.1255 47.9842L74.1587 48.9744L74.0815 48.9998H70.0288L65.5551 49.4969L65.5278 49.4998H60.1128C60.0613 49.5241 59.9924 49.5561 59.9096 49.5936C59.7186 49.68 59.4508 49.797 59.143 49.9178C58.6149 50.1251 57.9341 50.359 57.313 50.4617L57.0512 50.4979C56.5493 50.5498 56.1704 50.6015 55.643 50.5301L55.4067 50.491C54.4902 50.317 53.6454 49.5848 53.0766 48.9891C52.7805 48.6789 52.5344 48.3788 52.3628 48.1571C52.2768 48.0459 52.2086 47.9528 52.1616 47.8875C52.1383 47.8551 52.1196 47.8295 52.1069 47.8113C52.1007 47.8024 52.0957 47.795 52.0923 47.7899C52.0906 47.7874 52.0893 47.7846 52.0883 47.783L52.0864 47.7821V47.7811L52.4995 47.4998L52.0864 47.7801L52.0454 47.7196L52.0229 47.6502V47.6492L52.0219 47.6483C52.0214 47.6466 52.0212 47.6433 52.02 47.6395C52.0175 47.6316 52.0126 47.6195 52.0073 47.6033C51.9965 47.5708 51.9804 47.5215 51.9585 47.4588C51.9144 47.3329 51.8483 47.1506 51.7612 46.9315C51.5863 46.4915 51.3284 45.9065 50.9985 45.3192C50.6667 44.7285 50.2727 44.1541 49.8286 43.7225C49.4385 43.3434 49.0386 43.1014 48.6342 43.0223L48.4604 42.9988C48.1637 42.9755 47.7514 43.0287 47.3833 43.0994C47.2317 43.1286 47.0958 43.1601 46.9897 43.1854C46.9288 43.3017 46.8271 43.4648 46.6684 43.5906C46.4634 43.7531 46.1629 43.8499 45.8266 43.7205C45.6116 43.6376 45.4223 43.4763 45.2505 43.2645L45.0844 43.0369C44.9664 42.8598 44.8843 42.695 44.8198 42.5555C44.7494 42.4033 44.7146 42.3175 44.6665 42.2293C44.6256 42.1544 44.5916 42.1127 44.5561 42.0819C44.526 42.0557 44.4775 42.0247 44.3911 41.993C44.3422 42.0096 44.3215 42.0235 44.2036 42.0711C44.1247 42.1029 43.9375 42.1778 43.7241 42.1444C43.4556 42.102 43.2808 41.9207 43.1821 41.7235C43.0753 41.5099 42.9738 41.2417 42.9067 41.0828C42.8723 41.0014 42.8442 40.9442 42.8227 40.9051C42.7493 40.8715 42.6915 40.8615 42.6411 40.8621C42.5901 40.8629 42.526 40.8742 42.4428 40.9071L42.353 40.9471C42.3245 40.9614 42.2541 41.0199 42.1665 41.1219C42.1291 41.1654 42.097 41.207 42.0747 41.2371C42.0637 41.2519 42.0555 41.2639 42.0503 41.2713C42.0477 41.2749 42.0453 41.2778 42.0444 41.2791L41.9809 41.3729L41.8833 41.4315L41.8823 41.4305C41.8787 41.4328 41.8737 41.4372 41.8667 41.4422C41.8481 41.4553 41.8204 41.4759 41.7905 41.5028C41.7255 41.5612 41.674 41.6265 41.6499 41.6854C41.6327 41.7274 41.6255 41.7719 41.6577 41.8446C41.6983 41.936 41.8177 42.1039 42.1479 42.324L42.3784 42.4901C42.4561 42.5527 42.5315 42.6235 42.5952 42.7029C42.7456 42.8907 42.8288 43.1262 42.7885 43.4012C42.7538 43.6374 42.6328 43.8606 42.4907 44.0692C42.417 44.1772 42.3289 44.2941 42.226 44.4207L41.8735 44.8319C41.7103 45.0155 41.5009 45.1094 41.2817 45.1248C41.0827 45.1388 40.8997 45.0871 40.7592 45.033C40.5029 44.9343 40.188 44.7365 40.0229 44.6473C39.9725 44.62 39.9295 44.5985 39.893 44.5819L39.8696 44.7733C39.8443 45.1575 39.8021 45.4577 39.6889 45.6697C39.6187 45.8013 39.5207 45.9024 39.3979 45.9715C39.3061 46.0231 39.1969 46.0528 39.188 46.0555C39.1665 46.0623 39.1697 46.0629 39.1772 46.0584C39.1722 46.0637 39.164 46.0744 39.1518 46.0916C39.1059 46.1571 39.0348 46.2922 38.9467 46.5584L38.853 46.8719C38.8294 46.9583 38.7791 47.1187 38.6518 47.242C38.5748 47.3166 38.4621 47.3845 38.3178 47.3992C38.1802 47.4132 38.0682 47.373 37.9965 47.3358C37.8726 47.2712 37.7878 47.1708 37.7544 47.1307C37.7225 47.0925 37.6883 47.0463 37.6616 47.0106C37.3503 47.2298 36.9648 47.3426 36.6938 47.4022C36.5141 47.4417 36.3508 47.4652 36.2329 47.4793C36.1736 47.4864 36.1241 47.4919 36.0893 47.4949C36.0722 47.4964 36.0583 47.4971 36.0483 47.4979C36.0459 47.498 36.0434 47.4977 36.0415 47.4979L31.5551 47.9969L31.5464 47.9979L31.5385 47.9988L25.0385 48.4988L25.0376 48.4979L25.0346 48.4988C25.0249 48.4998 25.0105 48.5019 24.9917 48.5037C24.9538 48.5074 24.8978 48.5125 24.8256 48.5194C24.6813 48.5331 24.4711 48.5525 24.2085 48.576C23.6831 48.623 22.9458 48.6861 22.0991 48.7488C20.4086 48.8741 18.2691 48.9998 16.5005 48.9998C16.0856 48.9998 15.6314 48.8395 15.3247 48.7108C15.1624 48.6426 15.0215 48.5751 14.9214 48.5242C14.9047 48.5158 14.8889 48.5073 14.8745 48.4998H10.5307C10.5246 48.5005 10.5173 48.5018 10.5092 48.5028C10.4776 48.5064 10.431 48.5116 10.3715 48.5184C10.2521 48.5321 10.0797 48.5515 9.86959 48.575C9.44948 48.622 8.87626 48.6852 8.26412 48.7479C7.05295 48.8719 5.64829 48.9998 4.99948 48.9998C4.51628 48.9999 3.60259 49.1027 2.69088 49.159C2.25732 49.1858 1.82702 49.2007 1.49166 49.1785C1.32781 49.1677 1.1534 49.1464 1.00436 49.0985C0.911894 49.0686 0.662064 48.9766 0.550258 48.7264L0.512172 48.6082C0.481861 48.472 0.386004 48.2578 0.257289 47.9422C0.199499 47.8005 0.139273 47.6446 0.0922501 47.4949C0.0584823 47.3874 0.0248888 47.2629 0.00924226 47.1356L0.000453201 47.0086C-0.00876534 46.4509 0.0929794 45.9945 0.293422 45.6121C0.493278 45.231 0.772753 44.958 1.06198 44.7401C1.33875 44.5316 1.66033 44.3495 1.92038 44.1893C2.19582 44.0196 2.43936 43.8539 2.64694 43.6463L2.74557 43.5555C2.84681 43.4692 2.95483 43.3955 3.05807 43.3299C3.12772 43.2857 3.20192 43.2412 3.27487 43.1971C3.34929 43.1521 3.4247 43.1064 3.50436 43.0565C3.81683 42.8606 4.19625 42.596 4.64596 42.1463L5.19577 41.6014C5.32307 41.4802 5.43629 41.3808 5.561 41.3065C5.69407 41.2272 5.81659 41.1911 5.9194 41.161C6.02223 41.1309 6.14151 41.0982 6.32955 41.0301L6.50729 40.9715C6.91097 40.8522 7.25127 40.8497 7.54245 40.9569C7.66306 41.0013 7.76453 41.0618 7.84713 41.1238C7.90608 41.0282 7.97863 40.9081 8.06393 40.7557L8.18014 40.5379C8.27748 40.3438 8.32202 40.2158 8.34323 40.1278C8.36726 40.0277 8.36459 39.9644 8.35202 39.8621C8.33801 39.7484 8.30517 39.5574 8.31881 39.3045C8.33256 39.0504 8.39089 38.7465 8.52584 38.3416L8.61862 38.0946C8.8449 37.5537 9.14032 37.2551 9.42037 37.0115C9.72423 36.7473 9.91573 36.6109 10.0776 36.2801L10.2465 35.911C10.3794 35.5935 10.4121 35.4244 10.4126 35.3397C10.4127 35.3013 10.4058 35.3014 10.4126 35.3133C10.4097 35.3097 10.3974 35.2951 10.3608 35.2654C10.2881 35.2065 10.0121 35.0292 9.8276 34.7498C9.62437 34.4419 9.52476 34.0384 9.5483 33.4793L9.561 32.9822C9.56659 32.4898 9.55272 32.0072 9.53952 31.5125C9.52205 30.8581 9.50638 30.1833 9.5483 29.4705L9.561 29.1434C9.56688 28.8315 9.55468 28.5584 9.54245 28.2713C9.52608 27.8871 9.51065 27.4805 9.54928 26.9627L9.56393 26.826C9.65735 26.1431 10.0535 25.5062 10.3598 24.994C10.7227 24.3872 10.9824 23.9215 11.0005 23.4793L11.0219 23.1649C11.0903 22.4506 11.2808 21.878 11.4721 21.3406C11.6913 20.7253 11.9048 20.1696 12.0044 19.4334L12.0639 19.0613C12.2178 18.2419 12.4766 17.7378 12.8266 17.2821C13.0095 17.0439 13.2258 16.8093 13.4243 16.5799C13.6303 16.3417 13.8501 16.0738 14.0844 15.7225L14.0981 15.6854C14.1059 15.657 14.1131 15.6157 14.1167 15.5594C14.1239 15.444 14.1139 15.2916 14.0835 15.1063C14.0226 14.7355 13.8912 14.2938 13.7358 13.8572C13.5818 13.4246 13.4106 13.014 13.2768 12.7108C13.2102 12.5598 13.1528 12.4358 13.1128 12.3504C13.0928 12.3078 13.0775 12.2739 13.0669 12.2518C13.0616 12.2409 13.0568 12.2328 13.0542 12.2274C13.0529 12.2248 13.0518 12.2227 13.0512 12.2215V12.2196L12.9858 12.0858L13.0034 11.9383L13.5034 7.9383L13.5073 7.91291L13.5122 7.88947L13.9995 7.99982L13.5122 7.8885H13.5131C13.5133 7.88796 13.513 7.88658 13.5131 7.88557L13.5229 7.84162C13.5299 7.81151 13.541 7.76753 13.5542 7.71174C13.5806 7.59973 13.6186 7.43941 13.6665 7.24592C13.7622 6.85882 13.8964 6.33586 14.0493 5.7967C14.2016 5.25955 14.3748 4.69643 14.5503 4.23225C14.6377 4.00075 14.7301 3.78389 14.8237 3.60334C14.9088 3.43907 15.0251 3.24527 15.1801 3.11604C15.3295 2.9916 15.5397 2.90655 15.7202 2.84455C15.919 2.77627 16.1576 2.71135 16.4135 2.65119C16.9268 2.53055 17.5473 2.41826 18.1401 2.32307C18.7346 2.22759 19.31 2.14761 19.7358 2.09162C19.9489 2.06361 20.1254 2.04227 20.2485 2.02717C20.3099 2.01964 20.3581 2.01352 20.3911 2.00959C20.4075 2.00763 20.4206 2.00572 20.4292 2.00471C20.4333 2.00422 20.4367 2.00399 20.4389 2.00373H20.4419C20.4423 2.00698 20.4465 2.04073 20.4868 2.3885L20.4428 2.00373L20.4712 1.99982H20.4995C23.3317 1.99984 24.9776 2.5527 26.4917 3.14533C27.9794 3.72771 29.2872 4.32278 31.5395 4.50178L32.0483 4.53107C32.5088 4.54672 32.8297 4.52228 33.0464 4.47541C33.2457 4.43223 33.3084 4.38158 33.3237 4.36506C33.3265 4.34985 33.3347 4.27781 33.271 4.09455C33.1991 3.88798 33.0827 3.66225 32.9438 3.37385C32.8161 3.1086 32.6695 2.78938 32.601 2.46955C32.5308 2.14119 32.5289 1.74582 32.771 1.38654C33.0056 1.03849 33.4048 0.821276 33.9106 0.689278C34.4208 0.55618 35.1054 0.491514 36.0044 0.499825L37.2407 0.503731ZM40.0952 13.5184C39.8812 13.4433 39.6549 13.4509 39.4506 13.5545C39.2669 13.6478 39.1442 13.7965 39.0639 13.9207C38.9815 14.0484 38.9178 14.1918 38.8667 14.3221C38.815 14.4537 38.7682 14.5937 38.727 14.7186C38.7069 14.7797 38.6859 14.8369 38.6674 14.8914C38.6648 14.8848 38.6622 14.8773 38.6596 14.8709C38.5858 14.688 38.4415 14.3521 38.1313 14.1746C37.7973 13.9837 37.4408 14.0506 37.1206 14.2244L36.9848 14.3045C36.7786 14.4391 36.6603 14.4982 36.603 14.5233C36.576 14.5351 36.5592 14.541 36.5454 14.5457C36.5436 14.5463 36.5172 14.5549 36.4946 14.5643C36.4816 14.5697 36.4515 14.5825 36.4174 14.6033C36.3853 14.6231 36.3207 14.6679 36.2651 14.7479C36.1113 14.9694 36.1929 15.1899 36.2221 15.2528C36.2334 15.2769 36.2464 15.2962 36.2534 15.3074C36.2538 15.3095 36.2539 15.3125 36.2544 15.3153L36.2631 15.4471V18.1854L36.5044 26.618L36.5063 26.617C36.5127 26.887 36.702 27.0303 36.7817 27.0779C36.8704 27.1308 36.9631 27.1561 37.0229 27.1697C37.1508 27.1988 37.3062 27.2128 37.4575 27.2196C37.7692 27.2335 38.1777 27.2232 38.5854 27.2059C38.9966 27.1884 39.4235 27.163 39.7739 27.1414C40.1358 27.1192 40.3952 27.1034 40.5005 27.1033C40.5066 27.1042 40.5259 27.108 40.561 27.119C40.6106 27.1344 40.6736 27.159 40.7524 27.1942C40.8312 27.2293 40.915 27.2697 41.0102 27.3153C41.1024 27.3594 41.2045 27.4081 41.3081 27.4529C41.5074 27.5393 41.7596 27.6335 42.0171 27.6531C42.2945 27.6742 42.6138 27.609 42.8647 27.3406L42.936 27.2752C43.0167 27.2108 43.1278 27.1469 43.2866 27.0643C43.4733 26.9672 43.7453 26.8359 43.976 26.6483C44.2252 26.4456 44.4428 26.1676 44.5444 25.7674C44.63 25.4296 44.625 25.0378 44.5307 24.5789L44.4848 24.3778C44.4688 24.3124 44.4748 24.2076 44.5298 24.034C44.5562 23.9507 44.5879 23.8665 44.6245 23.7723C44.6581 23.6856 44.7009 23.5785 44.7309 23.4774C44.759 23.3827 44.7951 23.2365 44.7788 23.0789C44.759 22.8894 44.6629 22.6934 44.4614 22.5692C44.2939 22.4661 44.105 22.4453 43.9555 22.4451C43.8759 22.445 43.7897 22.4509 43.6977 22.4617L43.4048 22.5086C43.1935 22.5496 43.0516 22.5838 42.9087 22.6014C42.7715 22.6183 42.7109 22.6071 42.687 22.5985C42.6829 22.5974 42.6607 22.5926 42.6255 22.5252C42.5914 22.4597 42.5519 22.347 42.5229 22.1639L42.4975 21.9549C42.481 21.7701 42.4571 21.6101 42.4194 21.4783C42.3852 21.3589 42.3197 21.1879 42.1694 21.0633C41.9829 20.9092 41.7725 20.9066 41.6323 20.9373C41.5935 20.9458 41.5559 20.9598 41.5219 20.9725L41.476 20.8485C41.403 20.6175 41.3679 20.174 41.3579 19.5467C41.3479 18.9229 41.3615 18.2505 41.3559 17.5145C41.3505 16.8046 41.3264 16.0764 41.2358 15.4559C41.1904 15.1453 41.1258 14.8469 41.0327 14.5838C40.9524 14.3571 40.8425 14.132 40.684 13.9471L40.6128 13.8699C40.4612 13.7185 40.2898 13.5868 40.0952 13.5184Z" fill="#3AB7D0"/>
</svg>
