<svg width="61" height="42" viewBox="0 0 61 42" fill="none" xmlns="http://www.w3.org/2000/svg">
<path d="M13 13.5831C10.9679 14.629 5.84702 22.0357 4 21.5C1.49798 20.7743 3.63525 16.5 3 14.5C2.39455 12.5939 4 12.7574 4 11C4 8.85215 4.69575 6.13513 5 5.5C5.30425 4.86487 6.29107 3.48813 7.16975 2.99998C7.94905 2.56705 12.6698 2.49998 12.6698 2.49998C16.0997 2.4998 15.8104 1.97252 18.805 0.999978C21.7995 0.0274357 24.5287 1.50732 30.1698 1.00002C37.4843 0.342235 36.9064 2.56566 42.6698 1.50008C45.8884 0.904997 52.2299 0.166106 52.6698 0.500029L56 0.499988C57.7828 0.499988 60.0239 0.652704 60.6698 3.58324C61.3423 6.6342 61.1228 17.1928 59 19.5C57.0125 21.6602 55.4725 12.9559 52.6698 12.0832C50.6002 11.4388 50.3501 15.7635 48.5 16.5C46.6278 17.2453 47.5 17 47.5 19.5C47.5 21.5864 47.0562 22.7669 47 25.5C46.9196 29.4093 49.4999 28.5 50.5 32C51.1438 34.2529 56.5972 36.6589 56.5 39C56.4025 41.3492 54.7428 40.0861 53.5 40.5C52.3676 40.8771 51.6867 40.9559 50.5 41.0832C49.0127 41.2427 48.1697 40.0832 46.6697 41.0832C45.4981 41.8642 43.8922 40.8846 42.6697 41.5832C42.3993 41.7377 41.1665 41.4128 39.4091 41.6081C37.6517 41.8033 36.4271 41.3878 34.6698 41.5831C32.9124 41.7784 25.6698 41.5831 25.6698 41.5831L19.805 41.5831C18.5701 41.5831 16.4652 42.2731 15.1351 41.6081C14.1351 41.1081 13.3134 42.0543 12.5 41.5C10.7251 40.2904 9.75722 41.4776 8 41.5C6.30856 41.5215 5.3238 41.9626 3.6698 41.6081C-2.77858 40.2258 2.95656 38.3629 3.66981 36.5C4.44311 34.4802 6.13588 34.1783 7.50002 32.5C8.31284 31.5 9.21506 30.1665 10 28.5C11.8841 24.5 14.868 12.6218 13 13.5831Z" fill="#3AB7D0"/>
</svg>
