<svg width="61" height="51" viewBox="0 0 61 51" fill="none" xmlns="http://www.w3.org/2000/svg">
<path d="M20.2648 1.47464C15.3285 1.56228 18.0477 1.50835 13.5 1.99996C12.8798 2.067 8.65157 5.49996 7 6.49996C5.77544 7.24141 2.56242 12.202 2.50001 12.9913C1.99466 19.3827 2.50001 20.9996 2.50001 20.9996C2.50001 20.9996 0.831339 29.525 1.00001 30.9999C1.15432 32.3493 4.33965 32.9125 4.50531 34.2605C4.81076 36.7462 6.50001 41.4999 6.50001 41.4999C6.50001 41.4999 3.90143 43.6899 4.00001 45.9999C4.09825 48.302 7.00001 47.4999 6.50001 49.4999C6.30476 50.281 7.71698 49.8126 8.50002 49.9995C9.27918 50.1855 9.70324 50.3725 10.5 50.4551C11.1823 50.5258 11.8233 50.8344 12.5 50.9468C13.1139 51.0487 15.3936 50.8032 16 50.9468C17.0105 51.1859 18.057 50.5399 20.8463 50.4551C21.6353 50.4311 23.0892 50.4311 23.8781 50.4551C26.6674 50.5399 27.1542 51.0759 29.9417 50.9468C31.3355 50.8822 32.0865 50.5435 33.4788 50.4551C34.6603 50.3801 36.5106 50.4551 36.5106 50.4551C36.5106 50.4551 39.7974 50.7559 40.0477 50.4551C40.4403 49.9832 41.7013 50.5301 42 49.9995C42.6009 48.9325 43.7598 49.9752 44.5 48.9996C46.3961 46.5002 47.4946 49.1656 48 47.6906C48.312 46.7799 46.0106 44.3681 46.5159 43.9996C47.0213 43.6311 42.7155 41.5901 44.5 41.4999C46.0765 41.4203 46.4489 36.525 48.0264 36.4665C50.2045 36.3858 49.7524 39.1438 51.9841 37.9665C54.0343 36.8849 56.5736 39.7784 57 37.4999C57.7064 33.7254 59.4986 36.8677 58.9999 33.0584C58.8482 31.8999 59.4883 28.747 58.9999 28C58.0382 26.5291 54.7224 26.7389 53.2066 26.739C50.1748 26.7391 50.537 29.4915 47 28.9999C46.4475 28.9231 44.1764 30.2535 42.5 29.4898C41.1467 28.8734 38.8171 31.3599 37 30.9999C33.3406 30.275 32.4225 22.4879 32.394 20.4999C32.3574 17.9343 40.2391 24.0241 40.8411 23.4916C41.037 23.3183 43.8979 23.0455 44.8834 22.9999C46.4725 22.9262 45.8247 23.1304 47.41 22.9999C50.7526 22.7248 54.484 22.9999 56 22.9999C56.8825 22.9999 61.1084 15.2612 60.5 10.5003C60.1166 7.50027 58.5 6.50028 58.5 6.50028C58.5 6.50028 54.7013 6.94986 54.196 5.47495C53.971 4.81821 53.3501 4.72449 52.6801 4.49165C51.7509 4.16877 48.795 4.00958 47.8084 4C43.857 3.96163 40.0477 4 40.0477 4C40.0477 4 32.3485 -0.000366211 27.4153 -0.000366211C23.2713 -0.000366211 24.4081 1.40109 20.2648 1.47464Z" fill="#3AB7D0"/>
</svg>
