<svg width="45" height="58" viewBox="0 0 45 58" fill="none" xmlns="http://www.w3.org/2000/svg">
<path d="M14.3965 4.00009C11.851 4.04596 8.78995 1.5 8.5 2C8.00052 2.8613 8.15264 2.01621 7.99998 3.00008C7.76722 4.50008 7.99998 8.48536 7.99998 12.0001C7.99998 16.2958 7.00001 13.7219 7.00001 18.0177C7.00001 21.3372 5.40256 23.6821 5.49998 27.0001C5.59757 30.3238 6.71834 33.6828 6.94746 37.0001C7.12289 39.5399 7.2438 40.9623 7.44746 43.5001C7.63556 45.8438 0.402455 50.6508 0.500001 53.0001C0.597211 55.3412 1.01796 56.0821 2.49996 57.0177C3.66743 57.7548 5.99987 57.5177 5.99987 57.5177C5.99987 57.5177 8.19641 57.5449 9.60342 57.5177C12.7331 57.4571 17.6034 57.0177 17.6034 57.0177H28.1034H33.1034C33.1034 57.0177 35.7741 56.6022 37.4999 56.5001C39.2542 56.3963 41.9608 56.8482 43.5 56.0001C45.6632 54.8081 44 50.5001 44 50.5001C44 50.5001 41.3928 48.9941 41.5 44.5001C41.6304 39.0343 44.8965 38.5001 43 34.5001C41.4919 31.3193 38.1561 25.6908 38 20.0001C37.893 16.0986 37.4999 15.5001 37.4999 15.5001V10.0001C37.4999 9.00003 37.9999 3.73748 37.4999 3.48234C37.1865 3.32243 36.4758 0.527572 35.4999 0.500003C33.344 0.439103 29.6559 0.560895 27.5 0.499994C24.371 0.411603 24.0268 1.9885 20.8965 1.99997C17.5713 2.01215 17.7212 3.94019 14.3965 4.00009Z" fill="#3AB7D0"/>
</svg>
