<svg width="63" height="50" viewBox="0 0 63 50" fill="none" xmlns="http://www.w3.org/2000/svg">
<path d="M15 8.49994C13.5065 8.99775 12.9749 8.52591 13 11.4999C13.0211 14.0004 11.3718 10.9922 10 16.5C8.62819 22.0078 10.3665 21.6876 9.5 22.5C8.36047 23.5685 8.50003 30.5 8.50003 30.5L12.5 38C12.5 38 4.5 39 5.5 42C5.94527 43.3358 1.8055 42.3451 1 43.5C-0.26199 45.3094 0.500056 48.3411 1.00005 49.1489C1.58138 50.0882 7.22225 49.1489 7.22225 49.1489L19.7222 49.6489H31.2223H43.7222L54.8595 49.3345C54.8595 49.3345 59.7539 49.9921 60.5 48.4999C61 47.5 63 44.5 63 44.5C63 44.5 62 39.5001 61.5 38C61.14 36.9199 51.5 36 50 36H43.7222C43.7222 36 37.9919 37.7567 36 36C34.6184 34.7816 37.8265 32.4836 37.5 30.5C37.0686 27.8794 37.1134 26.7397 38 25C38.9256 23.1837 39.6408 20.5119 39.5 17C39.3902 14.2616 39.9784 11.9622 40 10C40.0194 8.23193 38 5.99993 38 5.00001C38 4.00009 34.5 5.50007 33.5 4.00007C32.5 2.50007 31.1518 2.73435 29.5 2.49991C26.816 2.11896 24.9947 1.50855 22 1.00001C18.6325 0.42816 19.8187 3.57061 16.5 3.5C12.3958 3.41268 16.5 7.99996 15 8.49994Z" fill="#3AB7D0"/>
</svg>
