<svg width="75" height="59" viewBox="0 0 75 59" fill="none" xmlns="http://www.w3.org/2000/svg">
<path d="M51.229 0.715357C51.8167 0.373824 52.5087 0.259071 53.353 0.523951L53.6166 0.618678C54.2179 0.86558 54.7286 1.27993 55.1762 1.75344C55.6865 2.29332 56.143 2.94201 56.5737 3.57083C57.0125 4.2115 57.4238 4.82966 57.8657 5.36477C58.3067 5.8988 58.7487 6.31168 59.226 6.5552L59.3901 6.63235C60.2121 6.98898 61.0857 6.91672 62.103 6.85989C63.1414 6.80189 64.3364 6.76436 65.4067 7.56985L65.8491 7.91067C67.9336 9.56372 68.1561 10.4336 69.8041 12.6665L69.9692 12.896C70.7627 14.0368 71.1528 15.1123 71.4536 16.2036C71.7788 17.3838 71.9831 18.4983 72.4692 19.8286L72.56 20.0884C72.9919 21.3849 73.1097 22.659 73.1635 23.9077C73.2217 25.2585 73.2057 26.5423 73.3969 27.8941L73.4623 28.4517C73.5959 29.8242 73.5963 31.6691 73.5581 33.4829C73.5247 35.0631 73.4629 36.6054 73.4272 37.8589L73.4018 39.0064C73.3883 40.1486 73.5739 41.9007 73.7368 43.7115C73.8765 45.2646 74.0002 46.8684 73.9379 48.0679L73.8998 48.5552C73.8341 49.15 73.8447 49.4389 73.8647 49.5699C73.9285 49.6006 74.0188 49.6527 74.0952 49.7417C74.2211 49.8888 74.2607 50.0637 74.2729 50.2115C74.2898 50.4173 74.2615 50.7054 74.186 51.1177L74.0942 51.5738C73.9618 52.1922 73.6902 52.6435 73.1938 52.8091C72.9728 52.8827 72.7542 52.8816 72.5717 52.8609C72.3915 52.8403 72.2084 52.7957 72.06 52.7603C71.7205 52.6792 71.5259 52.6429 71.3735 52.6802C71.2979 52.6988 71.1647 52.752 71.0258 53.0435L70.9663 53.1841C70.7568 53.7306 70.4617 54.1519 69.9799 54.2564C69.7556 54.3049 69.549 54.2691 69.3872 54.2202C69.2297 54.1726 69.075 54.1 68.9575 54.0454C68.6825 53.9178 68.5381 53.8622 68.4106 53.8706C68.3452 53.8751 68.2069 53.9032 68.0034 54.1587L67.9116 54.2827C67.7646 54.4976 67.5826 54.6669 67.3627 54.771C67.1409 54.8759 66.912 54.8993 66.6977 54.8716C66.2914 54.8189 65.9288 54.5819 65.6606 54.3599C65.381 54.1285 65.1396 53.8591 64.9721 53.6548C64.9682 53.65 64.9642 53.6449 64.9604 53.6402C64.8977 53.6737 64.8248 53.7114 64.7446 53.7564C64.4472 53.923 64.0278 54.1712 63.479 54.5269L62.8852 54.9195C61.8957 55.5883 61.07 55.7741 60.2622 55.899C59.5643 56.0068 58.92 56.0684 58.1381 56.3394L57.7944 56.4683C56.7912 56.8769 56.0125 56.7332 55.3266 56.5825C54.7365 56.453 54.2345 56.3278 53.6059 56.4312L53.3286 56.4898C51.5754 56.9433 50.3605 57.1212 48.8735 57.3052L47.2651 57.5015C45.5052 57.7207 44.316 57.837 42.8354 57.9243L41.225 58.0054C39.311 58.0881 38.0211 58.1016 36.4213 58.062L34.684 58.0054C32.46 57.9201 31.0625 57.8813 29.0405 57.6245L28.1313 57.5005C26.1472 57.2118 25.0144 56.8775 23.1049 56.4956C22.2316 56.3211 21.521 56.4533 20.7114 56.5806C19.9564 56.6992 19.1299 56.8086 18.1508 56.5406L17.9536 56.482C17.0319 56.187 15.9012 55.8009 15.0043 55.4898C14.5559 55.3342 14.1644 55.1966 13.8852 55.0982C13.7459 55.0491 13.6338 55.0092 13.5571 54.982C13.5443 54.9774 13.5317 54.9731 13.5209 54.9693H8.98969L8.88618 54.9185L6.04926 53.5337C5.98903 53.5479 5.91669 53.5663 5.83442 53.5825C5.59139 53.6305 5.25361 53.6822 4.88716 53.6919C4.24514 53.7088 3.30925 53.6009 2.77583 52.8765L2.67427 52.7232C2.64377 52.6714 2.61413 52.6304 2.59028 52.5962C2.54652 52.6528 2.47284 52.7512 2.39302 52.8286C2.31765 52.9018 2.13778 53.0583 1.87251 53.0513C1.58934 53.0436 1.40543 52.8598 1.3061 52.7251C1.22803 52.6192 1.15876 52.4869 1.09419 52.3355L1.03071 52.1773C0.849393 51.6973 0.915154 51.1789 1.04243 50.7183C1.17121 50.2524 1.38773 49.7642 1.5893 49.314C1.79792 48.8481 1.99174 48.4205 2.11665 48.0249C2.22766 47.6733 2.26334 47.4063 2.23481 47.2066L2.21919 47.1255C2.07794 46.5767 2.13868 46.0321 2.27485 45.5259C2.40997 45.0238 2.6299 44.5223 2.83637 44.0591C3.04904 43.582 3.24741 43.1439 3.37934 42.7163C3.49384 42.3452 3.54784 42.0137 3.52192 41.7105L3.50532 41.5825C3.35138 40.6532 3.38146 39.9235 3.43208 39.2222C3.47635 38.6087 3.53462 38.0349 3.51411 37.3374L3.49946 37.0308C3.36795 34.8666 3.36794 30.0972 3.49946 27.9331L3.54341 27.2974C3.65195 25.8838 3.80776 24.9224 4.00337 23.3999L4.04829 22.9419C4.12306 21.8616 4.00008 20.6987 3.89594 19.4712C3.7796 18.0997 3.68753 16.6512 4.01313 15.314L4.07563 15.0816C4.22951 14.5603 4.44371 14.1876 4.75337 13.9488C5.10725 13.6761 5.50482 13.6483 5.76606 13.6284C6.05551 13.6064 6.23647 13.5928 6.41841 13.4995C6.58537 13.4138 6.80889 13.2263 7.05219 12.7398C7.53567 11.7728 7.55065 11.5669 7.65376 11.2886C7.77674 10.9569 7.98304 10.6513 8.70747 9.69778L8.8686 9.50637C9.03595 9.3287 9.22173 9.19167 9.42622 9.09817C9.6996 8.97325 9.9788 8.93917 10.2456 8.95754C10.7505 8.99254 11.2593 9.2253 11.6752 9.41458C12.1297 9.62136 12.5101 9.79546 12.8735 9.85403C13.2012 9.90671 13.491 9.86024 13.7866 9.61575L13.8793 9.53274C14.0911 9.33061 14.2772 9.05824 14.4545 8.72219C14.6587 8.33533 14.8316 7.90502 15.0258 7.44387C15.2145 6.99606 15.4228 6.52079 15.686 6.10305C15.9509 5.68267 16.29 5.29036 16.7563 5.03176L16.9291 4.94778C17.3449 4.77241 17.846 4.73201 18.3286 4.73879C18.8949 4.74681 19.5269 4.82317 20.1313 4.9009C20.7477 4.9802 21.336 5.06105 21.8588 5.09133C22.3942 5.12229 22.784 5.0934 23.0258 5.00149L23.6206 4.76126C24.1572 4.53121 24.526 4.32997 24.7954 4.14797C25.1453 3.91141 25.3434 3.69834 25.5395 3.46438C25.7386 3.22687 25.9649 2.92875 26.3305 2.60794C26.6996 2.28416 27.2012 1.94211 27.979 1.55325L28.2778 1.41165C29.7493 0.749851 30.902 0.789232 32.0541 0.988795C33.2759 1.20051 34.3812 1.55338 35.9829 1.50051L36.3276 1.49465C38.0624 1.49026 39.9213 1.86823 41.727 2.29641C43.679 2.75929 45.5576 3.27764 47.269 3.5054L47.4829 3.52395C48.5193 3.56955 49.1079 2.87884 49.8637 1.98879C50.241 1.54451 50.678 1.03566 51.229 0.715357ZM42.9995 21.0005C41.9996 20.0007 42.3775 21.5005 40.9995 21.5005C40.6994 21.5005 38.9132 21.4534 38.4995 21.5005C37.6452 21.5978 37.5732 22.9033 36.9995 23.5005C35.9995 27.0005 34.4993 22.5006 33.9995 25.5005C33.9995 27.5612 34.1586 33.3191 34.4995 35.5005C34.4995 41.0005 33.4995 44.1885 34.4995 43.5005C35.8691 42.5589 36.1422 47.246 36.9995 48.0005C37.7404 48.6524 39.183 48.5006 39.9995 48.5005C40.6303 48.5005 42.4669 48.8175 42.9995 48.0005C43.437 47.5287 44.9046 47.0954 45.4995 46.5005C46.4995 45.5005 44.5093 44.4692 46.0092 41.9693C46.5091 41.4692 46.3301 39.1804 46.5092 38.4693C47.0615 36.2777 45.2394 35.6338 45.4995 33.0005C45.7329 30.6365 46.0092 26.4974 46.0092 24.0005C44.5 21.5005 45.3467 25.7873 44.4995 22.5005C43.9633 20.4208 43.9995 21.5005 42.9995 21.0005Z" fill="#3AB7D0"/>
</svg>
