<svg width="63" height="65" viewBox="0 0 63 65" fill="none" xmlns="http://www.w3.org/2000/svg">
<path d="M15.5742 0.702474C15.7359 0.71535 15.8779 0.734474 15.9795 0.750326C16.0305 0.758284 16.0728 0.766187 16.1035 0.77181C16.1188 0.77461 16.1321 0.776795 16.1416 0.778646C16.1461 0.779505 16.1502 0.779981 16.1533 0.780599C16.1549 0.780912 16.1571 0.781344 16.1582 0.781576L16.1592 0.782552H16.1602C16.1592 0.78829 16.1455 0.858523 15.9697 1.71419L16.1611 0.782552L16.5693 0.866537L16.7979 1.21615L17.7861 2.7347H24.2393C24.2773 2.64061 24.3179 2.54012 24.3652 2.4388C24.4915 2.16903 24.665 1.85456 24.8945 1.57064C25.1192 1.2928 25.4495 0.979625 25.9063 0.818685L26.0449 0.77767C26.7255 0.619218 27.2055 1.10596 27.3301 1.23958C27.5262 1.45008 27.6988 1.72396 27.8106 1.89974C27.9112 2.05811 27.9858 2.17153 28.0469 2.25716C28.2084 2.27455 28.3852 2.29952 28.5479 2.32454C28.8655 2.37341 29.2349 2.43817 29.582 2.5013C29.6454 2.51284 29.7086 2.52503 29.7705 2.53646C29.8246 2.38998 29.9055 2.23104 30.0322 2.08333L30.1494 1.96224C30.4308 1.70458 30.7624 1.61348 30.999 1.58236C31.2728 1.54641 31.5335 1.57351 31.7236 1.60579C31.9216 1.63945 32.0974 1.68857 32.2197 1.72689C32.2276 1.72936 32.2357 1.7323 32.2432 1.7347H37.8516L38.1211 2.31087L38.5664 3.26204H39.1367C39.1589 3.2587 39.1845 3.2542 39.2129 3.25033C39.312 3.23682 39.4508 3.2212 39.6084 3.21029C39.888 3.19094 40.3637 3.17634 40.7881 3.30404L40.916 3.34798C41.534 3.58441 41.8594 4.09605 42.0254 4.52376C42.1976 4.96779 42.2575 5.46104 42.2891 5.84212C42.3011 5.98747 42.3063 6.10867 42.3125 6.21419C42.5136 6.0927 42.7819 5.96902 43.0899 5.93001L43.3447 5.90658C43.6052 5.89003 43.8729 5.89264 44.0742 5.89876C44.2158 5.90307 44.3407 5.90999 44.4297 5.91536C44.4566 5.91699 44.4807 5.91791 44.501 5.91927C44.5213 5.91795 44.5454 5.91694 44.5723 5.91536C44.661 5.91016 44.7848 5.90391 44.9258 5.89974C45.1939 5.89182 45.579 5.88964 45.9072 5.93001L46.2158 5.97786C46.5063 6.0335 46.7477 6.10996 46.9688 6.1888C47.0564 6.22005 47.1334 6.24885 47.2051 6.27572C47.2756 6.09522 47.3998 5.77737 47.5772 5.52572C47.6781 5.38261 47.8482 5.18228 48.1143 5.0472C48.3765 4.9142 48.6673 4.87708 48.9502 4.93392L49.0703 4.96419L50.749 5.46419L50.8545 5.50033C51.0931 5.59292 51.2747 5.738 51.3975 5.85286C51.5457 5.9915 51.6747 6.14938 51.7822 6.29622C51.9052 6.46418 52.0252 6.65383 52.1387 6.84115C52.2224 6.66078 52.3491 6.45314 52.5498 6.27767C52.8061 6.05367 53.1327 5.92481 53.4932 5.9222L53.6719 5.93001C54.532 6.01708 54.8951 6.77018 55.0274 7.11556C55.1117 7.33605 55.1727 7.56868 55.2197 7.75619C55.272 7.96437 55.3072 8.11633 55.3506 8.26302L55.4131 8.51009C55.5377 9.09635 55.5233 9.74298 55.4922 10.1986C55.4795 10.3847 55.4612 10.556 55.4443 10.7015C55.5111 10.6658 55.584 10.6338 55.6621 10.6058L55.8399 10.5374C56.0579 10.4574 56.4178 10.3544 56.8457 10.4251L56.9639 10.4486L57.0908 10.4847C57.3768 10.5802 57.5896 10.7498 57.7295 10.8861C57.8951 11.0474 58.0221 11.2245 58.1113 11.3665C58.1932 11.497 58.2568 11.6211 58.3027 11.7161C58.3559 11.7698 58.4213 11.8357 58.4902 11.9105C58.6515 12.0854 58.8939 12.3668 59.0625 12.6634L59.0654 12.6644C59.3185 12.7122 59.4992 12.8386 59.6094 12.9388L59.6963 13.0267L59.8018 13.1536C60.0373 13.4586 60.1905 13.8172 60.2754 14.0394C60.3305 14.1836 60.3728 14.3131 60.4014 14.4066C60.409 14.4316 60.4151 14.4549 60.4209 14.4749L60.7822 15.2513C60.8152 15.2022 60.8532 15.151 60.8965 15.1019C60.9858 15.0005 61.2638 14.7143 61.7246 14.7093C62.243 14.7039 62.5392 15.0468 62.6475 15.2074C62.7614 15.3765 62.8209 15.556 62.8555 15.679L62.8916 15.8538C62.915 16.024 62.9059 16.1769 62.8984 16.266C62.886 16.4156 62.86 16.5743 62.8311 16.724C62.7727 17.0257 62.6852 17.367 62.5996 17.6751C62.513 17.9868 62.4233 18.2827 62.3555 18.4993C62.3371 18.5579 62.3195 18.6112 62.3047 18.6576L62.3906 19.5794L62.4033 19.7093L62.3809 19.8372L62.2979 20.3324L62.3906 21.3294L62.4961 22.4544L62.5039 22.5472L62.4961 22.64L62.3906 23.765L62.3565 24.138L62.085 24.3958L61.1758 25.262L61.1055 26.015L61.001 27.14L60.8955 28.265L60.6865 30.515L60.6826 30.5521L60.6768 30.5892L60.4863 31.7142L60.4014 32.2113L60.2276 32.2982C60.2371 32.3036 60.2468 32.3101 60.2568 32.3158C60.4015 32.3976 60.6199 32.5189 60.8174 32.6683C60.9946 32.8024 61.2069 32.9955 61.3662 33.2689L61.4307 33.3919L61.5176 33.5999C61.5936 33.8154 61.6337 34.0517 61.6084 34.306C61.5763 34.6286 61.448 34.8775 61.3584 35.0316C61.1611 35.371 61.0642 35.4561 60.9483 35.7835L60.4326 37.3812L60.3916 37.5091L60.3184 37.6214L57.3809 42.1214L57.2998 42.2464L57.1846 42.3421L56.6279 42.805C56.6398 42.8632 56.655 42.9235 56.6651 42.9857C56.7034 43.2238 56.7309 43.5303 56.6924 43.8451C56.6592 44.1158 56.5668 44.4703 56.3154 44.7806L56.1973 44.9115C55.8405 45.2635 55.3516 45.399 55.1201 45.4544C55.1008 45.459 55.0812 45.462 55.0625 45.4661C54.9599 45.6022 54.8319 45.7716 54.6865 45.9534C54.384 46.3319 53.9721 46.8203 53.5723 47.1898L53.4024 47.3402C53.0379 47.6464 52.5579 47.8183 52.2754 47.9066C52.1153 47.9566 51.9717 47.9936 51.8682 48.0179C51.8398 48.0246 51.8137 48.0295 51.791 48.0345L50.6983 48.4691C50.6802 48.4804 50.6598 48.4938 50.6377 48.5072C50.5442 48.564 50.4118 48.64 50.2578 48.7171C50.076 48.8082 49.7891 48.9366 49.4639 49.012C49.4453 49.1667 49.4168 49.3924 49.3604 49.599C49.2904 49.8545 49.1548 50.192 48.8613 50.473L48.7256 50.5892C48.378 50.8569 47.9777 50.9845 47.6455 51.0501C47.305 51.1173 46.9645 51.1331 46.6787 51.1292C46.3896 51.1253 46.1308 51.1013 45.9453 51.0784C45.8842 51.0709 45.8298 51.0618 45.7842 51.055L43.9053 51.2591C43.7867 51.3544 43.6314 51.4762 43.4531 51.6058C43.1188 51.8489 42.6415 52.1686 42.1553 52.3783L41.9473 52.4613C41.0335 52.7891 40.2827 52.3018 40.0518 52.182C39.8877 52.0969 39.8339 52.0815 39.8096 52.0775C39.8074 52.0771 39.8061 52.0767 39.8057 52.0765L39.7432 52.0999C39.0668 52.4265 38.2422 52.3921 37.7471 52.3411C37.4704 52.3126 37.2259 52.2697 37.0508 52.2347C36.9878 52.2221 36.9328 52.2097 36.8877 52.1995H34.8672L33.6475 52.64L33.0918 52.8402L32.6484 52.4505V52.4515C32.648 52.4511 32.6469 52.4498 32.6455 52.4486C32.6426 52.446 32.6375 52.4416 32.6309 52.4359C32.6171 52.424 32.5954 52.4056 32.5674 52.3822C32.5108 52.3348 32.4275 52.2664 32.3262 52.1868C32.1205 52.0253 31.851 51.8259 31.5762 51.6556C31.3934 51.5423 31.2367 51.4615 31.1143 51.4085C31.0602 51.4799 31.0099 51.5471 30.9658 51.6019C30.9083 51.6735 30.8565 51.7354 30.8193 51.7796C30.8007 51.8018 30.7853 51.8196 30.7744 51.8324C30.769 51.8387 30.7649 51.8443 30.7617 51.848C30.7603 51.8497 30.7588 51.8508 30.7578 51.8519L30.7568 51.8538H30.7559V51.8548L30.6514 51.9749L30.5137 52.057C30.2842 52.1944 30.0465 52.2523 29.8535 52.2786V58.9193C29.8538 58.9211 29.8542 58.9233 29.8545 58.9251C29.8648 58.9841 29.8783 59.0685 29.8945 59.1702C29.9269 59.373 29.9687 59.6521 30.0029 59.9525C30.0368 60.2496 30.0653 60.5863 30.0693 60.8978C30.0724 61.1323 30.0659 61.4702 29.9766 61.7777L29.9326 61.9066C29.7507 62.3781 29.3923 62.6563 29.041 62.7943C28.7189 62.9207 28.3965 62.9352 28.168 62.9271C28.0826 62.924 28.0001 62.9165 27.9229 62.9076L27.041 63.7835L26.749 64.0745H7.12696L5.97657 64.0472L5.65821 64.0394L5.40235 63.849L4.3965 63.099L4.37892 63.0853L4.36036 63.0706V63.0697H4.35939L4.35743 63.0677C4.35596 63.0665 4.35361 63.0645 4.35157 63.0628C4.34743 63.0594 4.3422 63.0544 4.33595 63.0492C4.32305 63.0383 4.30505 63.0235 4.28419 63.0052C4.24243 62.9687 4.18557 62.917 4.11915 62.8538C3.98789 62.7289 3.80975 62.5476 3.63575 62.3314C3.46622 62.1207 3.27168 61.8419 3.13868 61.5218C3.00776 61.2064 2.89744 60.7543 3.04103 60.265L3.13478 59.9935C3.3598 59.4326 3.71666 59.063 4.08497 58.8343L4.07716 57.679L4.06349 55.8353L4.05079 53.9915L4.03712 52.1478L4.01173 48.4603L3.99806 46.6165L3.98536 44.7728L3.97169 42.929L3.959 41.0853L3.94532 39.2415L3.91993 35.554L3.90626 33.7103L3.89357 31.8665L3.87989 30.0228L3.86915 28.5052L1.37013 25.139L1.17579 24.8773L1.17286 24.5501L1.16212 22.8812C1.15194 22.8524 1.13918 22.8211 1.12794 22.7874C1.07241 22.6209 1.00205 22.3836 0.953136 22.1204C0.906049 21.867 0.867242 21.5321 0.913097 21.1908C0.959049 20.8491 1.10923 20.3785 1.55275 20.0511L1.66896 19.974C1.94063 19.809 2.22388 19.7493 2.43751 19.7279C2.45526 19.7261 2.4736 19.7253 2.49122 19.724L2.48732 19.0189L2.47364 17.1751L2.46095 15.3314L2.44825 13.6595C2.43842 13.6313 2.42685 13.6006 2.41603 13.5677C2.36166 13.4024 2.29289 13.1671 2.24513 12.9056C2.19904 12.6531 2.16198 12.3219 2.20607 11.9837C2.25003 11.6467 2.39288 11.1851 2.81544 10.8519L2.92189 10.7747C3.1785 10.6071 3.4937 10.517 3.83497 10.5628C3.84808 10.5646 3.86117 10.5675 3.87403 10.5697C3.89664 10.4869 3.92755 10.4034 3.96876 10.3206C3.98682 10.2844 4.00487 10.2503 4.02345 10.2201L3.9922 9.85287C3.94108 9.42331 3.93878 8.90466 3.9463 8.52474C3.95018 8.3286 3.95718 8.15616 3.9629 8.03255C3.96576 7.97081 3.96875 7.92018 3.97071 7.88509C3.97104 7.87929 3.97046 7.87347 3.97071 7.86849L3.959 6.05404L3.95607 5.60286L4.292 5.30111L5.13185 4.55111L5.41603 4.2972H6.83888C6.8244 4.18453 6.81436 4.06709 6.81739 3.94759C6.82652 3.59292 6.93878 3.083 7.40138 2.72298L7.51564 2.64193C7.78552 2.46971 8.06975 2.40892 8.28028 2.38704C8.52838 2.36134 8.76409 2.38076 8.9463 2.40658C9.13344 2.43312 9.29897 2.47204 9.41505 2.50326C9.42573 2.50613 9.43629 2.50927 9.4463 2.51204H11.2803L11.5498 2.02669L11.835 1.51204H13.294C13.3131 1.49411 13.3312 1.4739 13.3516 1.4554C13.551 1.27472 13.9174 0.968568 14.3428 0.818685L14.5127 0.767904C14.9125 0.666276 15.3277 0.68287 15.5742 0.702474ZM32.4258 16.5423C32.2067 16.4729 31.7369 16.3072 31.2861 16.5882L31.1963 16.6507C30.8098 16.9474 30.697 17.3215 30.6582 17.6517C30.6408 17.8 30.6362 17.9634 30.6299 18.0853C30.6265 18.1519 30.6223 18.2146 30.6162 18.2747L30.5908 18.4505C30.3569 19.6358 30.6153 20.452 30.9063 21.2054C31.1919 21.9449 31.4852 22.5831 31.501 23.555L31.5 23.7845C31.4893 24.2869 31.4138 24.5561 31.3379 24.6995C31.2693 24.8289 31.1896 24.8799 31.0596 24.9212C30.9805 24.9463 30.8942 24.9633 30.7734 24.9876C30.663 25.0099 30.518 25.0393 30.375 25.0882C30.0967 25.1836 29.8205 25.3554 29.624 25.6878L29.5449 25.8402C29.1303 26.7549 29.0574 27.983 29.0713 28.9232C29.0784 29.4044 29.1088 29.8331 29.1377 30.141C29.1522 30.2948 29.1662 30.4194 29.1768 30.5062C29.182 30.5496 29.1863 30.5842 29.1895 30.6077C29.1895 30.6258 29.1894 30.6512 29.1895 30.6829C29.1896 30.7526 29.1903 30.8537 29.1904 30.9798C29.1907 31.2327 29.191 31.5865 29.1914 31.9886C29.1922 32.7933 29.1934 33.7938 29.1934 34.5745V37.0745C29.1935 37.2344 29.2636 37.3525 29.3213 37.4212C29.3765 37.4869 29.4371 37.5291 29.4766 37.5531C29.5556 37.6009 29.6418 37.6323 29.707 37.6527C29.8449 37.6957 30.022 37.7312 30.208 37.762C30.5871 37.8249 31.0876 37.8806 31.5889 37.9261C32.5875 38.0168 33.6549 38.0745 33.8887 38.0745C34.285 38.0744 34.6163 37.8509 34.8535 37.6429C35.1026 37.4244 35.3372 37.1431 35.541 36.8831L35.6426 36.7464C36.1248 36.0677 36.2321 35.4095 36.46 34.7347L36.5733 34.3831C37.1043 32.6611 37.1022 31.4301 37.3213 29.6351L37.3477 29.39C37.398 28.8353 37.3754 28.3883 37.3047 27.9984C37.2241 27.5545 37.0845 27.205 36.9531 26.891C36.7029 26.2926 36.4505 25.7527 36.4863 24.5902L36.5147 23.9281C36.5165 23.8998 36.5198 23.8742 36.5215 23.8509C36.5426 23.8153 36.5554 23.7864 36.5606 23.7728C36.5743 23.7362 36.58 23.7054 36.583 23.6898C36.589 23.6583 36.5913 23.6331 36.5918 23.6234C36.5929 23.6024 36.592 23.5851 36.5918 23.5794C36.5908 23.5506 36.5856 23.5207 36.582 23.4984C36.5826 23.5013 36.5837 23.5037 36.584 23.5052L36.499 22.5091C36.4717 22.1449 36.4227 21.8745 36.3399 21.6595C36.2494 21.425 36.1296 21.2858 36.0274 21.179C35.9348 21.0824 35.8924 21.0438 35.8379 20.9564C35.7969 20.8906 35.745 20.7875 35.6885 20.6156L35.6299 20.4183C35.4742 19.8332 35.3827 19.398 35.2266 19.015C35.1002 18.7051 34.9332 18.4254 34.6748 18.0872L34.3838 17.7259C34.0101 17.2805 33.9134 17.018 33.8496 16.8743C33.8349 16.8411 33.7996 16.7601 33.7451 16.6878C33.6741 16.5939 33.5424 16.4783 33.3408 16.4593C33.1855 16.4448 33.0596 16.4982 33.0108 16.5199L32.835 16.6117C32.7909 16.6364 32.7445 16.6433 32.4258 16.5423Z" fill="#3AB7D0"/>
</svg>
