<svg width="75" height="56" viewBox="0 0 75 56" fill="none" xmlns="http://www.w3.org/2000/svg">
<path d="M14.9999 0.499634C17.8319 0.499668 19.4772 1.05256 20.9911 1.64514C22.4791 2.22757 23.7875 2.82258 26.04 3.00159L26.5654 3.0387C27.054 3.069 27.4333 3.07869 27.7265 3.0719C28.0907 3.06344 28.2919 3.02839 28.3974 2.9967C28.3968 2.97738 28.3964 2.95258 28.3954 2.92249C28.3914 2.79757 28.388 2.56038 28.5253 2.32288C28.6661 2.07985 28.903 1.91849 29.1972 1.80725C29.7586 1.59508 30.7508 1.48341 32.5048 1.49963L33.7411 1.50354C36.4974 1.49392 38.4505 1.37657 41.5204 1.49963L43.3867 1.56897C45.1096 1.6328 46.5142 1.70538 48.5722 2.00452L49.9218 2.20374C51.168 2.39505 52.1808 2.58989 53.6415 3.02014L54.3671 3.23596C55.9811 3.72464 57.1008 4.13546 58.746 5.06409L59.2773 5.3717C60.4501 6.07074 61.1914 6.65714 62.3242 7.6178L62.749 7.99182C63.1182 8.33108 63.3342 8.58057 63.5273 8.85999C63.6472 9.0336 63.7599 9.22136 63.8867 9.42444C64.0168 9.63295 64.1772 9.88269 64.4091 10.2106L64.7607 10.7223C65.0482 11.1576 65.161 11.3917 65.2617 11.6666C65.3742 11.974 65.4629 12.3055 65.9482 13.276L66.1298 13.6139C66.1895 13.7179 66.2479 13.8148 66.3056 13.9078C66.4172 14.0879 66.5389 14.277 66.6406 14.4674C66.8621 14.8824 66.9999 15.3226 66.9999 15.9996C66.9999 16.7317 67.0499 17.1339 67.0771 17.6305C67.0976 18.0048 67.1013 18.3961 67.0575 18.9479L66.997 19.5582C66.9311 20.1172 66.8641 20.5155 66.788 20.8024C66.7136 21.083 66.6152 21.316 66.4501 21.4879C66.2813 21.6634 66.077 21.728 66.0146 21.7526C65.9832 21.765 65.9574 21.7759 65.9325 21.7906L65.8544 21.8531C65.5054 22.2023 65.6221 22.1234 64.8993 22.8365L63.8476 23.86C62.9924 24.6848 62.4955 25.1812 62.2148 25.4694C62.1204 25.5662 62.0514 25.6403 62.0009 25.694V29.4996C62.0011 29.5041 62.0016 29.5095 62.0019 29.5153C62.0031 29.5408 62.0053 29.5793 62.0077 29.6276C62.0127 29.7246 62.0201 29.865 62.0302 30.0338C62.0504 30.3719 62.0803 30.8262 62.121 31.2926C62.1619 31.7609 62.2134 32.2337 62.2734 32.6119C62.3035 32.8017 62.3345 32.9589 62.3652 33.0748C62.3856 33.152 62.4002 33.1907 62.4052 33.2037C62.4553 33.2641 62.481 33.2635 62.4882 33.2643C62.5211 33.2677 62.5853 33.2596 62.7001 33.2145C62.7546 33.193 62.8109 33.1681 62.874 33.1383C62.9307 33.1115 63.0065 33.0747 63.0751 33.0465C63.1384 33.0205 63.2453 32.9792 63.3652 32.9694C63.4838 32.9597 63.6629 32.9792 63.8144 33.109L63.8769 33.1715L64.2968 33.6373C64.6629 34.028 64.8793 34.2102 65.0497 34.3483C65.3086 34.558 65.5173 34.7112 65.8935 35.191L66.0449 35.4069C66.3814 35.9377 66.6057 36.653 66.748 37.2125C66.8324 37.5447 66.8942 37.847 66.9345 38.066C66.9547 38.1757 66.9704 38.2661 66.9804 38.3287C66.9809 38.3316 66.981 38.3348 66.9814 38.3375C67.4867 39.3082 67.7715 39.4205 67.8915 39.4625C67.9463 39.4817 67.9869 39.4911 68.0732 39.5153C68.1489 39.5365 68.2541 39.5688 68.3642 39.6266C68.6083 39.7549 68.791 39.9638 68.9472 40.276C68.9951 40.3718 69.0625 40.4272 69.2099 40.4723C69.3925 40.5281 69.6036 40.5425 69.9335 40.5807C70.5495 40.6519 71.3949 40.8022 71.9355 41.7526L72.1923 42.2223C72.5312 42.8524 73.087 43.9167 73.6113 44.9869C73.9609 45.7008 74.3006 46.4248 74.5536 47.0289C74.6799 47.3304 74.7872 47.61 74.8642 47.8463C74.9352 48.0645 74.9999 48.3034 74.9999 48.4996C74.9999 48.8405 74.9488 49.4824 74.8603 50.1012C74.8157 50.4127 74.7601 50.729 74.6943 51.0065C74.6472 51.2048 74.5889 51.4102 74.5146 51.5846L74.4345 51.7477C74.2733 52.0297 74.0187 52.2365 73.7773 52.3854C73.5306 52.5374 73.2578 52.653 73.0146 52.7399C72.7693 52.8274 72.5391 52.8899 72.372 52.9303C72.2883 52.9505 72.219 52.9661 72.1699 52.9762C72.1529 52.9797 72.1379 52.9826 72.1259 52.985L69.082 53.9996H65.0292L60.5556 54.4967L60.5283 54.4996H55.1122C55.0609 54.5238 54.9923 54.5562 54.9101 54.5934C54.7191 54.6798 54.4511 54.7968 54.1435 54.9176C53.6154 55.1249 52.9345 55.3588 52.3134 55.4615L52.0517 55.4967C51.5497 55.5486 51.1708 55.6013 50.6435 55.5299L50.4072 55.4908C49.4904 55.3168 48.6459 54.5837 48.0771 53.9879C47.7808 53.6775 47.5349 53.3777 47.3632 53.1559C47.2772 53.0448 47.209 52.9526 47.162 52.8873C47.1386 52.8547 47.12 52.8284 47.1074 52.8102C47.1013 52.8015 47.0961 52.7947 47.0927 52.7897C47.091 52.7871 47.0898 52.7843 47.0888 52.7828L47.0868 52.7809V52.7799L47.0449 52.7194L47.0234 52.649L47.0224 52.6481C47.0218 52.6463 47.0207 52.643 47.0195 52.6393C47.0169 52.6314 47.0131 52.6184 47.0077 52.6022C46.9969 52.5695 46.9808 52.5202 46.9589 52.4576C46.9148 52.3316 46.8488 52.1494 46.7617 51.9303C46.5867 51.4903 46.3289 50.9053 45.999 50.318C45.6672 49.7274 45.2721 49.1538 44.8281 48.7223C44.4382 48.3435 44.0389 48.1013 43.6347 48.0221L43.4609 47.9977C43.1642 47.9743 42.7519 48.0285 42.3837 48.0992C42.2328 48.1283 42.097 48.159 41.9911 48.1842C41.9303 48.3005 41.8279 48.4642 41.6689 48.5905C41.4638 48.753 41.1625 48.8499 40.8261 48.7203C40.6112 48.6374 40.4227 48.476 40.2509 48.2643L40.0839 48.0367C39.966 47.8598 39.8847 47.6947 39.8202 47.5553C39.7499 47.4032 39.715 47.3173 39.6669 47.2291C39.6261 47.1543 39.592 47.1125 39.5566 47.0817C39.5265 47.0555 39.4778 47.0245 39.3915 46.9928C39.3426 47.0094 39.3216 47.0234 39.204 47.0709C39.1252 47.1028 38.9379 47.1776 38.7245 47.1442C38.4559 47.1019 38.2813 46.9206 38.1826 46.7233C38.0758 46.5097 37.9743 46.2414 37.9072 46.0826C37.8728 46.0013 37.8447 45.9441 37.8232 45.9049C37.7495 45.8712 37.6911 45.8603 37.6406 45.861C37.5897 45.8618 37.526 45.8742 37.4433 45.9069L37.3535 45.9469C37.325 45.9611 37.2545 46.0199 37.1669 46.1217C37.1297 46.1651 37.0974 46.2069 37.0751 46.2369C37.0646 46.2512 37.056 46.2627 37.0507 46.2701C37.0484 46.2734 37.0459 46.2765 37.0449 46.278H37.0439V46.2789H37.0449L36.9814 46.3727L36.8857 46.4293C36.8826 46.4313 36.8759 46.4358 36.8671 46.442C36.8486 46.4551 36.8207 46.4759 36.791 46.5026C36.7262 46.5608 36.6746 46.6255 36.6503 46.6842C36.633 46.7264 36.626 46.7705 36.6581 46.8434C36.6985 46.9347 36.8173 47.1032 37.1484 47.3239L37.3788 47.4899C37.4565 47.5525 37.532 47.6234 37.5956 47.7028C37.7458 47.8903 37.829 48.1254 37.789 48.4C37.7544 48.6362 37.6333 48.8604 37.4911 49.069C37.4175 49.1769 37.3293 49.294 37.2265 49.4205L36.874 49.8317C36.7108 50.0152 36.5013 50.1092 36.2822 50.1246C36.0833 50.1386 35.9001 50.0869 35.7597 50.0328C35.5033 49.9341 35.1884 49.7363 35.0234 49.6471C34.9727 49.6197 34.93 49.5973 34.8935 49.5807L34.8701 49.7731C34.8448 50.1571 34.8024 50.4575 34.6894 50.6696C34.6192 50.801 34.521 50.9022 34.3984 50.9713C34.3078 51.0223 34.1998 51.052 34.1884 51.0553C34.1669 51.0621 34.1701 51.0628 34.1777 51.0582C34.1727 51.0634 34.1643 51.0743 34.1523 51.0914C34.1064 51.1568 34.0343 51.2919 33.9462 51.5582L33.8535 51.8717C33.8299 51.958 33.7793 52.1186 33.6523 52.2418C33.5753 52.3163 33.4624 52.3843 33.3183 52.399C33.1807 52.4131 33.0687 52.3728 32.997 52.3356C32.8729 52.2709 32.7882 52.1705 32.7548 52.1305C32.723 52.0923 32.6888 52.0462 32.662 52.0104C32.3509 52.2296 31.9652 52.3424 31.6943 52.402C31.5145 52.4415 31.3503 52.465 31.2324 52.4791C31.1734 52.4862 31.1245 52.4908 31.0898 52.4938C31.0728 52.4952 31.0588 52.4969 31.0488 52.4977C31.0465 52.4978 31.0438 52.4976 31.0419 52.4977L26.5556 52.9967L26.5468 52.9977L26.539 52.9987L20.039 53.4987L20.038 53.4977L20.0351 53.4987C20.0254 53.4996 20.0108 53.5007 19.9921 53.5026C19.9543 53.5063 19.8981 53.5123 19.8261 53.5192C19.6818 53.5329 19.4715 53.5523 19.2089 53.5758C18.6836 53.6229 17.9463 53.6859 17.0995 53.7487C15.4089 53.8739 13.2686 53.9996 11.4999 53.9996C11.0852 53.9995 10.6318 53.8393 10.3251 53.7106C10.1628 53.6424 10.022 53.5749 9.92181 53.524C9.90518 53.5156 9.88936 53.5071 9.87494 53.4996H5.49505L5.49994 52.9996L5.49408 53.4996H5.48431C5.47895 53.4995 5.47103 53.4989 5.46185 53.4987C5.44282 53.4982 5.41561 53.4981 5.38177 53.4967C5.31353 53.4939 5.21646 53.4885 5.09857 53.4791C4.86348 53.4605 4.53955 53.4247 4.18841 53.3561C3.83932 53.2878 3.44956 53.1842 3.08783 53.025C2.78237 52.8906 2.47307 52.7045 2.22747 52.4459C2.20449 52.4562 2.1786 52.4688 2.14837 52.483C2.10109 52.5053 2.03538 52.5357 1.97064 52.5612C1.90875 52.5854 1.81277 52.6187 1.70404 52.6285C1.58922 52.6389 1.41697 52.6266 1.25872 52.5074C1.14273 52.4199 1.07671 52.3075 1.03997 52.2057L1.01263 52.108C0.982283 51.9718 0.886459 51.7576 0.757748 51.442C0.699942 51.3003 0.639733 51.1445 0.592709 50.9948C0.558948 50.8872 0.525341 50.7627 0.509701 50.6354L0.500912 50.5084C0.492713 50.0116 0.516433 49.6361 0.601498 49.3551C0.646564 49.2064 0.713057 49.0688 0.811459 48.9498C0.911461 48.8291 1.02654 48.7497 1.13568 48.694C1.57353 48.4704 1.7138 48.5787 2.14642 48.1461L3.14642 47.1461L3.35736 46.9479C3.84794 46.5153 4.33205 46.2783 4.71673 46.15C4.93564 46.0771 5.12217 46.0395 5.25775 46.0201C5.32529 46.0105 5.38086 46.0053 5.42181 46.0026C5.44215 46.0012 5.45956 46.001 5.47259 46.0006C5.4789 46.0004 5.4847 45.9997 5.48919 45.9996H5.65814L5.78607 46.0895C5.78643 46.0897 5.78776 46.0906 5.789 46.0914C5.79154 46.0932 5.79577 46.0963 5.80169 46.1002C5.81383 46.1083 5.83279 46.1208 5.85736 46.1364C5.90699 46.1679 5.9795 46.2115 6.06536 46.2584C6.2432 46.3557 6.45571 46.4526 6.6474 46.4977C6.85133 46.5456 6.91723 46.5101 6.92279 46.5065C6.9243 46.5052 6.92846 46.5007 6.93451 46.4918C6.94143 46.4816 6.95339 46.4618 6.96478 46.4274C6.98274 46.3728 6.99956 46.2874 7.00286 46.1617L7.00091 46.0221C6.98104 45.5716 7.04816 45.1436 7.12298 44.777C7.2041 44.3797 7.27831 44.1134 7.31536 43.8541C7.34401 43.6532 7.32718 43.5764 7.32122 43.5563C7.30736 43.5476 7.2705 43.5285 7.18939 43.5153L6.99115 43.4996C6.12978 43.4837 5.62655 42.9492 5.36322 42.4889C5.23235 42.26 5.15085 42.0366 5.10247 41.8727C5.07807 41.79 5.06168 41.7195 5.05072 41.6686C5.04524 41.6432 5.04086 41.6216 5.03802 41.6061C5.03666 41.5987 5.03494 41.5924 5.03411 41.5875C5.03372 41.5851 5.03342 41.5824 5.03314 41.5807V41.5768L5.03119 41.5631V41.5621L5.03021 41.5602C5.02994 41.5579 5.02977 41.5537 5.02923 41.5494L5.00579 41.3619C4.98991 41.2331 4.96714 41.047 4.94036 40.818C4.88677 40.3597 4.81602 39.7275 4.74798 39.0338C4.61306 37.6583 4.48416 35.9987 4.52728 34.9781L4.53997 34.4821C4.54556 33.9896 4.53169 33.507 4.51849 33.0123C4.50103 32.3579 4.48536 31.6831 4.52728 30.9703L4.53997 30.6432C4.54585 30.3312 4.53366 30.0574 4.52142 29.7701C4.50506 29.3861 4.48964 28.98 4.52826 28.4625L4.55072 28.0621C4.56448 27.6821 4.55464 27.355 4.54193 27.0192C4.52492 26.5699 4.50212 26.0955 4.52728 25.4791L4.5429 25.2867C4.60212 24.8093 4.80182 24.1349 5.04486 23.4244C5.33107 22.5878 5.70501 21.6266 6.07415 20.7213C6.44372 19.815 6.81113 18.9581 7.08587 18.3287C7.22325 18.014 7.33781 17.7546 7.4179 17.5748C7.4204 17.5691 7.42227 17.5628 7.42474 17.5573C7.36299 17.4697 7.28706 17.3621 7.20501 17.2369C6.98079 16.895 6.69496 16.4197 6.45794 15.9C6.22422 15.3875 6.02027 14.7933 5.99603 14.2223C5.97122 13.6353 6.13888 13.0232 6.70013 12.6002L6.78509 12.524C6.87098 12.4344 6.95936 12.3037 7.04486 12.1324C7.1561 11.9094 7.24625 11.6493 7.31634 11.3932C7.38592 11.1389 7.43316 10.8993 7.46283 10.7233C7.47752 10.636 7.48758 10.5645 7.49408 10.5162C7.49728 10.4924 7.49949 10.4734 7.50091 10.4615C7.5016 10.456 7.50257 10.4514 7.50286 10.4489V10.4459L7.50384 10.4371L8.00384 6.43713L8.00677 6.41272L8.01263 6.38831V6.38733L8.01361 6.38538L8.02337 6.34143C8.03034 6.31136 8.0405 6.26719 8.05365 6.21155C8.08013 6.09948 8.11908 5.9383 8.16693 5.74475C8.2626 5.35775 8.39693 4.83529 8.54974 4.29651C8.70206 3.7595 8.87534 3.19613 9.05072 2.73206C9.13818 2.50066 9.23063 2.28362 9.32415 2.10315C9.4093 1.93891 9.52557 1.74504 9.6806 1.61584C9.83007 1.49145 10.0402 1.40536 10.2206 1.34338C10.4194 1.27513 10.6582 1.21113 10.914 1.151C11.4272 1.03038 12.0479 0.918057 12.6406 0.822876C13.235 0.72741 13.8105 0.647414 14.2363 0.591431C14.4492 0.563432 14.626 0.541092 14.749 0.526001C14.8102 0.518495 14.8586 0.513317 14.8915 0.509399C14.9079 0.507449 14.9211 0.505523 14.9296 0.504517C14.9336 0.504054 14.9373 0.503789 14.9394 0.50354H14.9413L14.9423 0.502563L14.9716 0.499634H14.9999ZM35.3368 14.7946C35.1228 14.7193 34.8966 14.7272 34.6923 14.8307C34.5086 14.9239 34.3859 15.0727 34.3056 15.1969C34.2231 15.3245 34.1595 15.468 34.1083 15.5983C34.0567 15.7299 34.0099 15.8699 33.9687 15.9948C33.9485 16.0558 33.9276 16.1131 33.9091 16.1676C33.9065 16.1609 33.9039 16.1536 33.9013 16.1471C33.8275 15.9642 33.6832 15.6284 33.373 15.4508C33.039 15.2598 32.6825 15.3268 32.3622 15.5006L32.2265 15.5807C32.0206 15.7151 31.9021 15.7743 31.8447 15.7994C31.8178 15.8112 31.8008 15.8171 31.787 15.8219C31.7861 15.8222 31.7592 15.831 31.7363 15.8405C31.7233 15.8458 31.6931 15.8587 31.6591 15.8795C31.627 15.8992 31.5623 15.9442 31.5068 16.024C31.3528 16.2458 31.4346 16.4663 31.4638 16.5289C31.4752 16.5532 31.4881 16.5724 31.4951 16.5836C31.4955 16.5857 31.4956 16.5887 31.496 16.5914L31.5048 16.7233V31.6031C31.5048 31.8827 31.7014 32.0306 31.7822 32.0787C31.871 32.1317 31.9636 32.1569 32.0234 32.1705C32.1513 32.1996 32.3066 32.2126 32.4579 32.2194C32.7697 32.2333 33.1782 32.224 33.5859 32.2067C33.9971 32.1892 34.4239 32.1628 34.7743 32.1412C35.1365 32.119 35.3958 32.1031 35.5009 32.1031C35.7641 32.103 36.018 31.9831 36.207 31.8737C36.413 31.7542 36.6259 31.5963 36.8251 31.4323C37.2252 31.1028 37.6175 30.711 37.8661 30.4449L38.1669 30.11C38.528 29.6971 39.0482 29.072 39.54 28.4352C39.8682 28.0101 40.1897 27.5721 40.4443 27.1823C40.6856 26.8126 40.9093 26.4245 40.9853 26.1207L41.0722 25.7399C41.1481 25.37 41.1907 25.0308 41.1933 24.7272C41.1967 24.3256 41.1307 23.9459 40.9443 23.6324C40.5807 23.0212 39.922 22.8804 39.2118 22.9615L38.9052 23.0084C38.6132 23.065 38.3629 23.2209 38.1865 23.3424C38.1224 23.3865 38.0572 23.4329 38.0009 23.4742L37.999 23.4547C37.9678 23.1073 37.8923 22.7482 37.6318 22.5299C37.3466 22.2912 36.9946 22.3605 36.9199 22.3698C36.8757 22.3752 36.8471 22.3765 36.83 22.3776C36.8182 22.3614 36.8005 22.333 36.7792 22.2867L36.7177 22.1246C36.6446 21.8937 36.6096 21.4503 36.5995 20.8229C36.5895 20.1991 36.6032 19.5267 36.5976 18.7906C36.5922 18.0807 36.5681 17.3526 36.4775 16.7321C36.4321 16.4214 36.3675 16.1231 36.2743 15.86C36.1941 15.6332 36.0842 15.4082 35.9257 15.2233L35.8544 15.1461C35.7028 14.9945 35.5316 14.863 35.3368 14.7946Z" fill="#3AB7D0"/>
</svg>
