<svg width="60" height="48" viewBox="0 0 60 48" fill="none" xmlns="http://www.w3.org/2000/svg">
<path d="M8.5 18.5C6.46786 19.5459 4.84702 21.0357 3 20.5C0.497985 19.7743 2.13525 16 1.5 14C0.894553 12.0938 0.8302 10.7573 0.8302 8.99998C0.8302 6.8521 1.52595 6.13511 1.8302 5.49998C2.13445 4.86485 2.95152 3.48813 3.8302 2.99998C4.6095 2.56705 9.3302 2.49998 9.3302 2.49998C12.7601 2.4998 12.4709 1.97252 15.4654 0.999978C18.46 0.0274357 21.1891 1.50732 26.8302 1.00002C34.1448 0.342235 33.5668 2.56566 39.3302 1.50008C42.5489 0.904997 48.8903 0.166106 49.3302 0.500029C49.3302 0.500029 53.0474 2 54.8302 2C56.613 2 57.8541 6.06946 58.5 9C59.1725 12.051 60.1228 14.6929 58 17C56.0125 19.1602 53.3027 18.3727 50.5 17.5C48.4304 16.8556 47.6802 13.7634 45.8302 14.4999C43.958 15.2452 43.83 16.4999 43.83 18.9999C43.83 21.0863 43.8862 22.7668 43.83 25.4999C43.7496 29.4092 43.83 25.9999 44.8302 29.4999C45.474 31.7529 45.5973 30.6588 45.5001 32.9999C45.4025 35.3492 46.5649 37.6496 46.4999 39.9999C46.4675 41.1711 47.4999 42.8284 47.4999 43.9999C47.4999 47.1241 45.9999 45.4999 44.4999 46.4999C43.3284 47.281 41.7225 46.3013 40.4999 46.9999C40.2295 47.1545 38.9967 46.8296 37.2393 47.0248C35.482 47.2201 34.2573 46.8046 32.5 46.9999C30.7426 47.1951 23.5 46.9999 23.5 46.9999L17.6352 46.9999C16.4003 46.9999 14.9653 47.165 13.6352 46.4999C12.6352 45.9999 11.4999 45.4999 11.4999 45.4999C11.4999 45.4999 10.7412 42.8809 10.4999 40.9999C10.1149 37.9987 10.4999 34.9999 10.4999 34.9999C10.4999 31.0947 11.9653 35.4052 11.9653 31.4999C11.9653 27.5947 13.2324 25.5187 13.33 21.9999C13.4274 18.4866 13.4653 18.4999 12.9653 15.4999C12.5977 13.2943 10.368 17.5386 8.5 18.5Z" fill="#3AB7D0"/>
</svg>
