<svg width="64" height="64" viewBox="0 0 64 64" fill="none" xmlns="http://www.w3.org/2000/svg">
<path d="M64 32C64 14.3551 49.6443 0 32 0C29.0303 0 26.1672 0.437531 23.4365 1.19874L23.3728 1.15642C23.3579 1.17788 23.3471 1.20113 23.3322 1.22497C9.89214 5.01731 0 17.3612 0 32C0 49.6449 14.3551 64 32 64C34.9715 64 37.8328 63.5625 40.5635 62.8013L40.6272 62.846C40.6421 62.8245 40.6553 62.8013 40.6678 62.7774C54.1073 58.9821 64 46.6364 64 32ZM3.18492 33.5552H14.7175C14.8326 36.9923 15.2164 40.3733 15.9121 43.6542H5.583C4.20066 40.5354 3.37507 37.1306 3.18492 33.5552ZM60.8145 30.4466H49.2843C49.1668 27.0077 48.7853 23.6261 48.0873 20.3452H58.417C59.7993 23.4646 60.6249 26.8694 60.8145 30.4466ZM46.178 30.4466H33.5528V20.3452H44.9149C45.6487 23.6201 46.0564 27.0018 46.178 30.4466ZM33.5552 17.2414V3.18492C35.0633 3.26599 36.544 3.4323 37.9842 3.73511C40.6678 7.89941 42.735 12.4351 44.1174 17.2414H33.5552ZM30.4466 17.2414H19.6454C20.9192 12.5203 22.8369 8.04009 25.35 3.90798C26.9988 3.51754 28.7012 3.27851 30.4466 3.18492V17.2414ZM30.4466 20.3458V30.4472H17.7874C17.8535 27.0101 18.2118 23.6267 18.8902 20.3458H30.4466ZM14.6835 30.4466H3.18313C3.37328 26.8688 4.19887 23.4622 5.58121 20.3452H15.7422C15.102 23.6374 14.7479 27.0143 14.6835 30.4466ZM17.822 33.5552H30.4472V43.6542H19.0827C18.3507 40.3793 17.9436 36.9982 17.822 33.5552ZM30.4466 46.758V60.8145C28.9385 60.7334 27.4554 60.5671 26.0176 60.2643C23.334 56.1 21.2668 51.5643 19.882 46.758C19.8826 46.758 30.4466 46.758 30.4466 46.758ZM33.5552 46.758H44.354C43.0784 51.4791 41.1625 55.9569 38.6494 60.0914C37.0006 60.4842 35.2982 60.7209 33.5528 60.8145V46.758H33.5552ZM33.5552 43.6542V33.5552H46.2144C46.1482 36.9899 45.79 40.3733 45.1093 43.6542C45.1093 43.6542 33.5552 43.6542 33.5552 43.6542ZM49.3159 33.5552H60.8169C60.6267 37.1329 59.8011 40.5378 58.4188 43.6542H48.2578C48.898 40.3626 49.2521 36.9857 49.3159 33.5552ZM56.7956 17.2414H47.3255C46.1673 12.9811 44.5352 8.90025 42.4167 5.0793C48.4587 7.42373 53.5082 11.7394 56.7956 17.2414ZM20.9938 5.29508C19.0207 9.06238 17.5078 13.0687 16.4474 17.2396H7.20437C10.3869 11.9165 15.2087 7.68839 20.9938 5.29508ZM7.20437 46.758H16.6763C17.8327 51.0183 19.4648 55.0992 21.5827 58.9201C15.5413 56.5757 10.4918 52.26 7.20437 46.758ZM43.0056 58.7049C44.9787 54.9376 46.4916 50.9313 47.552 46.7604H56.7956C53.6125 52.0829 48.7913 56.311 43.0056 58.7049Z" fill="#010002"/>
</svg>
