<svg width="32" height="32" viewBox="0 0 32 32" fill="none" xmlns="http://www.w3.org/2000/svg">
<path d="M29.9 12.9037L0.128906 0.0463867L6.21376 14.6569C6.55771 15.5018 6.55771 16.4477 6.21376 17.2925L0.128906 31.8802L29.9229 19.275C30.5397 19.0092 31.065 18.5685 31.4342 18.0075C31.8033 17.4464 32 16.7896 32 16.118C32 15.4464 31.8033 14.7895 31.4342 14.2285C31.065 13.6674 30.5397 13.2268 29.9229 12.961L29.9 12.9037ZM28.9833 17.1207L4.41466 27.5715L8.32226 18.1749C8.46724 17.8362 8.57483 17.4827 8.64312 17.1207H20.6066V14.8288H8.64312C8.57483 14.4668 8.46724 14.1133 8.32226 13.7746L4.41466 4.4009L28.9947 15.0007C29.1997 15.0902 29.374 15.2376 29.4962 15.425C29.6184 15.6123 29.6831 15.8313 29.6823 16.0549C29.6844 16.2818 29.619 16.5042 29.4946 16.6939C29.3702 16.8837 29.1922 17.0322 28.9833 17.1207Z" fill="black"/>
</svg>
