<svg width="48" height="48" viewBox="0 0 48 48" fill="none" xmlns="http://www.w3.org/2000/svg">
<path d="M48 24C48 10.7663 37.2332 0 24 0C21.7727 0 19.6254 0.328149 17.5774 0.899056L17.5296 0.867314C17.5184 0.883408 17.5103 0.900844 17.4992 0.918727C7.41911 3.76298 0 13.0209 0 24C0 37.2337 10.7663 48 24 48C26.2286 48 28.3746 47.6719 30.4226 47.1009L30.4704 47.1345C30.4816 47.1184 30.4914 47.1009 30.5008 47.0831C40.5804 44.2366 48 34.9773 48 24ZM2.38869 25.1664H11.0381C11.1244 27.7442 11.4123 30.28 11.9341 32.7406H4.18725C3.15049 30.4016 2.5313 27.8479 2.38869 25.1664ZM45.6109 22.8349H36.9632C36.8751 20.2558 36.589 17.7196 36.0655 15.2589H43.8128C44.8495 17.5984 45.4687 20.1521 45.6109 22.8349ZM34.6335 22.8349H25.1646V15.2589H33.6862C34.2365 17.7151 34.5423 20.2513 34.6335 22.8349ZM25.1664 12.931V2.38869C26.2975 2.44949 27.408 2.57422 28.4881 2.80133C30.5008 5.92456 32.0513 9.3263 33.088 12.931H25.1664ZM22.8349 12.931H14.7341C15.6894 9.39024 17.1277 6.03007 19.0125 2.93098C20.2491 2.63815 21.5259 2.45888 22.8349 2.38869V12.931ZM22.8349 15.2594V22.8354H13.3405C13.3902 20.2576 13.6589 17.72 14.1676 15.2594H22.8349ZM11.0126 22.8349H2.38735C2.52996 20.1516 3.14915 17.5966 4.18591 15.2589H11.8066C11.3265 17.7281 11.0609 20.2607 11.0126 22.8349ZM13.3665 25.1664H22.8354V32.7406H14.312C13.763 30.2844 13.4577 27.7487 13.3665 25.1664ZM22.8349 35.0685V45.6109C21.7039 45.5501 20.5915 45.4253 19.5132 45.1982C17.5005 42.075 15.9501 38.6733 14.9115 35.0685C14.912 35.0685 22.8349 35.0685 22.8349 35.0685ZM25.1664 35.0685H33.2655C32.3088 38.6093 30.8719 41.9677 28.9871 45.0686C27.7505 45.3632 26.4736 45.5407 25.1646 45.6109V35.0685H25.1664ZM25.1664 32.7406V25.1664H34.6608C34.6112 27.7424 34.3425 30.28 33.8319 32.7406C33.8319 32.7406 25.1664 32.7406 25.1664 32.7406ZM36.9869 25.1664H45.6127C45.47 27.8497 44.8508 30.4034 43.8141 32.7406H36.1934C36.6735 30.2719 36.9391 27.7393 36.9869 25.1664ZM42.5967 12.931H35.4941C34.6255 9.73582 33.4014 6.67519 31.8125 3.80947C36.344 5.5678 40.1311 8.80458 42.5967 12.931ZM15.7453 3.97131C14.2655 6.79679 13.1309 9.80154 12.3355 12.9297H5.40328C7.79018 8.93735 11.4065 5.7663 15.7453 3.97131ZM5.40328 35.0685H12.5072C13.3745 38.2637 14.5986 41.3244 16.187 44.1901C11.656 42.4318 7.86886 39.195 5.40328 35.0685ZM32.2542 44.0287C33.734 41.2032 34.8687 38.1985 35.664 35.0703H42.5967C40.2094 39.0622 36.5935 42.2333 32.2542 44.0287Z" fill="#010002"/>
</svg>
