<svg width="42" height="62" viewBox="0 0 42 62" fill="none" xmlns="http://www.w3.org/2000/svg">
<path d="M11.5078 3.50368C8.96234 3.54954 4.40123 0.503685 4.11128 1.00368C3.6118 1.86498 3.76395 2.51981 3.61128 3.50368C3.37852 5.00368 3.61128 8.98896 3.61128 12.5037C3.61128 16.7994 2.61131 14.2255 2.61131 18.5213C2.61131 21.8408 2.51389 23.7033 2.61131 27.0213C2.7089 30.3451 2.88219 32.204 3.11131 35.5213C3.28674 38.0612 3.40765 39.4836 3.61131 42.0213C3.79941 44.365 2.41019 46.6544 2.50773 49.0037C2.60494 51.3448 -0.166304 55.167 0.00788315 57.5037C0.124911 59.0735 0.051404 59.6681 2.50783 61.0213C3.74047 61.7003 4.70437 61.0485 6.11138 61.0213C9.24106 60.9607 14.1113 60.5213 14.1113 60.5213H24.6113H29.6113C29.6113 60.5213 32.2821 60.1057 34.0079 60.0037C35.7622 59.8999 38.4688 60.3518 40.0079 59.5037C42.1712 58.3117 40.5079 54.0037 40.5079 54.0037C40.5079 54.0037 36.4008 47.4977 36.5079 43.0037C36.6383 37.5379 37.5078 33.0036 35.6113 29.0036C34.1032 25.8228 32.0078 18.5213 32.0078 18.5213L35.1113 16.0037C35.1113 16.0037 37.0078 12.5325 37.0078 11.9859C37.0079 10.9859 34.5079 7.24106 34.0078 6.98592C33.6944 6.82602 32.9838 4.03116 32.0078 4.00359C29.852 3.94269 26.7672 0.0644822 24.6113 0.0035816C21.4823 -0.0848095 21.1381 1.49209 18.0078 1.50356C14.6827 1.51574 14.8325 3.44378 11.5078 3.50368Z" fill="#3AB7D0"/>
</svg>
