<svg width="58" height="59" viewBox="0 0 58 59" fill="none" xmlns="http://www.w3.org/2000/svg">
<path d="M6.96328 21.5791C5.12118 21.5791 0.963276 21.9615 0.463276 21.5791C-0.84442 20.5791 1.09853 18.5791 0.463276 16.5791C-0.142171 14.6729 0.463383 13.8365 0.463383 12.0791C0.463383 9.93122 0.159131 7.71423 0.463379 7.0791C0.767627 6.44398 1.58469 5.06725 2.46338 4.5791C3.24268 4.14617 7.96338 4.0791 7.96338 4.0791C11.3933 4.07892 11.1041 3.55164 14.0986 2.5791C17.0931 1.60656 21.3222 0.58646 26.9634 0.0791613C34.2779 -0.578623 40.4634 3.0791 40.4634 3.0791C40.4634 3.0791 50.0235 3.74518 50.4634 4.0791C50.9033 4.41302 54.5452 4.5791 56.328 4.5791C58.1108 4.5791 57.9633 8.5791 57.9633 8.5791C57.9633 8.5791 56.8281 15.079 56.328 15.5791C55.9375 15.9696 54.8945 17.2341 54.4633 17.5791C53.8383 18.0791 47.2623 18.0791 47.2623 18.0791C47.2623 18.0791 43.7729 20.0246 42.5986 22.3308C41.6686 24.1572 41.655 24.8223 41.6015 27.4359L41.5986 27.579C41.5182 31.4883 42.6718 31.6697 42.5986 35.5791C42.5547 37.9218 42.6958 39.238 42.5986 41.5791C42.501 43.9283 47.0283 48.7287 46.9633 51.0791C46.9309 52.2502 47.9633 53.9075 47.9633 55.0791C47.9633 58.2033 46.4633 56.5791 44.9633 57.5791C43.7917 58.3602 42.1858 57.3805 40.9633 58.0791C40.6929 58.2336 39.46 57.9087 37.7027 58.104C35.9453 58.2993 34.7207 57.8838 32.9633 58.079C31.206 58.2743 23.9633 58.079 23.9633 58.079L18.0986 58.079C16.8637 58.079 15.4287 58.2441 14.0986 57.5791C13.0986 57.0791 11.9633 56.5791 11.9633 56.5791C11.9633 56.5791 11.2046 53.96 10.9633 52.0791C10.5782 49.0778 10.9633 46.0791 10.9633 46.0791C10.9633 42.1739 13.0986 43.9843 13.0986 40.0791C13.0986 36.1739 14.3657 34.0979 14.4633 30.5791C14.5607 27.0657 14.5986 27.0791 14.0986 24.0791C13.731 21.8734 8.96328 21.5791 6.96328 21.5791Z" fill="#3AB7D0"/>
</svg>
