<svg width="73" height="61" viewBox="0 0 73 61" fill="none" xmlns="http://www.w3.org/2000/svg">
<path d="M10.9996 0C13.8231 0 15.8358 0.549096 17.7085 1.13379C19.5796 1.71799 21.2701 2.32157 23.5396 2.50195L24.0748 2.53906C25.2608 2.60975 26.0147 2.5666 26.5503 2.46875C27.1465 2.3598 27.4924 2.18103 27.9156 1.96289C28.3583 1.73467 28.8635 1.47644 29.7183 1.28711C30.5607 1.10057 31.7258 0.983554 33.5044 1L34.7408 1.00391C37.4971 0.994289 39.4502 0.876936 42.5201 1L44.3853 1.06934C46.1088 1.13317 47.5134 1.20568 49.5718 1.50488L50.9214 1.7041C52.1677 1.89542 53.1804 2.09025 54.6412 2.52051L55.3668 2.73633C56.9807 3.22501 58.1004 3.63582 59.7457 4.56445L60.2769 4.87207C61.4497 5.5711 62.1911 6.15849 63.3238 7.11914L63.7486 7.49219C64.1178 7.83145 64.3338 8.08092 64.5269 8.36035C64.6469 8.53396 64.7585 8.72174 64.8853 8.9248C65.0155 9.1334 65.1767 9.38284 65.4087 9.71094L65.7603 10.2227C66.0479 10.6581 66.1606 10.892 66.2613 11.167C66.3738 11.4744 66.4625 11.8058 66.9478 12.7764L67.0513 12.9941C67.5344 14.068 67.5005 14.8982 67.5005 16C67.5005 16.7322 67.5495 17.1341 67.5767 17.6309C67.5972 18.0052 67.602 18.3963 67.5582 18.9482L67.4966 19.5586C67.2641 21.5305 66.9902 22.7869 66.2847 24.4619L65.9546 25.209C65.6789 25.808 65.5387 26.1401 65.4449 26.3516C65.3682 26.5246 65.2858 26.7224 65.1031 26.8613C65.0356 26.9126 64.9498 26.957 64.9234 26.9717C64.8809 26.9953 64.8265 27.0269 64.7486 27.0811C64.628 27.1649 64.4437 27.3077 64.1627 27.5635L63.8472 27.8594C62.996 28.6803 62.2077 29.0046 61.5718 29.0957L62.3668 30.1562C62.3857 30.1728 62.4105 30.1946 62.44 30.2207C62.51 30.2828 62.6073 30.3708 62.7154 30.4727C62.9264 30.6713 63.2006 30.9434 63.3951 31.1934L63.5084 31.3477C63.7634 31.7187 63.9537 32.1468 64.0953 32.4893C64.1862 32.7092 64.2392 32.8506 64.3033 33.0029C64.3318 33.0707 64.3546 33.1207 64.3726 33.1562C64.3838 33.1783 64.3898 33.1878 64.3902 33.1885L64.5113 33.3359C64.806 33.7192 64.9643 34.1002 65.0269 34.4766C65.0969 34.8983 65.0409 35.2794 64.9742 35.5918C64.8996 35.9405 64.8358 36.1301 64.816 36.3438C64.8003 36.5131 64.8259 36.6055 64.8931 36.6914L65.1763 37.0791C65.4584 37.4896 65.7326 37.954 65.9498 38.3418C66.0962 38.6033 66.2197 38.8363 66.3072 39.0039C66.3509 39.0878 66.3858 39.1561 66.4097 39.2031C66.4216 39.2265 66.4317 39.2443 66.438 39.2568C66.4411 39.263 66.4432 39.2681 66.4449 39.2715C66.4456 39.273 66.4464 39.2745 66.4468 39.2754L66.4478 39.2764V39.2773C66.992 40.3433 67.4856 41.2079 67.9078 41.9336C68.3263 42.6529 68.6876 43.258 68.9468 43.7764C69.4413 44.7653 69.3792 44.5434 70.2349 46.0479L70.2857 46.123C70.3438 46.1977 70.4261 46.2715 70.5377 46.3506C70.6963 46.463 70.8576 46.5491 71.0689 46.6758C71.4276 46.8908 71.9995 47.2575 71.9996 48C71.9996 48.2554 72.0559 48.3844 72.108 48.6982C72.1518 48.9627 72.1607 49.2624 72.0093 49.6006L71.9341 49.748C71.6547 50.2369 71.1722 50.5425 70.8179 50.7178C70.6333 50.8091 70.4637 50.8743 70.3404 50.917C70.2785 50.9384 70.2269 50.9549 70.19 50.9658C70.1868 50.9667 70.1832 50.9669 70.1802 50.9678L68.2505 51.9336L63.7769 54.916L63.7632 54.9258L63.7476 54.9346L60.2476 56.9346L60.2105 56.9551L60.1705 56.9697L54.6988 58.959L54.6978 58.96C54.6834 58.9669 54.6619 58.9767 54.6353 58.9893C54.582 59.0145 54.5051 59.0506 54.4097 59.0938C54.2187 59.1802 53.9508 59.2972 53.6431 59.418C53.115 59.6253 52.4341 59.8592 51.813 59.9619L51.5513 59.9971C51.0493 60.049 50.6706 60.1007 50.1431 60.0293L49.9068 59.9912C48.9901 59.8171 48.1455 59.0841 47.5767 58.4883C47.2804 58.1779 47.0345 57.878 46.8628 57.6562C46.7769 57.5451 46.7086 57.453 46.6617 57.3877C46.6382 57.355 46.6197 57.3287 46.607 57.3105C46.6039 57.3061 46.6006 57.3023 46.5982 57.2988L42.7867 52.5342L41.1988 52.7549L40.9127 52.7949L40.7349 52.5674V52.5664C40.7344 52.5658 40.7328 52.5646 40.732 52.5635C40.7303 52.5613 40.7283 52.5577 40.7252 52.5537C40.7185 52.5452 40.7084 52.5328 40.6959 52.5166C40.6706 52.4839 40.6338 52.4358 40.5875 52.375C40.4945 52.2531 40.3621 52.0776 40.2056 51.8662C39.9713 51.5496 39.6802 51.1492 39.3824 50.7178L39.0845 50.2773L38.1168 48.8262C38.098 48.8087 38.0738 48.7868 38.0464 48.7607C37.9763 48.6939 37.8799 48.6004 37.7769 48.4932C37.5865 48.295 37.318 47.9952 37.1822 47.7236C37.0754 47.51 36.9739 47.2418 36.9068 47.083C36.8723 47.0015 36.8443 46.9444 36.8228 46.9053C36.7493 46.8717 36.6916 46.8607 36.6412 46.8613C36.5902 46.8621 36.526 46.8743 36.4429 46.9072L36.3531 46.9473C36.3244 46.9617 36.254 47.0203 36.1666 47.1221C36.1292 47.1656 36.0971 47.2072 36.0748 47.2373C36.0729 47.2398 36.0706 47.2418 36.0689 47.2441C36.0633 47.2575 36.0562 47.2742 36.0484 47.2939C36.0236 47.3563 35.9893 47.4485 35.9517 47.5625C35.8758 47.7928 35.7908 48.1042 35.7486 48.4375C35.6604 49.1348 35.774 49.748 36.2779 50.084L36.5074 50.25C36.5852 50.3127 36.6614 50.3834 36.7252 50.4629C36.8755 50.6507 36.9578 50.8862 36.9175 51.1611C36.8828 51.3973 36.7628 51.6206 36.6207 51.8291C36.5469 51.9372 36.4581 52.0539 36.355 52.1807L36.0035 52.5918C35.8403 52.7753 35.6307 52.8693 35.4117 52.8848C35.2126 52.8987 35.0287 52.8471 34.8882 52.793C34.632 52.6942 34.3179 52.4964 34.1529 52.4072C34.1021 52.3798 34.0586 52.3584 34.022 52.3418L33.9986 52.5332C33.9733 52.9175 33.9311 53.2176 33.8179 53.4297C33.7477 53.5612 33.6497 53.6623 33.5269 53.7314C33.4336 53.7838 33.3225 53.8137 33.3169 53.8154C33.2963 53.822 33.2991 53.8225 33.3062 53.8184C33.3011 53.8237 33.2928 53.8345 33.2808 53.8516C33.2349 53.917 33.1638 54.052 33.0757 54.3184L32.982 54.6318C32.9491 54.7526 32.9281 54.8711 32.9087 54.999C32.8907 55.1182 32.8707 55.2698 32.8423 55.4092C32.7877 55.6775 32.6911 55.9621 32.4605 56.2363L32.3531 56.3535C32.0251 56.6813 31.5237 56.8298 31.1939 56.9023C31.014 56.9419 30.85 56.9654 30.732 56.9795C30.6729 56.9866 30.6241 56.9911 30.5894 56.9941C30.5723 56.9956 30.5584 56.9973 30.5484 56.998C30.546 56.9982 30.5435 56.9979 30.5416 56.998L26.0552 57.4971L26.0464 57.498H26.0386L19.5484 57.9971V57.998H19.5455L19.4918 58.0029C19.4539 58.0066 19.3978 58.0127 19.3257 58.0195C19.1813 58.0333 18.9712 58.0527 18.7085 58.0762C18.1831 58.1232 17.4459 58.1863 16.5992 58.249C14.9085 58.3743 12.7683 58.5 10.9996 58.5C10.5848 58.4999 10.1314 58.3396 9.82476 58.2109C9.66246 58.1428 9.52165 58.0753 9.42144 58.0244C9.40481 58.016 9.38899 58.0075 9.37457 58H4.99468L4.99957 57.5L4.99371 58H4.98492C4.97947 57.9999 4.97095 57.9993 4.96148 57.999C4.94242 57.9985 4.91524 57.9975 4.8814 57.9961C4.81313 57.9933 4.71605 57.9888 4.5982 57.9795C4.36308 57.9609 4.03916 57.9251 3.68804 57.8564C3.33895 57.7882 2.94917 57.6846 2.58746 57.5254C2.28203 57.3909 1.97267 57.2048 1.7271 56.9463C1.70408 56.9566 1.6783 56.9691 1.648 56.9834C1.60064 57.0057 1.53506 57.0361 1.47027 57.0615C1.40831 57.0858 1.31247 57.1191 1.20367 57.1289C1.08885 57.1392 0.916543 57.127 0.758355 57.0078C0.642415 56.9203 0.576331 56.8078 0.539605 56.7061L0.512261 56.6084C0.481985 56.4722 0.38618 56.2582 0.257378 55.9424C0.19955 55.8006 0.139384 55.6449 0.092339 55.4951C0.0585566 55.3875 0.0249857 55.2631 0.00933117 55.1357L0.000542108 55.0078C-0.00764948 54.5111 0.0160994 54.1364 0.101128 53.8555C0.146179 53.7067 0.212668 53.5693 0.311089 53.4502C0.411097 53.3294 0.526123 53.2501 0.635308 53.1943C1.07339 52.9706 1.21343 53.079 1.64605 52.6465L1.72613 52.5527C1.75528 52.5137 1.78784 52.4659 1.82574 52.4062C1.86302 52.3476 1.90153 52.2829 1.94683 52.208C1.99134 52.1344 2.04129 52.0515 2.09625 51.9639C2.32026 51.6065 2.62962 51.163 3.14605 50.6465L4.97125 48.8203C4.96168 48.7469 4.95088 48.6586 4.93804 48.5576C4.89774 48.2404 4.84307 47.797 4.7857 47.292C4.69989 46.5367 4.60702 45.6364 4.54742 44.8125L4.50054 44.0225C4.46542 43.2278 4.46554 42.2158 4.47417 41.4092C4.47851 41.0047 4.48536 40.6489 4.49078 40.3945C4.49348 40.2677 4.49585 40.1659 4.49761 40.0957C4.49818 40.0729 4.49817 40.053 4.49859 40.0371L4.0064 37.082L4.00542 37.0732L4.00445 37.0635L4.00347 37.0625V37.0605C4.00318 37.0583 4.00306 37.0542 4.0025 37.0498L3.97906 36.8623C3.96318 36.7335 3.94043 36.5475 3.91363 36.3184C3.86003 35.86 3.7893 35.228 3.72125 34.5342C3.58631 33.1586 3.45742 31.4992 3.50054 30.4785L3.51324 29.9824C3.51883 29.4899 3.50496 29.0075 3.49175 28.5127C3.47429 27.8582 3.45862 27.1836 3.50054 26.4707L3.51324 26.1436C3.51913 25.8314 3.50692 25.5579 3.49468 25.2705C3.47832 24.8864 3.4629 24.4805 3.50152 23.9629L3.523 23.5625C3.53679 23.1823 3.52791 22.8555 3.51519 22.5195C3.49818 22.0702 3.4744 21.596 3.49957 20.9795L3.51812 20.3652C3.53111 19.7232 3.52994 19.0163 3.52398 18.415C3.52002 18.0156 3.51332 17.6649 3.50835 17.4141C3.50643 17.3167 3.50492 17.2341 3.50347 17.1699C3.49822 17.1627 3.49247 17.1552 3.48687 17.1475C3.41611 17.0493 3.31731 16.9091 3.20464 16.7373C2.98041 16.3953 2.6946 15.9201 2.45757 15.4004C2.22382 14.8878 2.0199 14.2937 1.99566 13.7227C1.97077 13.1356 2.13848 12.5236 2.69976 12.1006L2.78472 12.0244C2.8707 11.9348 2.9589 11.8043 3.04449 11.6328C3.15581 11.4097 3.24584 11.1498 3.31597 10.8936C3.3856 10.6391 3.43278 10.3997 3.46246 10.2236C3.47718 10.1363 3.4872 10.0649 3.49371 10.0166C3.49694 9.99255 3.50009 9.97381 3.50152 9.96191C3.5022 9.95621 3.5022 9.95183 3.5025 9.94922V9.94629L3.50347 9.9375L4.00347 5.9375L4.00738 5.91309L4.01226 5.88867V5.8877L4.01324 5.88574L4.023 5.8418C4.02998 5.81169 4.04103 5.76787 4.05425 5.71191C4.08073 5.59984 4.11866 5.43886 4.16656 5.24512C4.26223 4.8581 4.39652 4.33581 4.54937 3.79688C4.70171 3.25979 4.87494 2.69659 5.05035 2.23242C5.13784 2.00092 5.23022 1.78407 5.32378 1.60352C5.40893 1.43922 5.52512 1.24551 5.68023 1.11621C5.82967 0.991694 6.03975 0.905771 6.22027 0.84375C6.41905 0.775474 6.65775 0.711521 6.91363 0.651367C7.42686 0.530732 8.04745 0.418436 8.64019 0.323242C9.23471 0.227766 9.81004 0.147789 10.2359 0.0917969C10.4489 0.0637875 10.6255 0.0414663 10.7486 0.0263672C10.8099 0.0188483 10.8582 0.0136892 10.8912 0.00976562C10.9076 0.00780969 10.9206 0.00590051 10.9293 0.00488281C10.9333 0.00440321 10.9368 0.00415639 10.939 0.00390625H10.941L10.9419 0.00292969L10.9712 0H10.9996ZM32.6568 9.7793L32.5318 9.82422C32.2074 9.97789 32.002 10.3132 31.8736 10.5713C31.731 10.858 31.6158 11.1937 31.5269 11.5C31.4371 11.8096 31.3685 12.1075 31.3228 12.3262C31.2999 12.4357 31.2828 12.5269 31.271 12.5908C31.2652 12.6227 31.2604 12.6484 31.2574 12.666C31.2559 12.6746 31.2543 12.6818 31.2535 12.6865C31.2531 12.6887 31.2527 12.6911 31.2525 12.6924V12.6943L31.7457 12.7764L31.2525 12.6953L31.2505 12.7061L31.2496 12.7168L31.2486 12.7178C31.2486 12.7188 31.2488 12.721 31.2486 12.7227C31.2481 12.7266 31.2475 12.733 31.2466 12.7402C31.2448 12.7553 31.2421 12.7778 31.2388 12.8057C31.2322 12.8623 31.2228 12.9442 31.2115 13.0439C31.1887 13.244 31.1579 13.519 31.1275 13.8164C31.0679 14.4006 31.0045 15.1078 31.0044 15.5V30.3799C31.0047 30.6592 31.2021 30.8074 31.2828 30.8555C31.3713 30.9081 31.4634 30.9337 31.523 30.9473C31.6509 30.9764 31.8072 30.9893 31.9585 30.9961C32.2703 31.01 32.6789 31.0007 33.0865 30.9834C33.4976 30.9659 33.9236 30.9395 34.274 30.918C34.6361 30.8957 34.8954 30.8799 35.0005 30.8799C35.2638 30.8798 35.5185 30.7609 35.7076 30.6514C35.9138 30.5319 36.1264 30.3731 36.3257 30.209C36.7258 29.8796 37.1171 29.4878 37.3658 29.2217L37.4556 29.1143C37.5406 29.0009 37.6135 28.8701 37.6763 28.7422C37.7635 28.5645 37.8478 28.3579 37.9273 28.1377C38.0865 27.6966 38.2401 27.1691 38.3785 26.6465C38.6499 25.6215 38.8887 24.5073 38.9849 24.1221L39.0738 23.7402C39.2602 22.8758 39.3058 22.1815 39.3296 21.5068C39.3565 20.7466 39.3562 20.0392 39.4898 19.1045C39.4945 19.0882 39.5011 19.0662 39.5084 19.04C39.526 18.9766 39.5514 18.8849 39.5806 18.7715C39.6392 18.5444 39.7158 18.2263 39.7886 17.8643C39.9137 17.2423 40.0363 16.4489 40.0191 15.749L40.0025 15.4561C39.9714 15.1086 39.8957 14.7497 39.6353 14.5312C39.3504 14.2927 38.9996 14.3608 38.9244 14.3701C38.8805 14.3755 38.8517 14.3769 38.8345 14.3779C38.8228 14.3619 38.8048 14.3338 38.7837 14.2881L38.7222 14.125C38.6497 13.8964 38.5225 13.6831 38.3101 13.542C38.0979 13.4012 37.8662 13.3762 37.6724 13.3916C37.3237 13.4195 36.9343 13.5992 36.648 13.7256C36.3152 13.8725 36.0391 13.9907 35.7955 14.0293C35.5788 14.0635 35.4564 14.025 35.3541 13.9229C35.1654 13.7341 34.9619 13.4056 34.7496 12.9736C34.5416 12.5503 34.3467 12.0745 34.1587 11.6172C33.9766 11.174 33.793 10.7283 33.6177 10.4121C33.5329 10.2591 33.4257 10.0907 33.2925 9.96777C33.1759 9.86022 32.941 9.70822 32.6568 9.7793Z" fill="#3AB7D0"/>
</svg>
