<svg width="63" height="67" viewBox="0 0 63 67" fill="none" xmlns="http://www.w3.org/2000/svg">
<path d="M13.9659 0.014741C14.1277 0.0276224 14.2705 0.0467335 14.3721 0.0625926C14.4231 0.0705598 14.4654 0.078457 14.4961 0.084077C14.5114 0.0868692 14.5247 0.0890657 14.5342 0.0909129C14.5387 0.091763 14.5429 0.0922543 14.5459 0.092866C14.5472 0.0931537 14.5488 0.093636 14.5498 0.0938426L14.5518 0.0948192H14.5528L14.9619 0.178804L15.1895 0.528413L16.1787 2.04697H22.6319C22.6699 1.95292 22.7105 1.85233 22.7578 1.75107C22.8841 1.48133 23.0577 1.16675 23.2871 0.882905C23.5118 0.605138 23.8423 0.291835 24.2989 0.130952L24.4375 0.0899363C25.1179 -0.0681794 25.5983 0.418349 25.7227 0.55185C25.9188 0.76235 26.0905 1.03622 26.2022 1.21201C26.3031 1.3707 26.3783 1.4837 26.4395 1.56943C26.6009 1.58682 26.7779 1.61181 26.9405 1.63681C27.2581 1.68568 27.6276 1.75045 27.9746 1.81357C28.0381 1.82511 28.1012 1.83729 28.1631 1.84873C28.2173 1.70231 28.2981 1.54323 28.4248 1.3956L28.542 1.27451C28.8234 1.01709 29.1551 0.925717 29.3916 0.894624C29.6651 0.858765 29.9252 0.885815 30.1153 0.918061C30.3135 0.951734 30.49 1.00081 30.6123 1.03916C30.6202 1.04164 30.6282 1.04455 30.6358 1.04697H36.2432L36.5127 1.62314L36.958 2.57431H37.5293C37.5515 2.57097 37.5772 2.56645 37.6055 2.56259C37.7046 2.5491 37.8435 2.53345 38.001 2.52255C38.2807 2.50323 38.7565 2.48862 39.1807 2.6163L39.3985 2.69638C39.8822 2.90545 40.203 3.27276 40.4112 3.62119C40.6418 4.00739 40.7762 4.43682 40.8662 4.77255C40.9176 4.96408 40.9493 5.10285 40.9766 5.21884C41.1825 5.07183 41.5147 4.88247 41.9121 4.83212L42.168 4.80869C42.4284 4.79219 42.6964 4.79475 42.8975 4.80087C43.0388 4.80518 43.1631 4.8121 43.252 4.81748C43.2788 4.81909 43.303 4.82002 43.3233 4.82138C43.3435 4.82007 43.3677 4.81905 43.3946 4.81748C43.4834 4.81227 43.608 4.80602 43.7491 4.80185C44.0172 4.79394 44.4015 4.79178 44.7295 4.83212L45.0381 4.87998C45.3285 4.93559 45.57 5.01112 45.791 5.08994C45.8785 5.12113 45.9558 5.15003 46.0274 5.17685C46.098 4.99625 46.2224 4.67908 46.3994 4.42783C46.5004 4.28471 46.6705 4.08334 46.9366 3.94833C47.1986 3.81548 47.4897 3.77929 47.7725 3.83603L47.8926 3.8663L49.5713 4.3663L49.6768 4.40244C49.9154 4.49501 50.0979 4.63912 50.2207 4.754C50.3691 4.89278 50.4979 5.05134 50.6055 5.19833C50.8187 5.48952 51.0245 5.84209 51.1993 6.14462C51.387 6.46965 51.5427 6.7446 51.6895 6.96298C51.7613 7.06971 51.8157 7.13909 51.8526 7.17978C51.8549 7.18231 51.8574 7.18452 51.8594 7.18662C52.1938 7.36113 52.5394 7.60443 52.7793 7.78427C52.9142 7.88537 53.0305 7.97731 53.1133 8.04404C53.1548 8.07749 53.1893 8.10456 53.2129 8.12412L53.2149 8.12509L54.4366 8.97568L54.9268 9.3165L54.8594 9.91025L54.7647 10.7433C55.0306 10.8341 55.2311 10.9892 55.3643 11.1163C55.5384 11.2827 55.6683 11.4683 55.7578 11.6144C55.8501 11.7649 55.9199 11.907 55.9659 12.0089C55.9675 12.0126 55.9691 12.0169 55.9707 12.0206L56.6075 12.7794L57.3037 13.6095C57.3201 13.6253 57.3409 13.6449 57.3643 13.6681C57.4243 13.7276 57.5069 13.8118 57.5977 13.9102C57.7589 14.0852 58.0013 14.3665 58.17 14.6632L58.1729 14.6642C58.4259 14.712 58.6067 14.8384 58.7168 14.9386L58.8037 15.0265L58.9092 15.1534C59.1448 15.4583 59.2979 15.8169 59.3828 16.0392C59.438 16.1835 59.4802 16.3128 59.5088 16.4063C59.5165 16.4314 59.5225 16.4546 59.5284 16.4747L59.8897 17.2511C59.9226 17.202 59.9607 17.1508 60.0039 17.1017C60.0934 17.0001 60.3716 16.7141 60.8321 16.7091C61.3504 16.7037 61.6467 17.0466 61.7549 17.2071C61.8689 17.3763 61.9284 17.5557 61.9629 17.6788L61.9991 17.8536C62.0225 18.0238 62.0133 18.1767 62.0059 18.2657C61.9934 18.4154 61.9674 18.574 61.9385 18.7237C61.8802 19.0254 61.7927 19.3667 61.7071 19.6749C61.6205 19.9866 61.5307 20.2824 61.4629 20.4991C61.4446 20.5577 61.4269 20.611 61.4121 20.6573L61.4981 21.5792L61.5108 21.7091L61.4883 21.837L61.4053 22.3321L61.4981 23.3292L61.6035 24.4542L61.6114 24.547L61.6035 24.6397L61.4981 25.7647L61.4639 26.1378L61.1924 26.3956L60.2832 27.2618L60.2129 28.0147L60.1084 29.1397L60.003 30.2647L59.794 32.5147L59.7901 32.5518L59.7842 32.589L59.5938 33.714L59.5088 34.211L59.335 34.2979C59.3446 34.3034 59.3542 34.3098 59.3643 34.3155C59.5089 34.3973 59.7273 34.5186 59.9248 34.6681C60.1021 34.8022 60.3143 34.9952 60.4737 35.2686L60.5381 35.3917L60.625 35.5997C60.7011 35.8152 60.7411 36.0514 60.7159 36.3058C60.6838 36.6283 60.5554 36.8772 60.4659 37.0313C60.2686 37.3708 60.1716 37.456 60.0557 37.7833L59.5401 39.381L59.4991 39.5089L59.4258 39.6212L56.4883 44.1212L56.4073 44.2462L56.292 44.3419L55.7354 44.8048C55.7473 44.863 55.7625 44.9232 55.7725 44.9854C55.8108 45.2236 55.8383 45.53 55.7998 45.8448C55.7667 46.1155 55.6741 46.47 55.4229 46.7804L55.3047 46.9112C54.9481 47.2631 54.4591 47.3988 54.2276 47.4542C54.2083 47.4588 54.1886 47.4618 54.17 47.4659C54.0673 47.602 53.9393 47.7714 53.794 47.9532C53.4915 48.3316 53.0795 48.82 52.6797 49.1895L52.5098 49.3399C52.1455 49.646 51.6654 49.8181 51.3828 49.9063C51.2229 49.9563 51.0791 49.9933 50.9756 50.0177C50.9473 50.0243 50.921 50.0293 50.8985 50.0343L49.8057 50.4688C49.7877 50.4801 49.7671 50.4936 49.7452 50.5069C49.6517 50.5637 49.5191 50.6398 49.3653 50.7169C49.132 50.8337 48.727 51.017 48.2881 51.0636L48.0977 51.0743C47.6961 51.0773 47.3386 50.9495 47.0713 50.8194C46.7965 50.6856 46.551 50.5166 46.3565 50.3653C46.2473 50.2804 46.1481 50.1955 46.0616 50.1183L44.2217 50.3185L42.211 50.5362C42.0925 50.6314 41.9369 50.7534 41.7588 50.8829C41.4246 51.1259 40.9471 51.4457 40.461 51.6554L40.253 51.7384C39.6806 51.9437 38.9795 52.0102 38.4932 52.0352C38.236 52.0485 38.008 52.0514 37.8448 52.0509C37.7633 52.0506 37.6966 52.049 37.6494 52.0479L37.5928 52.047H33.167L31.9473 52.4874L31.8321 52.5284L31.711 52.5411H31.712C31.7072 52.5417 31.6972 52.5431 31.6836 52.545C31.6559 52.5489 31.6109 52.5559 31.5547 52.5665C31.4406 52.5881 31.2856 52.6236 31.1221 52.6778C30.7944 52.7867 30.586 52.92 30.4893 53.0313L30.4551 53.0772C30.3373 53.2654 30.1815 53.467 30.0733 53.6017C30.0158 53.6731 29.964 53.7352 29.9268 53.7794C29.9083 53.8014 29.8928 53.8194 29.8819 53.8321C29.8765 53.8384 29.8723 53.8441 29.8692 53.8477C29.8678 53.8493 29.8662 53.8506 29.8653 53.8517L29.8643 53.8536H29.8633V53.8546L29.7588 53.9747L29.6211 54.0567C29.3917 54.1941 29.1539 54.2521 28.961 54.2784V60.919C28.9613 60.921 28.9616 60.9229 28.962 60.9249C28.9722 60.9838 28.9857 61.0681 29.002 61.17C29.0344 61.3728 29.0762 61.6517 29.1104 61.9522C29.1442 62.2495 29.1727 62.586 29.1768 62.8976C29.1798 63.132 29.1733 63.4699 29.084 63.7774L29.0401 63.9063C28.8582 64.3779 28.4997 64.656 28.1485 64.794C27.8264 64.9205 27.504 64.935 27.2754 64.9268C27.1901 64.9238 27.1075 64.9162 27.0303 64.9073L26.1485 65.7833L25.8565 66.0743H2.93558L2.64847 65.5685L0.660192 62.0685L0.531286 61.8419L0.529333 61.5811L0.516637 59.7374L0.502965 57.8936L0.477575 54.2061L0.463903 52.3624L0.451208 50.5186L0.437536 48.6749L0.42484 46.8311L0.411168 44.9874L0.385778 41.2999L0.372106 39.4561L0.359411 37.6124L0.345739 35.7686L0.333043 33.9249L0.319372 32.0811L0.293981 28.3936L0.280309 26.5499L0.269567 24.881C0.259359 24.8521 0.246652 24.821 0.235387 24.7872C0.179834 24.6206 0.109498 24.3835 0.0605825 24.1202C0.0134825 23.8667 -0.0253614 23.532 0.0205435 23.1905C0.0665082 22.8489 0.216723 22.3782 0.660192 22.0509L0.776403 21.9737C1.048 21.8089 1.33139 21.7491 1.54496 21.7276C1.56265 21.7259 1.58112 21.7251 1.59867 21.7237L1.59476 21.0186L1.58109 19.1749L1.5684 17.3311L1.55472 15.4874L1.54203 13.6436L1.52054 10.6925L1.83109 11.0929C1.7575 10.8863 1.69248 10.6633 1.64457 10.421L1.5889 10.0675C1.53777 9.63783 1.53646 9.1193 1.54398 8.73935C1.54787 8.54312 1.55388 8.37077 1.55961 8.24716C1.56247 8.1853 1.56546 8.13479 1.56742 8.0997C1.56783 8.09226 1.56804 8.08527 1.5684 8.07919L1.5557 6.26865L1.55277 5.81748L1.88871 5.51572L2.72855 4.76572L3.01273 4.51181H9.93265L9.81742 1.86728L9.7725 0.824311H11.6856C11.7048 0.806283 11.7237 0.786259 11.7442 0.767671C11.9436 0.587006 12.3093 0.280817 12.7344 0.130952L12.9043 0.0801707C13.304 -0.0215104 13.7192 -0.00485427 13.9659 0.014741ZM32.5049 14.3302C32.1376 14.2964 31.8215 14.3912 31.5791 14.5011L31.3614 14.6114C31.2454 14.6769 30.9945 14.6999 30.6739 14.6632C30.5315 14.6468 30.4012 14.6225 30.3067 14.6017C30.2603 14.5914 30.223 14.5817 30.1983 14.5753C30.1863 14.5722 30.1766 14.57 30.1709 14.5685L30.1651 14.5665L29.7051 14.4347L29.5528 14.8888V14.8897L29.5518 14.8917C29.5511 14.8936 29.55 14.897 29.5489 14.9005C29.5465 14.9076 29.5433 14.9179 29.5391 14.9308C29.5303 14.9574 29.5173 14.9963 29.502 15.044C29.4712 15.1399 29.4289 15.2745 29.3828 15.4278C29.3146 15.655 29.2354 15.9341 29.1729 16.1964L29.1172 16.4503C28.8985 17.5585 28.8915 18.692 28.9395 19.7979C28.9888 20.9335 29.09 21.9782 29.1075 23.0558L29.1104 23.5362C29.1054 24.6054 29.0224 25.3087 28.9395 25.7452C28.8922 25.9941 28.8449 26.1552 28.8135 26.2472C28.798 26.2925 28.7863 26.3212 28.7803 26.3351L28.7754 26.3448L28.7286 26.4298L28.7207 26.5392L28.2979 32.5392L28.2969 32.5577V32.6827C28.297 32.7524 28.2977 32.8543 28.2979 32.9806C28.2982 33.2335 28.2985 33.5872 28.2989 33.9893C28.2997 34.7939 28.2998 35.7937 28.2998 36.5743L28.3008 39.0743C28.3009 39.2343 28.3711 39.3533 28.4287 39.422C28.484 39.4875 28.5446 39.5299 28.584 39.5538C28.663 39.6015 28.7493 39.6321 28.8145 39.6524C28.9524 39.6955 29.1295 39.7319 29.3155 39.7628C29.6945 39.8256 30.1943 39.8804 30.6953 39.9259C31.6943 40.0166 32.7625 40.0743 32.9961 40.0743C33.3924 40.0741 33.7238 39.8517 33.961 39.6436C34.2101 39.4251 34.4436 39.1429 34.6475 38.8829L34.7491 38.7472C35.2318 38.0681 35.3394 37.4095 35.5674 36.7345L35.6807 36.3829C36.2116 34.6612 36.2097 33.4297 36.4287 31.6349L36.4551 31.3907C36.5054 30.836 36.4828 30.389 36.4121 29.9991C36.3316 29.555 36.192 29.2049 36.0606 28.8907C35.8104 28.2924 35.557 27.7526 35.5928 26.5899L35.6485 25.2306C35.6913 24.3485 35.7165 23.9333 35.6465 22.7921L35.5918 22.0099C35.4987 20.77 35.4611 19.029 35.1553 17.6827L35.0909 17.419C35.0054 17.0978 34.9633 16.9152 34.9131 16.7227C34.8679 16.5493 34.8217 16.394 34.7491 16.2403C34.6796 16.0936 34.5881 15.9562 34.4649 15.7979L33.9903 15.2257C33.5111 14.6546 33.0096 14.3768 32.5049 14.3302Z" fill="#3AB7D0"/>
</svg>
