<svg width="75" height="62" viewBox="0 0 75 62" fill="none" xmlns="http://www.w3.org/2000/svg">
<path d="M27.5168 0.384136C29.1771 -0.358225 31.0893 0.108481 32.8478 0.660503C33.7923 0.957004 34.685 1.27772 35.5842 1.52769C36.4733 1.77482 37.303 1.93256 38.0627 1.90757L39.3254 1.85484C42.1891 1.71699 44.545 1.49903 47.6457 1.91148L47.8888 1.93687C48.3989 1.97504 48.5304 1.8729 48.549 1.85484C48.5807 1.82385 48.6085 1.75766 48.6222 1.44761C48.6275 1.32878 48.6326 1.14578 48.672 0.977886C48.7147 0.796728 48.8102 0.570716 49.0373 0.410503C49.2556 0.256547 49.5191 0.21877 49.7795 0.231792C50.0414 0.244944 50.3552 0.312532 50.7297 0.430035L50.9894 0.521832C51.5932 0.759046 52.1915 1.155 52.7668 1.61168C53.4285 2.13701 54.0945 2.77113 54.7394 3.40171C55.3913 4.03912 56.0196 4.67032 56.6291 5.21812C57.2403 5.76751 57.8014 6.20344 58.3068 6.46128L58.4709 6.53843C59.2923 6.89693 60.1439 6.83067 61.134 6.7816C62.15 6.73125 63.3131 6.70441 64.3801 7.50718L66.091 8.79625C67.7114 10.0382 69.0905 11.2252 70.4816 13.1097L70.6467 13.3392C71.4401 14.4799 71.8303 15.5556 72.131 16.6468C72.4562 17.827 72.6607 18.9416 73.1467 20.2718L73.2375 20.5316C73.6693 21.8279 73.7872 23.1024 73.841 24.3509C73.8991 25.7015 73.8833 26.9857 74.0744 28.3373L74.1349 28.8744C74.2439 30.1355 74.1298 31.4395 73.9816 32.7054C73.8312 33.9903 73.648 35.2254 73.5939 36.4086L73.5793 36.9125C73.5658 38.0546 73.7514 39.8069 73.9142 41.6175C74.0539 43.1704 74.1776 44.7745 74.1154 45.974L74.0763 46.4623C73.926 47.8219 73.8489 49.3662 73.7345 50.9437C73.6354 52.3116 73.5082 53.6969 73.2795 54.9505L73.175 55.4798C73.0426 56.0984 72.771 56.5505 72.2746 56.7162C72.0536 56.7898 71.835 56.7877 71.6525 56.7669C71.4723 56.7464 71.2892 56.7018 71.1408 56.6664C70.8013 56.5853 70.6067 56.549 70.4543 56.5863C70.3787 56.6048 70.2457 56.6584 70.1066 56.9505L70.047 57.0912C69.8376 57.6376 69.5425 58.058 69.0607 58.1625C68.8363 58.2111 68.6299 58.1752 68.4679 58.1263C68.3104 58.0787 68.1558 58.0061 68.0383 57.9515C67.7633 57.8239 67.6189 57.7682 67.4914 57.7767C67.426 57.7812 67.2877 57.8093 67.0842 58.0648L66.9924 58.1888C66.8454 58.4038 66.6634 58.573 66.4435 58.6771C66.2216 58.7821 65.9929 58.8064 65.7785 58.7787C65.3722 58.726 65.0096 58.4889 64.7414 58.2669C64.4619 58.0356 64.2204 57.7661 64.0529 57.5619C64.049 57.557 64.045 57.551 64.0412 57.5462C63.9784 57.5798 63.9058 57.6174 63.8254 57.6625C63.5279 57.8291 63.1087 58.0772 62.5597 58.433L61.966 58.8265C60.9765 59.4954 60.1508 59.6811 59.3429 59.806C58.6451 59.9139 58.0008 59.9745 57.2189 60.2455L56.8752 60.3753C55.8718 60.7841 55.0934 60.6393 54.4074 60.4886C53.8173 60.359 53.3153 60.2338 52.6867 60.3373L52.4093 60.3959C50.6561 60.8494 49.4413 61.0273 47.9543 61.2113L46.3459 61.4086C44.5859 61.6278 43.3968 61.743 41.9162 61.8304L40.3058 61.9115C38.3917 61.9941 37.1019 62.0077 35.5021 61.9681L33.7648 61.9115C31.5407 61.8262 30.1434 61.7874 28.1213 61.5306L27.2121 61.4066C25.2279 61.1179 24.0952 60.7846 22.1857 60.4027C21.3123 60.2281 20.6018 60.3594 19.7922 60.4867C19.0371 60.6053 18.2108 60.7148 17.2316 60.4466L17.0343 60.388C16.1127 60.0931 14.9819 59.707 14.0851 59.3959C13.6367 59.2403 13.2452 59.1027 12.966 59.0043C12.8266 58.9551 12.7146 58.9152 12.6379 58.888C12.6251 58.8835 12.6125 58.8792 12.6017 58.8753H8.07048L7.96697 58.8246L5.12908 57.4408C5.06898 57.4549 4.99713 57.4734 4.91521 57.4896C4.67216 57.5375 4.3345 57.5883 3.96794 57.598C3.32588 57.6149 2.39005 57.5072 1.85661 56.7826L1.75505 56.6293C1.72456 56.5776 1.6949 56.5365 1.67107 56.5023C1.62736 56.5588 1.55373 56.6571 1.4738 56.7347C1.39856 56.8078 1.21882 56.9644 0.953294 56.9574C0.670003 56.9497 0.486212 56.7659 0.386888 56.6312C0.308858 56.5253 0.239518 56.393 0.174973 56.2416L0.111497 56.0834C-0.0695483 55.6036 -0.00395653 55.0857 0.123216 54.6253C0.252019 54.1594 0.468495 53.6703 0.670091 53.2201C0.878666 52.7543 1.07256 52.3265 1.19743 51.931C1.30838 51.5795 1.34417 51.3123 1.3156 51.1127L1.29997 51.0316C1.16885 50.5218 1.134 49.5647 1.13591 48.4671C1.13788 47.3431 1.18032 45.9935 1.22673 44.6517C1.27328 43.3062 1.32372 41.9685 1.3449 40.8548C1.36373 39.8639 1.35775 39.0934 1.31267 38.6556L1.29118 38.4886C1.1373 37.5595 1.16636 36.8295 1.21697 36.1283C1.26122 35.5153 1.31944 34.9414 1.299 34.2445L1.28533 33.9369C1.15385 31.7732 1.15382 30.5402 1.28533 28.3763L1.32829 27.7396C1.43683 26.3266 1.5927 25.3652 1.78825 23.8431L1.83318 23.3851C1.90794 22.3047 1.78498 21.1411 1.68083 19.9134C1.56452 18.5422 1.47254 17.0941 1.79802 15.7572L1.90642 15.3294C2.15162 14.4055 2.3504 13.9657 2.61638 13.5394C2.90262 13.0807 3.2011 12.7284 3.73943 11.6517C4.23107 10.6685 4.41068 10.41 4.72185 10.1947C4.82998 10.1198 4.90184 10.0804 5.04607 9.94371C5.19759 9.80008 5.4268 9.54837 5.78825 9.07261L6.0324 8.75914C6.5697 8.08669 6.89967 7.80788 7.2863 7.56871C7.68266 7.32354 8.05141 7.16517 8.86736 6.4896L9.82634 5.68785C10.7949 4.87907 11.8035 4.07013 12.9445 3.43785L13.0412 3.38902C13.5269 3.16541 14.0422 3.25577 14.4767 3.41539C14.9416 3.58627 15.4249 3.87778 15.8595 4.14195C16.315 4.41874 16.7249 4.67035 17.1037 4.8275C17.4886 4.98708 17.7365 5.00291 17.9025 4.9398L18.5607 4.68296C21.8163 3.38523 24.5207 1.87711 27.3566 0.459332L27.5168 0.384136ZM42.0802 21.4076C41.0802 20.4076 41.4583 21.9076 40.0802 21.9076C39.7805 21.9076 37.994 21.8605 37.5802 21.9076C36.7259 22.0048 36.654 22.8103 36.0802 23.4076C35.0803 26.907 34.0899 20.8763 33.59 23.8753C33.59 25.936 31.8459 31.7311 32.1867 33.9125C32.1867 39.4123 32.5803 48.5948 33.5802 47.9076C34.9502 46.965 35.2229 51.1533 36.0802 51.9076C36.8214 52.5591 38.2639 50.4076 39.0802 50.4076C39.711 50.4076 41.0477 50.2244 41.5802 49.4076C42.0178 48.9358 43.9852 51.0021 44.5802 50.4076C45.5802 49.4076 43.589 48.3753 45.089 45.8753C45.589 45.3753 45.4099 43.0863 45.589 42.3753C46.1412 40.1838 45.4267 35.5457 45.6867 32.9125C45.9201 30.5486 45.0891 30.4043 45.089 27.9076C43.5798 25.4077 44.4274 26.1941 43.5802 22.9076C43.0441 20.8278 43.0801 21.9075 42.0802 21.4076Z" fill="#3AB7D0"/>
</svg>
