<svg width="56" height="56" viewBox="0 0 56 56" fill="none" xmlns="http://www.w3.org/2000/svg">
<path d="M12.3464 1.49206C7.41005 1.5797 8.89416 2.15787 4.34644 2.64948C3.72624 2.71652 1.56434 4.51346 0.846504 4.9481C-0.378052 5.68955 0.184254 10.4002 0.121845 11.1895C-0.38351 17.581 0.84649 20.3882 0.84649 20.3882C0.84649 20.3882 0.172518 28.7326 0.341193 30.2076C0.495498 31.557 0.680836 32.3011 0.84649 33.6492C1.15194 36.1349 1.35179 40.0406 1.35179 40.0406C1.35179 40.0406 1.7585 43.6304 1.85708 45.9404C1.95532 48.2425 1.85708 49.5362 1.85708 51.8402C1.85708 53.5682 2.7055 52.4266 2.8465 54.1491C2.95729 55.5025 4.04972 54.5221 4.8465 54.6047C5.52875 54.6754 6.1698 54.984 6.84644 55.0963C7.46038 55.1983 9.7401 54.9528 10.3464 55.0963C11.3569 55.3355 12.4035 54.6895 15.1928 54.6047C15.9818 54.5807 17.4357 54.5807 18.2246 54.6047C21.0139 54.6895 21.5007 55.2255 24.2882 55.0963C25.682 55.0318 26.4329 54.6931 27.8253 54.6047C29.0068 54.5297 30.8571 54.6047 30.8571 54.6047C30.8571 54.6047 34.1439 54.9055 34.3942 54.6047C34.7868 54.1328 36.0478 54.6797 36.3465 54.1491C36.9474 53.0821 38.1063 54.1248 38.8464 53.1492C40.7425 50.6498 41.8411 53.3151 42.3464 51.8402C42.6585 50.9295 40.357 48.5177 40.8624 48.1492C41.3678 47.7806 39.0779 41.2728 40.8624 41.1826C42.4389 41.1029 42.8114 36.2076 44.3889 36.1491C46.5669 36.0684 46.1149 38.8264 48.3465 37.6491C50.3967 36.5675 50.4201 36.9276 50.8465 34.6491C51.5529 30.8746 53.3452 34.0169 52.8464 30.2076C52.6948 29.0491 53.3348 25.8962 52.8464 25.1492C51.8848 23.6783 51.0689 20.3882 49.5531 20.3882C46.5212 20.3883 46.8834 23.1408 43.3464 22.6492C42.7939 22.5724 40.5228 23.9027 38.8464 23.1391C37.4932 22.5226 35.1636 25.0091 33.3464 24.6492C29.6871 23.9243 30.8855 16.1372 30.8571 14.1492C30.8204 11.5836 38.7021 17.6734 39.3041 17.1409C39.5001 16.9676 42.3609 16.6948 43.3464 16.6492C44.9356 16.5755 44.2877 16.7797 45.873 16.6492C49.2157 16.3741 52.9471 16.6492 54.463 16.6492C55.3455 16.6492 55.4549 15.4104 54.8464 10.6495C54.463 7.64948 52.8464 4.14927 52.8464 4.14927C52.8464 4.14927 46.7829 2.96691 46.2776 1.492C46.0526 0.83526 45.4317 0.741539 44.7617 0.508703C43.8325 0.185818 40.8765 0.0266336 39.8899 0.0170531C35.9386 -0.0213164 32.1293 0.0170531 32.1293 0.0170531H19.4969C15.3529 0.0170531 16.4897 1.41851 12.3464 1.49206Z" fill="#3AB7D0"/>
</svg>
