<svg width="59" height="56" viewBox="0 0 59 56" fill="none" xmlns="http://www.w3.org/2000/svg">
<path d="M13.066 6.62134C11.5726 7.11915 6.56602 3.12133 6.56602 4.62132C6.56602 6.1213 8.06602 9.62115 8.06602 9.62115C8.06602 9.62115 7.43247 11.3087 6.56602 12.1211C5.42649 13.1896 5.06602 21.1212 5.06602 21.1212L5.28824 31.1213L6.06602 40.1211L2.06598 48.6213C2.06598 48.6213 -0.433876 54.4625 0.0661174 55.2703C0.647446 56.2095 5.28824 55.2703 5.28824 55.2703L17.7882 55.7703H29.2882H41.7882L52.9255 55.4559C52.9255 55.4559 57.8199 56.1134 58.566 54.6212C59.066 53.6213 58.566 48.6212 58.566 48.6212C58.566 48.6212 57.0661 39.1213 56.5661 37.6212C56.2061 36.5411 49.1826 38.3445 48.0661 38.1212C45.5661 37.6213 41.7882 37.6212 38.0661 36.1212C37.1606 35.7563 34.566 33.1212 34.566 32.1212C34.566 31.5241 34.0661 26.1212 34.0661 26.1212L36.066 19.6213C36.066 19.6213 36.2068 18.1331 36.0661 14.6212C35.9563 11.8828 34.0446 12.0836 34.0661 10.1213C34.0855 8.35325 36.066 8.62124 36.066 7.62132C36.066 6.6214 35.566 4.62132 34.566 3.12132C33.566 1.62132 30.806 2.54324 29.566 2.12112C28.3261 1.699 25.5607 0.629658 22.566 0.121119C19.1985 -0.450736 19.8847 1.19193 16.566 1.12132C12.4618 1.03399 14.566 6.12135 13.066 6.62134Z" fill="#3AB7D0"/>
</svg>
