<svg width="75" height="62" viewBox="0 0 75 62" fill="none" xmlns="http://www.w3.org/2000/svg">
<path d="M27.5169 0.384665C29.1773 -0.357754 31.0893 0.108953 32.8479 0.661032C33.7925 0.957577 34.6849 1.27824 35.5842 1.52822C36.4734 1.77537 37.303 1.93313 38.0628 1.9081L39.3255 1.85537C42.1893 1.71751 44.5449 1.4995 47.6458 1.91201L47.8889 1.9374C48.3976 1.97547 48.53 1.87381 48.5491 1.85537C48.5808 1.8244 48.6086 1.75815 48.6223 1.44814C48.6276 1.32937 48.6327 1.14645 48.6721 0.978415C48.7147 0.797233 48.8103 0.571339 49.0374 0.411032C49.2558 0.257019 49.5191 0.219256 49.7796 0.232321C50.0416 0.245477 50.3551 0.31298 50.7298 0.430563L50.9895 0.52236C51.5934 0.759635 52.1914 1.15538 52.7669 1.6122C53.4287 2.13764 54.0945 2.77154 54.7395 3.40224C55.3916 4.03978 56.0196 4.67077 56.6292 5.21865C57.2406 5.76819 57.8014 6.204 58.3069 6.46181L58.471 6.53896C59.2924 6.89749 60.1439 6.8312 61.134 6.78213C62.1502 6.73178 63.313 6.7046 64.3801 7.50771L66.0911 8.79677C67.7116 10.0388 69.0905 11.2254 70.4817 13.1103L70.6467 13.3397C71.4403 14.4805 71.8304 15.556 72.1311 16.6474C72.4564 17.8276 72.6606 18.942 73.1467 20.2724L73.2376 20.5321C73.6694 21.8285 73.7873 23.1028 73.8411 24.3515C73.8992 25.7021 73.8833 26.9861 74.0745 28.3378L74.135 28.8749C74.2439 30.1361 74.1299 31.4399 73.9817 32.706C73.8313 33.9909 73.6481 35.2259 73.594 36.4091L73.5794 36.913C73.5659 38.0553 73.7515 39.8074 73.9143 41.6181C74.054 43.1711 74.1777 44.775 74.1155 45.9745L74.0764 46.4628C73.9261 47.8225 73.849 49.3666 73.7346 50.9442C73.6355 52.3121 73.5083 53.6974 73.2796 54.9511L73.1751 55.4804C73.0427 56.0988 72.7711 56.5511 72.2747 56.7167C72.0537 56.7903 71.8351 56.7882 71.6526 56.7675C71.4723 56.7469 71.2894 56.7024 71.1409 56.6669C70.8011 56.5857 70.6069 56.5495 70.4544 56.5868C70.3787 56.6053 70.2459 56.6586 70.1067 56.9511L70.0471 57.0917C69.8377 57.6381 69.5425 58.0585 69.0608 58.163C68.8363 58.2116 68.63 58.1757 68.468 58.1269C68.3104 58.0792 68.156 58.0067 68.0383 57.952C67.7631 57.8243 67.619 57.7688 67.4915 57.7772C67.4262 57.7817 67.2881 57.8095 67.0842 58.0653L66.9924 58.1894C66.8455 58.4042 66.6634 58.5735 66.4436 58.6776C66.2217 58.7826 65.9929 58.8069 65.7786 58.7792C65.3722 58.7266 65.0098 58.4895 64.7415 58.2675C64.4619 58.0361 64.2206 57.7667 64.053 57.5624C64.049 57.5575 64.0452 57.5516 64.0413 57.5468C63.9785 57.5804 63.9058 57.618 63.8255 57.663C63.528 57.8296 63.1088 58.0777 62.5598 58.4335L61.9661 58.827C60.9766 59.4958 60.1509 59.6817 59.343 59.8065C58.6451 59.9144 58.001 59.975 57.219 60.246L56.8753 60.3759C55.8719 60.7846 55.0935 60.6398 54.4075 60.4892C53.8172 60.3595 53.3155 60.2343 52.6868 60.3378L52.4094 60.3964C50.6561 60.85 49.4414 61.0279 47.9544 61.2118L46.346 61.4091C44.5859 61.6283 43.3969 61.7436 41.9163 61.831L40.3059 61.912C38.3917 61.9947 37.1021 62.0082 35.5022 61.9687L33.7649 61.912C31.5406 61.8267 30.1435 61.7879 28.1214 61.5312L27.2122 61.4071C25.2278 61.1184 24.0954 60.7851 22.1858 60.4032C21.3122 60.2285 20.602 60.3599 19.7922 60.4872C19.0372 60.6059 18.2109 60.7153 17.2317 60.4472L17.0344 60.3886C16.1127 60.0936 14.9822 59.7076 14.0852 59.3964C13.6366 59.2407 13.2453 59.1032 12.9661 59.0048C12.8265 58.9556 12.7147 58.9158 12.638 58.8886C12.625 58.884 12.6128 58.8798 12.6018 58.8759H8.07057L7.96706 58.8251L5.12916 57.4413C5.06905 57.4555 4.99727 57.474 4.9153 57.4901C4.67224 57.5381 4.33465 57.5888 3.96803 57.5985C3.32599 57.6155 2.39022 57.5077 1.8567 56.7831L1.75514 56.6298C1.72458 56.5779 1.69505 56.5371 1.67116 56.5028C1.62743 56.5594 1.55375 56.6577 1.47389 56.7353C1.39857 56.8083 1.21874 56.9649 0.953383 56.9579C0.669989 56.9503 0.486347 56.7664 0.386977 56.6317C0.308831 56.5258 0.239685 56.3937 0.175063 56.2421L0.111587 56.0839C-0.0696688 55.6041 -0.00387484 55.0863 0.123305 54.6259C0.252079 54.1599 0.468564 53.6709 0.67018 53.2206C0.87876 52.7548 1.07263 52.3271 1.19752 51.9315C1.30851 51.58 1.34423 51.3129 1.31569 51.1132L1.30006 51.0321C1.16885 50.5225 1.13409 49.5655 1.136 48.4677C1.13796 47.3436 1.1804 45.9941 1.22682 44.6522C1.27337 43.3067 1.3238 41.9691 1.34499 40.8554C1.36383 39.8644 1.35783 39.094 1.31276 38.6562L1.29127 38.4892C1.13732 37.5599 1.16645 36.8301 1.21706 36.1288C1.26131 35.5157 1.31952 34.9421 1.29909 34.245L1.28541 33.9374C1.15391 31.7735 1.15391 30.5408 1.28541 28.3769L1.32838 27.7401C1.43692 26.3269 1.59278 25.3658 1.78834 23.8436L1.83327 23.3856C1.90809 22.3052 1.78508 21.1417 1.68092 19.914C1.5646 18.5427 1.47266 17.0947 1.79811 15.7577L1.90651 15.33C2.15171 14.406 2.35052 13.9662 2.61647 13.5399C2.90273 13.0812 3.20119 12.7289 3.73952 11.6522C4.23117 10.6689 4.41082 10.4106 4.72194 10.1952C4.83003 10.1204 4.90203 10.0808 5.04616 9.94424C5.19766 9.80063 5.42693 9.54882 5.78834 9.07314L6.03249 8.75967C6.56979 8.0872 6.89978 7.80841 7.28639 7.56924C7.68272 7.32408 8.05161 7.1656 8.86745 6.49013L9.82643 5.68838C10.795 4.87961 11.8036 4.07066 12.9446 3.43838L13.0413 3.38955C13.5272 3.16586 14.0422 3.2562 14.4768 3.41592C14.9418 3.58686 15.4249 3.87824 15.8596 4.14248C16.3152 4.41938 16.7248 4.67089 17.1038 4.82802C17.4887 4.98762 17.7366 5.00344 17.9026 4.94033L18.5608 4.68349C21.8164 3.38576 24.5208 1.87763 27.3567 0.45986L27.5169 0.384665ZM42.0803 21.4071C41.0804 20.4072 41.4581 21.9069 40.0803 21.9071C39.7807 21.9071 37.9946 21.8601 37.5803 21.9071C36.7261 22.0043 36.6539 22.8099 36.0803 23.4071C35.0803 26.9071 34.089 20.8759 33.5891 23.8759C33.589 25.9367 31.8461 31.7305 32.1868 33.912C32.1868 39.412 32.5803 48.5951 33.5803 47.9071C34.9501 46.9652 35.223 51.1529 36.0803 51.9071C36.8214 52.5588 38.264 50.4071 39.0803 50.4071C39.7113 50.4071 41.0479 50.224 41.5803 49.4071C42.0182 48.936 43.9855 51.0019 44.5803 50.4071C45.5799 49.4072 43.5896 48.3755 45.0891 45.8759C45.5891 45.3759 45.4101 43.0872 45.5891 42.3759C46.1414 40.1843 45.4268 35.5453 45.6868 32.912C45.9201 30.5483 45.0891 30.404 45.0891 27.9071C43.58 25.4073 44.4276 26.1939 43.5803 22.9071C43.0442 20.8275 43.0802 21.907 42.0803 21.4071Z" fill="#3AB7D0"/>
</svg>
