<svg width="59" height="43" viewBox="0 0 59 43" fill="none" xmlns="http://www.w3.org/2000/svg">
<path d="M18.8463 2.49986C13.9099 2.58749 16.6292 2.53356 12.0815 3.02517C11.4613 3.09222 11.1515 12.5 9.49994 13.5C8.27538 14.2415 4.98087 17.1851 4.91846 17.9744C4.4131 24.3659 2.64704 20.5799 1.5 22C0.00711274 23.8483 0.199968 24.3127 0.999943 25.5633C1.99996 27.1267 3.83432 27.1519 3.99997 28.5C4.30542 30.9857 0.999943 32.5 0.999943 32.5C0.999943 32.5 -0.0986076 39.1451 -2.77758e-05 41.4551C0.0982115 43.7571 2.08581 42.4136 3.5 42.5C4.30355 42.5491 5.21695 42.3131 6 42.5C6.77916 42.686 6.70321 42.4174 7.5 42.5C8.18224 42.5707 8.8233 41.8344 9.49994 41.9468C10.1139 42.0487 12.3936 41.8033 12.9999 41.9468C14.0105 42.1859 15.057 41.5399 17.8463 41.4551C18.6353 41.4311 20.0892 41.4311 20.8781 41.4551C23.6674 41.5399 24.1542 42.0759 26.9417 41.9468C28.3355 41.8822 29.0864 41.5435 30.4788 41.4551C31.6603 41.3801 33.5106 41.4551 33.5106 41.4551C33.5106 41.4551 36.7974 41.7559 37.0477 41.4551C37.4403 40.9832 38.7013 41.5301 39 40.9995C39.6009 39.9325 40.973 41.2254 42 41C43.3451 40.7047 45 40.5 45 40.5C45 40.5 46.8708 40.8124 48 40.5C51.8797 39.4266 41.7155 34.5902 43.5 34.5C45.0765 34.4203 43.4225 32.5584 45 32.5C47.178 32.4192 46.9218 35.6773 49.1534 34.5C51.2037 33.4184 53.227 33.7783 53.6534 31.4999C54.3598 27.7254 55.4454 31.4311 54.9467 27.6218C54.795 26.4633 55.4351 23.3104 54.9467 22.5634C53.9851 21.0925 50.6693 21.3023 49.1534 21.3024C46.1216 21.3025 46.4838 24.0549 42.9468 23.5633C42.3943 23.4865 40.1232 24.8169 38.4468 24.0532C37.0935 23.4368 34.764 25.9233 32.9468 25.5633C29.2874 24.8384 30.5072 23.2905 30.4788 21.3024C30.4421 18.7368 37.2711 17.2631 37.8731 16.7306C38.069 16.5573 40.9299 16.2846 41.9154 16.2389C43.5045 16.1653 42.8567 16.3694 44.442 16.239C47.7846 15.9639 51.516 16.239 53.032 16.239C53.9145 16.239 59.1084 11.2608 58.4999 6.49987C58.1166 3.49987 56.5 2.49989 56.5 2.49989C56.5 2.49989 52.7013 2.94947 52.196 1.47456C51.971 0.817813 51.3501 0.724092 50.6801 0.491257C49.7509 0.168372 46.7949 0.00918703 45.8083 -0.000393404C41.857 -0.038763 38.6292 5.02522 38.6292 5.02522C38.6292 5.02522 30.93 1.02485 25.9967 1.02485C21.8528 1.02485 22.9896 2.42631 18.8463 2.49986Z" fill="#3AB7D0"/>
</svg>
