<svg width="87" height="46" viewBox="0 0 87 46" fill="none" xmlns="http://www.w3.org/2000/svg">
<path d="M35.7404 1.00335C38.4968 0.993743 40.4498 0.877371 43.5197 1.00042L45.3859 1.06878C47.109 1.13261 48.5135 1.20617 50.5715 1.50531L51.9211 1.70355C53.1674 1.89486 54.1802 2.08975 55.6408 2.51996L56.3664 2.73578C57.9804 3.22446 59.1002 3.63538 60.7453 4.5639L61.2766 4.87249C62.4492 5.57146 63.1909 6.15805 64.3234 7.11859L64.5275 7.28167C64.9915 7.62802 65.3747 7.75248 65.8078 7.93304C66.3386 8.1544 66.8607 8.43711 67.4084 9.21136L67.5012 9.33539C67.5709 9.42318 67.6232 9.47444 67.6574 9.50433C67.6732 9.4914 67.6949 9.47593 67.7219 9.45355C67.7764 9.40824 67.8886 9.31346 68.0305 9.25531C68.2017 9.1852 68.4095 9.16981 68.6223 9.26312C68.8074 9.34442 68.952 9.49006 69.0695 9.64398C69.191 9.80309 69.3156 10.0121 69.4475 10.2758L69.5305 10.4321C69.5539 10.4725 69.573 10.5016 69.5871 10.5219C69.6962 10.5177 69.8777 10.5175 70.1018 10.6059C70.3349 10.6979 70.5772 10.8695 70.8537 11.1459L71.0305 11.31C71.2146 11.4675 71.4193 11.609 71.6389 11.7514C71.9167 11.9315 72.2491 12.1311 72.5295 12.3471C72.8192 12.5703 73.1025 12.8457 73.2912 13.2182C73.4596 13.5507 73.5372 13.9298 73.5129 14.3676L73.4963 14.558C73.3682 15.6444 73.3098 16.198 73.2473 16.519C73.2136 16.692 73.1727 16.8297 73.1076 16.9633C73.0784 17.0232 73.0454 17.0806 73.0119 17.1332L72.9162 17.2768C72.4535 17.971 72.4659 18.1668 72.3049 18.56C72.1489 18.9406 71.8865 19.3226 71.1789 20.0336L70.8469 20.3598C69.9583 21.2168 69.2815 21.6346 68.7961 21.8334C68.5868 21.9191 68.412 21.9629 68.2717 21.9848C68.2024 22.0876 68.1098 22.2281 68.009 22.3969C67.7856 22.771 67.5255 23.2679 67.3547 23.7827C67.1806 24.3074 67.1207 24.7898 67.2229 25.1664C67.3139 25.5015 67.5514 25.8226 68.1584 26.0258L68.2775 26.06C68.563 26.1276 68.8969 26.1142 69.2717 26.0346C69.6981 25.944 70.1395 25.7751 70.5647 25.5912C70.9612 25.4197 71.4017 25.207 71.7131 25.0864C71.8729 25.0244 72.0522 24.9646 72.2209 24.9448C72.3517 24.9294 72.6089 24.9241 72.8117 25.1039L72.8947 25.1928L72.9397 25.2309C72.9757 25.2581 73.027 25.292 73.0949 25.3305C73.232 25.4081 73.4134 25.4936 73.635 25.5893C73.8554 25.6845 74.1038 25.784 74.3723 25.892C74.6386 25.9992 74.9239 26.1145 75.2092 26.2358C75.7756 26.4766 76.3691 26.754 76.8586 27.0776C77.3339 27.3919 77.7941 27.8029 77.9738 28.3412L78.0295 28.4946C78.3258 29.25 78.9164 29.9123 79.5695 30.5141C79.9169 30.8342 80.2596 31.1184 80.5803 31.395C80.8871 31.6596 81.189 31.9307 81.3938 32.1918L81.5451 32.4067C81.8816 32.9375 82.106 33.6529 82.2482 34.2123C82.3327 34.5447 82.3935 34.8477 82.4338 35.0668C82.4441 35.1227 82.4525 35.1737 82.4602 35.2182C83.2602 35.8586 83.3751 36.7575 83.3752 37.4994C83.3752 37.6991 83.3664 37.8973 83.3586 38.0795C83.3507 38.2655 83.344 38.4342 83.3439 38.5932C83.3439 38.9223 83.3775 39.1356 83.4475 39.2758C83.6506 39.6821 83.9924 40.0038 84.4729 40.4672C84.9365 40.9145 85.4819 41.4562 85.9348 42.2524L85.9768 42.3393C86.0195 42.4416 86.0546 42.5887 86.0061 42.7553C85.935 42.9987 85.7411 43.1081 85.6262 43.1508C85.512 43.1932 85.3946 43.2036 85.3068 43.2065C85.2122 43.2095 85.1109 43.204 85.0109 43.1948C84.6241 43.1591 84.0756 43.0462 83.5666 42.9477C83.0324 42.8443 82.5288 42.7542 82.1633 42.7377C82.0759 42.7338 82.0082 42.7344 81.9582 42.7377C81.9067 42.8838 81.8107 43.0026 81.6906 43.0864C81.5386 43.1924 81.364 43.2349 81.2316 43.2563C80.964 43.2994 80.6278 43.2888 80.3488 43.2797C80.0419 43.2697 79.7767 43.2598 79.5676 43.2797C79.479 43.2882 79.422 43.3007 79.3898 43.311C79.1722 43.635 78.8355 43.7491 78.5412 43.7651C78.2422 43.7812 77.9343 43.7062 77.6867 43.6235C77.4315 43.5381 77.1964 43.4292 77.0285 43.3442C77.0007 43.33 76.9748 43.315 76.9504 43.3022L74.1584 44.2338L74.0813 44.2592H70.0285L65.5549 44.7563L65.465 44.767L65.3781 44.7446L60.551 43.5278C60.5103 43.5467 60.4636 43.5701 60.4104 43.5942C60.2193 43.6806 59.9506 43.7966 59.6428 43.9174C59.1149 44.1246 58.4346 44.3586 57.8137 44.4614L57.551 44.4975C57.049 44.5494 56.6702 44.6012 56.1428 44.5297L55.9064 44.4907C55.1717 44.3512 54.3076 44.2281 53.6232 44.1391C53.2821 44.0947 52.9868 44.0591 52.7775 44.0346C52.6733 44.0224 52.5902 44.0126 52.5334 44.0063C52.505 44.0031 52.4826 44.0011 52.468 43.9994C52.4608 43.9987 52.455 43.9979 52.4514 43.9975C52.4498 43.9973 52.4483 43.9976 52.4475 43.9975L52.4465 43.9965L52.0773 43.9575L52.009 43.5932V43.5942C52.0076 43.5882 52.0039 43.5764 51.9992 43.56C51.9896 43.5264 51.9731 43.4725 51.9455 43.4057C51.89 43.2714 51.7931 43.0856 51.633 42.894C51.3421 42.546 50.8101 42.1407 49.8273 42.019L49.6252 41.9985C49.3285 41.9751 48.9162 42.0283 48.548 42.0991C48.3704 42.1332 48.2135 42.1693 48.1018 42.1967C48.0969 42.1979 48.0918 42.1985 48.0871 42.1996C48.0823 42.2052 48.0785 42.2125 48.0734 42.2182C47.9835 42.3183 47.8293 42.4602 47.6096 42.5395C47.3705 42.6257 47.0899 42.624 46.8068 42.4819C46.6085 42.3822 46.4256 42.2219 46.2531 42.0082L46.0842 41.7768C45.7974 41.3469 45.2121 41.0235 44.59 40.8198C44.5377 40.8371 44.5194 40.8507 44.3977 40.8998C44.3187 40.9317 44.1323 41.0055 43.9191 40.9721C43.6504 40.9298 43.4749 40.7486 43.3762 40.5512C43.2695 40.3378 43.1678 40.0703 43.1008 39.9116C43.0659 39.829 43.0375 39.7711 43.0158 39.7319C42.943 39.6988 42.8852 39.6892 42.8352 39.6899C42.7842 39.6906 42.72 39.7019 42.6369 39.7348L42.5471 39.7748C42.5185 39.7892 42.448 39.8479 42.3605 39.9496C42.3232 39.9931 42.2911 40.0348 42.2688 40.0649C42.2578 40.0796 42.2496 40.0916 42.2443 40.0991C42.2418 40.1027 42.2394 40.1055 42.2385 40.1069L42.1984 40.1674L42.1418 40.2123L42.1428 40.2133C42.1397 40.2161 42.1345 40.2208 42.1281 40.227C42.1119 40.2429 42.0873 40.2681 42.0607 40.3012C42.0047 40.3712 41.9536 40.4579 41.9299 40.5473C41.909 40.6264 41.9064 40.7161 41.9572 40.8266C42.0124 40.9463 42.1481 41.1273 42.4719 41.3432L42.7014 41.5092C42.7793 41.5719 42.8554 41.6425 42.9191 41.7221C43.0696 41.9099 43.1527 42.1454 43.1125 42.4203C43.0779 42.6566 42.9569 42.8797 42.8147 43.0883C42.741 43.1963 42.6529 43.3132 42.55 43.4399L42.1975 43.852C42.0343 44.0355 41.8247 44.1286 41.6057 44.144C41.4067 44.1579 41.2236 44.1062 41.0832 44.0522C40.8269 43.9534 40.5119 43.7556 40.3469 43.6664C40.2965 43.6392 40.2534 43.6176 40.217 43.601L40.1936 43.7924C40.1799 44.0003 40.1561 44.1858 40.1125 44.3383C40.0726 44.4777 39.9886 44.688 39.7795 44.8159C39.5494 44.9565 39.3179 44.9096 39.1936 44.8686C39.0724 44.8286 38.9539 44.7613 38.8732 44.7153C38.5568 44.5346 38.2582 44.3533 37.843 44.4262L37.6574 44.4741C37.3978 44.5605 37.1359 44.5486 36.9104 44.4057C36.8549 44.3705 36.8071 44.3287 36.7658 44.2875C36.4589 44.4954 36.0862 44.6036 35.8225 44.6616C35.6427 44.701 35.4794 44.7256 35.3615 44.7397C35.3024 44.7468 35.2536 44.7513 35.2189 44.7543C35.2016 44.7558 35.187 44.7565 35.177 44.7573C35.1722 44.7576 35.1682 44.758 35.1652 44.7582H35.1594V44.7592L35.092 44.7631L35.0266 44.7494L31.469 44.0034L25.0383 44.4985L25.0373 44.4975L25.0344 44.4985C25.0246 44.4994 25.0102 44.5015 24.9914 44.5034C24.9535 44.5071 24.8975 44.5121 24.8254 44.519C24.681 44.5327 24.4708 44.5521 24.2082 44.5756C23.6828 44.6227 22.9455 44.6858 22.0988 44.7485C20.4083 44.8737 18.2688 44.9994 16.5002 44.9994C16.0853 44.9994 15.6311 44.8391 15.3244 44.7104C15.1621 44.6423 15.0212 44.5747 14.9211 44.5239C14.9044 44.5154 14.8887 44.507 14.8742 44.4994H10.5305C10.5244 44.5002 10.517 44.5014 10.509 44.5024C10.4773 44.5061 10.4307 44.5112 10.3713 44.518C10.2518 44.5317 10.0794 44.5512 9.86934 44.5746C9.44922 44.6216 8.87597 44.6848 8.26387 44.7475C7.05296 44.8715 5.64914 44.9994 5.0002 44.9994C4.51715 44.9995 3.60337 45.1023 2.69161 45.1586C2.25787 45.1854 1.82687 45.2004 1.49141 45.1782C1.32756 45.1673 1.15312 45.1461 1.00411 45.0981C0.911373 45.0682 0.661635 44.9762 0.550005 44.726L0.511919 44.6078C0.481512 44.4716 0.385669 44.2572 0.257036 43.9418C0.199269 43.8002 0.138987 43.6442 0.091997 43.4946C0.0583295 43.3873 0.0246523 43.2631 0.0089892 43.1362L0.000200137 43.0082C-0.00772814 42.5286 -0.0128629 42.1936 0.00312982 41.9653C0.0185787 41.745 0.057889 41.4878 0.258013 41.2866C0.344888 41.1993 0.440656 41.1461 0.499224 41.1147C0.577933 41.0724 0.600823 41.0627 0.671099 41.0229C0.775833 40.9635 0.929484 40.8631 1.14668 40.6459L2.64668 39.1459C2.89251 38.9001 3.06634 38.7239 3.19551 38.601C3.32268 38.48 3.43619 38.3813 3.56075 38.3071C3.69379 38.2278 3.81633 38.1907 3.91915 38.1606C4.02197 38.1305 4.14126 38.0978 4.3293 38.0297L4.98165 37.7924C4.98394 37.7916 4.98649 37.7902 4.98848 37.7895C4.99399 37.7874 4.99902 37.7858 5.00215 37.7846L5.00508 37.7836H5.00313C5.00555 37.7827 5.00784 37.783 5.00899 37.7826C5.00946 37.7825 5.01092 37.7811 5.01192 37.7807H5.0129C5.01344 37.7805 5.01482 37.7801 5.01583 37.7797C5.01866 37.7787 5.04934 37.7692 5.07735 37.7621C5.08134 37.7644 5.08517 37.7676 5.08907 37.77C5.21282 37.7312 5.44176 37.6592 5.842 37.5258L6.0793 37.4418C6.58666 37.2529 6.77347 37.1058 6.95625 36.9487C7.22004 36.7219 7.51006 36.4354 8.27657 36.0522L8.39961 35.9955C9.00767 35.7374 9.51106 35.8578 9.78633 35.8989C9.90595 35.9167 9.95076 35.9141 9.96407 35.9125C9.97695 35.901 10.0084 35.8667 10.051 35.7797L10.1584 35.5678C10.409 35.0949 10.6474 34.7862 10.8928 34.6C11.0407 34.4879 11.1927 34.4186 11.3479 34.3881C11.3917 34.3795 11.4337 34.3751 11.4729 34.3725C11.4823 34.274 11.4932 34.1457 11.5002 33.9789L11.5197 33.7885C11.5897 33.3642 11.8287 33.0691 12.1379 32.8754C12.4477 32.6815 12.8345 32.5874 13.1174 32.5151C13.4419 32.4321 13.6649 32.371 13.8205 32.2748C13.9342 32.2046 13.9917 32.1314 14.0012 31.9702L14.0139 31.643C14.0197 31.3312 14.0066 31.058 13.9943 30.7709C13.978 30.3868 13.9625 29.9801 14.0012 29.4623L14.0315 29.2045C14.1252 28.6215 14.3704 28.1598 14.5695 27.7719C14.8039 27.3155 14.9809 26.9509 15.0002 26.4799V26.3491C14.9907 26.0222 14.9096 25.5336 14.7736 24.9184C14.6215 24.2298 14.4155 23.4393 14.2092 22.6323C14.0045 21.8315 13.8 21.0147 13.6613 20.2963C13.5262 19.5962 13.4381 18.9218 13.5041 18.433L13.5393 18.0883C13.5643 17.7291 13.5622 17.3279 13.5481 16.895C13.5306 16.362 13.4885 15.6711 13.4729 15.1C13.4563 14.4937 13.4622 13.8766 13.5412 13.3071C13.6139 12.7834 13.7538 12.2706 14.0168 11.8315L14.5041 7.93792L14.507 7.91253L14.5119 7.88812H14.5129V7.88519C14.5134 7.88317 14.514 7.8801 14.5148 7.8764C14.5167 7.86849 14.5202 7.8562 14.5236 7.84124C14.5306 7.81112 14.5408 7.76703 14.5539 7.71136C14.5804 7.59936 14.6184 7.439 14.6662 7.24554C14.7619 6.85845 14.8961 6.33543 15.049 5.79632C15.2014 5.25917 15.3756 4.69604 15.551 4.23187C15.6384 4.00048 15.7299 3.78344 15.8234 3.60296C15.9086 3.43869 16.0248 3.2449 16.1799 3.11566C16.3294 2.99109 16.5403 2.9062 16.7209 2.84417C16.9197 2.77589 17.1583 2.71097 17.4143 2.65082C17.9274 2.53023 18.5473 2.41785 19.1398 2.32269C19.7343 2.22723 20.3097 2.14724 20.7356 2.09124C20.9486 2.06324 21.1252 2.04189 21.2482 2.02679C21.3096 2.01927 21.3578 2.01315 21.3908 2.00921C21.4072 2.00726 21.4203 2.00535 21.4289 2.00433C21.4331 2.00384 21.4364 2.00361 21.4387 2.00335H21.4426L21.4709 1.99945H21.5002C24.3322 1.99949 25.9775 2.55238 27.4914 3.14496C28.9792 3.72734 30.287 4.32237 32.5393 4.5014L33.0471 4.53265C33.3188 4.54373 33.5288 4.53921 33.6877 4.52777C33.6644 4.50515 33.6402 4.48015 33.6135 4.4555C33.3958 4.255 33.1223 4.03727 32.8254 3.79144C32.5418 3.55658 32.2371 3.29557 32.008 3.03851C31.8931 2.9095 31.7816 2.76502 31.7014 2.6098C31.6222 2.45647 31.5534 2.25486 31.5793 2.02972C31.6385 1.5174 32.0999 1.28094 32.5139 1.16839C32.9627 1.04648 33.6138 0.991236 34.5041 0.999448L35.7404 1.00335ZM5.12422 37.7924C5.29957 37.9076 5.38432 38.0501 5.42012 38.1879C5.46299 38.174 5.51104 38.1586 5.56465 38.141C5.50809 37.9581 5.36314 37.867 5.28926 37.8344C5.21444 37.8015 5.14915 37.7942 5.12422 37.7924ZM39.7697 14.7035C39.397 14.7564 39.1269 15.0014 38.9514 15.1967C38.7745 15.3936 38.6057 15.6458 38.4914 15.8022C38.4273 15.8899 38.3763 15.9554 38.3322 16.0024L38.2854 16.0483C37.7785 16.2884 37.479 16.5077 36.9055 16.8998L36.2219 17.3569C36.0157 17.4915 35.8973 17.5506 35.84 17.5756C35.8131 17.5874 35.7962 17.5933 35.7824 17.5981C35.78 17.5989 35.7539 17.6074 35.7316 17.6166C35.7185 17.6221 35.6884 17.6349 35.6545 17.6557C35.6223 17.6754 35.5577 17.7202 35.5022 17.8002C35.3481 18.022 35.43 18.2426 35.4592 18.3051C35.4705 18.3294 35.4835 18.3486 35.4904 18.3598C35.4909 18.362 35.4909 18.3647 35.4914 18.3676L35.5002 18.4994V29.0004C35.5004 29.2795 35.6967 29.4268 35.7775 29.475C35.8663 29.5279 35.959 29.5532 36.0188 29.5668C36.1466 29.5959 36.3021 29.6089 36.4533 29.6157C36.765 29.6296 37.1735 29.6203 37.5813 29.603C37.9924 29.5855 38.4193 29.5591 38.7697 29.5375C39.1316 29.5153 39.3911 29.5004 39.4963 29.5004C39.5026 29.5014 39.5219 29.5042 39.5568 29.5151C39.6065 29.5305 39.6694 29.5561 39.7482 29.5912C39.827 29.6264 39.9109 29.6668 40.0061 29.7123C40.0983 29.7565 40.2003 29.8052 40.3039 29.85C40.5033 29.9363 40.7554 30.0296 41.0129 30.0493C41.2902 30.0703 41.6097 30.006 41.8605 29.7377L41.9572 29.6196C42.0534 29.4874 42.1494 29.3163 42.2395 29.142C42.3688 28.8916 42.5144 28.5749 42.6682 28.2143C42.9762 27.492 43.3227 26.5732 43.634 25.6127C43.9449 24.6535 44.2247 23.6417 44.3947 22.7358C44.5397 21.963 44.6172 21.2076 44.5314 20.6196L44.4846 20.3784C44.4684 20.313 44.4745 20.2084 44.5295 20.0346C44.5559 19.9512 44.5886 19.8672 44.6252 19.7729C44.6589 19.6861 44.7006 19.5792 44.7307 19.478C44.7588 19.3833 44.7949 19.2365 44.7785 19.0786C44.7587 18.889 44.6627 18.693 44.4611 18.5688C44.2937 18.4658 44.1047 18.4459 43.9553 18.4457C43.8759 18.4457 43.79 18.4515 43.6984 18.4623L43.4045 18.5092C43.1933 18.5502 43.0514 18.5834 42.9084 18.601C42.7713 18.6179 42.7107 18.6077 42.6867 18.5991C42.6823 18.5979 42.6602 18.592 42.6252 18.5248C42.5797 18.4374 42.5262 18.2674 42.4982 17.9555C42.4817 17.7704 42.4569 17.6098 42.4191 17.478C42.3849 17.3584 42.3197 17.1875 42.1691 17.0629C41.9826 16.9088 41.7723 16.9072 41.632 16.9379C41.5935 16.9464 41.5564 16.9605 41.5227 16.9731L41.4768 16.8491C41.3873 16.5667 41.3904 16.4541 41.3928 16.4311C41.3924 16.4316 41.3708 16.4818 41.4191 16.3901C41.4523 16.3272 41.5106 16.1969 41.4895 16.0239C41.4713 15.8761 41.4015 15.7633 41.3537 15.6948C41.3071 15.6281 41.2427 15.5504 41.1594 15.4604L40.8537 15.1459C40.5415 14.8338 40.1759 14.6461 39.7697 14.7035Z" fill="#3AB7D0"/>
</svg>
