<svg width="69" height="39" viewBox="0 0 69 39" fill="none" xmlns="http://www.w3.org/2000/svg">
<path d="M19 3.50002C17.5065 3.99782 18 4.50002 17 7.00002C16.0713 9.32174 18.8718 14.9922 17.5 20.5C16.1282 26.0078 18.8664 26.1876 18 27C16.8604 28.0685 14 28.0002 14 28.0002L9.99998 29C9.99998 29 5.63723 30.2871 2.99998 31.5C-1.69084 33.6573 1.30544 37.1798 0.499945 38.3347C-0.762048 40.1441 6.50003 37.3414 7.00002 38.1492C7.58135 39.0884 13.2222 38.1492 13.2222 38.1492L25.7222 38.6492H37.2222H49.7222L60.8595 38.3348C60.8595 38.3348 65.7538 38.9923 66.5 37.5002C67 36.5002 68.5931 36.2439 68 34.5C67.4931 33.0095 66.9303 32.1577 65.5 31.5C62.7459 30.2335 59.5 29.5 58 29.5H57.9989C55.4501 29.5 54.2216 29.5 50.5 28.0002C49.5944 27.6353 42.4919 31.2567 40.5 29.5C39.1184 28.2816 38.3265 30.4839 38 28.5002C37.5686 25.8797 43 25.0001 43 25.0001C43 25.0001 42.6408 24.012 42.5 20.5001C42.3902 17.7617 42.4784 17.9624 42.5 16.0001C42.5194 14.2321 41.5 12.5001 41.5 11.5001C41.5 10.5002 41 8.00013 40 6.50013C39 5.00013 36.74 2.92225 35.5 2.50013C34.26 2.07801 32.9947 1.00873 30 0.500195C26.6324 -0.0716597 26.8187 1.07063 23.5 1.00002C19.3958 0.912691 20.5 3.00003 19 3.50002Z" fill="#3AB7D0"/>
</svg>
