<svg width="78" height="38" viewBox="0 0 78 38" fill="none" xmlns="http://www.w3.org/2000/svg">
<path d="M36.3599 0.488175C39.7384 0.465301 43.3233 1.07432 46.5659 1.50575L47.5347 1.62196C49.5607 1.83826 50.1086 1.72698 52.6489 2.52431L52.8296 2.57021C53.2598 2.65841 53.7523 2.60456 54.3169 2.44423C54.964 2.26041 55.6407 1.95708 56.3608 1.64442C57.0624 1.33983 57.8084 1.02502 58.5298 0.867081C59.2574 0.707866 60.0196 0.694827 60.7271 1.05556L60.8901 1.13271C61.7019 1.4916 62.465 1.42463 63.354 1.37587C64.2874 1.32467 65.3439 1.30133 66.4067 2.10146L66.5435 2.21083C67.1962 2.76732 67.4063 3.46893 67.3755 4.19911C67.3445 4.93341 67.0695 5.72023 66.8101 6.43935C66.539 7.19096 66.2772 7.88863 66.1812 8.54872C66.0878 9.19079 66.1615 9.73419 66.5083 10.204L66.6733 10.4345C67.4664 11.5824 67.809 12.6575 68.061 13.7421C68.3323 14.9092 68.4885 16.0134 68.9692 17.329L69.1382 17.7567C69.5357 18.6816 69.9501 19.1278 70.354 19.6376C70.5928 19.939 70.8316 20.2685 71.0337 20.7157C71.2351 21.1614 71.3917 21.7033 71.4946 22.4306L71.6196 23.3075C71.7268 24.0364 71.7903 24.3655 71.9038 24.6786C71.9787 24.885 72.0782 25.0924 72.2456 25.4159C72.4109 25.7352 72.6384 26.1606 72.9468 26.7772L73.2427 27.3915C73.3165 27.5526 73.368 27.6745 73.4038 27.7684C73.4558 27.9049 73.4799 27.9994 73.4907 28.0809C73.5484 28.1741 73.6672 28.351 73.9155 28.7235L74.0405 28.9003C74.6685 29.7365 75.3449 29.8856 75.9751 30.1356C76.3072 30.2674 76.7165 30.4636 76.939 30.9188C77.1236 31.297 77.1374 31.7684 77.0376 32.3495L76.9878 32.6054C76.9149 32.946 76.7751 33.2387 76.5425 33.452C76.3071 33.6678 76.0261 33.7581 75.7564 33.7821C75.2606 33.8261 74.6841 33.6511 74.2339 33.5204C73.7247 33.3726 73.3197 33.2609 72.9985 33.2772C72.8532 33.2847 72.7561 33.3188 72.686 33.3671C72.6353 33.4022 72.5768 33.4602 72.521 33.5643L72.4663 33.6845C72.3544 33.9764 72.1982 34.2457 71.9556 34.41C71.6796 34.5968 71.3809 34.5921 71.1333 34.5067C70.9101 34.4297 70.7116 34.2832 70.5523 34.1493C70.3881 34.0114 70.2203 33.8465 70.0698 33.7001C69.9128 33.5473 69.7684 33.4094 69.6274 33.2948C69.4843 33.1785 69.3693 33.1078 69.2798 33.0741C69.2001 33.0442 69.1634 33.0515 69.1411 33.0595C69.1185 33.0676 69.0662 33.0935 68.9927 33.1776L68.9116 33.2831C68.7647 33.4979 68.5826 33.6673 68.3628 33.7714C68.141 33.8762 67.912 33.8997 67.6978 33.872C67.2914 33.8193 66.9289 33.5832 66.6607 33.3612C66.3809 33.1297 66.1398 32.8596 65.9722 32.6552C65.9682 32.6503 65.9643 32.6453 65.9605 32.6405C65.8978 32.6741 65.8249 32.7118 65.7446 32.7567C65.4472 32.9234 65.0279 33.1715 64.479 33.5272L63.8862 33.9198C62.8966 34.5888 62.0702 34.7744 61.2622 34.8993C60.5642 35.0072 59.9203 35.0687 59.1382 35.3397L58.7944 35.4686C57.791 35.8774 57.0127 35.7335 56.3267 35.5829C55.7366 35.4533 55.2354 35.3283 54.6069 35.4315L54.3286 35.4901C52.5753 35.9437 51.3607 36.1216 49.8735 36.3056L48.2651 36.5018C46.5051 36.7211 45.3162 36.8373 43.8355 36.9247L42.2251 37.0058C40.3112 37.0884 39.0219 37.1019 37.4224 37.0624L35.6841 37.0058C33.4599 36.9205 32.0628 36.8817 30.0405 36.6249L29.1314 36.5009C27.1472 36.2122 26.0153 35.8779 24.106 35.496C23.2322 35.3212 22.5214 35.4536 21.7114 35.5809C20.9563 35.6996 20.1302 35.8091 19.1509 35.5409L18.9536 35.4823C18.0319 35.1873 16.9023 34.8013 16.0054 34.4901C15.5565 34.3344 15.1646 34.197 14.8853 34.0985C14.7456 34.0493 14.6339 34.0095 14.5571 33.9823C14.5441 33.9777 14.532 33.9735 14.521 33.9696H9.99073L9.88624 33.9188L7.11866 32.5683C7.08803 32.5843 7.0555 32.6032 7.02003 32.621C6.8114 32.7254 6.51723 32.8588 6.17823 32.9706C5.56966 33.1712 4.70035 33.3423 3.92432 33.0175L3.77003 32.9452C2.86279 32.4772 2.05099 32.4102 1.61671 32.3749C1.52346 32.3673 1.39648 32.3575 1.30518 32.3378C1.27812 32.332 1.23765 32.322 1.19385 32.3046C1.15627 32.2896 1.07456 32.2537 0.999518 32.1757C0.907751 32.0801 0.838419 31.9313 0.858893 31.7567C0.875881 31.6128 0.947525 31.5163 0.98194 31.4755C1.04907 31.3959 1.13116 31.3451 1.16553 31.3241C1.21306 31.2952 1.26867 31.2665 1.32471 31.2382C1.43715 31.1814 1.59342 31.1075 1.7876 31.0165L1.91651 30.9501C2.1955 30.7912 2.32758 30.6046 2.5171 30.3251C2.75348 29.9764 3.04793 29.5345 3.72217 29.0849L4.35889 28.6513C4.36613 28.646 4.37238 28.6413 4.37745 28.6376C4.39712 28.6167 4.41213 28.6009 4.41944 28.5946C4.43419 28.5822 4.4477 28.572 4.45557 28.5663C4.48204 28.5472 4.5203 28.5236 4.56397 28.496C4.66116 28.4344 4.85429 28.313 5.23487 28.0761L5.48096 27.913C5.69558 27.7586 5.8208 27.6316 5.89893 27.5263C5.99582 27.3955 6.04063 27.2705 6.07569 27.0966C6.15131 26.7209 6.1676 26.0989 6.67628 25.245L6.80616 25.0106C6.91324 24.7999 6.95504 24.6577 6.96924 24.5546C6.98648 24.4288 6.96907 24.3205 6.91358 24.1386C6.78866 23.7292 6.53559 23.1454 6.60694 21.9706L6.62549 21.7733C6.75327 20.8031 7.36394 20.055 7.87061 19.4315C8.45054 18.718 8.91216 18.1465 9.00342 17.4374L9.02784 17.2909C9.0951 16.9535 9.24504 16.6545 9.52491 16.4608C9.83573 16.246 10.1991 16.2366 10.5034 16.2831C10.8119 16.3303 11.1393 16.4467 11.4517 16.579C11.7673 16.7127 12.1001 16.8764 12.4175 17.0321C13.0848 17.3595 13.6597 17.6332 14.0962 17.7011C14.3045 17.7334 14.4088 17.7062 14.4575 17.6786C14.4916 17.6593 14.5672 17.6018 14.6206 17.3827L14.6548 17.2011C14.7159 16.7688 14.6416 16.2682 14.4673 15.6942C14.268 15.0383 13.9602 14.3525 13.648 13.6268C13.3433 12.9188 13.0345 12.1706 12.8784 11.4511C12.7215 10.7276 12.7052 9.97155 13.0523 9.27724C14.0238 7.33413 14.0835 6.6956 15.6011 4.69814L16.3228 3.75575C16.4984 3.53487 16.6283 3.38709 16.771 3.2538C16.9138 3.12045 17.0688 3.00154 17.272 2.84364C17.4798 2.68217 17.7608 2.46331 18.1802 2.1161L18.2769 2.04286C18.509 1.88371 18.7916 1.80373 19.0933 1.90126C19.3903 1.99748 19.5917 2.23444 19.7241 2.43349C19.9924 2.83696 20.211 3.45421 20.4038 3.98329C20.6131 4.55748 20.8008 5.05608 21.0093 5.36903C21.1115 5.52228 21.1817 5.57124 21.2065 5.5829C21.2121 5.58185 21.2288 5.57913 21.2573 5.56337L21.479 5.42665C21.7144 5.2675 21.9924 5.0432 22.3062 4.76942C22.7201 4.40823 23.1651 3.98838 23.6274 3.56142C24.0845 3.13938 24.5563 2.71238 25.0044 2.35634C25.4446 2.00655 25.8992 1.69505 26.3218 1.53407L26.6558 1.41298C26.9731 1.30534 27.2452 1.23486 27.479 1.19814C27.7859 1.14996 28.0702 1.15308 28.3159 1.24696C28.8888 1.46601 28.9432 2.03224 28.9663 2.24794C28.9719 2.30018 28.9765 2.34181 28.98 2.37489C28.9892 2.37276 28.9999 2.37267 29.0103 2.37001C29.1705 2.32856 29.415 2.23453 29.7769 2.0536L31.4634 1.20204C31.886 0.995728 32.2253 0.849435 32.5874 0.749893C33.2954 0.555358 34.0577 0.554731 35.687 0.50087L36.3599 0.488175ZM40.6597 10.0009C40.3594 10.0009 38.5734 9.9538 38.1597 10.0009C37.3055 10.0983 37.2334 11.4037 36.6597 12.0009C35.6599 15.5002 37.4995 10.5009 35.9995 11.5009C34.9998 13.5008 36.1587 14.3196 36.4995 16.5009C36.4995 22.0007 36.4995 22.2871 36.4995 23.5009C36.4997 25.501 37.1422 29.2466 37.9995 30.0009C38.7405 30.6526 40.1831 30.5009 40.9995 30.5009C41.6303 30.5009 43.4669 30.8177 43.9995 30.0009C44.437 29.5291 45.9046 29.0957 46.4995 28.5009C47.4995 27.5009 45.0005 25.5009 46.5005 23.0009C47.0004 22.5002 47.3301 18.1796 47.5093 17.4686C48.0612 15.278 46.2396 17.6336 46.4995 15.0009C44.9998 13.0009 44.9995 16.9973 44.9995 14.5009C43.4903 12.001 44.8466 15.2872 43.9995 12.0009C43.4634 9.92106 43.4995 12.0009 42.4995 11.5009C41.4997 10.5009 42.0377 10.0009 40.6597 10.0009ZM4.24268 29.0409C4.24386 29.0509 4.24685 29.0607 4.24854 29.0702C4.2454 29.0528 4.24302 29.0342 4.24171 29.0145C4.24221 29.023 4.24168 29.0321 4.24268 29.0409Z" fill="#3AB7D0"/>
</svg>
