<svg width="69" height="59" viewBox="0 0 69 59" fill="none" xmlns="http://www.w3.org/2000/svg">
<path d="M22.4653 0.920985C22.6269 0.933835 22.7689 0.952989 22.8706 0.968837C22.9217 0.976811 22.9648 0.984684 22.9956 0.990321C23.0106 0.993063 23.0233 0.995329 23.0327 0.997157C23.0373 0.998053 23.0422 0.998509 23.0454 0.99911C23.0467 0.999375 23.0483 0.999844 23.0493 1.00009L23.0513 1.00106H23.0522L23.4614 1.08505L23.689 1.43466L24.6782 2.95321H31.1313C31.1692 2.85947 31.2092 2.75921 31.2563 2.65829C31.3825 2.38858 31.5562 2.07308 31.7856 1.78915C32.0102 1.51144 32.341 1.19821 32.7974 1.0372L32.936 0.997157C33.6165 0.838388 34.0963 1.32416 34.2212 1.45809C34.4174 1.66863 34.5899 1.9424 34.7017 2.11825C34.8026 2.27702 34.8778 2.38994 34.939 2.47567C35.1002 2.49305 35.2766 2.51808 35.439 2.54306C35.7565 2.5919 36.126 2.65668 36.4731 2.71981C36.5364 2.73132 36.5998 2.74356 36.6616 2.75497C36.7157 2.60862 36.7967 2.44944 36.9233 2.30184L37.0405 2.18075C37.3217 1.92329 37.6535 1.83208 37.8901 1.80087C38.1637 1.7649 38.4246 1.79204 38.6147 1.82431C38.8127 1.85791 38.9885 1.90707 39.1108 1.9454C39.1186 1.94783 39.1268 1.95082 39.1343 1.95321H44.7427L45.0122 2.52938L45.4575 3.48056H46.0308C46.0523 3.47732 46.0777 3.47354 46.105 3.46981C46.1996 3.45692 46.3303 3.44161 46.479 3.43075C46.4866 3.37615 46.4982 3.31611 46.5181 3.25399C46.5719 3.08632 46.676 2.91268 46.8423 2.7745C47.0035 2.64081 47.1763 2.57987 47.312 2.5538C47.4927 2.5192 47.6506 2.5379 47.7515 2.55868L47.8325 2.57821L47.9761 2.62509C48.6669 2.88888 48.9369 3.57564 49.0493 3.93173C49.1939 4.38989 49.2647 4.92763 49.3159 5.35849C49.3519 5.66168 49.3793 5.9111 49.4077 6.11532C49.5063 6.11567 49.5994 6.1148 49.6812 6.11727C49.8224 6.12157 49.9466 6.1285 50.0356 6.13388C50.0623 6.13548 50.0867 6.13644 50.1069 6.13778C50.1272 6.13646 50.1514 6.13545 50.1782 6.13388C50.267 6.12867 50.3916 6.12243 50.5327 6.11825C50.7872 6.11073 51.1468 6.10934 51.4634 6.14364C51.4902 6.12857 51.5499 6.09519 51.6587 6.0245C51.8621 5.89221 52.3345 5.57101 52.9819 5.64657C53.0712 5.54554 53.2417 5.36192 53.4644 5.22958C53.7614 5.05327 54.1157 4.9774 54.4946 5.04891L54.6587 5.08895L54.8511 5.15536C54.9205 5.18335 54.9943 5.2175 55.0659 5.26083C55.1406 5.30607 55.2425 5.37915 55.3394 5.48934C55.4408 5.60486 55.5441 5.77153 55.5864 5.98934V5.99227C55.8245 6.26778 55.9195 6.59294 55.9595 6.75985C56.0391 7.09265 56.0594 7.47902 56.0747 7.74911C56.0913 8.04051 56.1035 8.24351 56.1294 8.39462C56.304 8.51746 56.4348 8.65129 56.5298 8.76181C56.5947 8.83732 56.6538 8.91447 56.6938 8.96591C56.7095 8.98607 56.7236 9.00317 56.7358 9.01864C56.8456 8.85148 56.9463 8.67816 57.0747 8.46591C57.1356 8.36529 57.2059 8.253 57.2778 8.15048C57.3411 8.0603 57.4482 7.91587 57.5903 7.79403C57.6824 7.71523 58.1239 7.35754 58.7095 7.57724C59.0974 7.72303 59.2759 8.03092 59.354 8.22079L59.4028 8.36141L59.4458 8.53915C59.4514 8.56853 59.4536 8.59822 59.4575 8.62704C59.5088 8.59163 59.5623 8.56113 59.6157 8.53622C59.9608 8.37568 60.2958 8.44175 60.3853 8.45907C60.6523 8.51079 60.9396 8.63528 61.1362 8.72665C61.3574 8.82942 61.5755 8.9441 61.7329 9.03036C61.8127 9.07409 61.8797 9.11257 61.9272 9.13974C61.9509 9.15326 61.9704 9.16416 61.9839 9.17196C61.9903 9.17567 61.9957 9.17854 61.9995 9.18075C62.0013 9.18181 62.0032 9.18299 62.0044 9.18368L62.0054 9.18466H62.0063C62.0037 9.1896 61.9706 9.24722 61.5786 9.91317L62.0063 9.18563L62.0269 9.19735L62.0464 9.21005H62.0474L62.0483 9.21102C62.0494 9.21169 62.0514 9.21279 62.0532 9.21395C62.0569 9.21636 62.0622 9.22031 62.0688 9.2247C62.0823 9.23356 62.1021 9.2466 62.1265 9.26278C62.1754 9.29528 62.2449 9.3418 62.3286 9.39852C62.4962 9.51214 62.7243 9.66921 62.9604 9.83993C63.1941 10.0089 63.4486 10.2007 63.6646 10.3819C63.7721 10.4722 63.8815 10.5695 63.978 10.6671C64.0565 10.7463 64.1778 10.8765 64.272 11.0382L64.2739 11.0391C64.5274 11.0869 64.7076 11.2143 64.8179 11.3145L64.9048 11.4015L65.0112 11.5284C65.2468 11.8332 65.3989 12.1919 65.4839 12.4141C65.539 12.5583 65.5813 12.6879 65.6099 12.7813C65.6173 12.8055 65.6237 12.8281 65.6294 12.8477L65.9917 13.6251C66.0243 13.5765 66.0623 13.5262 66.105 13.4776C66.1938 13.3766 66.4727 13.0892 66.9341 13.0841C67.4526 13.0786 67.7487 13.4216 67.8569 13.5821C67.9709 13.7513 68.0304 13.9307 68.0649 14.0538L68.1011 14.2286C68.1245 14.3987 68.1143 14.5517 68.1069 14.6407C68.0944 14.7905 68.0695 14.9499 68.0405 15.0997C67.9822 15.4012 67.8946 15.742 67.8091 16.0499C67.7226 16.3614 67.6327 16.6575 67.5649 16.8741C67.5465 16.933 67.528 16.9868 67.5132 17.0333L67.6001 17.9542L67.6118 18.0841L67.5903 18.213L67.5063 18.711L67.6001 19.7042L67.7046 20.8292L67.7134 20.922L67.7046 21.0147L67.6001 22.1397L67.5649 22.5128L67.5356 22.5401L67.4683 23.2647L67.3638 24.3897L67.2583 25.5147L67.2554 25.5518L67.2495 25.589L67.0581 26.714L66.9741 27.212L66.6616 27.3692C66.7734 27.5016 66.9078 27.6446 67.0659 27.8126C67.2185 27.9747 67.3958 28.1634 67.5522 28.3497C67.7029 28.5291 67.8804 28.7605 68.0034 29.0167L68.0903 29.2247C68.1664 29.4403 68.2064 29.6764 68.1812 29.9308C68.149 30.2533 68.0207 30.5022 67.9312 30.6563C67.7369 30.9905 67.6386 31.0781 67.5249 31.3936L67.0054 33.0069L66.9644 33.1339L66.8911 33.2462L65.4224 35.4962L64.7427 36.5352C64.7353 36.5536 64.7283 36.5752 64.7192 36.5968C64.6763 36.6989 64.6129 36.8402 64.5317 36.9942C64.4104 37.2244 64.1808 37.6206 63.8296 37.9132L63.6714 38.0313C63.2091 38.3397 62.8437 38.6437 62.5972 38.8683C62.4744 38.98 62.3813 39.0722 62.3218 39.1329C62.2925 39.1628 62.2711 39.1856 62.2583 39.1993C62.2524 39.2057 62.2477 39.2107 62.2456 39.213L62.2358 39.2237L62.2251 39.2354H62.2241L62.2231 39.2374C62.222 39.2385 62.22 39.2405 62.2183 39.2423C62.2142 39.2466 62.208 39.2531 62.2007 39.2608C62.1851 39.2772 62.1618 39.3014 62.1333 39.3311C62.076 39.3911 61.9946 39.4764 61.8979 39.5763L61.1968 40.2862C61.0479 40.4332 60.797 40.6784 60.5854 40.8849C60.4796 40.9882 60.3824 41.0829 60.312 41.1515C60.2878 41.1751 60.2658 41.1962 60.2485 41.213C60.2421 41.2213 60.2354 41.2311 60.228 41.2403C60.1777 41.3034 60.107 41.3878 60.0132 41.4903C59.872 41.6446 59.678 41.8413 59.4214 42.0714L59.1431 42.3126C59.1389 42.3167 59.1243 42.3312 59.1001 42.3595C59.0682 42.3968 59.0286 42.4467 58.9839 42.5089C58.8936 42.6343 58.7971 42.7859 58.7056 42.9386C58.615 43.0896 58.5346 43.2334 58.4771 43.339C58.4486 43.3912 58.4258 43.4343 58.4106 43.463C58.4032 43.4771 58.3976 43.4883 58.394 43.4952C58.3925 43.4981 58.3909 43.5006 58.3901 43.502L58.3892 43.504L58.2397 43.795L57.9468 43.9415L56.9976 44.4151C56.971 44.4322 56.9366 44.4549 56.896 44.4796C56.8024 44.5364 56.6701 44.6124 56.5161 44.6895C56.3343 44.7806 56.0473 44.91 55.7222 44.9854C55.7036 45.14 55.675 45.3653 55.6187 45.5714C55.5487 45.8269 55.4129 46.1644 55.1196 46.4454L54.9839 46.5616C54.5553 46.8915 53.9938 46.9722 53.6177 47.0001C53.1898 47.0317 52.7282 47.0097 52.3257 46.9727C51.9176 46.9353 51.5377 46.8798 51.2622 46.8341C51.1693 46.8186 51.0872 46.8026 51.019 46.7901L49.2222 47.2013L49.1226 47.2247L49.02 47.2267H49.0142C49.008 47.2268 48.9974 47.2271 48.9839 47.2276C48.9561 47.2286 48.913 47.2305 48.8589 47.2335C48.7497 47.2396 48.5945 47.2504 48.4175 47.2696C48.1397 47.2997 47.8409 47.3469 47.5815 47.4142L47.3374 47.4884C46.4236 47.8159 45.6724 47.3286 45.4419 47.2091C45.2771 47.1237 45.2238 47.1084 45.1997 47.1046C45.196 47.104 45.196 47.1036 45.1958 47.1036L45.1333 47.127C44.457 47.4534 43.6332 47.4192 43.1382 47.3683C42.8614 47.3397 42.616 47.2978 42.4409 47.2628C42.3761 47.2498 42.3197 47.237 42.2739 47.2267H40.2583L39.0376 47.6671L38.2505 47.9513L37.8325 47.2257V47.2276C37.8325 47.2275 37.8321 47.2266 37.8315 47.2257C37.8304 47.2237 37.8287 47.2199 37.8257 47.2149C37.8193 47.2042 37.8082 47.1865 37.7944 47.1642C37.7668 47.1192 37.726 47.0537 37.6753 46.9776C37.5914 46.8517 37.4871 46.7106 37.3804 46.5811C37.2838 46.6617 37.1871 46.7379 37.1011 46.7999C36.9903 46.8797 36.8866 46.9487 36.812 46.9972C36.7745 47.0215 36.7427 47.0416 36.7202 47.0558C36.7092 47.0627 36.6995 47.0692 36.6929 47.0733C36.6899 47.0751 36.687 47.077 36.6851 47.0782L36.6821 47.0792L36.6812 47.0802C36.6801 47.0786 36.6672 47.0576 36.4995 46.7823V46.7833L36.6802 47.0811L36.6743 47.085C36.6164 47.1197 36.5573 47.1493 36.4995 47.1759V47.3868L37.0796 49.1427L37.6499 50.1612C37.9165 50.2185 38.2861 50.3001 38.7173 50.4044C39.6048 50.619 40.7751 50.932 41.8677 51.3165C42.916 51.6854 44.0513 52.1724 44.7407 52.7921C45.0849 53.1015 45.4862 53.5948 45.4927 54.2628C45.4984 54.8777 45.1709 55.3552 44.7769 55.7022L44.605 55.8429C44.1005 56.2261 43.5722 56.3196 43.0933 56.2852C42.6999 56.2569 42.2588 56.1246 42.0425 56.0724C41.767 56.0058 41.5764 55.9815 41.396 56.004C41.2531 56.0219 41.0631 56.0767 40.813 56.2511L40.7017 56.3331C40.307 56.6431 39.8624 56.7618 39.5005 56.8097C39.1433 56.8568 38.7867 56.8443 38.5337 56.835C38.376 56.8293 38.2646 56.826 38.1831 56.8253C37.9747 57.0472 37.7246 57.1559 37.5864 57.2042C37.342 57.2895 37.0759 57.3259 36.8472 57.3438C36.3791 57.3804 35.8226 57.3552 35.3228 57.3136C34.8126 57.271 34.3151 57.2074 33.9487 57.1554C33.7648 57.1292 33.611 57.1051 33.5034 57.088C33.4714 57.0829 33.4431 57.0782 33.4194 57.0743H12.1265L10.9761 57.047H10.2681C10.2368 57.0648 10.2031 57.0847 10.1675 57.1046C9.96594 57.2168 9.68663 57.3661 9.40576 57.4923C9.1667 57.5997 8.78221 57.7587 8.42334 57.7843C8.27567 57.7947 7.80165 57.811 7.44092 57.4229C7.43778 57.4196 7.43521 57.4156 7.43213 57.4122C7.23408 57.5052 7.03155 57.6091 6.86377 57.7022C6.7598 57.7599 6.67144 57.8112 6.61084 57.8468C6.58111 57.8642 6.55772 57.8786 6.54248 57.8878C6.53501 57.8922 6.52829 57.8955 6.5249 57.8975C6.52381 57.8982 6.52254 57.8992 6.52197 57.8995H6.521L6.52197 57.9005L6.34619 58.0079L6.14209 58.0372L5.99951 57.047L6.14111 58.0372H6.13721C6.13521 58.0376 6.13233 58.0387 6.12939 58.0392C6.12277 58.04 6.11289 58.0407 6.10205 58.0421C6.07988 58.045 6.04842 58.0493 6.01025 58.0538C5.93332 58.0628 5.82502 58.0744 5.69482 58.085C5.43569 58.1063 5.07607 58.1252 4.68994 58.1143C4.3113 58.1037 3.86309 58.0631 3.44385 57.9454C3.09746 57.8481 2.64747 57.6642 2.31201 57.2872L2.17529 57.1134C1.66773 56.3739 1.38247 55.4875 1.22314 54.8409C1.14119 54.5083 1.08772 54.2167 1.0542 54.0069C1.03744 53.902 1.02493 53.816 1.01709 53.755C1.01319 53.7246 1.01034 53.6995 1.0083 53.6817C1.00731 53.6731 1.00692 53.6657 1.00635 53.6602C1.00608 53.6578 1.00558 53.6552 1.00537 53.6534V53.6505L1.00439 53.6495C1.00437 53.6493 1.00518 53.6486 1.99951 53.547L1.00439 53.6485L0.943848 53.0499L1.44482 52.7149L2.94482 51.7149L3.16357 51.5694L3.42529 51.5499L3.49951 52.547L3.42627 51.5499H3.42725C3.42818 51.5498 3.43051 51.5491 3.43213 51.5489C3.43538 51.5487 3.44027 51.5483 3.4458 51.5479C3.45798 51.5471 3.47642 51.5464 3.49854 51.545C3.54308 51.5421 3.60766 51.5377 3.68701 51.5333C3.84595 51.5246 4.06947 51.5139 4.32666 51.5069C4.71929 51.4963 5.21424 51.4935 5.69287 51.5206C5.71926 51.4781 5.75107 51.4296 5.78174 51.3741C5.86279 51.2273 5.93642 51.0728 5.99072 50.9522C5.99377 50.9455 5.99663 50.9382 5.99951 50.9317V49.8849L6.05127 49.7306L6.49951 48.3858V45.547C6.49883 45.1977 6.63095 44.8826 6.854 44.6436C7.05354 44.4303 7.28859 44.3165 7.45557 44.253C7.71769 44.1535 8.02321 44.1062 8.24072 44.0753C8.10703 43.841 7.94113 43.5754 7.7583 43.297C7.52203 42.9371 7.30281 42.6189 7.0874 42.295C6.95002 42.0884 6.79498 41.8527 6.68115 41.6446L6.5835 41.4474C6.35855 40.9327 6.44081 40.4281 6.56299 40.0724C6.68616 39.7141 6.88613 39.3963 7.06299 39.1554C7.24481 38.9078 7.43458 38.6966 7.57568 38.5509C7.61354 38.5118 7.64989 38.4771 7.68115 38.4464L8.60498 36.5997L9.57471 34.6602L10.0513 33.2306L10.6216 31.2852L9.15771 28.2267H7.53271L7.52588 27.2335L7.51318 25.5636C7.50318 25.5353 7.491 25.5048 7.47998 25.4718C7.42443 25.3052 7.35411 25.0671 7.30518 24.8038C7.25812 24.5504 7.22031 24.2153 7.26611 23.8741C7.31209 23.5325 7.46253 23.0617 7.90576 22.7345L8.021 22.6573C8.2927 22.4923 8.5768 22.4337 8.79053 22.4122C8.80827 22.4104 8.82662 22.4096 8.84424 22.4083L8.83936 21.7022L8.82666 19.8585L8.81299 18.0147L8.80127 16.3438C8.79134 16.3154 8.77998 16.2843 8.76904 16.2511C8.71467 16.0858 8.6459 15.8505 8.59814 15.589C8.55207 15.3365 8.51504 15.0052 8.55908 14.6671C8.60306 14.3302 8.74626 13.8684 9.16846 13.5352C9.10464 13.5856 9.17685 13.5473 9.29346 13.2149C9.39152 12.9353 9.47639 12.5795 9.54541 12.2091C9.61337 11.8442 9.66092 11.4911 9.69189 11.2276C9.70727 11.0968 9.71802 10.9887 9.7251 10.9151C9.72859 10.8788 9.73129 10.8505 9.73291 10.8321C9.73369 10.8232 9.7345 10.8158 9.73486 10.8116V10.8067C9.73525 10.8002 9.73624 10.7914 9.73682 10.7813C9.73845 10.752 9.74111 10.7081 9.74365 10.6534C9.74876 10.5432 9.75386 10.3879 9.75732 10.213C9.76271 9.94067 9.76194 9.64541 9.74658 9.39462L9.72607 9.16122C9.67902 8.7658 9.66146 8.44408 9.69775 8.17977C9.71812 8.03201 9.7582 7.87792 9.8335 7.72665C9.85156 7.69042 9.87057 7.65633 9.88916 7.62606L9.85693 7.25888C9.83853 7.10439 9.8083 7.14191 9.63721 6.76181C9.60504 6.69031 9.53832 6.5332 9.51807 6.337C9.4942 6.10452 9.53571 5.79374 9.75732 5.51864C9.95051 5.27911 10.194 5.17817 10.3345 5.1329C10.4832 5.08503 10.6324 5.06361 10.7544 5.05184L10.9224 5.0411C11.1887 5.03371 11.4302 5.07056 11.6304 5.11923L12.0229 4.76962L12.3071 4.51571H13.73C13.7155 4.40308 13.7055 4.28556 13.7085 4.1661C13.7176 3.81157 13.8303 3.30149 14.2925 2.94149L14.4067 2.86044C14.6765 2.68828 14.9609 2.62748 15.1714 2.60556C15.4196 2.57979 15.6561 2.59926 15.8384 2.62509C16.0253 2.6516 16.1901 2.69057 16.3062 2.72177C16.3165 2.72455 16.3267 2.72786 16.3364 2.73056H18.1724L18.4409 2.2452L18.7271 1.73056H20.1851C20.2041 1.71275 20.2224 1.69231 20.2427 1.67392C20.4421 1.4933 20.8087 1.18714 21.2339 1.0372L21.4038 0.986415C21.8035 0.884753 22.2187 0.901391 22.4653 0.920985ZM36.7358 15.0421C36.5167 14.9727 36.047 14.8068 35.5962 15.088L35.5063 15.1505C35.1199 15.4472 35.007 15.8213 34.9683 16.1515C34.9509 16.2997 34.9462 16.4632 34.9399 16.585C34.9365 16.6517 34.9323 16.7144 34.9263 16.7745L34.9009 16.9503C34.7935 17.4942 34.7565 17.8889 34.7778 18.2091C34.8003 18.5462 34.8852 18.7761 34.9751 18.9786C35.0615 19.1732 35.1293 19.2996 35.1899 19.5186C35.2494 19.7337 35.3028 20.0472 35.311 20.5548L35.3101 20.7843C35.2994 21.2868 35.2239 21.5559 35.1479 21.6993C35.0793 21.8287 34.9998 21.8796 34.8696 21.921C34.7905 21.9461 34.7044 21.963 34.5835 21.9874C34.473 22.0097 34.3282 22.039 34.1851 22.088C33.9068 22.1833 33.6306 22.3551 33.4341 22.6876L33.355 22.8399C32.9404 23.7546 32.8675 24.9828 32.8813 25.9229C32.8884 26.4042 32.9188 26.8328 32.9478 27.1407C32.9622 27.2946 32.9763 27.4192 32.9868 27.5059C32.9921 27.5494 32.9964 27.584 32.9995 27.6075C33.0011 27.6191 33.0025 27.6285 33.0034 27.6349C33.0038 27.6379 33.0041 27.6409 33.0044 27.6427V27.6456L33.0718 28.1075L33.5347 28.0724V28.0733H33.5415C33.5566 28.0736 33.5831 28.0745 33.6157 28.0792C33.6828 28.0888 33.766 28.1114 33.8452 28.1573C33.9661 28.2274 34.1929 28.4158 34.1929 29.047V30.0743C34.193 30.2341 34.2631 30.3523 34.3208 30.421C34.3761 30.4868 34.4365 30.5289 34.4761 30.5528C34.5552 30.6007 34.6412 30.632 34.7065 30.6524C34.8445 30.6956 35.0213 30.7309 35.2075 30.7618C35.5867 30.8247 36.0869 30.8803 36.5884 30.9259C37.5871 31.0165 38.6542 31.0743 38.8882 31.0743C39.2847 31.0743 39.6158 30.8508 39.853 30.6427C40.1021 30.4242 40.3366 30.1429 40.5405 29.8829L40.6421 29.7462C41.1244 29.0674 41.2316 28.4093 41.4595 27.7345L41.5728 27.3829C42.1038 25.6609 42.1017 24.4299 42.3208 22.6349L42.3472 22.3897C42.3975 21.8351 42.3749 21.3881 42.3042 20.9981C42.2236 20.5542 42.084 20.2048 41.9526 19.8907C41.7024 19.2924 41.45 18.7525 41.4858 17.5899L41.4897 17.2061C41.488 17.0962 41.483 17.004 41.4731 16.9308C41.4679 16.8917 41.4596 16.8436 41.4448 16.794C41.4333 16.7554 41.4017 16.6594 41.3218 16.5704C41.277 16.5206 41.2067 16.461 41.106 16.4259C41.0005 16.3891 40.8945 16.3909 40.8032 16.4151C40.6461 16.4569 40.5561 16.5587 40.5288 16.5909C40.4631 16.6684 40.4218 16.7589 40.4019 16.8038C40.3917 16.8268 40.3824 16.8514 40.3726 16.8761C40.3308 16.8485 40.2796 16.8224 40.2173 16.8067C40.0623 16.7678 39.9245 16.8087 39.8315 16.8643C39.6909 16.9489 39.6324 17.0775 39.6245 17.0938C39.589 17.1672 39.5688 17.2482 39.5581 17.2931C39.5457 17.3448 39.5352 17.4098 39.522 17.4825C39.3972 17.1854 39.2343 16.9134 38.9849 16.587L38.6938 16.2257C38.32 15.7801 38.2235 15.5177 38.1597 15.3741C38.1449 15.3409 38.1098 15.2599 38.0552 15.1876C37.9841 15.0936 37.8527 14.9779 37.6509 14.9591C37.4952 14.9446 37.3694 14.998 37.3208 15.0196L37.145 15.1114C37.1009 15.1362 37.0548 15.1431 36.7358 15.0421Z" fill="#3AB7D0"/>
</svg>
