<svg width="55" height="38" viewBox="0 0 55 38" fill="none" xmlns="http://www.w3.org/2000/svg">
<path d="M20 10.0177C17.4545 10.0636 14.6259 6.45364 14.5 7.01774C14 9.25726 13.1527 7.03387 13 8.01774C12.7672 9.51774 13.7251 10.4555 12 13.5177C10.9806 15.3274 9.99998 7.70441 9.99998 12.0002C9.99998 15.3196 8.40252 17.6645 8.49994 20.9826C8.59753 24.3063 5.77069 19.1829 5.99981 22.5002C6.17524 25.04 3.94742 25.0002 3.5 26.5002C3.05258 28.0001 0.402394 30.651 0.49994 33.0002C0.59715 35.3414 1.0179 36.0823 2.4999 37.0179C3.66737 37.755 5.99981 37.5178 5.99981 37.5178C5.99981 37.5178 8.19635 37.5451 9.60336 37.5178C12.733 37.4573 17.6033 37.0179 17.6033 37.0179H28.1033H33.1033C33.1033 37.0179 35.7741 36.6023 37.4999 36.5002C39.2542 36.3965 41.1503 36.0889 43.4999 36.0002C45.4512 35.9266 46.6587 36.6501 48.5 36.0002C51.8195 34.8286 54.3928 37.4942 54.5 33.0002C54.6304 27.5344 48.3965 25.9999 46.5 21.9999C44.9919 18.8192 40.4366 22.4031 40 20.4999C39.627 18.8738 41 15.9999 41 15.9999C41 15.9999 41.5 11.0465 41.5 10.4999C41.5001 9.49987 41.5001 3.75514 41 3.5C40.6866 3.34009 37.4759 6.5453 36.5 6.51773C34.3441 6.45683 33.156 0.578555 31.0001 0.517654C27.8711 0.429263 27.5269 2.00616 24.3966 2.01763C21.0715 2.02981 23.3247 9.95783 20 10.0177Z" fill="#3AB7D0"/>
</svg>
