<svg width="60" height="31" viewBox="0 0 60 31" fill="none" xmlns="http://www.w3.org/2000/svg">
<path d="M14.4965 20.3393C15.47 18.3584 15.7083 14.8749 13.8613 14.3392C11.3593 13.6136 6.49658 16.8392 5.86133 14.8392C5.25588 12.9331 5.69157 11.0966 5.69157 9.33923C5.69157 7.20835 6.50935 5.50159 6.81937 4.85454L6.8267 4.83925C7.13094 4.20413 8.11776 2.82738 8.99645 2.33923C9.77575 1.9063 14.4965 1.83923 14.4965 1.83923C17.9264 1.83905 17.6371 1.31177 20.6317 0.339232C23.6262 -0.63331 26.3554 0.846571 31.9965 0.339273C39.311 -0.318511 33.007 2.9048 38.7704 1.83922C41.9891 1.24413 48.3305 0.505242 48.7704 0.839165L52.1006 0.839124C53.8834 0.839124 56.2154 0.908682 56.8613 3.83922C57.5338 6.89018 60.4841 12.0321 58.3613 14.3393C56.3738 16.4995 55.664 11.212 52.8613 10.3393C50.7917 9.69483 49.7114 12.6028 47.8613 13.3393C45.9892 14.0845 43.8613 13.3393 43.8613 15.8393C43.8613 17.9257 45.4175 17.6062 45.3613 20.3393C45.281 24.2486 49.8613 22.8393 49.8613 22.8393C49.8613 22.8393 55.9585 25.4981 55.8613 27.8392C55.7638 30.1885 54.1041 28.9254 52.8613 29.3392C51.729 29.7163 51.048 29.7952 49.8613 29.9224C48.374 30.0819 47.531 28.9224 46.031 29.9224C44.8595 30.7035 43.2536 29.7238 42.031 30.4224C41.7606 30.5769 40.5278 30.2521 38.7704 30.4473C37.0131 30.6426 35.7884 30.2271 34.0311 30.4223C32.2737 30.6176 25.0311 30.4223 25.0311 30.4223L19.1664 30.4223C17.9314 30.4223 15.8265 31.1123 14.4965 30.4473C13.4965 29.9473 12.6748 30.8936 11.8613 30.3392C10.0864 29.1297 9.11854 30.3169 7.36133 30.3392C5.66989 30.3607 4.68513 30.8019 3.03113 30.4473C-3.41725 29.065 2.31789 27.2022 3.03114 25.3392C3.80443 23.3194 4.32743 24.0175 5.69157 22.3392C6.50439 21.3392 8.4871 21.2344 10.3613 20.8392C11.953 20.5037 13.4558 22.4567 14.4965 20.3393Z" fill="#3AB7D0"/>
</svg>
