<svg width="56" height="16" viewBox="0 0 56 16" fill="none" xmlns="http://www.w3.org/2000/svg">
<path d="M16.5533 8.85282C21.1011 8.36121 18.4951 8.30154 23.4314 8.21391C27.5747 8.14036 20.7446 4.13198 24.8885 4.13198C29.8218 4.13198 31.8841 6.14055 31.8841 6.14055C31.8841 6.14055 34.0487 2.59358 38.0001 2.63195C38.9867 2.64153 42.5818 3.31734 43.511 3.64022C44.181 3.87306 48.9927 -0.524791 49.2177 0.131953C49.723 1.60686 51.7879 -0.399237 53.0001 0.131957C57.2981 2.01548 54.1167 3.00023 54.5001 6.00023C55.1085 10.7612 50.8264 6.69037 50.0001 7.00023C46.0001 8.50023 42.5001 4.5002 40.5001 5.50023C39.0774 6.2116 40.0892 7.92683 38.5001 8.00045C37.9484 8.02602 36.839 9.41544 35.9348 10.6642C37.0895 10.4782 38.1465 9.95132 38.5001 10.0005C42.0371 10.4921 41.6748 7.7396 44.7067 7.73952C46.2225 7.73947 49.5383 7.52963 50.5 9.00052C50.9884 9.74756 51.8414 8.81368 52.5001 9.24415C53.6148 9.97272 53.7065 8.84288 53.0001 12.6174C52.5736 14.8958 51.2037 12.4188 49.1535 13.5004C48.3894 13.9035 47.7789 13.8547 47.3064 13.6162C46.237 13.707 45.0001 13.5004 45.0001 13.5004C45.0001 13.5004 43.3452 13.7052 42.0001 14.0004C40.973 14.2259 39.601 12.9329 39.0001 14C38.7014 14.5305 37.4404 13.9837 37.0477 14.4556C36.7975 14.7563 33.5107 14.4556 33.5107 14.4556C33.5107 14.4556 31.6604 14.3806 30.4789 14.4556C29.0865 14.5439 28.3356 14.8826 26.9418 14.9472C24.1543 15.0764 23.6675 14.5404 20.8782 14.4556C20.0892 14.4316 18.6353 14.4316 17.8464 14.4556C15.0571 14.5404 14.0105 15.1864 13 14.9472C12.3937 14.8037 10.114 15.0491 9.50002 14.9472C8.82338 14.8349 8.18232 15.5712 7.50008 15.5005C6.70329 15.4179 6.77924 15.6865 6.00008 15.5005C5.21703 15.3135 4.30363 15.5495 3.50008 15.5005C2.08589 15.4141 0.0982892 16.7576 4.99461e-05 14.4556C-0.0985299 12.1456 2.50006 10.0005 2.50006 10.0005C2.50006 10.0005 5.22399 10.4861 4.91853 8.00045C4.82471 7.23691 5.34455 8.23887 5.63128 8.96722C6.15171 9.19646 7.21696 9.62065 8.12195 8.5002C9.26898 7.08009 10.6719 11.4965 12.0533 10.475C12.6035 10.0681 11.7755 9.74197 13 9.00052C14.6516 8.00052 15.9331 8.91986 16.5533 8.85282Z" fill="#3AB7D0"/>
</svg>
