<svg width="98" height="18" viewBox="0 0 98 18" fill="none" xmlns="http://www.w3.org/2000/svg">
<path d="M50.7266 0.394897C51.6907 0.330506 52.6689 0.301434 54.0714 0.505249L55.421 0.704468C56.6673 0.895788 57.6799 1.09063 59.1407 1.52087L59.8663 1.73669C61.4804 2.2254 62.5999 2.6362 64.2452 3.56482L64.4659 3.67908C64.6237 3.7527 64.7065 3.76846 64.7393 3.77185C64.7465 3.76681 64.7582 3.75923 64.7745 3.74744C64.8103 3.7214 64.9045 3.65121 65.0294 3.60876C65.1725 3.56023 65.3222 3.55728 65.4737 3.59509C65.7309 3.65934 66.0028 3.84677 66.3233 4.11853L66.4122 4.18884C66.6268 4.34298 66.8894 4.44121 67.2042 4.5072C67.5724 4.58439 67.9657 4.60936 68.4073 4.64685C69.2206 4.71591 70.2777 4.81982 70.9083 5.7113L70.9903 5.8197C71.1753 6.04823 71.3151 6.10734 71.4073 6.1283C71.5497 6.16063 71.6859 6.13559 71.9688 6.09412C72.2175 6.05766 72.5892 6.01002 72.9756 6.18884C73.3628 6.3681 73.673 6.72805 73.9473 7.27673L73.9669 7.30701C73.9676 7.30723 73.9687 7.30861 73.9698 7.30896C73.9736 7.30993 73.9804 7.31091 73.9893 7.31189C74.0085 7.31395 74.0379 7.31418 74.0792 7.30994C74.2739 7.28981 74.5294 7.19484 74.8975 7.05603C75.2284 6.93127 75.6446 6.77502 76.0518 6.73083C76.4802 6.68443 76.9624 6.75565 77.3536 7.14685L77.4229 7.21033C77.7774 7.50753 78.28 7.53036 79.0176 7.52283C79.376 7.51917 79.7945 7.51171 80.1866 7.57849C80.591 7.64745 81.008 7.80129 81.3536 8.14685L81.4903 8.27576C82.1953 8.91143 83.2193 9.36481 84.126 9.71912C84.584 9.89806 85.0399 10.0619 85.3428 10.2006C85.4885 10.2673 85.6578 10.353 85.7823 10.4633C85.8445 10.5184 85.9404 10.6188 85.9883 10.7689C86.0094 10.835 86.0177 10.9014 86.0157 10.9662C86.1631 10.8844 86.3168 10.7963 86.4747 10.7025C87.0535 10.3585 87.6982 9.9445 88.2188 9.68591C88.4788 9.55682 88.7557 9.44086 89.0128 9.3988C89.2343 9.36263 89.5499 9.3679 89.794 9.58533L89.8936 9.69177L89.9161 9.71619C89.9449 9.74027 90.0002 9.75997 90.1485 9.74158C90.3774 9.71314 90.6511 9.61455 91.045 9.48572C91.7513 9.25473 92.8044 8.93571 93.7774 9.58435C94.6384 10.1585 95.3121 11.1966 95.8165 12.1449C96.0741 12.6292 96.2975 13.1115 96.4864 13.5297C96.6795 13.9571 96.8282 14.2983 96.9473 14.5365C97.0008 14.6435 97.0493 14.7843 97.0421 14.9447C97.034 15.1212 96.9598 15.2782 96.8399 15.3949C96.6402 15.589 96.3594 15.6298 96.1895 15.6439C95.8023 15.676 95.2608 15.6099 94.7393 15.5326C94.1849 15.4504 93.6365 15.3521 93.1309 15.2865C92.8837 15.2544 92.6644 15.2327 92.4825 15.226C92.387 15.2224 92.3107 15.2233 92.252 15.2269L92.126 15.2445C91.9387 15.2932 91.7377 15.2902 91.5606 15.2738C91.3773 15.2568 91.1811 15.2205 90.9874 15.1771C90.6089 15.0924 90.1678 14.9634 89.8057 14.8685C89.4416 14.7731 89.1584 14.7149 88.9688 14.7064C88.9208 14.8671 88.82 14.9976 88.6915 15.0873C88.5394 15.1933 88.3638 15.2359 88.2315 15.2572C87.9638 15.3003 87.6276 15.2898 87.3487 15.2806C87.0417 15.2706 86.7766 15.2607 86.5674 15.2806C86.4794 15.2891 86.423 15.3017 86.3907 15.3119C86.173 15.6358 85.8353 15.749 85.5411 15.765C85.2422 15.7812 84.935 15.7071 84.6876 15.6244C84.4321 15.539 84.1964 15.4302 84.0284 15.3451C84.0007 15.3311 83.9755 15.3159 83.9512 15.3031L81.1583 16.2347L81.0811 16.2601H77.0284L72.5547 16.7572L72.4649 16.767L72.378 16.7445L67.5508 15.5277C67.5102 15.5466 67.4634 15.5701 67.4102 15.5941C67.2192 15.6805 66.9513 15.7976 66.6436 15.9183C66.1156 16.1256 65.4345 16.3595 64.8135 16.4623L64.5508 16.4974C64.0489 16.5494 63.6701 16.6011 63.1426 16.5297L62.9063 16.4916C62.1715 16.3521 61.3075 16.2281 60.6231 16.139C60.5412 16.1284 60.4618 16.1184 60.3858 16.1088C60.3499 16.185 60.3017 16.2493 60.2481 16.2982C60.1051 16.4283 59.9221 16.4749 59.796 16.4974C59.5872 16.5347 59.2931 16.545 58.8946 16.5267L58.46 16.4984C58.1318 16.4724 57.8677 16.3835 57.6602 16.2748C57.6527 16.2826 57.6466 16.2926 57.6387 16.3002C57.552 16.3834 57.4291 16.4673 57.2686 16.5033C57.1035 16.5402 56.9392 16.5178 56.7911 16.4554C56.5889 16.3702 56.4102 16.2081 56.2452 16.0004L56.084 15.7777C56.0313 15.6986 55.9259 15.6331 55.5704 15.6088C55.4885 15.6032 55.4026 15.6002 55.3077 15.597C55.2153 15.5939 55.1126 15.5903 55.0108 15.5844C54.8598 15.5755 54.6905 15.5605 54.5196 15.5228L54.3487 15.4769C54.2929 15.4592 54.2273 15.4446 54.1241 15.4213C54.0309 15.4002 53.9099 15.3727 53.7891 15.3314C53.631 15.2773 53.4474 15.1903 53.2881 15.0404C53.2134 15.11 53.0948 15.2255 53.0206 15.2885C52.971 15.3305 52.8958 15.3898 52.8096 15.434C52.7609 15.4589 52.5685 15.5538 52.3477 15.4779L52.252 15.434L52.2501 15.433L52.2237 15.4476L51.1182 16.0004H50.9883C50.9788 16.0005 50.9635 16.0008 50.9444 16.0013C50.906 16.0025 50.8508 16.0046 50.7862 16.0092C50.7436 16.0122 50.6982 16.0169 50.6524 16.0219C50.6999 16.061 50.741 16.1 50.7755 16.1361C50.8071 16.1694 50.8554 16.2237 50.8936 16.2924C50.9094 16.3208 50.951 16.3996 50.961 16.5072C50.9664 16.5662 50.9648 16.6578 50.9219 16.7572C50.8753 16.865 50.7946 16.95 50.6983 17.0023C50.5353 17.0908 50.3817 17.0613 50.3458 17.0541C50.2879 17.0425 50.2412 17.0227 50.213 17.0101C50.1834 16.997 50.1539 16.9823 50.126 16.9662L50.046 16.9164C49.8855 16.8094 49.747 16.7023 49.6348 16.5931C49.5258 16.5608 49.4168 16.5489 49.3135 16.5648C49.2216 16.579 49.1133 16.6183 48.9952 16.7152L48.8731 16.8324C48.7899 16.9258 48.6804 17.0093 48.5421 17.0551C48.4023 17.1012 48.2655 17.0985 48.1465 17.0707C47.9296 17.0199 47.7592 16.8824 47.6475 16.7777C47.4717 16.6129 47.2947 16.3796 47.1475 16.182C47.1374 16.2371 47.1263 16.2895 47.1124 16.3383C47.0725 16.4776 46.9886 16.6889 46.7794 16.8168C46.5494 16.9571 46.3177 16.9105 46.1934 16.8695C46.0723 16.8296 45.9538 16.7623 45.8731 16.7162C45.5568 16.5356 45.2588 16.3545 44.8438 16.4271L44.6583 16.475C44.3986 16.5615 44.1359 16.5486 43.9102 16.4056C43.8549 16.3705 43.8079 16.3286 43.7667 16.2875C43.4598 16.4955 43.0872 16.6045 42.8233 16.6625C42.6434 16.702 42.4794 16.7255 42.3614 16.7396C42.3023 16.7467 42.2535 16.7513 42.2188 16.7543C42.2017 16.7558 42.1878 16.7575 42.1778 16.7582C42.1728 16.7585 42.1681 16.759 42.1651 16.7592H42.1592L42.0919 16.7631L42.0264 16.7494L38.4659 16.0033L32.0479 16.4974L32.046 16.4984C32.0434 16.4987 32.039 16.4989 32.0342 16.4994C32.0245 16.5003 32.0099 16.5015 31.9913 16.5033C31.9534 16.507 31.8973 16.5121 31.8253 16.5189C31.6809 16.5327 31.4706 16.553 31.2081 16.5765C30.6827 16.6236 29.9453 16.6857 29.0987 16.7484C27.4081 16.8736 25.2686 17.0004 23.5001 17.0004C23.0852 17.0003 22.631 16.84 22.3243 16.7113C22.1619 16.6431 22.0212 16.5746 21.921 16.5238C21.9049 16.5157 21.89 16.5076 21.876 16.5004H17.5411C17.5346 16.5015 17.5274 16.5029 17.5196 16.5043C17.4769 16.5116 17.4141 16.5219 17.334 16.5355C17.1735 16.5629 16.9426 16.6028 16.6622 16.6498C16.1013 16.7437 15.34 16.8692 14.5401 16.9945C13.7407 17.1197 12.8997 17.2447 12.1797 17.3392C11.4722 17.4321 10.8472 17.5003 10.5001 17.5004C10.017 17.5004 9.10331 17.6023 8.19147 17.6586C7.75765 17.6853 7.32676 17.7013 6.99127 17.6791C6.82747 17.6682 6.65393 17.646 6.50494 17.598C6.42408 17.572 6.22269 17.4982 6.09869 17.3119C6.06302 17.3013 6.01322 17.2888 5.94733 17.2758C5.72072 17.2309 5.40679 17.199 5.05963 17.1713C4.73362 17.1453 4.34631 17.1209 4.06061 17.0961C3.91193 17.0832 3.76954 17.0686 3.64948 17.0502C3.57483 17.0387 3.47099 17.0207 3.37213 16.9867L3.27643 16.9476C2.77999 16.6994 2.35941 16.5093 1.98639 16.3304C1.63297 16.1609 1.30392 15.9927 1.06744 15.808C0.82745 15.6205 0.573063 15.3271 0.611389 14.9037C0.644195 14.5425 0.886568 14.235 1.14655 13.975L2.64655 12.475L3.19635 11.9301C3.32346 11.8091 3.4361 11.7094 3.56061 11.6351C3.69353 11.5559 3.81625 11.5197 3.91901 11.4896C4.02184 11.4595 4.14112 11.4259 4.32916 11.3578L4.62604 11.2592C4.71525 11.2325 4.79558 11.2121 4.86725 11.1986C4.93893 11.1851 5.01954 11.1753 5.10162 11.1781C5.17908 11.1807 5.30242 11.1956 5.42291 11.2719C5.54468 11.349 5.61959 11.463 5.65631 11.5824C5.7118 11.5655 5.77421 11.5483 5.84186 11.5258L6.02936 11.472C6.95185 11.2546 7.62021 11.7676 8.0694 12.0824C8.33416 12.268 8.52376 12.3919 8.71198 12.4486C8.86784 12.4955 9.03825 12.5003 9.27643 12.3812L9.41412 12.3207C10.1038 12.0559 10.7843 12.366 11.1436 12.5052C11.3613 12.5896 11.4736 12.6215 11.5391 12.6273C11.5421 12.622 11.5471 12.6163 11.5508 12.6088L11.671 12.3812C11.9615 11.8772 12.3225 11.5531 12.7813 11.4623C13.2716 11.3654 13.7205 11.5741 14.0313 11.7416C14.1853 11.8245 14.3674 11.9342 14.4932 12.0052C14.6368 12.0863 14.7531 12.1447 14.8536 12.1801C14.9528 12.2149 15.0092 12.2164 15.0381 12.2123C15.0567 12.2096 15.0912 12.2021 15.1465 12.1469C15.4687 11.8247 15.8111 11.6769 16.1436 11.6302C16.4503 11.5873 16.7398 11.6359 16.8956 11.6547C16.9285 11.6586 16.9557 11.6586 16.9776 11.6605C16.9858 11.6194 16.9959 11.5586 17.001 11.4711L17.0098 11.3822C17.0399 11.1783 17.1334 10.986 17.3106 10.8461C17.4932 10.702 17.7069 10.6604 17.8692 10.6488C18.1816 10.6266 18.5607 10.7048 18.8399 10.7592C19.141 10.8178 19.3599 10.854 19.5118 10.8519C19.5518 10.5247 19.6585 10.2504 19.8243 10.017C20.0033 9.76496 20.2317 9.58925 20.4473 9.45056C20.5551 9.38122 20.6674 9.31649 20.7725 9.25623C20.8807 9.19422 20.9825 9.13622 21.085 9.07361C21.2872 8.95012 21.4755 8.8179 21.6465 8.64685L21.834 8.46814C22.0187 8.30357 22.1979 8.18096 22.3848 8.12341C22.7004 8.02644 22.9389 8.14226 23.044 8.1908C23.1352 8.23287 23.1578 8.24231 23.213 8.24158C23.286 8.24054 23.4523 8.21512 23.7764 8.0531L24.0919 7.90173C24.3836 7.76923 24.6046 7.69156 24.7745 7.65466C24.7887 7.65158 24.8037 7.65054 24.8184 7.64783C24.8853 7.53151 24.9718 7.3914 25.084 7.22302L25.2071 7.03748L25.4249 7.00525V7.00623C25.4261 7.00602 25.4292 7.00512 25.4337 7.00427C25.4434 7.00245 25.4602 6.99879 25.4825 6.99353C25.5277 6.98285 25.5944 6.96515 25.671 6.93689C25.8291 6.87846 26.008 6.78535 26.1465 6.64685L26.2637 6.53455C26.3791 6.42998 26.4903 6.3472 26.6046 6.29236C26.7927 6.20217 26.9466 6.20636 27.045 6.21521C27.0678 6.20172 27.1115 6.17346 27.1797 6.11658C27.3292 5.992 27.5402 5.90615 27.7208 5.84412C27.9195 5.77587 28.1583 5.71186 28.4141 5.65173C28.9272 5.53115 29.5472 5.41877 30.1397 5.32361C30.7341 5.22815 31.3096 5.14815 31.7354 5.09216C31.9484 5.06416 32.125 5.04183 32.2481 5.02673C32.3093 5.01922 32.3577 5.01406 32.3907 5.01013C32.4071 5.00818 32.4201 5.00627 32.4288 5.00525C32.4329 5.00476 32.4363 5.00453 32.4385 5.00427C32.4396 5.00415 32.4408 5.0043 32.4415 5.00427V5.0033H32.4424L32.4708 5.00037H32.5001C33.3438 5.00036 33.9003 4.99035 34.2579 4.97791C34.2905 4.94612 34.3202 4.92431 34.3389 4.91248C34.3907 4.87976 34.437 4.86435 34.4581 4.85779C34.5019 4.8442 34.5381 4.83952 34.5489 4.83826C34.5757 4.83516 34.5972 4.83536 34.6026 4.83533C34.6173 4.83521 34.6293 4.83517 34.6329 4.83533C34.6641 4.83687 34.7257 4.84431 34.7833 4.85193L36.5391 5.00134L37.0469 5.03259C37.3193 5.04369 37.5295 5.04018 37.6885 5.02869C37.6649 5.00577 37.6405 4.98047 37.6133 4.95544C37.3957 4.75492 37.1221 4.5382 36.8253 4.29236C36.5416 4.05749 36.2371 3.79652 36.0079 3.53943C35.8928 3.41031 35.7815 3.26513 35.7012 3.10974C35.6221 2.95652 35.5534 2.75562 35.5792 2.53064C35.6382 2.01815 36.0997 1.78188 36.5137 1.66931C36.9626 1.54738 37.6136 1.49215 38.504 1.50037L39.1251 1.49255C40.5353 1.44684 41.6999 1.20742 42.9034 0.969116C44.2793 0.696682 45.7006 0.427496 47.5196 0.500366L48.002 0.514038C49.0846 0.530719 49.889 0.450852 50.7266 0.394897ZM45.9854 6.62537C45.5999 6.57367 45.3388 6.78422 45.1915 6.95935C45.1209 7.04326 45.0623 7.13377 45.0176 7.20642C44.9644 7.29303 44.938 7.34019 44.8956 7.40662C44.8545 7.47092 44.8255 7.50714 44.8077 7.52673L44.7862 7.54822C44.7083 7.5851 44.6461 7.61493 44.6036 7.63806C44.5918 7.6445 44.5429 7.67069 44.4971 7.70837C44.4833 7.71979 44.4576 7.742 44.4307 7.7738C44.4097 7.79872 44.3505 7.87316 44.3243 7.98767C44.3222 7.99662 44.322 8.00635 44.3204 8.01599L44.2266 8.08142C43.9488 8.26259 43.6289 8.24071 43.2139 8.19958C43.1201 8.19029 43.011 8.17935 42.9083 8.17712C42.8082 8.17499 42.6762 8.17967 42.544 8.21912C42.4001 8.26216 42.2435 8.35183 42.1329 8.51892C42.1313 8.52127 42.1304 8.52435 42.129 8.52673C42.089 8.53689 42.0467 8.55018 42.0049 8.5697C41.8914 8.6229 41.7537 8.73069 41.6944 8.91833C41.6398 9.09151 41.6814 9.2426 41.7159 9.32654C41.7514 9.41273 41.801 9.48279 41.8409 9.53259C41.9892 9.71744 42.2469 9.91231 42.4659 10.0658C42.7017 10.2311 42.9586 10.3928 43.1534 10.5111C43.2513 10.5705 43.3352 10.6199 43.3946 10.6547C43.3978 10.6566 43.4012 10.6587 43.4044 10.6605C43.4475 10.7029 43.4875 10.7345 43.5157 10.7513C43.6045 10.8042 43.6972 10.8295 43.7569 10.8431C43.8847 10.8722 44.0402 10.8852 44.1915 10.892C44.5033 10.9059 44.9126 10.8966 45.3204 10.8793C45.7314 10.8618 46.1576 10.8354 46.5079 10.8138C46.87 10.7916 47.1293 10.7758 47.2344 10.7758C47.2264 10.7758 47.2428 10.7751 47.295 10.7914C47.3446 10.8069 47.4076 10.8314 47.4864 10.8666C47.5653 10.9018 47.6488 10.942 47.7442 10.9877C47.8366 11.0319 47.9392 11.0804 48.043 11.1254C48.2424 11.2117 48.4937 11.3059 48.751 11.3256C49.0042 11.3448 49.2912 11.2909 49.5303 11.0775C49.5681 11.1075 49.6185 11.1507 49.6934 11.2181C49.7175 11.2398 49.7525 11.2712 49.7901 11.2992C49.8162 11.3186 49.8991 11.38 50.0137 11.4086C50.0795 11.4249 50.1844 11.4373 50.3028 11.3998C50.4292 11.3596 50.5216 11.2782 50.5792 11.1927C50.6721 11.0544 50.6742 10.9089 50.6749 10.8676C50.6768 10.7525 50.6529 10.6131 50.6251 10.4769L50.4854 9.8783C50.429 9.65245 50.4839 9.54466 50.5743 9.32654C50.6168 9.22388 50.6993 9.02682 50.6817 8.79431C50.667 8.60105 50.5901 8.43323 50.4776 8.2865L50.3536 8.14587C50.2104 8.00274 49.9238 7.76394 49.5577 7.89099C49.468 7.92216 49.3982 7.97016 49.3487 8.01111C49.3313 7.99699 49.3102 7.98181 49.2881 7.96228L49.1378 7.81775C49.0086 7.68587 48.8881 7.5766 48.7764 7.50232C48.7209 7.46541 48.6446 7.4222 48.5538 7.39587C48.4604 7.36889 48.3138 7.35005 48.1583 7.41833C48.0481 7.46682 47.974 7.54176 47.9249 7.61267C47.8453 7.54608 47.7737 7.48919 47.709 7.44177C47.5972 7.35984 47.4819 7.28617 47.3653 7.24255C47.2719 7.20766 47.1104 7.16908 46.9376 7.22693C46.9124 7.20268 46.8837 7.17595 46.8536 7.14587C46.5882 6.88056 46.3027 6.6682 45.9854 6.62537Z" fill="#3AB7D0"/>
</svg>
