<svg width="74" height="13" viewBox="0 0 74 13" fill="none" xmlns="http://www.w3.org/2000/svg">
<path d="M18.5 5.00031C19.5 2.50031 20.7778 6.99999 24 3.5C25.0709 2.33676 24.8958 0.912827 29 1.00015C32.3187 1.07076 33.3547 0.428312 36.7222 1.00017C39.7169 1.50871 39.9823 2.07805 41.2222 2.50017C42.4622 2.92229 44.7558 1.20366 48.5 1.49993C51.5639 1.74236 53.9853 3.71897 57.5 4.49999C59.2574 4.8905 62.0194 2.73192 62 4.49999C62.0011 4.52645 62.0014 4.55265 62.001 4.57859C62.3562 4.52947 62.6904 4.49999 63 4.49999C64.5 4.49999 70.2459 4.23364 73 5.50009C74.4303 6.15782 71.9116 9.71347 70.5 11.5002C69.688 12.5281 68.0592 12.5548 66.5 12.6493C64.2774 12.784 60.8595 12.3349 60.8595 12.3349L49.7222 12.6493H37.2222H25.7222L13.2222 12.1493C13.2222 12.1493 7.58135 13.0885 7.00002 12.1493C6.50003 11.3415 -0.762043 14.1442 0.49995 12.3348C1.30544 11.1799 -1.19081 9.1573 3.5 6.99999C6.13725 5.78711 6 8.00015 6 8.00015L9.5 7.49987C9.5 7.49987 12.0827 8.91546 13.2222 7.84699C14.0887 7.03458 14.3617 6.57918 15.5 5.99987C16.5585 5.46114 17.5713 7.32203 18.5 5.00031Z" fill="#3AB7D0"/>
</svg>
