<svg width="78" height="17" viewBox="0 0 78 17" fill="none" xmlns="http://www.w3.org/2000/svg">
<path d="M34.5517 0.464266C35.0583 0.443171 35.3878 0.631687 35.6582 0.823641C35.9205 1.00983 36.0962 1.16517 36.418 1.29532C36.7304 1.4216 37.2011 1.52623 37.9834 1.5004L38.623 1.48673C40.0375 1.47348 40.9342 1.5872 41.8193 1.71134C42.8102 1.85031 43.7771 2.0005 45.5 2.0004L45.6894 2.01016C46.118 2.05286 46.4618 2.23562 46.7471 2.43497C46.9064 2.54636 47.0587 2.67036 47.1943 2.78067C47.3352 2.89526 47.4632 2.9987 47.5957 3.09024C47.8535 3.26829 48.1066 3.38608 48.417 3.4086C48.7322 3.43136 49.1633 3.35965 49.7764 3.05313L50.1484 2.87735C50.5052 2.72006 50.8206 2.61833 51.1142 2.57755C51.5279 2.52022 51.8727 2.58784 52.207 2.73673C52.5131 2.87311 52.824 3.08602 53.1484 3.29923C53.4864 3.52133 53.8895 3.77911 54.4306 4.05509L54.583 4.12638C54.9266 4.27341 55.1911 4.28592 55.4131 4.2504C55.6914 4.2057 55.9386 4.0838 56.2656 3.9252C56.5675 3.77879 56.9567 3.5911 57.4111 3.56876C57.8922 3.5453 58.3813 3.70509 58.9072 4.10098L59.1035 4.24063C59.5411 4.53109 59.8401 4.59061 60.0478 4.58438C60.3038 4.57659 60.5095 4.47311 60.8135 4.32169C61.082 4.1879 61.4985 3.9748 61.998 4.08145C62.4898 4.18667 62.9325 4.56699 63.4023 5.20352L63.5322 5.36368C63.6543 5.49919 63.7544 5.56656 63.8271 5.59903C63.9125 5.63696 63.9882 5.63983 64.0771 5.61563C64.1792 5.58776 64.3038 5.52165 64.456 5.40665C64.6074 5.29228 64.76 5.15081 64.9267 4.99259C65.0848 4.84259 65.2654 4.66895 65.4424 4.5297C65.6135 4.39505 65.8403 4.24291 66.1055 4.19278C66.4138 4.1347 66.7136 4.22355 66.958 4.4545C67.1749 4.6595 67.3362 4.96322 67.4697 5.32852L67.5488 5.52774C67.5572 5.54667 67.5664 5.56396 67.5742 5.58048C67.6338 5.48118 67.6982 5.36211 67.7646 5.22696C67.8407 5.07208 67.9294 4.88375 68.0107 4.73575C68.0524 4.65995 68.1003 4.57817 68.1543 4.50528C68.2024 4.44041 68.2861 4.33932 68.4082 4.26895C68.5581 4.18279 68.781 4.1399 68.998 4.26212C69.1659 4.35682 69.2521 4.5101 69.2949 4.60196C69.3861 4.79776 69.4468 5.08199 69.4961 5.43009L69.5312 5.62833C69.5713 5.80412 69.6233 5.91697 69.6709 5.98868C69.7277 6.0741 69.7889 6.11572 69.8623 6.142C69.9478 6.17251 70.0693 6.18838 70.2461 6.18009C70.4238 6.1717 70.6218 6.14189 70.8564 6.10489C71.294 6.03589 71.8783 5.93381 72.4326 6.04532C73.0389 6.16738 73.5748 6.53201 73.9473 7.27677L74.1133 7.58243C74.2688 7.84442 74.3932 7.98179 74.4863 8.05704C74.5932 8.14328 74.6834 8.16994 74.832 8.19473C74.9766 8.2188 75.2635 8.24499 75.5517 8.38907C75.8553 8.54089 76.1342 8.80034 76.416 9.22305L76.5566 9.42618C76.6784 9.59594 76.7796 9.71723 76.8603 9.80313C76.8631 9.80247 76.8664 9.80181 76.8691 9.80118C77.0218 9.76637 77.1967 9.79429 77.3369 9.9086C77.4628 10.0114 77.5158 10.1462 77.5332 10.2484C77.5667 10.4473 77.4947 10.6815 77.2959 10.8256C77.2599 10.8516 77.2217 10.8707 77.1846 10.8871C77.154 10.971 77.1172 11.0811 77.0791 11.224L76.9883 11.6049C76.9154 11.9454 76.7753 12.2382 76.543 12.4516C76.3075 12.6675 76.0257 12.7576 75.7558 12.7816C75.2603 12.8256 74.6845 12.6506 74.2344 12.5199C73.7255 12.3722 73.3201 12.2606 72.999 12.2768C72.8539 12.2842 72.7565 12.3184 72.6865 12.3666C72.6358 12.4016 72.5773 12.4598 72.5215 12.5639L72.4668 12.685C72.355 12.9767 72.1985 13.2452 71.956 13.4096C71.6801 13.5965 71.3814 13.5915 71.1338 13.5063C70.9105 13.4293 70.7111 13.2837 70.5517 13.1498C70.3877 13.012 70.2207 12.8469 70.0703 12.7006C69.913 12.5476 69.7681 12.4091 69.6269 12.2943C69.4839 12.1781 69.3697 12.1073 69.2803 12.0736C69.2006 12.0437 69.1629 12.051 69.1406 12.059C69.118 12.0672 69.0663 12.0936 68.9931 12.1772L68.9121 12.2826C68.7652 12.4975 68.583 12.6668 68.3633 12.7709C68.1415 12.8759 67.9125 12.9001 67.6982 12.8725C67.2918 12.8199 66.9295 12.5828 66.6611 12.3608C66.3813 12.1292 66.1403 11.8591 65.9726 11.6547C65.9687 11.6498 65.9648 11.6449 65.9609 11.64C65.8983 11.6736 65.8254 11.7113 65.7451 11.7563C65.4477 11.9228 65.0283 12.1711 64.4795 12.5268L63.8857 12.9203C62.8964 13.589 62.0705 13.7749 61.2627 13.8998C60.5648 14.0077 59.9205 14.0684 59.1387 14.3393L58.7949 14.4691C57.7916 14.8779 57.0131 14.733 56.3271 14.5824C55.737 14.4528 55.235 14.3277 54.6064 14.4311L54.3291 14.4897C52.5758 14.9432 51.3609 15.1211 49.874 15.3051L48.2656 15.5014C46.5056 15.7206 45.3165 15.8368 43.8359 15.9242L42.2256 16.0053C40.3118 16.0879 39.0221 16.1014 37.4228 16.0619L35.6846 16.0053C33.4604 15.92 32.063 15.8811 30.041 15.6244L29.1318 15.5004C27.1475 15.2117 26.0149 14.8774 24.1055 14.4955C23.232 14.3209 22.5215 14.4532 21.7119 14.5805C20.9569 14.6991 20.1305 14.8085 19.1514 14.5404L18.9541 14.4818C18.0324 14.1869 16.9018 13.8009 16.0049 13.4897C15.5564 13.334 15.165 13.1965 14.8857 13.0981C14.7463 13.0489 14.6344 13.0091 14.5576 12.9818C14.5447 12.9773 14.5323 12.973 14.5215 12.9691H9.99022L9.8867 12.9184L7.11815 11.5678C7.08776 11.5837 7.05563 11.6029 7.02049 11.6205C6.81193 11.7249 6.51769 11.8583 6.1787 11.9701C5.57021 12.1707 4.70092 12.3417 3.92479 12.017L3.77049 11.9447C2.83342 11.4613 1.8938 11.2896 1.27733 11.1244C1.13347 11.0859 0.97822 11.0392 0.852525 10.9789C0.789819 10.9488 0.703598 10.9014 0.626939 10.8266C0.54537 10.7469 0.451236 10.6116 0.443345 10.4233C0.43586 10.2417 0.513152 10.103 0.576158 10.0209C0.638527 9.93984 0.713924 9.87707 0.778306 9.83048C0.908293 9.73654 1.08422 9.64278 1.28807 9.54727L1.57127 9.40274C1.81108 9.26671 1.93858 9.15046 2.08592 9.00919C2.31647 8.78811 2.59395 8.50421 3.22362 8.08438L3.69627 7.78165C3.82513 7.70383 3.92853 7.64614 4.01463 7.60489C4.1041 7.56206 4.18782 7.5305 4.27049 7.51016C4.31391 7.49951 4.35297 7.4925 4.38573 7.48868L4.4912 7.48087H4.49217C4.4957 7.48015 4.51584 7.47597 4.55956 7.45743C4.66432 7.4129 4.85964 7.31009 5.23631 7.07559L5.51268 6.90763C5.7663 6.75711 5.95621 6.65862 6.10448 6.60294C6.20702 6.56448 6.32642 6.53142 6.45604 6.53458C6.60341 6.53826 6.71341 6.58623 6.78514 6.62638C6.79987 6.63463 6.81276 6.64267 6.82127 6.64786H6.82225C6.87164 6.64765 7.01613 6.63464 7.34276 6.52579L7.55077 6.46817C8.44007 6.27218 9.10995 6.77066 9.49022 7.08829C9.49315 7.05166 9.4984 7.01221 9.50096 6.97013L9.51463 6.80313C9.55615 6.41562 9.66833 6.0565 9.96874 5.85391C10.1453 5.73502 10.3305 5.71003 10.4707 5.71231C10.6006 5.71449 10.729 5.74114 10.8017 5.75528C10.8596 5.7665 10.8997 5.77049 10.9258 5.77384C10.9468 5.72482 10.9807 5.62523 11.0049 5.43692L11.0332 5.26016C11.1125 4.85939 11.2794 4.53391 11.5254 4.28556C11.8024 4.00601 12.1426 3.86208 12.4658 3.78946C12.762 3.72302 13.0842 3.71025 13.3711 3.7172C13.3693 3.70364 13.3656 3.69031 13.3642 3.67716C13.358 3.61554 13.3551 3.54041 13.3642 3.46329C13.3715 3.40265 13.395 3.25704 13.5078 3.12931C13.573 3.05575 13.6666 2.98995 13.7851 2.96134C13.8997 2.93381 14.0029 2.94854 14.0781 2.97208C14.1455 2.99328 14.203 3.02568 14.249 3.05802L14.3545 3.14688L14.5947 3.39981C14.665 3.47857 14.7258 3.55187 14.7754 3.62052C14.8251 3.6894 14.874 3.76761 14.9101 3.85098C14.924 3.88306 14.9377 3.92218 14.9492 3.96622C14.9817 3.91175 15.0175 3.84907 15.0537 3.77677C15.3658 3.15281 15.8188 2.81078 16.3418 2.642C16.828 2.4852 17.3644 2.48398 17.8174 2.48087C18.7831 2.47421 19.5284 2.45329 20.1025 1.69766L20.1875 1.59317C20.3947 1.35809 20.6541 1.19148 20.9697 1.16251C21.315 1.1311 21.6162 1.27554 21.8467 1.43888C22.291 1.75391 22.7273 2.32769 23.1035 2.81192C23.5138 3.34008 23.878 3.79817 24.2256 4.05411C24.3926 4.17708 24.5133 4.22035 24.5957 4.22696C24.6599 4.23199 24.747 4.21993 24.873 4.11563L25.124 3.91837C25.3661 3.74106 25.5828 3.6201 25.79 3.54044C26.0738 3.43147 26.3107 3.4127 26.5098 3.4047C26.7082 3.39673 26.8414 3.39736 27.0215 3.35977C27.1952 3.32344 27.4268 3.24632 27.7578 3.0629L28.0273 2.92911C28.2894 2.81529 28.5311 2.76147 28.7646 2.77091C29.0768 2.78369 29.3083 2.90926 29.4551 2.98868C29.6122 3.07371 29.6855 3.11247 29.7851 3.12833C29.8755 3.1426 30.0345 3.1431 30.3223 3.0336L30.8955 2.80704C31.0577 2.74034 31.1926 2.68172 31.3037 2.63028C31.3248 2.62049 31.3443 2.60906 31.3633 2.60001C31.3321 2.52522 31.3108 2.43804 31.3135 2.34024C31.3174 2.19921 31.3672 2.07951 31.4248 1.9877C31.5303 1.81995 31.7043 1.67738 31.8994 1.5463C32.1069 1.40694 32.3926 1.245 32.7764 1.05313L33.0527 0.919344C33.6748 0.628195 34.151 0.481089 34.5517 0.464266ZM45.5 6.0004C45.2669 5.73583 45.4998 6.50045 45 6.5004C44.0006 7.5004 44.9994 8.00041 44.5 8.5004C44.3063 8.69432 44.5614 7.00072 44.0615 8.0004C43.0621 7.00113 43.8779 8.5004 42.5 8.5004C42.1999 8.4994 40.9763 6.4539 40.5625 6.5004C39.7083 6.59759 39.5735 7.40318 39 8.0004C38.2774 9.26572 38.4997 8.00051 37.5 8.0004C36.5001 10.0005 36.4999 6.50121 36 7.5004C36.0001 9.50023 37.1417 8.24661 37.999 9.0004C38.74 9.65224 40.1825 9.50045 40.999 9.5004C41.6298 9.5004 43.4665 9.81743 43.999 9.0004C44.4367 8.52863 45.9042 8.09523 46.499 7.5004C47.4986 6.50078 44.0001 9.50029 45.5 7.0004C45.0005 7.00025 45.9999 6.50025 45.5 6.0004Z" fill="#3AB7D0"/>
</svg>
