<svg width="61" height="27" viewBox="0 0 61 27" fill="none" xmlns="http://www.w3.org/2000/svg">
<path d="M20.5288 0.0936971C20.6904 0.106569 20.8325 0.125705 20.9341 0.141549C20.9852 0.149527 21.0284 0.157411 21.0591 0.163033C21.074 0.165767 21.0869 0.16805 21.0962 0.169869C21.1005 0.170688 21.1049 0.171219 21.1079 0.171822C21.1094 0.172123 21.1117 0.172581 21.1128 0.172799L21.1138 0.173775H21.1157L21.5249 0.25776L21.7524 0.607369L22.7417 2.12592H29.1938C29.2319 2.03183 29.2724 1.93135 29.3198 1.83003C29.446 1.56024 29.6196 1.24579 29.8491 0.961861C30.0737 0.684033 30.4041 0.370853 30.8608 0.209908L30.9995 0.168892C31.6799 0.0105621 32.1601 0.49714 32.2847 0.630807C32.4807 0.841279 32.6534 1.11524 32.7651 1.29096C32.8659 1.4495 32.9413 1.56274 33.0024 1.64838C33.1637 1.66577 33.3401 1.69081 33.5024 1.71577C33.82 1.76463 34.1896 1.82941 34.5366 1.89253C34.5999 1.90404 34.6633 1.91627 34.7251 1.92768C34.7792 1.78118 34.86 1.62229 34.9868 1.47456L35.104 1.35346C35.3854 1.09585 35.717 1.00471 35.9536 0.97358C36.2272 0.937677 36.4881 0.964743 36.6782 0.997017C36.8761 1.03066 37.0521 1.07981 37.1743 1.11811C37.1821 1.12056 37.1903 1.12355 37.1978 1.12592H42.8062L43.0757 1.7021L43.521 2.65327H44.5942C44.609 2.49494 44.6653 2.257 44.8628 2.04292C45.1485 1.73325 45.4942 1.69874 45.7183 1.71967L45.895 1.75092L46.0044 1.78608C46.5296 1.98189 46.7305 2.46289 46.8013 2.67475C46.8701 2.88102 46.9078 3.10815 46.9312 3.32417C47.3048 4.06931 47.8772 5.20247 48.1743 6.19721C48.3283 6.71312 48.4621 7.35698 48.3413 7.94331C48.2757 8.26163 48.1262 8.60725 47.8257 8.88374C47.6894 9.00915 47.5379 9.10305 47.3804 9.17378C47.4379 9.31834 47.501 9.44485 47.5698 9.55171C47.7487 9.8292 47.9515 9.96661 48.2456 10.0068L48.3813 10.0205C48.5314 10.0302 48.7201 10.0305 48.9067 10.0244C49.0229 10.0205 49.1263 10.0145 49.1997 10.0097C49.2358 10.0074 49.2647 10.0053 49.2837 10.0039C49.293 10.0031 49.3009 10.0022 49.3052 10.0019H49.3091L49.3179 10.0009H49.3218C49.3239 10.0007 49.3272 10.0002 49.3306 9.99995C49.3378 9.99942 49.3483 9.99886 49.3608 9.99799C49.3864 9.99623 49.423 9.99376 49.4673 9.99116C49.556 9.98595 49.68 9.9797 49.8208 9.97553C50.0753 9.96802 50.4351 9.96666 50.7515 10.0009C50.7782 9.98592 50.8381 9.95306 50.9478 9.88178C51.0826 9.79409 51.3359 9.62591 51.6792 9.54292C51.9665 9.02071 52.5338 9.02083 52.6118 9.02241C52.6882 9.02402 52.7602 9.03382 52.8228 9.04585H52.8247C53.1178 8.89248 53.4521 8.84032 53.7983 8.90913L53.9478 8.94624L54.1392 9.01167C54.2086 9.03966 54.2824 9.07477 54.354 9.11811C54.4286 9.16333 54.5319 9.23582 54.6284 9.34565C54.721 9.45116 54.8121 9.60124 54.8599 9.79194C54.8911 9.82239 54.9225 9.85534 54.9517 9.89057C55.1752 10.1608 55.234 10.4588 55.2388 10.6777C55.2399 10.7297 55.2376 10.7807 55.2339 10.8281C55.8835 11.705 56.43 12.826 56.938 13.9931C57.1344 14.1356 57.2384 14.3218 57.2827 14.4326C57.306 14.4909 57.3202 14.5471 57.3306 14.5957C57.7006 14.8679 58.0303 15.1265 58.2417 15.329C58.3144 15.3987 58.4113 15.497 58.4927 15.6113C58.5323 15.667 58.5979 15.7668 58.646 15.8984C58.6893 16.0171 58.7685 16.2983 58.647 16.6259C58.5619 16.8548 58.4156 17.0102 58.2681 17.1123C58.7483 17.6044 59.2051 18.0899 59.521 18.4746C59.6841 18.6732 59.8695 18.9159 59.981 19.1455C60.0121 19.2096 60.051 19.2993 60.0786 19.4052C60.1039 19.5023 60.1388 19.6825 60.0981 19.8984C60.0687 20.0544 60.0011 20.2154 59.8901 20.3564C59.8733 20.3819 59.854 20.4072 59.8335 20.4326C59.8284 20.4389 59.8221 20.444 59.8169 20.4501L60.3833 21.5888L60.772 22.3701L60.0493 22.8613H60.0483L60.0474 22.8632C60.0464 22.8639 60.0448 22.8643 60.0435 22.8652C60.0406 22.8671 60.0369 22.8702 60.0327 22.873C60.0242 22.8787 60.0123 22.8856 59.9985 22.8945C59.9706 22.9126 59.9314 22.9372 59.8843 22.9658C59.7907 23.0226 59.6586 23.0994 59.5044 23.1767C59.3227 23.2677 59.0356 23.3961 58.7104 23.4716C58.6919 23.6261 58.6633 23.8512 58.6069 24.0576C58.5371 24.3131 58.4014 24.6514 58.1079 24.9326L57.9722 25.0488C57.5851 25.3469 57.1486 25.3552 56.8579 25.3105C56.5679 25.2657 56.2974 25.152 56.0776 25.04C55.6324 24.813 55.1674 24.4699 54.7739 24.1494C54.4367 23.8746 54.1208 23.588 53.8677 23.3515C53.8473 23.3741 53.8287 23.3969 53.8091 23.4169C53.5771 23.654 53.2519 23.8781 52.8608 24.0976L52.4487 24.3154C52.0715 24.5052 51.6788 24.5814 51.2808 24.5214C50.9095 24.4653 50.6207 24.302 50.4351 24.1845C50.344 24.1268 50.2493 24.0619 50.187 24.0195C50.1164 23.9714 50.065 23.9365 50.0181 23.9091C50.0009 23.8991 49.9839 23.8926 49.9702 23.8857C49.8531 23.9039 49.7382 23.9097 49.6265 23.9062C49.5484 23.939 49.4485 23.9885 49.3257 24.0664L49.0962 24.2255C48.2614 24.8455 47.2394 24.9764 46.3296 24.9267C45.6395 24.889 44.9408 24.7428 44.3013 24.5615L43.6831 24.371C42.9355 24.1218 42.5951 23.9892 42.2134 23.9951C41.9465 23.9993 41.574 24.0827 40.9731 24.5058L40.7017 24.7089C40.3071 25.0191 39.8624 25.1366 39.5005 25.1845C39.1434 25.2318 38.7868 25.2201 38.5337 25.2109C38.3761 25.2051 38.2646 25.2008 38.1831 25.2001C37.9748 25.4223 37.7248 25.5306 37.5864 25.579C37.3421 25.6645 37.076 25.7017 36.8472 25.7197C36.3791 25.7563 35.8226 25.7301 35.3228 25.6884C34.8127 25.6459 34.3152 25.5823 33.9487 25.5302C33.765 25.5041 33.6111 25.481 33.5034 25.4638C33.4715 25.4587 33.4431 25.454 33.4194 25.4501H12.1382L12.1265 25.4492L10.9995 25.4218V25.4228H10.2681C10.2367 25.4406 10.2032 25.4605 10.1675 25.4804C9.966 25.5926 9.68672 25.7409 9.40576 25.8671C9.16683 25.9745 8.78234 26.1345 8.42334 26.1601C8.27627 26.1705 7.80199 26.1858 7.44092 25.7978C7.43807 25.7947 7.43492 25.7911 7.43213 25.788C7.23398 25.8811 7.03164 25.9849 6.86377 26.0781C6.75969 26.1358 6.67153 26.186 6.61084 26.2216C6.58103 26.2391 6.55784 26.2534 6.54248 26.2626C6.53493 26.2672 6.52841 26.2713 6.5249 26.2734C6.52362 26.2742 6.52256 26.275 6.52197 26.2753L6.34619 26.3828L6.14209 26.4121L5.99951 25.4228L6.14111 26.4121H6.14014L6.13721 26.413C6.13523 26.4133 6.13233 26.4136 6.12939 26.414C6.12283 26.4149 6.11298 26.4165 6.10205 26.4179C6.07994 26.4208 6.04846 26.4242 6.01025 26.4287C5.93338 26.4376 5.82511 26.4492 5.69482 26.4599C5.43576 26.4811 5.07612 26.501 4.68994 26.4902C4.31134 26.4795 3.86312 26.4379 3.44385 26.3203C3.09748 26.223 2.64756 26.039 2.31201 25.6621L2.17529 25.4882C1.66792 24.749 1.3825 23.8633 1.22314 23.2167C1.14116 22.884 1.08773 22.5916 1.0542 22.3818C1.03743 22.2768 1.02493 22.1909 1.01709 22.1298C1.01321 22.0996 1.01034 22.0744 1.0083 22.0566C1.00733 22.0481 1.00691 22.0405 1.00635 22.0351C1.00608 22.0327 1.00559 22.03 1.00537 22.0283V22.0263L1.00439 22.0253V22.0244L0.942871 21.4248L1.44482 21.0908L2.86279 20.1445C2.87869 20.1311 2.89327 20.1169 2.90869 20.1054C3.14989 19.9255 3.41277 19.8974 3.49072 19.8886C3.72353 19.8623 4.06622 19.8737 4.6001 19.9277L4.99854 19.9404C5.14477 19.9417 5.31735 19.94 5.49951 19.9384V19.6699L5.55127 19.5165L5.99951 18.1718V17.0087L6.29248 16.7158L6.94385 16.0634C6.91109 15.8881 6.91446 15.6943 6.96826 15.497C6.92618 15.3303 6.89527 15.1514 6.88623 14.9716C6.86939 14.6346 6.92683 14.0357 7.4624 13.6406L7.479 13.6279C7.47335 13.6168 7.46799 13.6047 7.4624 13.5937C7.38757 13.4465 7.31348 13.2995 7.24756 13.1669L7.0835 12.8232C6.85829 12.3082 6.93972 11.8031 7.06201 11.4472C7.18525 11.0887 7.38508 10.7712 7.56201 10.5302C7.74396 10.2824 7.93455 10.0724 8.07568 9.92671C8.11424 9.8869 8.15044 9.85143 8.18213 9.82026L9.10498 7.97553L10.687 8.3769C10.7127 8.27075 10.7411 8.16059 10.7681 8.04585C10.7668 8.02912 10.7648 8.00402 10.7612 7.96967C10.7504 7.86636 10.7159 7.59458 10.769 7.30073C10.8304 6.96251 10.9942 6.63646 11.2896 6.35932C11.4937 6.16784 11.7415 6.01578 12.02 5.89253C12.0505 5.78743 12.0852 5.64824 12.1118 5.48237C12.1454 5.27301 12.1669 5.06203 12.1802 4.90034V4.89936C12.1038 4.74074 12.0032 4.51479 11.9224 4.26264C11.8445 4.01961 11.7631 3.68733 11.772 3.33881C11.7811 2.98415 11.8934 2.47422 12.356 2.1142L12.4702 2.03315C12.7401 1.86098 13.0243 1.80014 13.2349 1.77827C13.4829 1.75259 13.7187 1.772 13.9009 1.7978C14.0879 1.82434 14.2536 1.86328 14.3696 1.89448C14.3802 1.89733 14.391 1.90051 14.4009 1.90327H16.2349L16.5044 1.41792L16.7905 0.903267H18.2485C18.2677 0.88535 18.2858 0.865105 18.3062 0.846627C18.5056 0.665934 18.872 0.359773 19.2974 0.209908L19.4673 0.159127C19.8671 0.05754 20.2823 0.0740958 20.5288 0.0936971ZM38.5132 5.70795C38.3965 5.67397 38.2859 5.6856 38.1997 5.71479C38.0542 5.7643 37.9704 5.86468 37.9438 5.89741C37.8781 5.97841 37.8316 6.07736 37.8022 6.1435C37.6755 6.42913 37.5064 6.98189 37.3315 7.58003C37.3194 7.62158 37.3067 7.66378 37.2944 7.706C37.2743 7.66411 37.2515 7.62162 37.2231 7.58198C37.1394 7.46507 36.9892 7.33344 36.7671 7.31538C36.5664 7.2992 36.412 7.3863 36.3286 7.44624C36.2406 7.50955 36.169 7.58867 36.1138 7.6562C35.9085 7.90737 35.6741 8.3498 35.4731 8.70796C35.2472 9.11059 35.042 9.44725 34.8638 9.62983C34.8624 9.63121 34.8603 9.63246 34.8589 9.63374C34.5458 9.24263 34.4573 9.00762 34.3979 8.87397C34.3833 8.84092 34.3481 8.75987 34.2935 8.68745C34.2225 8.59348 34.0909 8.4769 33.8892 8.45796C33.7339 8.44349 33.608 8.4968 33.5591 8.5185L33.3833 8.6103C33.3391 8.63516 33.2935 8.64212 32.9741 8.54096C32.7551 8.47157 32.2851 8.30608 31.8345 8.58686L31.7446 8.64936C31.358 8.94615 31.2453 9.32105 31.2065 9.65131C31.1892 9.79931 31.1845 9.96218 31.1782 10.0839C31.1731 10.1839 31.1634 10.275 31.1509 10.3623C31.1351 10.3733 31.1213 10.3856 31.1089 10.3964C31.0299 10.2096 30.9491 10.0331 30.8657 9.89155C30.8168 9.80848 30.7587 9.72042 30.6899 9.6435C30.627 9.5731 30.5191 9.47047 30.3638 9.41792C30.1745 9.35396 29.9697 9.38347 29.8042 9.50288C29.7672 9.52963 29.7345 9.55994 29.7056 9.59077L29.6606 9.57221C29.3755 9.47513 29.1286 9.41695 28.9204 9.39839C28.7277 9.38127 28.4927 9.39099 28.2935 9.51264C28.1844 9.57932 28.0894 9.67986 28.0317 9.81147C27.9755 9.94018 27.9685 10.0685 27.9839 10.1757C28.013 10.3772 28.1222 10.5411 28.2212 10.6523C28.4241 10.8802 28.7567 11.0803 29.1343 11.1162C29.3926 11.1406 29.6566 11.0847 29.8931 10.9345C30.0739 11.1005 30.2751 11.305 30.48 11.539C30.6059 11.8824 30.7442 12.2619 30.8628 12.4697C30.8937 12.5238 30.9524 12.6208 31.0435 12.6982C31.0909 12.7385 31.1848 12.8059 31.3208 12.8271C31.3568 12.8326 31.3927 12.8326 31.4272 12.831C31.5456 13.0304 31.6503 13.229 31.7358 13.4218C31.899 13.7899 31.9798 14.1075 31.98 14.3544C31.98 14.4035 31.9829 14.468 31.9976 14.5351C32.0097 14.5908 32.0444 14.7199 32.1587 14.829C32.3075 14.9711 32.5006 14.9977 32.6548 14.9589C32.7757 14.9284 32.8595 14.8629 32.897 14.831C32.9778 14.7619 33.0437 14.6735 33.0894 14.6074C33.141 14.5325 33.1956 14.4443 33.2495 14.3505C33.4627 13.9798 33.7393 13.4077 34.0063 12.8427C34.2786 12.2667 34.5433 11.6935 34.7427 11.288C34.7497 11.2737 34.7564 11.2588 34.7632 11.2451C34.8399 11.2749 34.9201 11.3032 35.0005 11.3281C35.2696 11.4112 35.6069 11.4887 35.9702 11.5595C35.9921 11.6168 36.0311 11.701 36.103 11.7783C36.1868 11.8682 36.3249 11.9566 36.5073 11.957C36.672 11.9572 36.7922 11.8845 36.856 11.8359C36.9016 11.801 36.9381 11.7619 36.9673 11.7275C38.1876 11.9139 39.4775 12.0457 39.7271 12.0458C39.7173 12.0459 39.7467 12.0479 39.8657 12.0732C39.9599 12.0932 40.1017 12.1252 40.2446 12.1533C40.5322 12.2098 40.92 12.27 41.2925 12.2304C41.6712 12.19 42.1152 12.0353 42.3794 11.5898C42.3838 11.5822 42.3868 11.5731 42.3911 11.5654C42.4419 11.6115 42.5027 11.6593 42.5747 11.6953C42.7217 11.7684 42.9531 11.812 43.1763 11.6718C43.3565 11.5582 43.4358 11.3791 43.4731 11.2685L43.521 11.0996C43.5591 10.9299 43.5677 10.7572 43.5337 10.5869C43.4871 10.3538 43.3689 10.1643 43.2153 10.0185C42.9881 9.80283 42.678 9.68007 42.3813 9.5976C42.3563 9.56615 42.3102 9.51288 42.2427 9.47163C42.189 9.43887 42.0181 9.35028 41.8062 9.42768C41.7798 9.43733 41.7551 9.44858 41.7329 9.46089C41.504 9.42252 41.2686 9.38647 41.0493 9.35346C40.6985 9.30064 40.3793 9.24644 40.1099 9.16792C39.8333 9.08728 39.6677 8.99709 39.5806 8.9101C39.5191 8.84868 39.4763 8.77283 39.4966 8.60639L39.5415 8.17866C39.5521 8.05352 39.5583 7.94479 39.5601 7.85151C39.5631 7.69041 39.5567 7.49263 39.4839 7.32905C39.4409 7.2327 39.3515 7.09608 39.1792 7.02338C39.0821 6.98248 38.99 6.97695 38.9136 6.98335C38.911 6.87644 38.9116 6.74608 38.9165 6.58881L38.9185 6.41596C38.9178 6.36203 38.9157 6.31115 38.9116 6.26557C38.9076 6.2206 38.9003 6.16616 38.8862 6.11128C38.8756 6.06974 38.8453 5.96088 38.7573 5.86225C38.7068 5.80575 38.6266 5.74103 38.5132 5.70795Z" fill="#3AB7D0"/>
</svg>
