<svg width="63" height="18" viewBox="0 0 63 18" fill="none" xmlns="http://www.w3.org/2000/svg">
<path d="M26.5001 6.50002C23.9546 6.54588 23.4899 2.80559 22.5001 4.50002C21.9571 5.42949 22.2265 8.20562 21.5001 8.99995C20.4532 10.1446 19.9502 8.94922 18.5001 9.49995C16.8171 10.1391 15.4322 7.6665 14.5001 8.49979C13.3264 9.549 11.5639 9.02996 11.0001 10.4998C10.5923 11.5628 6.72923 9.32721 5.50006 10.9998C4.15159 12.8347 0.947446 12.4998 0.50003 13.9998C0.052615 15.4997 1.27266 16.3158 2.5 17.0177C3.85597 17.7932 4.94227 16.9002 6.4999 17.0177C7.87666 17.1216 9.99981 17.5177 9.99981 17.5177C9.99981 17.5177 12.1964 17.5449 13.6034 17.5177C16.733 17.4571 21.6033 17.0177 21.6033 17.0177H32.1033H37.1033C37.1033 17.0177 39.7741 16.6022 41.4999 16.5001C43.2542 16.3963 45.1503 16.0887 47.4999 16.0001C49.4512 15.9264 50.5492 16.0843 52.5 16.0001C55.8393 15.8558 59.7944 18.1479 61.0001 15.0001C62.2841 11.6476 63.0446 10.857 61.5001 9.00008C58.8749 5.84398 57.2121 8.52022 54.5001 8.00008C51.3373 7.3935 53.4021 7.9042 52.0001 6.99995C49.2689 5.23845 49.6213 5.89365 48.0001 5.50013C46.4702 5.12879 45.0001 8.01786 44.0001 5.00013C43 1.98239 40.976 0.527677 40.0001 0.500108C37.8442 0.439208 39.2592 6.0609 37.1033 6C33.9743 5.91161 34.2336 2.98853 31.1033 3C27.7781 3.01218 29.8247 6.44012 26.5001 6.50002Z" fill="#3AB7D0"/>
</svg>
