<svg width="60" height="15" viewBox="0 0 60 15" fill="none" xmlns="http://www.w3.org/2000/svg">
<path d="M1.50005 8.99969C1.99123 7.71677 3.95298 8.06362 5.31898 8.48744C5.30661 7.39238 6.00006 6.89183 6.00006 5.49996C6.00006 3.35207 11.6958 6.13504 12.0001 5.49991C12.3043 4.86479 9.24832 2.55534 11.5001 0.499912C13.093 -0.954114 18.0001 2.99991 18.0001 2.99991C21.43 2.99973 21.0055 2.97253 24.0001 1.99999C26.9946 1.02745 26.8589 1.00727 32.5001 0.499973C39.8146 -0.15781 34.007 4.06553 39.7705 2.99994C42.9891 2.40486 47.5602 2.66602 48.0001 2.99994C48.44 3.33387 50.2173 4.5 52.0001 4.5C53.7829 4.5 54.5001 3.5 56.5001 5.5C58.7092 7.70914 59.7569 7.50047 59.0001 9C58.4396 10.1103 58.0174 10.323 56.4826 9.93299C56.7259 10.4754 56.8913 11.1171 56.8614 11.839C56.7638 14.1882 55.1041 12.9251 53.8614 13.339C52.729 13.7161 52.0481 13.7949 50.8614 13.9222C49.3741 14.0816 48.5311 12.9222 47.0311 13.9222C45.8595 14.7032 44.2536 13.7236 43.0311 14.4221C42.7607 14.5767 41.5278 14.2518 39.7705 14.447C38.0131 14.6423 36.7885 14.2268 35.0311 14.4221C33.2738 14.6173 26.0311 14.4221 26.0311 14.4221L20.1664 14.4221C18.9315 14.4221 16.8266 15.1121 15.4965 14.447C14.4965 13.947 13.6748 14.8933 12.8614 14.339C11.0864 13.1294 10.1186 14.3166 8.36136 14.339C6.66992 14.3605 5.68516 14.8016 4.03116 14.447C-2.41722 13.0647 0.786805 10.8627 1.50005 8.99969Z" fill="#3AB7D0"/>
</svg>
