<svg width="228" height="122" viewBox="0 0 228 122" fill="none" xmlns="http://www.w3.org/2000/svg">
<path id="efecto-spotify-start" d="M19.2948 38.5672C31.4086 32.4678 44.6568 28.9767 58.0644 27.2239C72.5643 25.3282 87.2288 25.393 101.81 26.0703C116.947 26.7732 131.725 28.2676 146.769 28.4631C154.148 28.5589 161.529 28.3929 168.878 27.6991C175.791 27.0468 182.871 26.1006 189.567 24.207C195.8 22.4443 201.965 20.0714 207.685 17.2412C213.316 14.4555 219.042 11.1048 223.651 6.7984C224.798 5.72635 225.926 4.63145 227.052 3.5382C228.33 2.29855 226.409 0.0125178 225.001 1.15051C222.553 3.12757 219.851 4.79633 217.202 6.49163C214.626 8.14147 211.952 9.65232 209.188 10.967C203.456 13.6938 197.433 15.7906 191.284 17.3534C188.199 18.1375 185.078 18.8518 181.954 19.4676C182.403 19.3791 181.484 19.5553 181.357 19.5794C180.992 19.648 180.628 19.7146 180.263 19.7795C179.378 19.9369 178.493 20.0851 177.605 20.2242C175.784 20.5096 173.958 20.7599 172.128 20.9751C164.808 21.8386 157.425 22.1819 150.058 22.251C142.732 22.3198 135.415 22.0342 128.093 21.8843C120.55 21.7302 113.009 21.4974 105.466 21.3514C90.7565 21.0661 75.9685 21.2325 61.3739 23.2711C48.0124 25.1372 34.7206 28.5109 22.4964 34.3049C20.9748 35.0261 19.4697 35.7815 17.9821 36.5706C16.6118 37.2976 17.944 39.2484 19.2953 38.568L19.2948 38.5672ZM14.9988 59.3539C27.1126 53.2545 40.3608 49.7634 53.7684 48.0106C68.2682 46.1149 82.9327 46.1797 97.5142 46.857C112.651 47.5599 127.429 49.0543 142.473 49.2498C149.852 49.3456 157.233 49.1796 164.582 48.4858C171.495 47.8335 178.575 46.8873 185.271 44.9937C191.503 43.231 197.669 40.8581 203.389 38.0279C209.02 35.2423 214.746 31.8915 219.355 27.5851C220.502 26.5131 221.63 25.4182 222.756 24.3249C224.034 23.0853 222.113 20.7992 220.705 21.9372C218.257 23.9143 215.555 25.583 212.906 27.2783C210.329 28.9282 207.656 30.439 204.892 31.7538C199.16 34.4805 193.137 36.5773 186.988 38.1401C183.903 38.9242 180.782 39.6386 177.658 40.2543C178.107 40.1658 177.188 40.342 177.061 40.3661C176.696 40.4347 176.332 40.5014 175.967 40.5662C175.082 40.7236 174.196 40.8718 173.309 41.011C171.488 41.2963 169.662 41.5466 167.832 41.7618C160.512 42.6253 153.129 42.9686 145.762 43.0377C138.436 43.1065 131.119 42.8209 123.797 42.671C116.254 42.5169 108.713 42.2841 101.17 42.1381C86.4605 41.8528 71.6725 42.0192 57.0779 44.0579C43.7164 45.9239 30.4246 49.2976 18.2004 55.0916C16.6788 55.8128 15.1736 56.5682 13.6861 57.3573C12.3158 58.0844 13.6479 60.0351 14.9993 59.3547L14.9988 59.3539ZM10.7027 80.1409C22.8165 74.0415 36.0647 70.5504 49.4723 68.7977C63.9721 66.902 78.6367 66.9668 93.2181 67.644C108.355 68.347 123.133 69.8414 138.177 70.0368C145.556 70.1326 152.937 69.9666 160.286 69.2729C167.199 68.6205 174.279 67.6743 180.975 65.7807C187.207 64.0181 193.372 61.6451 199.093 58.8149C204.723 56.0293 210.45 52.6785 215.059 48.3721C216.206 47.3001 217.334 46.2052 218.46 45.1119C219.737 43.8723 217.817 41.5862 216.409 42.7242C213.961 44.7013 211.258 46.3701 208.61 48.0653C206.033 49.7152 203.36 51.2261 200.596 52.5408C194.864 55.2675 188.841 57.3643 182.692 58.9271C179.607 59.7113 176.486 60.4256 173.362 61.0413C173.811 60.9528 172.892 61.129 172.765 61.1532C172.4 61.2217 172.036 61.2884 171.67 61.3532C170.786 61.5106 169.9 61.6589 169.013 61.798C167.192 62.0833 165.366 62.3337 163.536 62.5488C156.216 63.4123 148.833 63.7557 141.465 63.8247C134.14 63.8936 126.823 63.6079 119.501 63.458C111.958 63.3039 104.417 63.0712 96.8741 62.9251C82.1644 62.6399 67.3764 62.8062 52.7818 64.8449C39.4203 66.7109 26.1285 70.0846 13.9043 75.8786C12.3827 76.5998 10.8775 77.3552 9.39001 78.1443C8.01972 78.8714 9.35185 80.8222 10.7032 80.1417L10.7027 80.1409ZM6.40666 100.928C18.5205 94.8282 31.7687 91.3371 45.1763 89.5844C59.6761 87.6887 74.3406 87.7534 88.9221 88.4307C104.059 89.1336 118.837 90.628 133.881 90.8235C141.26 90.9193 148.641 90.7533 155.99 90.0596C162.903 89.4072 169.983 88.461 176.679 86.5674C182.911 84.8048 189.076 82.4318 194.797 79.6016C200.427 76.816 206.154 73.4652 210.763 69.1588C211.91 68.0868 213.038 66.9919 214.164 65.8986C215.441 64.659 213.521 62.373 212.113 63.5109C209.665 65.488 206.962 67.1568 204.314 68.8521C201.737 70.5019 199.064 72.0128 196.3 73.3275C190.568 76.0542 184.545 78.151 178.396 79.7138C175.31 80.498 172.19 81.2123 169.066 81.828C169.515 81.7395 168.596 81.9157 168.469 81.9399C168.104 82.0084 167.74 82.0751 167.374 82.1399C166.49 82.2973 165.604 82.4456 164.717 82.5847C162.896 82.87 161.07 83.1204 159.24 83.3356C151.92 84.199 144.537 84.5424 137.169 84.6114C129.844 84.6803 122.527 84.3946 115.205 84.2447C107.662 84.0906 100.121 83.8579 92.5781 83.7118C77.8684 83.4266 63.0803 83.5929 48.4858 85.6316C35.1243 87.4976 21.8325 90.8713 9.60826 96.6653C8.08666 97.3865 6.58152 98.142 5.09398 98.931C3.72369 99.6581 5.05582 101.609 6.40717 100.928L6.40666 100.928ZM2.11057 121.715C14.2244 115.615 27.4726 112.124 40.8802 110.371C55.38 108.476 70.0445 108.54 84.626 109.218C99.763 109.921 114.541 111.415 129.585 111.611C136.964 111.706 144.344 111.54 151.694 110.847C158.607 110.194 165.687 109.248 172.383 107.354C178.615 105.592 184.78 103.219 190.501 100.389C196.131 97.603 201.858 94.2522 206.466 89.9459C207.614 88.8738 208.742 87.7789 209.868 86.6857C211.145 85.446 209.225 83.16 207.817 84.298C205.369 86.275 202.666 87.9438 200.018 89.6391C197.441 91.2889 194.768 92.7998 192.004 94.1145C186.272 96.8412 180.249 98.9381 174.1 100.501C171.014 101.285 167.893 101.999 164.77 102.615C165.218 102.527 164.3 102.703 164.172 102.727C163.808 102.795 163.443 102.862 163.078 102.927C162.194 103.084 161.308 103.233 160.421 103.372C158.6 103.657 156.774 103.907 154.944 104.123C147.624 104.986 140.241 105.329 132.873 105.398C125.548 105.467 118.231 105.182 110.909 105.032C103.366 104.878 95.8249 104.645 88.282 104.499C73.5723 104.214 58.7843 104.38 44.1897 106.419C30.8282 108.285 17.5364 111.658 5.31218 117.452C3.79057 118.174 2.28543 118.929 0.797894 119.718C-0.572395 120.445 0.759736 122.396 2.11108 121.715L2.11057 121.715Z" fill="#B154C4"/>
</svg>
