<svg width="236" height="106" viewBox="0 0 236 106" fill="none" xmlns="http://www.w3.org/2000/svg">
<path id="efecto-spotify-end" d="M210.624 23.3733C198.104 18.1571 184.64 15.6238 171.141 14.8357C156.543 13.9833 141.921 15.0981 127.425 16.8178C112.378 18.603 97.7447 21.1519 82.7529 22.4243C75.4002 23.0483 68.0265 23.4112 60.6462 23.2456C53.7045 23.09 46.5747 22.6533 39.7603 21.2441C33.4177 19.9323 27.0986 18.0069 21.1899 15.5937C15.3745 13.2185 9.4224 10.2864 4.51757 6.32113C3.29669 5.33397 2.09299 4.32268 0.891084 3.3129C-0.471515 2.1679 1.2799 -0.249765 2.76646 0.784421C5.3495 2.5811 8.16455 4.05205 10.9273 5.55334C13.6158 7.0144 16.3906 8.32992 19.2413 9.44334C25.154 11.7525 31.3116 13.4127 37.557 14.5311C40.6907 15.0922 43.8547 15.5812 47.0142 15.9716C46.5606 15.9155 47.4892 16.0255 47.6183 16.0404C47.9866 16.0827 48.3551 16.1231 48.7239 16.1616C49.6171 16.2553 50.5113 16.3397 51.4063 16.4149C53.2429 16.5691 55.0822 16.6881 56.9234 16.7716C64.2862 17.1086 71.675 16.9224 79.0284 16.4636C86.3396 16.0077 93.6179 15.1987 100.91 14.5249C108.423 13.831 115.928 13.0588 123.441 12.3729C138.092 11.035 152.854 10.1418 167.557 11.1301C181.018 12.0344 194.517 14.4475 207.125 19.3512C208.695 19.9616 210.25 20.6073 211.79 21.2878C213.209 21.9149 212.02 23.9552 210.624 23.3733ZM216.397 43.799C203.878 38.5828 190.414 36.0494 176.915 35.2613C162.317 34.4089 147.695 35.5238 133.199 37.2435C118.151 39.0287 103.518 41.5776 88.5265 42.85C81.1739 43.4739 73.8002 43.8369 66.4199 43.6713C59.4781 43.5157 52.3483 43.079 45.534 41.6698C39.1913 40.358 32.8722 38.4326 26.9635 36.0194C21.1481 33.6441 15.196 30.7121 10.2912 26.7468C9.07033 25.7596 7.86663 24.7484 6.66472 23.7386C5.30212 22.5936 7.05354 20.1759 8.5401 21.2101C11.1231 23.0068 13.9382 24.4777 16.7009 25.979C19.3894 27.4401 22.1642 28.7556 25.0149 29.869C30.9277 32.1782 37.0853 33.8383 43.3306 34.9567C46.4643 35.5179 49.6283 36.0069 52.7879 36.3973C52.3342 36.3412 53.2628 36.4512 53.3919 36.4661C53.7602 36.5084 54.1288 36.5488 54.4976 36.5873C55.3908 36.6809 56.285 36.7654 57.1799 36.8406C59.0165 36.9948 60.8559 37.1137 62.697 37.1973C70.0598 37.5343 77.4486 37.348 84.802 36.8893C92.1132 36.4334 99.3916 35.6244 106.684 34.9505C114.196 34.2567 121.701 33.4844 129.214 32.7986C143.866 31.4606 158.628 30.5675 173.331 31.5557C186.792 32.4601 200.291 34.8732 212.899 39.7769C214.468 40.3873 216.024 41.033 217.564 41.7135C218.983 42.3406 217.794 44.3809 216.397 43.799ZM222.171 64.225C209.652 59.0088 196.187 56.4754 182.689 55.6873C168.09 54.8349 153.468 55.9497 138.973 57.6695C123.925 59.4547 109.292 62.0036 94.3003 63.276C86.9476 63.8999 79.5739 64.2629 72.1936 64.0973C65.2518 63.9417 58.122 63.505 51.3077 62.0958C44.9651 60.784 38.6459 58.8586 32.7373 56.4454C26.9219 54.0701 20.9698 51.138 16.0649 47.1728C14.8441 46.1856 13.6404 45.1743 12.4384 44.1646C11.0758 43.0195 12.8273 40.6019 14.3138 41.6361C16.8969 43.4328 19.7119 44.9037 22.4747 46.405C25.1631 47.866 27.938 49.1816 30.7887 50.295C36.7014 52.6042 42.859 54.2643 49.1043 55.3827C52.238 55.9439 55.4021 56.4328 58.5616 56.8233C58.108 56.7671 59.0366 56.8771 59.1656 56.8921C59.5339 56.9343 59.9025 56.9747 60.2713 57.0133C61.1645 57.1069 62.0587 57.1914 62.9536 57.2666C64.7902 57.4208 66.6296 57.5397 68.4708 57.6233C75.8336 57.9603 83.2224 57.774 90.5757 57.3153C97.8869 56.8594 105.165 56.0504 112.458 55.3765C119.97 54.6826 127.475 53.9104 134.988 53.2245C149.64 51.8866 164.402 50.9935 179.105 51.9817C192.566 52.886 206.065 55.2992 218.673 60.2029C220.242 60.8133 221.797 61.459 223.338 62.1395C224.756 62.7665 223.568 64.8069 222.171 64.225ZM227.945 84.6506C215.425 79.4344 201.961 76.9011 188.462 76.113C173.864 75.2606 159.242 76.3754 144.746 78.0951C129.699 79.8803 115.066 82.4292 100.074 83.7016C92.7212 84.3256 85.3476 84.6886 77.9672 84.523C71.0255 84.3673 63.8957 83.9306 57.0813 82.5214C50.7387 81.2096 44.4196 79.2843 38.5109 76.8711C32.6955 74.4958 26.7434 71.5637 21.8386 67.5984C20.6177 66.6113 19.414 65.6 18.2121 64.5902C16.8495 63.4452 18.6009 61.0275 20.0875 62.0617C22.6705 63.8584 25.4856 65.3294 28.2483 66.8306C30.9368 68.2917 33.7116 69.6072 36.5623 70.7207C42.475 73.0299 48.6326 74.69 54.878 75.8084C58.0117 76.3695 61.1757 76.8585 64.3353 77.249C63.8816 77.1928 64.8102 77.3028 64.9393 77.3178C65.3076 77.36 65.6761 77.4004 66.0449 77.4389C66.9382 77.5326 67.8323 77.617 68.7273 77.6923C70.5639 77.8465 72.4032 77.9654 74.2444 78.0489C81.6072 78.386 88.996 78.1997 96.3494 77.741C103.661 77.285 110.939 76.476 118.231 75.8022C125.744 75.1083 133.249 74.3361 140.762 73.6502C155.413 72.3123 170.175 71.4191 184.878 72.4074C198.339 73.3117 211.838 75.7249 224.446 80.6286C226.016 81.239 227.571 81.8846 229.111 82.5652C230.53 83.1922 229.341 85.2326 227.945 84.6506ZM233.719 105.077C221.199 99.8604 207.735 97.3271 194.236 96.539C179.638 95.6866 165.016 96.8014 150.52 98.5211C135.472 100.306 120.839 102.855 105.848 104.128C98.495 104.752 91.1213 105.115 83.741 104.949C76.7992 104.793 69.6694 104.357 62.8551 102.947C56.5124 101.636 50.1933 99.7102 44.2846 97.297C38.4692 94.9217 32.5171 91.9897 27.6123 88.0244C26.3914 87.0373 25.1877 86.026 23.9858 85.0162C22.6232 83.8712 24.3746 81.4535 25.8612 82.4877C28.4442 84.2844 31.2593 85.7553 34.022 87.2566C36.7105 88.7177 39.4853 90.0332 42.336 91.1466C48.2488 93.4558 54.4064 95.116 60.6517 96.2344C63.7854 96.7955 66.9494 97.2845 70.109 97.6749C69.6553 97.6188 70.5839 97.7288 70.713 97.7437C71.0813 97.786 71.4498 97.8264 71.8187 97.8649C72.7119 97.9586 73.606 98.043 74.501 98.1182C76.3376 98.2724 78.177 98.3914 80.0181 98.4749C87.3809 98.8119 94.7697 98.6257 102.123 98.1669C109.434 97.711 116.713 96.902 124.005 96.2282C131.517 95.5343 139.022 94.7621 146.536 94.0762C161.187 92.7383 175.949 91.8451 190.652 92.8334C204.113 93.7377 217.612 96.1508 230.22 101.055C231.789 101.665 233.345 102.311 234.885 102.991C236.304 103.618 235.115 105.659 233.719 105.077Z" fill="#B154C4"/>
</svg>
