<svg width="36" height="66" viewBox="0 0 36 66" fill="none" xmlns="http://www.w3.org/2000/svg">
<path d="M9.86658 8.13659C7.32108 8.18245 2.75998 5.13659 2.47002 5.63659C1.97055 6.49789 2.12269 7.15272 1.97002 8.13659C1.73727 9.63659 1.97002 13.6219 1.97002 17.1366C1.97002 21.4324 0.970056 18.8584 0.970056 23.1542C0.970056 26.4737 0.872635 28.3362 0.970056 31.6542C1.06764 34.978 1.24093 36.8369 1.47006 40.1542C1.64548 42.6941 1.76639 44.1165 1.97006 46.6542C2.15815 48.9979 2.37251 50.305 2.47006 52.6542C2.56727 54.9953 2.29587 56.3176 2.47006 58.6542C2.58708 60.2241 2.97012 62.6542 2.97012 62.6542C2.97012 62.6542 2.97012 64.6542 4.47012 65.6542C5.78575 66.5312 12.4701 65.1542 12.4701 65.1542H22.9701H27.9701C27.9701 65.1542 31.2784 64.8731 31.9701 64.1542C32.4649 63.64 32.7273 62.0889 32.9626 60.6985L32.9701 60.6542C33.0837 59.9828 32.9701 55.1542 32.9701 55.1542C32.9701 55.1542 33.3629 48.1482 33.4701 43.6542C33.6004 38.1884 35.8666 37.6365 33.9701 33.6365C32.462 30.4557 30.3666 23.1542 30.3666 23.1542L33.9701 12.6542C33.9701 12.6542 35.8665 9.18305 35.8666 8.63647C35.8666 7.63642 33.3666 3.89161 32.8666 3.63647C32.5532 3.47657 31.3425 4.16404 30.3666 4.13647C28.2107 4.07557 26.6259 0.215113 24.4701 0.154212C21.341 0.0658212 19.4968 3.14275 16.3666 3.15421C13.0414 3.16639 13.1912 8.07669 9.86658 8.13659Z" fill="#3AB7D0"/>
</svg>
