<svg width="63" height="67" viewBox="0 0 63 67" fill="none" xmlns="http://www.w3.org/2000/svg">
<path d="M13.9658 0.0147602C14.1277 0.0276313 14.2704 0.0467476 14.3721 0.0626118C14.4231 0.0705782 14.4654 0.0784653 14.4961 0.0840961C14.5114 0.0868984 14.5247 0.0890806 14.5342 0.0909321C14.5387 0.0918082 14.5428 0.0922823 14.5459 0.0928852C14.5473 0.0931527 14.5488 0.0936225 14.5498 0.0938618L14.5518 0.0948383H14.5528L14.9619 0.178823L15.1895 0.528432L16.1787 2.04699H22.6319C22.6699 1.95295 22.7105 1.85234 22.7578 1.75109C22.884 1.48137 23.0577 1.16678 23.2871 0.882924C23.5117 0.605157 23.8423 0.291929 24.2988 0.130971L24.4375 0.0899555C25.118 -0.0684101 25.5981 0.418238 25.7227 0.55187C25.9189 0.762376 26.0904 1.03619 26.2022 1.21203C26.3031 1.37076 26.3783 1.4837 26.4395 1.56945C26.6009 1.58683 26.7778 1.61182 26.9404 1.63683C27.2581 1.68569 27.6275 1.75046 27.9746 1.81359C28.0381 1.82513 28.1012 1.8373 28.1631 1.84874C28.2172 1.70234 28.2981 1.54325 28.4248 1.39562L28.542 1.27453C28.8233 1.01704 29.155 0.925781 29.3916 0.894643C29.6651 0.858721 29.9251 0.885837 30.1153 0.918081C30.3135 0.951735 30.4899 1.00081 30.6123 1.03917C30.6203 1.04167 30.6282 1.04455 30.6358 1.04699H35.043L35.3389 0.557729L35.6299 0.0743305H38.6914C38.7148 0.071084 38.7426 0.0674452 38.7735 0.0635883C38.871 0.0514159 39.0071 0.0363018 39.1621 0.0264789C39.4402 0.00887602 39.9017 -0.00249982 40.3125 0.109487L40.4834 0.164174C40.8731 0.305935 41.1921 0.545043 41.4356 0.773549C41.7199 1.04048 41.9563 1.34535 42.1397 1.61437C42.25 1.77628 42.3457 1.93384 42.4268 2.07433H43.0733C43.0988 2.07256 43.1353 2.0701 43.1797 2.06749C43.2684 2.06229 43.3923 2.05605 43.5332 2.05187C43.8013 2.04394 44.1864 2.04179 44.5147 2.08214L44.8233 2.12999C45.1137 2.18561 45.3551 2.26113 45.5762 2.33996C45.8862 2.45053 46.0609 2.52825 46.3565 2.61632C47.0217 2.8147 47.4269 3.34284 47.6065 3.55773C47.8677 3.87023 47.9028 3.86937 47.8926 3.86632L49.5713 4.36632L49.9629 4.46789C50.0866 4.49614 50.2137 4.52311 50.374 4.56164C50.6792 4.63495 51.0122 4.73253 51.4072 4.92785L51.6748 5.07335C51.9424 5.23114 52.2022 5.41648 52.3946 5.56066C52.5297 5.66193 52.6456 5.75458 52.7285 5.8214C52.7701 5.85488 52.8045 5.8819 52.8281 5.90148C52.8301 5.90313 52.8321 5.90483 52.834 5.90636L54.0518 6.75304L54.0606 6.7589L54.7256 7.23156L55.9756 8.1007L56.085 8.17687L56.1709 8.27941L57.6397 10.0294L58.3408 10.8644C58.3562 10.8792 58.3746 10.8974 58.3955 10.9181C58.4556 10.9776 58.5382 11.0618 58.6289 11.1603C58.7949 11.3403 59.0487 11.6321 59.2178 11.9386L59.3076 12.1212C59.4996 12.5511 59.5563 13.0064 59.5596 13.4005C59.5634 13.8591 59.496 14.312 59.4131 14.6944C59.3309 15.0737 59.2278 15.4102 59.1455 15.6534L59.4942 16.4015L59.8897 17.2511C59.9226 17.2021 59.9607 17.1508 60.0039 17.1017C60.0932 17.0003 60.3714 16.7142 60.8321 16.7091C61.3505 16.7036 61.6466 17.0465 61.7549 17.2071C61.8689 17.3764 61.9283 17.5557 61.9629 17.6788L62.0215 17.9298C62.069 18.1841 62.0877 18.4404 62.0967 18.6212C62.1032 18.7525 62.1049 18.8684 62.1055 18.9513C62.1057 18.9789 62.1056 19.0032 62.1055 19.0236L62.2061 20.1066L62.3106 21.2316L62.416 22.3566L62.5205 23.4816L62.5293 23.5743L62.5205 23.6671L62.416 24.7921L62.3106 25.9171L62.1016 28.1671L61.9961 29.2921L61.8916 30.4171L61.7862 31.5421L61.6817 32.6671L61.6709 32.7765L61.6377 32.881L59.5401 39.381L59.499 39.5089L59.4258 39.6212L56.4883 44.1212L56.4072 44.2462L56.292 44.3419L55.7354 44.8048C55.7473 44.863 55.7625 44.9232 55.7725 44.9855C55.8108 45.2236 55.8383 45.53 55.7998 45.8448C55.7667 46.1156 55.6742 46.47 55.4229 46.7804L55.3047 46.9112C54.9479 47.2632 54.4589 47.3988 54.2276 47.4542C54.2083 47.4588 54.1886 47.4618 54.1699 47.4659C54.0673 47.602 53.9393 47.7715 53.794 47.9532C53.4915 48.3316 53.0794 48.8201 52.6797 49.1896L52.5098 49.34C52.1453 49.6461 51.6653 49.8181 51.3828 49.9064C51.2228 49.9563 51.0791 49.9934 50.9756 50.0177C50.9472 50.0243 50.921 50.0293 50.8985 50.0343L49.8057 50.4689C49.7876 50.4802 49.7671 50.4936 49.7451 50.5069C49.6516 50.5637 49.5191 50.6398 49.3653 50.7169C49.1319 50.8338 48.727 51.0171 48.2881 51.0636L48.0977 51.0743C47.696 51.0773 47.3386 50.9495 47.0713 50.8194C46.7964 50.6856 46.5509 50.5166 46.3565 50.3653C46.2472 50.2803 46.1481 50.1956 46.0615 50.1183L44.2217 50.3185L42.211 50.5362C42.0924 50.6315 41.9369 50.7534 41.7588 50.8829C41.4245 51.126 40.9471 51.4458 40.461 51.6554L40.2529 51.7384C39.6805 51.9437 38.9794 52.0102 38.4932 52.0353C38.2359 52.0485 38.008 52.0514 37.8447 52.0509C37.7632 52.0506 37.6966 52.049 37.6494 52.048L37.5928 52.047H33.167L31.9473 52.4874L31.8321 52.5284L31.711 52.5411H31.7119C31.7071 52.5417 31.6971 52.5431 31.6836 52.545C31.6558 52.549 31.6108 52.5559 31.5547 52.5665C31.4405 52.5881 31.2856 52.6235 31.1221 52.6778C30.7943 52.7868 30.5859 52.92 30.4893 53.0314L30.4551 53.0773C30.3372 53.2655 30.1814 53.4671 30.0733 53.6017C30.0158 53.6732 29.9639 53.7352 29.9268 53.7794C29.9082 53.8015 29.8927 53.8194 29.8819 53.8321C29.8765 53.8384 29.8723 53.8441 29.8692 53.8478C29.8678 53.8493 29.8662 53.8506 29.8653 53.8517L29.8643 53.8536H29.8633V53.8546L29.7588 53.9747L29.6211 54.0568C29.3917 54.1941 29.1539 54.2521 28.961 54.2784V60.9191C28.9613 60.921 28.9616 60.923 28.9619 60.9249C28.9722 60.9839 28.9857 61.0682 29.002 61.17C29.0344 61.3728 29.0762 61.6518 29.1104 61.9523C29.1442 62.2495 29.1727 62.586 29.1768 62.8976C29.1798 63.1321 29.1733 63.4699 29.084 63.7775L29.0401 63.9064C28.8581 64.3779 28.4998 64.6561 28.1485 64.7941C27.8263 64.9205 27.5039 64.9351 27.2754 64.9269C27.19 64.9238 27.1075 64.9163 27.0303 64.9073L26.1485 65.7833L25.8565 66.0743H2.93557L2.64846 65.5685L0.660176 62.0685L0.53127 61.8419L0.529317 61.5812L0.516621 59.7374L0.502949 57.8937L0.477559 54.2062L0.463887 52.3624L0.451192 50.5187L0.43752 48.6749L0.424824 46.8312L0.411153 44.9874L0.385762 41.2999L0.37209 39.4562L0.359395 37.6124L0.345723 35.7687L0.333028 33.9249L0.319356 32.0812L0.293965 28.3937L0.280293 26.5499L0.269551 24.881C0.259339 24.8521 0.24664 24.821 0.235371 24.7872C0.179822 24.6206 0.109481 24.3835 0.0605666 24.1202C0.0134737 23.8667 -0.0253447 23.532 0.0205275 23.1905C0.0664667 22.8489 0.216843 22.3783 0.660176 22.0509L0.776387 21.9737C1.04796 21.8089 1.33132 21.7491 1.54494 21.7277C1.56266 21.7259 1.58106 21.7251 1.59865 21.7237L1.59475 21.0187L1.58107 19.1749L1.56838 17.3312L1.55471 15.4874L1.52932 11.7999L1.52834 11.7648L1.53127 11.7296V11.7198C1.53169 11.7128 1.53243 11.7018 1.53322 11.6876C1.53486 11.6582 1.53751 11.6137 1.54006 11.5587C1.54516 11.4484 1.55125 11.294 1.55471 11.1193C1.5601 10.8469 1.55835 10.5518 1.54299 10.3009L1.52248 10.0675C1.45727 9.51951 1.25211 9.13277 0.951192 8.58996C0.69044 8.11961 0.356641 7.52932 0.199238 6.73351L0.143574 6.37999C0.0924476 5.95039 0.0901541 5.43181 0.097676 5.05187C0.101562 4.85567 0.108556 4.68329 0.114278 4.55968C0.117141 4.49786 0.120129 4.44732 0.12209 4.41222C0.122418 4.40635 0.122778 4.40065 0.123067 4.39562L0.110371 2.58117L0.106465 2.12999L0.443379 1.82824L1.28225 1.07824L1.5674 0.824331H11.6856C11.7048 0.806304 11.7236 0.786301 11.7442 0.76769C11.9435 0.587095 12.3092 0.280935 12.7344 0.130971L12.9043 0.0801899C13.304 -0.0215649 13.7191 -0.00483241 13.9658 0.0147602ZM32.5049 14.3292C32.1376 14.2955 31.8215 14.3902 31.5791 14.5001L31.3613 14.6105C31.2453 14.676 30.9946 14.699 30.6738 14.6622C30.5314 14.6459 30.4011 14.6216 30.3067 14.6007C30.2601 14.5904 30.2229 14.5807 30.1983 14.5743C30.1862 14.5712 30.1764 14.569 30.1709 14.5675L30.1651 14.5655L29.7051 14.4337L29.5528 14.8878V14.8888L29.5518 14.8907C29.5512 14.8926 29.55 14.8961 29.5488 14.8995C29.5465 14.9066 29.5433 14.917 29.5391 14.9298C29.5303 14.9564 29.5173 14.9954 29.502 15.0431C29.4712 15.1389 29.4289 15.2735 29.3828 15.4269C29.3146 15.654 29.2354 15.9331 29.1729 16.1954L29.1172 16.4493C28.8984 17.5574 28.8915 18.691 28.9395 19.797C28.9888 20.9325 29.0899 21.9772 29.1074 23.0548L29.1104 23.5353C29.1054 24.6043 29.0224 25.3077 28.9395 25.7443C28.8922 25.993 28.8449 26.1542 28.8135 26.2462C28.7981 26.2914 28.7864 26.3202 28.7803 26.3341L28.7754 26.3439L28.7285 26.4288L28.7207 26.5382L28.2979 32.5382L28.2969 32.5568V32.6818C28.297 32.7514 28.2977 32.8533 28.2979 32.9796C28.2982 33.2324 28.2984 33.5863 28.2988 33.9884C28.2997 34.7928 28.2998 35.7927 28.2998 36.5734L28.3008 39.0734C28.3008 39.2332 28.3711 39.3522 28.4287 39.421C28.4839 39.4866 28.5445 39.5289 28.584 39.5528C28.6629 39.6006 28.7492 39.6311 28.8145 39.6515C28.9523 39.6946 29.1294 39.731 29.3154 39.7618C29.6944 39.8247 30.1942 39.8794 30.6953 39.9249C31.694 40.0156 32.7619 40.0733 32.9961 40.0734C33.3926 40.0733 33.7237 39.8508 33.961 39.6427C34.21 39.4242 34.4436 39.1419 34.6475 38.8819L34.749 38.7462C35.2317 38.0671 35.3393 37.4086 35.5674 36.7335L35.6807 36.3819C36.2115 34.6603 36.2096 33.4288 36.4287 31.6339L36.4551 31.3898C36.5054 30.8351 36.4828 30.3881 36.4121 29.9982C36.3315 29.5541 36.192 29.204 36.0606 28.8898C35.8104 28.2916 35.5569 27.7515 35.5928 26.589L35.6485 25.2296C35.6913 24.3478 35.7165 23.9324 35.6465 22.7911L35.5918 22.0089C35.4987 20.769 35.4611 19.0279 35.1553 17.6818L35.0908 17.4181C35.0054 17.0969 34.9633 16.9143 34.9131 16.7218C34.8679 16.5484 34.8218 16.393 34.749 16.2394C34.6796 16.0927 34.5881 15.9553 34.4649 15.797L33.9903 15.2247C33.511 14.6538 33.0097 14.3758 32.5049 14.3292Z" fill="#3AB7D0"/>
</svg>
