<svg width="57" height="64" viewBox="0 0 57 64" fill="none" xmlns="http://www.w3.org/2000/svg">
<path d="M5.20458 2.43865C3.71111 2.93646 3.20458 4.43866 3.20458 5.93865C3.20458 7.43863 3.48242 12.2898 3.48242 12.2898L2.98242 18.2898V22.2898L2.48242 34.2898L1.20464 45.9386V54.9386C1.20464 54.9386 0.704648 60.6308 1.20464 61.4386C1.78597 62.3778 2.15677 63.0892 3.20464 63.4386C4.70457 63.9387 15.7046 63.9386 15.7046 63.9386H27.2046H39.7046L50.8419 63.6242C50.8419 63.6242 55.7363 64.2817 56.4824 62.7896C56.9824 61.7896 56.4824 56.7896 56.4824 56.7896C56.4824 56.7896 52.4824 46.7897 51.9824 45.2897C51.6252 44.218 50.615 44.0161 49.5088 43.7949L49.4824 43.7897C46.9824 43.2897 42.2046 41.4387 36.7046 40.9386C35.7323 40.8502 33.9824 40.2897 33.9824 39.2897C33.9824 38.6926 34.9824 33.2897 34.9824 33.2897L33.9824 27.7897C33.9824 27.7897 35.1232 24.3015 34.9824 20.7897C34.8726 18.0512 33.4609 15.7519 33.4824 13.7897C33.5019 12.0216 34.7046 9.78959 34.7046 8.78967C34.7046 7.78974 34.4824 5.28967 33.4824 3.78966C32.4824 2.28966 30.7224 1.21178 29.4824 0.789665C28.2424 0.367545 22.7046 2.43856 22.7046 2.43856C22.7046 2.43856 17.5233 2.50917 14.2046 2.43856C10.1004 2.35124 6.70458 1.93866 5.20458 2.43865Z" fill="#3AB7D0"/>
</svg>
