<svg width="74" height="66" viewBox="0 0 74 66" fill="none" xmlns="http://www.w3.org/2000/svg">
<path d="M10.1229 0.775146C12.9464 0.775146 14.9591 1.32424 16.8318 1.90894C18.7029 2.49313 20.3934 3.09672 22.6629 3.2771L23.7479 3.35522C26.1763 3.51192 27.9164 3.49201 29.7518 3.43237C31.8545 3.36405 34.0986 3.2425 37.6277 3.27515L38.8641 3.27905C41.6204 3.26944 43.5735 3.15208 46.6434 3.27515L48.5086 3.34448C50.2321 3.40832 51.6367 3.48083 53.6951 3.78003L55.0447 3.97925C56.291 4.17056 57.3037 4.3654 58.7645 4.79565L59.49 5.01147C61.104 5.50016 62.2237 5.91096 63.869 6.8396L64.4002 7.14722C65.573 7.84626 66.3143 8.43361 67.4471 9.39429L67.6893 9.61499C67.911 9.83353 68.0729 10.0465 68.1932 10.2634C68.3533 10.5525 68.424 10.8231 68.4764 11.0632C68.5763 11.5215 68.6201 11.9049 69.0311 12.4861L69.2166 12.741C69.6142 13.2692 69.7754 13.3576 69.9774 13.5857C70.2439 13.8867 70.3649 14.2447 70.6063 15.1462L70.7215 15.6257C70.8299 16.1269 70.9179 16.677 70.9832 17.1345C71.0272 17.4424 71.0616 17.7145 71.0848 17.9089C71.0964 18.006 71.1051 18.0844 71.1111 18.1384C71.1141 18.1653 71.1164 18.1866 71.118 18.2009C71.1187 18.208 71.1195 18.2138 71.1199 18.2175C71.1201 18.2191 71.1198 18.2205 71.1199 18.2214L71.1209 18.2224V18.2302L71.1219 18.238V18.24C71.122 18.2415 71.1227 18.2441 71.1229 18.2468C71.1233 18.2524 71.1231 18.2607 71.1238 18.2712C71.1253 18.2925 71.128 18.324 71.1307 18.364C71.136 18.4442 71.1431 18.5605 71.1512 18.7048C71.1674 18.9938 71.187 19.3974 71.2 19.8562C71.2226 20.6534 71.2264 21.6377 71.1551 22.4812L71.1199 22.8337C70.8874 24.8057 70.6126 26.062 69.907 27.7371L69.577 28.4841C69.3013 29.0829 69.1619 29.4153 69.0682 29.6267C68.9915 29.7997 68.909 29.9976 68.7264 30.1365C68.6589 30.1878 68.573 30.2321 68.5467 30.2468C68.5042 30.2705 68.4498 30.3021 68.3719 30.3562C68.2514 30.44 68.0669 30.583 67.7859 30.8386L67.4705 31.1345C66.5759 31.9973 65.2911 32.8949 64.2508 33.5662C63.7271 33.9041 63.2573 34.1892 62.9188 34.3904C62.899 34.4021 62.879 34.4134 62.8602 34.4246L63.99 35.9314C64.009 35.9479 64.0338 35.9697 64.0633 35.9958C64.1333 36.058 64.2305 36.146 64.3387 36.2478C64.5497 36.4465 64.8239 36.7185 65.0184 36.9685L65.1317 37.1228C65.3867 37.4939 65.577 37.922 65.7186 38.2644C65.8095 38.4843 65.8625 38.6258 65.9266 38.7781C65.9551 38.8458 65.9779 38.8959 65.9959 38.9314C66.0061 38.9514 66.0123 38.9606 66.0135 38.9626L65.9998 38.947C66.3819 39.3857 66.5787 39.8216 66.6502 40.2517C66.7202 40.6734 66.6642 41.0546 66.5975 41.3669C66.5229 41.7156 66.4591 41.9053 66.4393 42.1189C66.4236 42.2881 66.4492 42.3807 66.5164 42.4666L66.7996 42.8542C67.0817 43.2647 67.3559 43.7291 67.5731 44.1169C67.7195 44.3784 67.843 44.6115 67.9305 44.7791C67.9742 44.8629 68.0091 44.9313 68.033 44.9783C68.0449 45.0016 68.055 45.0194 68.0613 45.032C68.0644 45.0381 68.0665 45.0433 68.0682 45.0466C68.0689 45.0482 68.0697 45.0496 68.0701 45.0505L68.0711 45.0515V45.0525C68.6153 46.1185 69.1089 46.9831 69.5311 47.7087C69.9496 48.4281 70.3109 49.0332 70.5701 49.5515C71.0645 50.5403 71.0025 50.3185 71.8582 51.823L71.909 51.8982C71.9671 51.9728 72.0494 52.0467 72.1609 52.1257C72.3196 52.2382 72.4809 52.3243 72.6922 52.4509C73.0509 52.6659 73.6229 53.0326 73.6229 53.7751C73.6229 54.0305 73.6792 54.1596 73.7313 54.4734C73.7751 54.7379 73.784 55.0376 73.6326 55.3757L73.5574 55.5232C73.278 56.012 72.7954 56.3176 72.4412 56.4929C72.2566 56.5842 72.0869 56.6495 71.9637 56.6921C71.9019 56.7135 71.8502 56.73 71.8133 56.741C71.8101 56.7419 71.8065 56.7421 71.8035 56.7429L69.8738 57.7087L65.4002 60.6912L65.3865 60.7009L65.3709 60.7087L61.8709 62.7087L61.8338 62.7302L61.7938 62.7449L56.3221 64.7341L56.3211 64.7351C56.3067 64.7421 56.2851 64.7518 56.2586 64.7644C56.2053 64.7897 56.1284 64.8258 56.033 64.8689C55.842 64.9553 55.574 65.0724 55.2664 65.1931C54.7383 65.4004 54.0574 65.6344 53.4363 65.7371L53.1746 65.7722C52.6726 65.8242 52.2938 65.8759 51.7664 65.8044L51.5301 65.7664C50.6134 65.5922 49.7688 64.8592 49.2 64.2634C48.9037 63.953 48.6578 63.6532 48.4861 63.4314C48.4001 63.3203 48.3319 63.2281 48.285 63.1628C48.2615 63.1302 48.243 63.1039 48.2303 63.0857C48.2272 63.0812 48.2239 63.0775 48.2215 63.074L44.2527 58.1121L41.7342 55.5935L38.7068 51.0525L38.6902 51.0261L38.6756 50.9988L38.1756 49.9988C38.0688 49.7852 37.9673 49.517 37.9002 49.3582C37.8655 49.2761 37.8378 49.2186 37.8162 49.1794C37.7429 49.146 37.6849 49.1358 37.6346 49.1365C37.5836 49.1372 37.5195 49.1494 37.4363 49.1824L37.3465 49.2224C37.3176 49.2371 37.2472 49.2957 37.16 49.3972C37.1467 49.4127 37.1346 49.4286 37.1229 49.4431V51.1902C37.1281 51.2056 37.1341 51.2229 37.1404 51.2419C37.1686 51.3272 37.2072 51.4493 37.2498 51.5984C37.3348 51.8958 37.4377 52.3084 37.5066 52.7625C37.5751 53.2135 37.6128 53.7245 37.5574 54.2136C37.5093 54.6387 37.3867 55.0822 37.1199 55.4529L36.9969 55.6072C36.7058 55.9345 36.3292 55.9758 36.0516 55.9587C35.916 55.9504 35.7831 55.9278 35.6756 55.908C35.5582 55.8863 35.4714 55.8685 35.3875 55.8582C35.2782 55.8448 35.2341 55.8526 35.2215 55.8562C35.2044 55.8798 35.143 55.9865 35.1219 56.3083C35.0345 57.639 35.1353 58.1985 34.785 59.7L34.6053 60.407C34.5724 60.5277 34.5514 60.6463 34.532 60.7742C34.514 60.8934 34.494 61.045 34.4656 61.1843C34.4031 61.491 34.2857 61.8193 33.9764 62.1287C33.6484 62.4563 33.1469 62.605 32.8172 62.6775C32.6373 62.717 32.4732 62.7405 32.3553 62.7546C32.2962 62.7617 32.2474 62.7663 32.2127 62.7693C32.1956 62.7708 32.1817 62.7725 32.1717 62.7732C32.1694 62.7733 32.1667 62.7731 32.1649 62.7732L27.6785 63.2722L27.6697 63.2732H27.6619L21.1717 63.7722V63.7732H21.1688L21.115 63.7781C21.0772 63.7818 21.0211 63.7878 20.949 63.7947C20.8046 63.8084 20.5945 63.8278 20.3318 63.8513C19.8064 63.8984 19.0692 63.9615 18.2225 64.0242C16.5318 64.1494 14.3915 64.2751 12.6229 64.2751C12.2081 64.275 11.7547 64.1148 11.4481 63.9861C11.2858 63.918 11.1449 63.8504 11.0447 63.7996C11.0281 63.7911 11.0123 63.7826 10.9979 63.7751H6.61798L6.62286 63.2751L6.617 63.7751H6.60821C6.60276 63.775 6.59422 63.7744 6.58477 63.7742C6.56571 63.7737 6.53851 63.7726 6.5047 63.7712C6.43642 63.7684 6.33933 63.764 6.22149 63.7546C5.98638 63.736 5.66244 63.7003 5.31134 63.6316C4.96225 63.5633 4.57246 63.4597 4.21075 63.3005C3.89745 63.1626 3.57932 62.971 3.33087 62.7019L3.22833 62.5818C2.96941 62.2489 2.79789 61.9806 2.68145 61.5691L2.63556 61.3835C2.57877 61.128 2.58216 60.9222 2.59552 60.7419C2.60244 60.6487 2.61041 60.575 2.61602 60.5046L2.62286 60.283C2.60707 59.3292 2.48558 58.1007 2.36505 57.0994C2.30509 56.6013 2.24595 56.1633 2.20196 55.8503C2.17999 55.694 2.16192 55.568 2.14923 55.4822C2.14294 55.4397 2.13793 55.4067 2.13458 55.3845C2.13291 55.3735 2.13152 55.3647 2.13067 55.3591C2.1303 55.3567 2.12991 55.3546 2.1297 55.3533L2.12872 55.3513L2.12286 55.3074L2.12384 55.2634V55.24C2.12417 55.2243 2.12519 55.2008 2.12579 55.1707C2.127 55.1101 2.12783 55.0219 2.1297 54.9119C2.13343 54.6916 2.13843 54.3833 2.14142 54.033C2.14591 53.5058 2.14722 52.8867 2.13751 52.3269L2.12384 51.7927C2.08657 50.7332 1.96277 49.3717 1.84747 48.2683C1.79004 47.7187 1.73489 47.2358 1.69415 46.8904C1.6738 46.7178 1.65698 46.5791 1.64532 46.4841C1.6395 46.4368 1.63473 46.3995 1.63165 46.3748C1.63017 46.3629 1.62949 46.3536 1.62872 46.3474C1.62837 46.3446 1.62795 46.3421 1.62774 46.3406V46.3386L1.62677 46.3376V46.3328C1.62598 46.3269 1.62434 46.3183 1.62286 46.3074C1.61977 46.2843 1.61496 46.2496 1.60919 46.2058C1.59763 46.1182 1.58146 45.9911 1.56134 45.8328C1.52104 45.5156 1.46636 45.072 1.40899 44.5671C1.32319 43.8119 1.23032 42.9115 1.17071 42.0876L1.12384 41.2976C1.08872 40.503 1.08883 39.4909 1.09747 38.6843C1.1018 38.2799 1.10866 37.924 1.11407 37.6697C1.11677 37.543 1.11914 37.4411 1.12091 37.3708C1.12148 37.3482 1.12147 37.3281 1.12188 37.3123L0.629697 34.3572L0.624814 34.325L0.623837 34.2917V34.2888C0.6238 34.2876 0.622967 34.2859 0.622861 34.2839C0.622703 34.279 0.623146 34.2711 0.622861 34.2615C0.622267 34.2421 0.620987 34.2134 0.619931 34.1765C0.617818 34.1027 0.615356 33.995 0.612118 33.8601C0.605633 33.5899 0.597762 33.2086 0.592587 32.7664C0.582258 31.8833 0.581859 30.7473 0.623837 29.7537L0.636532 29.2576C0.642129 28.7651 0.628249 28.2826 0.615048 27.7878C0.597587 27.1334 0.581925 26.4587 0.623837 25.7458L0.636532 25.4187C0.642423 25.1066 0.630217 24.833 0.617978 24.5457C0.60162 24.1616 0.586213 23.7556 0.624814 23.238L0.647275 22.8376C0.661062 22.4575 0.651197 22.1306 0.638486 21.7947C0.62148 21.3454 0.598686 20.871 0.623837 20.2546L0.641415 19.6404C0.654408 18.9984 0.653232 18.2914 0.647275 17.6902C0.643316 17.2908 0.637591 16.94 0.632626 16.6892C0.630147 16.564 0.627401 16.4632 0.62579 16.3943C0.625539 16.3835 0.626001 16.3732 0.62579 16.364C0.608513 16.3101 0.586996 16.2375 0.56915 16.1492C0.532255 15.9663 0.504978 15.7114 0.538876 15.4119C0.608779 14.795 0.931769 14.0468 1.82208 13.3757L1.8963 13.3054C1.97453 13.2167 2.06396 13.0709 2.15411 12.8582C2.26877 12.5874 2.36156 12.2631 2.43341 11.9412C2.50467 11.6217 2.55344 11.3175 2.5838 11.0925C2.59889 10.9806 2.6093 10.8887 2.61602 10.8259C2.61936 10.7948 2.62134 10.7705 2.62286 10.7546C2.62361 10.7468 2.62447 10.7408 2.62481 10.7371V10.7322L2.62677 10.7126L3.12677 6.71265L3.13067 6.68823L3.13556 6.66382V6.66284L3.13653 6.66089L3.1463 6.61694C3.15327 6.58686 3.16435 6.54293 3.17755 6.48706C3.20402 6.37502 3.24198 6.21393 3.28985 6.02026C3.38552 5.63328 3.51983 5.1109 3.67267 4.57202C3.82498 4.03499 3.99826 3.4717 4.17364 3.00757C4.26111 2.77613 4.35354 2.55919 4.44708 2.37866C4.53221 2.21441 4.64847 2.02065 4.80352 1.89136C4.95294 1.76686 5.16306 1.68091 5.34356 1.6189C5.54232 1.55063 5.78107 1.48666 6.03692 1.42651C6.55014 1.30588 7.17076 1.19358 7.76349 1.09839C8.35798 1.00292 8.93334 0.922935 9.35919 0.866943C9.57218 0.838939 9.74883 0.816613 9.87188 0.801514C9.93313 0.794 9.98151 0.788834 10.0145 0.784912C10.0308 0.782962 10.0439 0.781049 10.0525 0.780029C10.0566 0.779555 10.0601 0.7793 10.0623 0.779053H10.0643L10.0652 0.778076L10.0945 0.775146H10.1229ZM35.0057 10.4607C34.7485 10.4571 34.4729 10.4789 34.2479 10.5603L34.1551 10.5994C33.8305 10.7531 33.6252 11.0883 33.4969 11.3464C33.3543 11.6332 33.2391 11.9688 33.1502 12.2751C33.0604 12.5845 32.9918 12.8818 32.9461 13.1003C32.9232 13.21 32.9061 13.302 32.8943 13.366C32.8885 13.3974 32.8837 13.4227 32.8807 13.4402C32.8792 13.4489 32.8776 13.4568 32.8768 13.4617C32.8764 13.4635 32.876 13.4654 32.8758 13.4666V13.4695L32.8738 13.4802L32.8729 13.491V13.4929C32.8727 13.494 32.8721 13.496 32.8719 13.4978C32.8714 13.5016 32.8708 13.5074 32.8699 13.5144C32.8681 13.5294 32.8654 13.5519 32.8621 13.5798C32.8555 13.6364 32.8461 13.7184 32.8348 13.8181C32.812 14.0181 32.7811 14.2932 32.7508 14.5906C32.6911 15.175 32.6278 15.883 32.6277 16.2751V31.7751C32.6279 32.0546 32.8254 32.2027 32.9061 32.2507C32.9945 32.3032 33.0867 32.328 33.1463 32.3416C33.2741 32.3706 33.4297 32.3846 33.5809 32.3914C33.8927 32.4053 34.3021 32.396 34.7098 32.3787C35.1208 32.3612 35.547 32.3348 35.8973 32.3132C36.2595 32.291 36.5187 32.2751 36.6238 32.2751C36.8869 32.275 37.1409 32.1551 37.3299 32.0457C37.5362 31.9261 37.7496 31.7684 37.949 31.6042C38.3491 31.2749 38.7403 30.883 38.9891 30.6169L39.2274 30.3484C39.7928 29.6802 40.3981 28.7404 40.6092 27.8962L40.9383 26.5378C41.2252 25.301 41.4019 24.3394 41.619 22.8474L41.6229 22.8171L41.6238 22.7878V22.7722C41.6241 22.7625 41.6244 22.7478 41.6248 22.7292C41.6257 22.6913 41.6271 22.6347 41.6287 22.5632C41.632 22.4201 41.6364 22.2137 41.6414 21.9626C41.6514 21.4599 41.6635 20.7747 41.6717 20.0466C41.686 18.7844 41.6898 17.3596 41.6473 16.5417L41.6258 16.2302C41.5946 15.8828 41.519 15.5237 41.2586 15.3054C40.9737 15.0671 40.6227 15.1359 40.5477 15.1453C40.5038 15.1507 40.475 15.152 40.4578 15.1531C40.446 15.137 40.4283 15.1085 40.407 15.0623L40.3455 14.9001C39.9145 13.5407 39.2458 12.7214 38.2225 11.698C37.6308 11.1062 36.7862 10.7621 36.0535 10.5945C35.6817 10.5095 35.3193 10.4651 35.0057 10.4607Z" fill="#3AB7D0"/>
</svg>
