<svg width="74" height="71" viewBox="0 0 74 71" fill="none" xmlns="http://www.w3.org/2000/svg">
<path d="M35.5643 0C37.2618 0.0104065 38.5069 0.518903 39.6913 1.06445C40.954 1.64611 42.1198 2.25249 43.7743 2.47266L45.8026 2.74805C47.6734 3.0176 49.1876 3.30989 51.3583 3.99121L51.6093 4.07812C52.8305 4.54365 53.5274 5.44086 54.1366 6.27539C54.8018 7.18653 55.3601 8.01045 56.3641 8.52246L57.0927 8.88379C58.7706 9.69789 60.3051 10.3396 61.9374 11.5684L62.1483 11.7207C63.1992 12.4476 64.2075 12.6783 65.2694 13.0088C66.4055 13.3624 67.5442 13.8233 68.539 15.1709L68.8358 15.5547C69.5055 16.3823 70.0264 16.7556 70.5409 17.2188C71.1639 17.7797 71.6816 18.4035 72.204 19.833L72.2948 20.0928C72.7266 21.389 72.8445 22.6627 72.8983 23.9111C72.9565 25.2617 72.9406 26.5459 73.1317 27.8975L73.1933 28.4355C73.3021 29.6964 73.1881 30.9999 73.0399 32.2656C72.8895 33.5507 72.7054 34.7864 72.6513 35.9697L72.6366 36.4736C72.6155 38.2604 72.4882 39.4648 72.3173 40.9336L72.1337 42.5225C72.0642 43.1506 72.1188 44.2453 72.244 45.623C72.368 46.9866 72.5557 48.5773 72.7362 50.1787C72.9162 51.7751 73.0893 53.3817 73.1806 54.7598C73.2592 55.9481 73.282 57.0168 73.1786 57.7695L73.1259 58.0723C72.8637 59.2976 72.1053 60.24 71.3915 61.0791C70.6985 61.8936 70.051 62.6111 69.6757 63.4727L69.6034 63.6465C69.394 64.1929 69.0997 64.6132 68.619 64.7188C68.3947 64.7679 68.1884 64.7321 68.0263 64.6836C67.8686 64.6364 67.7142 64.5651 67.5966 64.5107C67.3215 64.3837 67.1773 64.3283 67.0497 64.3369C66.9842 64.3414 66.8457 64.3698 66.6415 64.626L66.5497 64.75C66.0167 65.5295 65.3459 65.74 64.785 65.707C64.5214 65.6915 64.2976 65.6245 64.1425 65.5625C64.1414 65.5621 64.1406 65.561 64.1395 65.5605C64.0501 65.6064 63.9287 65.6695 63.7763 65.7549C63.4787 65.9215 63.059 66.1703 62.5097 66.5264L61.9169 66.9189C60.9273 67.5879 60.1008 67.7735 59.2929 67.8984C58.5952 68.0063 57.9514 68.0671 57.1698 68.3379L56.8261 68.4678C55.8225 68.8766 55.0434 68.7317 54.3573 68.5811C53.7674 68.4515 53.2659 68.3264 52.6376 68.4297L52.3602 68.4883C50.607 68.9419 49.392 69.1207 47.9052 69.3047L46.2968 69.501C44.5364 69.7203 43.347 69.8364 41.8661 69.9238L40.2567 70.0039C38.3426 70.0866 37.0527 70.1001 35.453 70.0605L33.7157 70.0039C31.4916 69.9186 30.0941 69.8807 28.0722 69.624L27.163 69.499C25.1786 69.2103 24.0461 68.877 22.1366 68.4951C21.2629 68.3204 20.5519 68.4528 19.7421 68.5801C18.9872 68.6987 18.1614 68.808 17.1825 68.54L16.9843 68.4805C16.0626 68.1855 14.9328 67.8004 14.036 67.4893C13.5871 67.3335 13.1953 67.1952 12.9159 67.0967C12.7765 67.0475 12.6645 67.0086 12.5878 66.9814C12.574 66.9765 12.5612 66.9719 12.5497 66.9678H8.02138L7.91786 66.917L5.07997 65.5332C5.01978 65.5474 4.94726 65.5658 4.86513 65.582C4.62206 65.63 4.2844 65.6817 3.91786 65.6914C3.27578 65.7083 2.34093 65.5996 1.80751 64.875L1.70595 64.7217C1.22721 63.9092 0.992779 63.1388 0.801649 62.3896C0.632216 61.7255 0.5014 61.1036 0.273329 60.4346L0.169813 60.1445C0.0744357 59.892 0.0421819 59.5422 0.0330943 59.1846C0.0235697 58.8083 0.0387979 58.3546 0.0692271 57.8574C0.130181 56.862 0.254639 55.6505 0.382704 54.4512C0.511404 53.2459 0.643582 52.051 0.721571 51.0713C0.760518 50.5819 0.785274 50.1535 0.78993 49.8096C0.793562 49.5402 0.784427 49.3488 0.768446 49.2275L0.750868 49.1289C0.501748 48.1609 0.585777 47.5168 0.683485 46.918C0.764662 46.4205 0.849812 45.9745 0.781141 45.3359L0.741102 45.0498C0.494615 43.5621 0.376281 43.3359 0.277235 42.0977L0.235243 41.498C0.103759 39.3343 0.103734 38.1014 0.235243 35.9375L0.279188 35.3008C0.387723 33.8877 0.543593 32.9264 0.739149 31.4043L0.848524 30.4717C1.08488 28.2885 1.21014 26.0622 1.74891 23.8496L1.85731 23.4229C2.10254 22.4987 2.30032 22.0581 2.5663 21.6318C2.85249 21.1732 3.1521 20.8206 3.69032 19.7441C4.18178 18.7613 4.3616 18.5024 4.67274 18.2871C4.78054 18.2125 4.85295 18.1726 4.99696 18.0361C5.14848 17.8924 5.37806 17.6403 5.73915 17.165L5.98329 16.8516C6.52042 16.1794 6.85059 15.9003 7.2372 15.6611C7.63333 15.4162 8.00274 15.2582 8.81825 14.583L9.77724 13.7803C10.7456 12.9717 11.7536 12.1624 12.8944 11.5303L13.1122 11.4023C13.6085 11.0901 14.0368 10.6937 14.5253 10.2686C15.067 9.79718 15.6746 9.2996 16.4589 9.00098L16.7733 8.87305C18.3255 8.19932 19.622 7.02258 21.0302 5.83496C22.4997 4.59561 24.0875 3.35107 26.1181 2.97656L26.4091 2.91797C27.8553 2.60267 29.1318 1.96695 30.494 1.3457C31.9266 0.692403 33.441 0.0636495 35.2186 0.00488281L35.5643 0ZM40.039 17.4688C39.7379 17.4692 37.9525 17.9217 37.539 17.9688C36.6845 18.0685 35.1126 24.8716 34.539 25.4688C33.5391 28.9683 34.0397 28.9689 33.5399 31.9688C33.5397 34.0297 31.7959 39.8235 32.1366 42.0049C32.1366 47.5049 33.7648 53.8496 34.039 54.4688C34.7123 55.9891 35.6816 56.7145 36.539 57.4688C37.28 58.1206 37.8203 56.5051 38.6366 56.5049C39.2673 56.5049 39.6365 56.505 40.1688 55.6885C40.6063 55.2168 41.9439 56.5626 42.539 55.9688C43.5389 54.9688 43.5392 56.4681 45.039 53.9688C45.5388 53.4689 45.36 51.1803 45.539 50.4688C46.0912 48.2772 45.3766 43.6382 45.6366 41.0049C45.87 38.641 45.039 35.4656 45.039 32.9688C45.039 28.0031 44.3862 30.7552 43.539 27.4688C43.0029 25.3891 42.1368 25.9683 42.1366 24.4688C41.7338 21.9688 41.417 17.4688 40.039 17.4688Z" fill="#3AB7D0"/>
</svg>
