<svg width="74" height="71" viewBox="0 0 74 71" fill="none" xmlns="http://www.w3.org/2000/svg">
<path d="M35.5341 0C37.2316 0.0104065 38.4767 0.518903 39.661 1.06445C40.9238 1.64611 42.0895 2.25249 43.744 2.47266L45.7724 2.74805C47.6431 3.0176 49.1573 3.30989 51.328 3.99121L51.579 4.07812C52.8002 4.54365 53.4971 5.44086 54.1063 6.27539C54.7715 7.18653 55.3298 8.01045 56.3339 8.52246L57.0624 8.88379C58.7403 9.69789 60.2748 10.3396 61.9071 11.5684L62.1181 11.7207C63.1689 12.4476 64.1773 12.6783 65.2392 13.0088C66.3752 13.3624 67.5139 13.8233 68.5087 15.1709L68.8056 15.5547C69.4752 16.3823 69.9961 16.7556 70.5106 17.2188C71.1337 17.7797 71.6513 18.4035 72.1737 19.833L72.2645 20.0928C72.6963 21.389 72.8143 22.6627 72.8681 23.9111C72.9262 25.2617 72.9104 26.5459 73.1015 27.8975L73.163 28.4355C73.2719 29.6964 73.1578 30.9999 73.0097 32.2656C72.8592 33.5507 72.6751 34.7864 72.621 35.9697L72.6063 36.4736C72.5852 38.2604 72.4579 39.4648 72.287 40.9336L72.1034 42.5225C72.0339 43.1506 72.0885 44.2453 72.2138 45.623C72.3378 46.9866 72.5254 48.5773 72.7059 50.1787C72.8859 51.7751 73.059 53.3817 73.1503 54.7598C73.229 55.9481 73.2517 57.0168 73.1483 57.7695L73.0956 58.0723C72.8334 59.2976 72.0751 60.24 71.3612 61.0791C70.6682 61.8936 70.0208 62.6111 69.6454 63.4727L69.5731 63.6465C69.3637 64.1929 69.0695 64.6132 68.5888 64.7188C68.3644 64.7679 68.1581 64.7321 67.996 64.6836C67.8383 64.6364 67.6839 64.5651 67.5663 64.5107C67.2912 64.3837 67.1471 64.3283 67.0194 64.3369C66.9539 64.3414 66.8154 64.3698 66.6112 64.626L66.5194 64.75C65.9864 65.5295 65.3157 65.74 64.7548 65.707C64.4912 65.6915 64.2674 65.6245 64.1122 65.5625C64.1112 65.5621 64.1103 65.561 64.1093 65.5605C64.0198 65.6064 63.8985 65.6695 63.746 65.7549C63.4485 65.9215 63.0288 66.1703 62.4794 66.5264L61.8866 66.9189C60.897 67.5879 60.0705 67.7735 59.2626 67.8984C58.5649 68.0063 57.9211 68.0671 57.1395 68.3379L56.7958 68.4678C55.7923 68.8766 55.0131 68.7317 54.327 68.5811C53.7371 68.4515 53.2356 68.3264 52.6073 68.4297L52.33 68.4883C50.5767 68.9419 49.3618 69.1207 47.8749 69.3047L46.2665 69.501C44.5062 69.7203 43.3168 69.8364 41.8358 69.9238L40.2265 70.0039C38.3124 70.0866 37.0224 70.1001 35.4227 70.0605L33.6854 70.0039C31.4613 69.9186 30.0638 69.8807 28.0419 69.624L27.1327 69.499C25.1483 69.2103 24.0158 68.877 22.1063 68.4951C21.2326 68.3204 20.5217 68.4528 19.7118 68.5801C18.957 68.6987 18.1311 68.808 17.1522 68.54L16.954 68.4805C16.0324 68.1855 14.9026 67.8004 14.0058 67.4893C13.5569 67.3335 13.165 67.1952 12.8856 67.0967C12.7462 67.0475 12.6342 67.0086 12.5575 66.9814C12.5437 66.9765 12.5309 66.9719 12.5194 66.9678H7.9911L7.88759 66.917L5.0497 65.5332C4.98951 65.5474 4.91699 65.5658 4.83485 65.582C4.59179 65.63 4.25413 65.6817 3.88759 65.6914C3.24551 65.7083 2.31066 65.5996 1.77723 64.875L1.67567 64.7217C1.19694 63.9092 0.962505 63.1388 0.771376 62.3896C0.601943 61.7255 0.471127 61.1036 0.243055 60.4346L0.13954 60.1445C0.0441623 59.892 0.0119084 59.5422 0.00282083 59.1846C-0.00670376 58.8083 0.0085245 58.3546 0.0389536 57.8574C0.0999075 56.862 0.224366 55.6505 0.35243 54.4512C0.481131 53.2459 0.613308 52.051 0.691297 51.0713C0.730244 50.5819 0.755001 50.1535 0.759657 49.8096C0.763288 49.5402 0.754154 49.3488 0.738172 49.2275L0.720594 49.1289C0.471474 48.1609 0.555503 47.5168 0.653211 46.918C0.734388 46.4205 0.819538 45.9745 0.750868 45.3359L0.710829 45.0498C0.464342 43.5621 0.346007 43.3359 0.246961 42.0977L0.204969 41.498C0.0734852 39.3343 0.0734602 38.1014 0.204969 35.9375L0.248915 35.3008C0.357449 33.8877 0.51332 32.9264 0.708876 31.4043L0.818251 30.4717C1.05461 28.2885 1.17986 26.0622 1.71864 23.8496L1.82704 23.4229C2.07226 22.4987 2.27005 22.0581 2.53602 21.6318C2.82222 21.1732 3.12183 20.8206 3.66005 19.7441C4.15151 18.7613 4.33133 18.5024 4.64247 18.2871C4.75027 18.2125 4.82268 18.1726 4.96669 18.0361C5.11821 17.8924 5.34779 17.6403 5.70888 17.165L5.95302 16.8516C6.49015 16.1794 6.82031 15.9003 7.20692 15.6611C7.60306 15.4162 7.97247 15.2582 8.78798 14.583L9.74696 13.7803C10.7154 12.9717 11.7234 12.1624 12.8641 11.5303L13.0819 11.4023C13.5782 11.0901 14.0065 10.6937 14.495 10.2686C15.0367 9.79718 15.6444 9.2996 16.4286 9.00098L16.7431 8.87305C18.2952 8.19932 19.5917 7.02258 20.9999 5.83496C22.4694 4.59561 24.0572 3.35107 26.0878 2.97656L26.3788 2.91797C27.8251 2.60267 29.1015 1.96695 30.4638 1.3457C31.8963 0.692403 33.4107 0.0636495 35.1884 0.00488281L35.5341 0ZM40.0087 17.4688C39.7076 17.4692 37.9222 17.9217 37.5087 17.9688C36.6542 18.0685 35.0823 24.8716 34.5087 25.4688C33.5089 28.9683 34.0095 28.9689 33.5097 31.9688C33.5094 34.0297 31.7656 39.8235 32.1063 42.0049C32.1063 47.5049 33.7345 53.8496 34.0087 54.4688C34.682 55.9891 35.6513 56.7145 36.5087 57.4688C37.2497 58.1206 37.79 56.5051 38.6063 56.5049C39.237 56.5049 39.6062 56.505 40.1386 55.6885C40.576 55.2168 41.9136 56.5626 42.5087 55.9688C43.5086 54.9688 43.509 56.4681 45.0087 53.9688C45.5086 53.4689 45.3297 51.1803 45.5087 50.4688C46.061 48.2772 45.3463 43.6382 45.6063 41.0049C45.8397 38.641 45.0088 35.4656 45.0087 32.9688C45.0087 28.0031 44.3559 30.7552 43.5087 27.4688C42.9726 25.3891 42.1065 25.9683 42.1063 24.4688C41.7035 21.9688 41.3867 17.4688 40.0087 17.4688Z" fill="#3AB7D0"/>
</svg>
