<svg width="75" height="71" viewBox="0 0 75 71" fill="none" xmlns="http://www.w3.org/2000/svg">
<path d="M36.4149 0C38.1124 0.0104065 39.3575 0.518903 40.5419 1.06445C41.8046 1.64611 42.9703 2.25249 44.6249 2.47266L46.6532 2.74805C48.524 3.0176 50.0382 3.30989 52.2089 3.99121L52.4599 4.07812C53.6811 4.54365 54.3779 5.44086 54.9872 6.27539C55.6524 7.18653 56.2107 8.01045 57.2147 8.52246L57.9432 8.88379C59.6211 9.69789 61.1557 10.3396 62.788 11.5684L62.9989 11.7207C64.0497 12.4476 65.0581 12.6783 66.12 13.0088C67.2561 13.3624 68.3948 13.8233 69.3895 15.1709L69.6864 15.5547C70.3561 16.3823 70.877 16.7556 71.3915 17.2188C72.0145 17.7797 72.5322 18.4035 73.0546 19.833L73.1454 20.0928C73.5771 21.389 73.6951 22.6627 73.7489 23.9111C73.8071 25.2617 73.7912 26.5459 73.9823 27.8975L74.0438 28.4355C74.1527 29.6964 74.0386 30.9999 73.8905 32.2656C73.7401 33.5507 73.556 34.7864 73.5018 35.9697L73.4872 36.4736C73.466 38.2604 73.3388 39.4648 73.1679 40.9336L72.9843 42.5225C72.9148 43.1506 72.9693 44.2453 73.0946 45.623C73.2186 46.9866 73.4062 48.5773 73.5868 50.1787C73.7668 51.7751 73.9399 53.3817 74.0311 54.7598C74.1098 55.9481 74.1326 57.0168 74.0292 57.7695L73.9765 58.0723C73.7143 59.2976 72.9559 60.24 72.2421 61.0791C71.5491 61.8936 70.9016 62.6111 70.5263 63.4727L70.454 63.6465C70.2446 64.1929 69.9503 64.6132 69.4696 64.7188C69.2453 64.7679 69.0389 64.7321 68.8768 64.6836C68.7192 64.6364 68.5648 64.5651 68.4472 64.5107C68.1721 64.3837 68.0279 64.3283 67.9003 64.3369C67.8348 64.3414 67.6963 64.3698 67.4921 64.626L67.4003 64.75C66.8672 65.5295 66.1965 65.74 65.6356 65.707C65.372 65.6915 65.1482 65.6245 64.9931 65.5625C64.992 65.5621 64.9911 65.561 64.9901 65.5605C64.9006 65.6064 64.7793 65.6695 64.6268 65.7549C64.3293 65.9215 63.9096 66.1703 63.3602 66.5264L62.7675 66.9189C61.7779 67.5879 60.9514 67.7735 60.1434 67.8984C59.4458 68.0063 58.802 68.0671 58.0204 68.3379L57.6766 68.4678C56.6731 68.8766 55.894 68.7317 55.2079 68.5811C54.618 68.4515 54.1165 68.3264 53.4882 68.4297L53.2108 68.4883C51.4576 68.9419 50.2426 69.1207 48.7557 69.3047L47.1474 69.501C45.387 69.7203 44.1976 69.8364 42.7167 69.9238L41.1073 70.0039C39.1932 70.0866 37.9033 70.1001 36.3036 70.0605L34.5663 70.0039C32.3421 69.9186 30.9447 69.8807 28.9227 69.624L28.0136 69.499C26.0292 69.2103 24.8967 68.877 22.9872 68.4951C22.1134 68.3204 21.4025 68.4528 20.5927 68.5801C19.8378 68.6987 19.012 68.808 18.0331 68.54L17.8349 68.4805C16.9132 68.1855 15.7834 67.8004 14.8866 67.4893C14.4377 67.3335 14.0459 67.1952 13.7665 67.0967C13.6271 67.0475 13.5151 67.0086 13.4384 66.9814C13.4246 66.9765 13.4118 66.9719 13.4003 66.9678H8.87196L8.76845 66.917L5.93056 65.5332C5.87037 65.5474 5.79785 65.5658 5.71571 65.582C5.47265 65.63 5.13499 65.6817 4.76845 65.6914C4.12637 65.7083 3.19152 65.5996 2.65809 64.875L2.55653 64.7217C2.0778 63.9092 1.84336 63.1388 1.65223 62.3896C1.4828 61.7255 1.35199 61.1036 1.12391 60.4346L1.0204 60.1445C0.925022 59.892 0.892768 59.5422 0.88368 59.1846C0.874156 58.8083 0.889384 58.3546 0.919813 57.8574C0.980767 56.862 1.10523 55.6505 1.23329 54.4512C1.36199 53.2459 1.49417 52.051 1.57216 51.0713C1.6111 50.5819 1.63586 50.1535 1.64052 49.8096C1.64415 49.5402 1.63501 49.3488 1.61903 49.2275L1.60145 49.1289C1.35233 48.1609 1.43636 47.5168 1.53407 46.918C1.61525 46.4205 1.7004 45.9745 1.63173 45.3359L1.59169 45.0498C1.3452 43.5621 1.22687 43.3359 1.12782 42.0977L1.08583 41.498C0.954345 39.3343 0.95432 38.1014 1.08583 35.9375L1.12977 35.3008C1.23831 33.8877 1.39418 32.9264 1.58973 31.4043L1.69911 30.4717C1.93547 28.2885 2.06072 26.0622 2.5995 23.8496L2.7079 23.4229C2.95312 22.4987 3.15091 22.0581 3.41688 21.6318C3.70307 21.1732 4.00269 20.8206 4.54091 19.7441C5.03237 18.7613 5.21218 18.5024 5.52333 18.2871C5.63113 18.2125 5.70354 18.1726 5.84755 18.0361C5.99907 17.8924 6.22865 17.6403 6.58974 17.165L6.83388 16.8516C7.37101 16.1794 7.70117 15.9003 8.08778 15.6611C8.48392 15.4162 8.85333 15.2582 9.66884 14.583L10.6278 13.7803C11.5962 12.9717 12.6042 12.1624 13.745 11.5303L13.9628 11.4023C14.459 11.0901 14.8873 10.6937 15.3759 10.2686C15.9176 9.79718 16.5252 9.2996 17.3095 9.00098L17.6239 8.87305C19.176 8.19932 20.4726 7.02258 21.8808 5.83496C23.3503 4.59561 24.9381 3.35107 26.9686 2.97656L27.2597 2.91797C28.7059 2.60267 29.9823 1.96695 31.3446 1.3457C32.7772 0.692403 34.2916 0.0636495 36.0692 0.00488281L36.4149 0ZM40.8895 17.4688C40.5885 17.4692 38.8031 17.9217 38.3895 17.9688C37.5351 18.0685 35.9632 24.8716 35.3895 25.4688C34.3897 28.9683 34.8903 28.9689 34.3905 31.9688C34.3903 34.0297 32.6465 39.8235 32.9872 42.0049C32.9872 47.5049 34.6153 53.8496 34.8895 54.4688C35.5629 55.9891 36.5322 56.7145 37.3895 57.4688C38.1306 58.1206 38.6709 56.5051 39.4872 56.5049C40.1179 56.5049 40.4871 56.505 41.0194 55.6885C41.4569 55.2168 42.7944 56.5626 43.3895 55.9688C44.3895 54.9688 44.3898 56.4681 45.8895 53.9688C46.3894 53.4689 46.2106 51.1803 46.3895 50.4688C46.9418 48.2772 46.2272 43.6382 46.4872 41.0049C46.7206 38.641 45.8896 35.4656 45.8895 32.9688C45.8895 28.0031 45.2368 30.7552 44.3895 27.4688C43.8534 25.3891 42.9873 25.9683 42.9872 24.4688C42.5844 21.9688 42.2676 17.4688 40.8895 17.4688Z" fill="#3AB7D0"/>
</svg>
