<svg width="63" height="63" viewBox="0 0 63 63" fill="none" xmlns="http://www.w3.org/2000/svg">
<path d="M5.86479 21.9999C4.02269 21.9999 1.22957 20.4999 1.22957 20.4999C1.22957 20.4999 1.50005 13.9999 0.864791 11.9999C0.259344 10.0938 0 9.75731 0 7.99995C0 5.85206 1.06047 3.63501 1.36472 2.99988C1.66896 2.36476 1.98606 1.9881 2.86475 1.49995C3.64405 1.06702 5.86475 0.999985 5.86475 0.999985C9.29466 0.999803 12.3647 0 12.3647 0H34.5819H56.0819C56.0819 0 61.0601 1.66611 61.5 2.00004C61.9399 2.33396 62.155 2.56874 62.5 3C62.845 3.43126 61.5 11 61.5 11C61.5 11 61.3648 17.4999 60.8647 18C60.4742 18.3905 60.296 18.655 59.8647 19C59.2398 19.4999 51.8647 19 51.8647 19C51.8647 19 48.1744 21.1938 47 23.5C46.07 25.3263 46.0564 25.9915 46.0029 28.605L46 28.7482C45.9196 32.6575 45.5732 34.8388 45.5 38.7482C45.4562 41.0909 45.5972 42.4071 45.5 44.7482C45.4025 47.0975 45.065 48.3978 45 50.7482C44.9676 51.9193 45 52.5766 45 53.7482C45 56.8724 47.8648 58.5 47.3647 60.5C47.0232 61.866 46.2225 60.8014 45 61.5C44.7296 61.6545 43.1221 61.8047 41.3647 62C39.6074 62.1953 38.1221 61.8047 36.3647 62C34.6074 62.1953 27.3647 62 27.3647 62L21.5 62C20.2651 62 19.2886 62.2607 18.5 60.9999C18.0731 60.3174 17.5 58.5 17.5 58.5C17.5 58.5 16.7413 55.6291 16.5 53.7482C16.115 50.7469 16.5 46 16.5 46V36C16.5 32.0947 16.9024 30.5188 17 27C17.0975 23.4866 17.9487 24.3302 15.8648 21.4999C12.6053 17.073 7.86479 21.9999 5.86479 21.9999Z" fill="#3AB7D0"/>
</svg>
