<svg width="54" height="62" viewBox="0 0 54 62" fill="none" xmlns="http://www.w3.org/2000/svg">
<path d="M9.43654 0.0899943C4.50015 0.177626 11.1696 2.31481 6.62183 2.80642C6.00164 2.87346 1.56434 1.13033 0.846504 1.56497C-0.378052 2.30642 0.184254 7.01711 0.121845 7.80642C-0.38351 14.1979 0.84649 17.0051 0.84649 17.0051C0.84649 17.0051 0.677814 27.8214 0.84649 29.2964C1.00079 30.6457 1.18613 31.3899 1.35179 32.7379C1.65724 35.2236 1.85708 39.1294 1.85708 39.1294C1.85708 39.1294 2.2638 42.7192 2.36238 45.0292C2.46062 47.3312 2.36238 48.625 2.36238 50.929C2.36238 52.657 2.22138 53.6313 2.36238 55.3538C2.47316 56.7072 2.40328 57.5151 2.86768 58.7954C3.16139 59.6051 3.17228 60.2468 3.87827 60.762C4.37748 61.1263 4.78783 61.1101 5.39416 61.2536C6.40467 61.4928 9.67892 60.8468 12.4682 60.762C13.2572 60.738 14.7111 60.738 15.5 60.762C18.2893 60.8468 18.7761 61.3828 21.5637 61.2536C22.9574 61.189 23.7084 60.8503 25.1007 60.762C26.2822 60.687 28.1325 60.762 28.1325 60.762C28.1325 60.762 31.4193 61.0627 31.6696 60.762C32.0622 60.2901 33.3232 60.8369 33.6219 60.3064C34.2228 59.2393 34.8818 59.282 35.6219 58.3064C37.5181 55.807 34.1007 50.7479 34.6061 49.273C34.9181 48.3623 35.6166 47.6749 36.1219 47.3064C36.6273 46.9379 35.8374 42.3966 37.6219 42.3064C39.1985 42.2267 40.0868 42.3649 41.6643 42.3064C43.8423 42.2257 43.3903 44.9837 45.6219 43.8064C47.6722 42.7248 47.6955 43.0849 48.1219 40.8064C48.8284 37.0319 49.8537 33.1056 49.355 29.2964C49.2033 28.1378 48.1104 28.5534 47.6219 27.8064C46.6603 26.3355 49.1378 23.3064 47.6219 23.3064C44.5901 23.3065 42.6589 24.298 39.1219 23.8064C38.5694 23.7296 36.7983 27.07 35.1219 26.3064C33.7687 25.6899 33.6219 22.8064 33.6219 22.8064C33.6219 22.8064 31.6504 20.2944 31.6219 18.3064C31.5853 15.7408 36.861 15.8306 37.463 15.298C37.659 15.1248 40.5198 14.852 41.5053 14.8064C43.0945 14.7327 42.4466 14.9369 44.0319 14.8064C47.3746 14.5313 51.106 14.8064 52.6219 14.8064C53.5044 14.8064 53.2243 11.9473 53.3974 11.1053C53.9026 8.64702 53.3974 4.22221 53.3974 4.22221C53.3974 4.22221 47.3338 3.03985 46.8285 1.56494C46.6035 0.908201 45.9826 0.81448 45.3126 0.581645C44.3834 0.258759 41.4275 0.0995748 40.4409 0.0899943C36.4895 0.0516248 32.6802 0.0899943 32.6802 0.0899943H20.0478C15.9038 0.0899943 13.5798 0.0164422 9.43654 0.0899943Z" fill="#3AB7D0"/>
</svg>
